<svg width="152" height="151" viewBox="0 0 152 151" fill="none" xmlns="http://www.w3.org/2000/svg">
<rect width="152" height="151" rx="9" fill="#FF5340"/>
<path d="M22.1457 128.5C29.2592 133.167 36.3726 133.167 43.4861 128.5C50.5996 123.833 57.713 123.833 64.8265 128.5C71.94 133.167 79.0534 133.167 86.1669 128.5C93.2803 123.833 100.394 123.833 107.507 128.5C114.621 133.167 121.734 133.167 128.848 128.5" stroke="#FFECEA" stroke-width="12" stroke-linecap="round" stroke-linejoin="round"/>
<path d="M62.0101 19V50.4756C66.1379 46.0876 72.2502 43 78.7709 43C92.1794 43.0003 102.129 56.0122 102.786 72.9307L102.81 73.7393V73.7402C103.177 92.0884 92.1211 106.2 77.0902 106.2C71.0807 106.2 65.2106 103.675 60.8802 99.4121L57.5277 104.547L57.2318 105H51.3705V32.4004H43.3304V26.4893L43.848 26.2041L56.6879 19.124L56.9135 19H62.0101ZM74.8109 52.4404C70.243 52.4404 65.3442 55.1253 62.0101 59.2324V80C62.0101 85.6675 63.4137 90.0625 65.8881 93.0234C68.3423 95.9603 71.9444 97.5996 76.6107 97.5996C81.4227 97.5995 85.2869 95.4083 87.8842 91.5195C90.5024 87.5991 91.8623 81.8977 91.4525 74.9072V74.9082C90.9821 68.0288 89.0171 62.3799 86.0726 58.4775C83.1407 54.592 79.2488 52.4406 74.8109 52.4404Z" fill="#FFECEA" stroke="#FFECEA" stroke-width="2"/>
</svg>
