<svg width="240" height="240" viewBox="0 0 240 240" fill="none" xmlns="http://www.w3.org/2000/svg">
<mask id="path-1-inside-1_44_5" fill="white">
<rect width="240" height="240" rx="3"/>
</mask>
<rect width="240" height="240" rx="3" stroke="black" stroke-width="22" mask="url(#path-1-inside-1_44_5)"/>
<mask id="path-2-outside-2_44_5" maskUnits="userSpaceOnUse" x="82" y="111" width="70" height="102" fill="black">
<rect fill="white" x="82" y="111" width="70" height="102"/>
<path d="M121.359 211.4C114.359 211.4 107.499 208.32 102.599 203.14H102.039L97.5594 210H92.5194V125.3H83.1394V120.26L98.1194 112H102.599V150.78C107.079 144.62 114.919 140 123.319 140C138.299 140 149.779 154.84 150.199 174.72C150.619 195.72 138.019 211.4 121.359 211.4ZM120.799 203.7C132.839 203.7 140.259 192.64 139.279 175.98C138.159 159.6 129.899 148.68 118.699 148.68C112.819 148.68 106.659 152.18 102.599 157.36V182C102.599 195.58 109.319 203.7 120.799 203.7Z"/>
</mask>
<path d="M121.359 211.4C114.359 211.4 107.499 208.32 102.599 203.14H102.039L97.5594 210H92.5194V125.3H83.1394V120.26L98.1194 112H102.599V150.78C107.079 144.62 114.919 140 123.319 140C138.299 140 149.779 154.84 150.199 174.72C150.619 195.72 138.019 211.4 121.359 211.4ZM120.799 203.7C132.839 203.7 140.259 192.64 139.279 175.98C138.159 159.6 129.899 148.68 118.699 148.68C112.819 148.68 106.659 152.18 102.599 157.36V182C102.599 195.58 109.319 203.7 120.799 203.7Z" fill="black"/>
<path d="M102.599 203.14L103.326 202.453L103.03 202.14H102.599V203.14ZM102.039 203.14V202.14H101.498L101.202 202.593L102.039 203.14ZM97.5594 210V211H98.1007L98.3966 210.547L97.5594 210ZM92.5194 210H91.5194V211H92.5194V210ZM92.5194 125.3H93.5194V124.3H92.5194V125.3ZM83.1394 125.3H82.1394V126.3H83.1394V125.3ZM83.1394 120.26L82.6565 119.384L82.1394 119.669V120.26H83.1394ZM98.1194 112V111H97.8619L97.6365 111.124L98.1194 112ZM102.599 112H103.599V111H102.599V112ZM102.599 150.78H101.599V153.855L103.408 151.368L102.599 150.78ZM150.199 174.72L151.199 174.7L151.199 174.699L150.199 174.72ZM139.279 175.98L140.278 175.921L140.277 175.912L139.279 175.98ZM102.599 157.36L101.812 156.743L101.599 157.015V157.36H102.599ZM121.359 211.4V210.4C114.649 210.4 108.047 207.444 103.326 202.453L102.599 203.14L101.873 203.827C106.952 209.196 114.07 212.4 121.359 212.4V211.4ZM102.599 203.14V202.14H102.039V203.14V204.14H102.599V203.14ZM102.039 203.14L101.202 202.593L96.7221 209.453L97.5594 210L98.3966 210.547L102.877 203.687L102.039 203.14ZM97.5594 210V209H92.5194V210V211H97.5594V210ZM92.5194 210H93.5194V125.3H92.5194H91.5194V210H92.5194ZM92.5194 125.3V124.3H83.1394V125.3V126.3H92.5194V125.3ZM83.1394 125.3H84.1394V120.26H83.1394H82.1394V125.3H83.1394ZM83.1394 120.26L83.6222 121.136L98.6022 112.876L98.1194 112L97.6365 111.124L82.6565 119.384L83.1394 120.26ZM98.1194 112V113H102.599V112V111H98.1194V112ZM102.599 112H101.599V150.78H102.599H103.599V112H102.599ZM102.599 150.78L103.408 151.368C107.721 145.438 115.274 141 123.319 141V140V139C114.565 139 106.438 143.802 101.791 150.192L102.599 150.78ZM123.319 140V141C137.518 141 148.785 155.132 149.2 174.741L150.199 174.72L151.199 174.699C150.773 154.548 139.081 139 123.319 139V140ZM150.199 174.72L149.2 174.74C149.613 195.392 137.268 210.4 121.359 210.4V211.4V212.4C138.77 212.4 151.626 196.048 151.199 174.7L150.199 174.72ZM120.799 203.7V204.7C127.167 204.7 132.338 201.757 135.753 196.643C139.147 191.562 140.776 184.397 140.278 175.921L139.279 175.98L138.281 176.039C138.763 184.223 137.172 190.918 134.09 195.532C131.031 200.113 126.472 202.7 120.799 202.7V203.7ZM139.279 175.98L140.277 175.912C139.707 167.581 137.318 160.555 133.568 155.585C129.805 150.598 124.661 147.68 118.699 147.68V148.68V149.68C123.937 149.68 128.524 152.222 131.971 156.79C135.431 161.375 137.731 167.999 138.282 176.048L139.279 175.98ZM118.699 148.68V147.68C112.445 147.68 106.016 151.38 101.812 156.743L102.599 157.36L103.386 157.977C107.303 152.98 113.194 149.68 118.699 149.68V148.68ZM102.599 157.36H101.599V182H102.599H103.599V157.36H102.599ZM102.599 182H101.599C101.599 188.942 103.316 194.622 106.627 198.584C109.958 202.569 114.806 204.7 120.799 204.7V203.7V202.7C115.313 202.7 111.061 200.771 108.162 197.301C105.242 193.808 103.599 188.638 103.599 182H102.599Z" fill="black" mask="url(#path-2-outside-2_44_5)"/>
</svg>
