<svg width="320" height="160" viewBox="39 162 160 80" fill="none" xmlns="http://www.w3.org/2000/svg">
  <!-- belari, in ink -->
  <path fill="#15120D" d="M59.4063 210.6C56.4063 210.6 53.4663 209.28 51.3663 207.06H51.1263L49.2063 210H47.0463V173.7H43.0263V171.54L49.4463 168H51.3663V184.62C53.2863 181.98 56.6463 180 60.2463 180C66.6663 180 71.5863 186.36 71.7663 194.88C71.9463 203.88 66.5463 210.6 59.4063 210.6ZM59.1663 207.3C64.3263 207.3 67.5063 202.56 67.0863 195.42C66.6063 188.4 63.0663 183.72 58.2663 183.72C55.7463 183.72 53.1063 185.22 51.3663 187.44V198C51.3663 203.82 54.2463 207.3 59.1663 207.3ZM91.9525 210.6C82.1125 210.6 77.5525 202.26 77.6125 194.76C77.6725 186.24 83.3725 179.94 90.8725 180C97.2325 180.06 101.373 184.8 101.913 191.34L82.2325 195.96C82.2325 196.14 82.2325 196.38 82.2925 196.62C83.3125 203.46 87.0325 207.06 93.2725 207.06C95.8525 207.06 98.3125 206.04 100.353 204.12L102.333 205.98C99.1525 209.16 95.9725 210.6 91.9525 210.6ZM82.1125 192.78L96.8725 189.12C96.0325 185.58 93.6925 183.48 90.2725 183.48C85.7725 183.48 82.5325 187.2 82.1125 192.78ZM108.119 207.54C111.299 207.24 112.139 206.52 112.139 203.52V173.7H108.119V171.54L114.539 168H116.459V203.52C116.459 206.52 116.999 207.24 120.479 207.54V210H108.119V207.54ZM133.657 210.6C128.497 210.6 124.897 207.24 124.897 202.8C124.897 196.62 129.997 192.9 142.717 192.54V189.66C142.717 185.58 140.737 183.48 136.777 183.48C135.337 183.48 134.077 183.84 133.117 184.56C132.277 185.16 131.677 186.06 131.317 187.14C130.957 188.4 130.177 189.06 129.037 189.06C127.657 189.06 126.697 187.92 126.817 186.42C127.057 182.76 131.437 180 136.717 180C142.597 180 147.037 183.24 147.037 187.62V204.54C147.037 207.3 149.557 207.96 151.417 206.4L153.157 207.96C151.597 209.88 150.097 210.54 148.297 210.54C145.837 210.54 144.157 209.28 143.317 206.88H143.017C140.617 209.22 137.137 210.6 133.657 210.6ZM134.977 207.24C137.617 207.24 140.377 206.22 142.717 204.24V195.3C140.257 195.42 137.917 195.78 136.057 196.2C131.737 197.1 129.457 199.32 129.457 202.5C129.457 205.32 131.677 207.24 134.977 207.24ZM156.281 207.54C159.461 207.24 160.301 206.52 160.301 203.52V186.3H156.281V184.14L162.701 180.6H164.621V185.7H164.981C166.961 181.74 170.321 180 173.201 180C175.961 180 178.241 181.5 178.241 183.6C178.241 184.8 177.341 185.7 176.081 185.7C175.421 185.7 175.061 185.58 174.401 185.28C173.741 184.92 172.541 184.38 171.281 184.38C167.441 184.38 164.621 187.98 164.621 192.54V203.52C164.621 206.52 165.161 207.24 168.041 207.54V210H156.281V207.54ZM182.682 207.54C185.862 207.24 186.702 206.52 186.702 203.52V186.3H182.682V184.14L189.102 180.6H191.022V203.52C191.022 206.52 191.562 207.24 194.442 207.54V210H182.682V207.54ZM188.982 175.5C186.942 175.5 185.322 173.88 185.322 171.78C185.322 169.8 186.942 168.18 188.982 168.18C190.962 168.18 192.582 169.8 192.582 171.78C192.582 173.88 190.962 175.5 188.982 175.5Z"/>
  <!-- spellcheck squiggle, made intentional, in coral -->
  <path stroke="#FF5340" stroke-width="6" stroke-linecap="round" stroke-linejoin="round" fill="none"
    d="M44 228 q5.75 -13 11.5 0 t11.5 0 t11.5 0 t11.5 0 t11.5 0 t11.5 0 t11.5 0 t11.5 0 t11.5 0 t11.5 0 t11.5 0 t11.5 0 t11.5 0"/>
</svg>
