<svg width="240" height="240" viewBox="0 0 240 240" fill="none" xmlns="http://www.w3.org/2000/svg">
<mask id="path-1-inside-1_44_2" fill="white">
<rect width="240" height="240" rx="3"/>
</mask>
<rect width="240" height="240" rx="3" stroke="black" stroke-width="22" mask="url(#path-1-inside-1_44_2)"/>
<mask id="path-2-outside-2_44_2" maskUnits="userSpaceOnUse" x="42" y="167" width="154" height="45" fill="black">
<rect fill="white" x="42" y="167" width="154" height="45"/>
<path d="M59.4063 210.6C56.4063 210.6 53.4663 209.28 51.3663 207.06H51.1263L49.2063 210H47.0463V173.7H43.0263V171.54L49.4463 168H51.3663V184.62C53.2863 181.98 56.6463 180 60.2463 180C66.6663 180 71.5863 186.36 71.7663 194.88C71.9463 203.88 66.5463 210.6 59.4063 210.6ZM59.1663 207.3C64.3263 207.3 67.5063 202.56 67.0863 195.42C66.6063 188.4 63.0663 183.72 58.2663 183.72C55.7463 183.72 53.1063 185.22 51.3663 187.44V198C51.3663 203.82 54.2463 207.3 59.1663 207.3ZM91.9525 210.6C82.1125 210.6 77.5525 202.26 77.6125 194.76C77.6725 186.24 83.3725 179.94 90.8725 180C97.2325 180.06 101.373 184.8 101.913 191.34L82.2325 195.96C82.2325 196.14 82.2325 196.38 82.2925 196.62C83.3125 203.46 87.0325 207.06 93.2725 207.06C95.8525 207.06 98.3125 206.04 100.353 204.12L102.333 205.98C99.1525 209.16 95.9725 210.6 91.9525 210.6ZM82.1125 192.78L96.8725 189.12C96.0325 185.58 93.6925 183.48 90.2725 183.48C85.7725 183.48 82.5325 187.2 82.1125 192.78ZM108.119 207.54C111.299 207.24 112.139 206.52 112.139 203.52V173.7H108.119V171.54L114.539 168H116.459V203.52C116.459 206.52 116.999 207.24 120.479 207.54V210H108.119V207.54ZM133.657 210.6C128.497 210.6 124.897 207.24 124.897 202.8C124.897 196.62 129.997 192.9 142.717 192.54V189.66C142.717 185.58 140.737 183.48 136.777 183.48C135.337 183.48 134.077 183.84 133.117 184.56C132.277 185.16 131.677 186.06 131.317 187.14C130.957 188.4 130.177 189.06 129.037 189.06C127.657 189.06 126.697 187.92 126.817 186.42C127.057 182.76 131.437 180 136.717 180C142.597 180 147.037 183.24 147.037 187.62V204.54C147.037 207.3 149.557 207.96 151.417 206.4L153.157 207.96C151.597 209.88 150.097 210.54 148.297 210.54C145.837 210.54 144.157 209.28 143.317 206.88H143.017C140.617 209.22 137.137 210.6 133.657 210.6ZM134.977 207.24C137.617 207.24 140.377 206.22 142.717 204.24V195.3C140.257 195.42 137.917 195.78 136.057 196.2C131.737 197.1 129.457 199.32 129.457 202.5C129.457 205.32 131.677 207.24 134.977 207.24ZM156.281 207.54C159.461 207.24 160.301 206.52 160.301 203.52V186.3H156.281V184.14L162.701 180.6H164.621V185.7H164.981C166.961 181.74 170.321 180 173.201 180C175.961 180 178.241 181.5 178.241 183.6C178.241 184.8 177.341 185.7 176.081 185.7C175.421 185.7 175.061 185.58 174.401 185.28C173.741 184.92 172.541 184.38 171.281 184.38C167.441 184.38 164.621 187.98 164.621 192.54V203.52C164.621 206.52 165.161 207.24 168.041 207.54V210H156.281V207.54ZM182.682 207.54C185.862 207.24 186.702 206.52 186.702 203.52V186.3H182.682V184.14L189.102 180.6H191.022V203.52C191.022 206.52 191.562 207.24 194.442 207.54V210H182.682V207.54ZM188.982 175.5C186.942 175.5 185.322 173.88 185.322 171.78C185.322 169.8 186.942 168.18 188.982 168.18C190.962 168.18 192.582 169.8 192.582 171.78C192.582 173.88 190.962 175.5 188.982 175.5Z"/>
</mask>
<path d="M59.4063 210.6C56.4063 210.6 53.4663 209.28 51.3663 207.06H51.1263L49.2063 210H47.0463V173.7H43.0263V171.54L49.4463 168H51.3663V184.62C53.2863 181.98 56.6463 180 60.2463 180C66.6663 180 71.5863 186.36 71.7663 194.88C71.9463 203.88 66.5463 210.6 59.4063 210.6ZM59.1663 207.3C64.3263 207.3 67.5063 202.56 67.0863 195.42C66.6063 188.4 63.0663 183.72 58.2663 183.72C55.7463 183.72 53.1063 185.22 51.3663 187.44V198C51.3663 203.82 54.2463 207.3 59.1663 207.3ZM91.9525 210.6C82.1125 210.6 77.5525 202.26 77.6125 194.76C77.6725 186.24 83.3725 179.94 90.8725 180C97.2325 180.06 101.373 184.8 101.913 191.34L82.2325 195.96C82.2325 196.14 82.2325 196.38 82.2925 196.62C83.3125 203.46 87.0325 207.06 93.2725 207.06C95.8525 207.06 98.3125 206.04 100.353 204.12L102.333 205.98C99.1525 209.16 95.9725 210.6 91.9525 210.6ZM82.1125 192.78L96.8725 189.12C96.0325 185.58 93.6925 183.48 90.2725 183.48C85.7725 183.48 82.5325 187.2 82.1125 192.78ZM108.119 207.54C111.299 207.24 112.139 206.52 112.139 203.52V173.7H108.119V171.54L114.539 168H116.459V203.52C116.459 206.52 116.999 207.24 120.479 207.54V210H108.119V207.54ZM133.657 210.6C128.497 210.6 124.897 207.24 124.897 202.8C124.897 196.62 129.997 192.9 142.717 192.54V189.66C142.717 185.58 140.737 183.48 136.777 183.48C135.337 183.48 134.077 183.84 133.117 184.56C132.277 185.16 131.677 186.06 131.317 187.14C130.957 188.4 130.177 189.06 129.037 189.06C127.657 189.06 126.697 187.92 126.817 186.42C127.057 182.76 131.437 180 136.717 180C142.597 180 147.037 183.24 147.037 187.62V204.54C147.037 207.3 149.557 207.96 151.417 206.4L153.157 207.96C151.597 209.88 150.097 210.54 148.297 210.54C145.837 210.54 144.157 209.28 143.317 206.88H143.017C140.617 209.22 137.137 210.6 133.657 210.6ZM134.977 207.24C137.617 207.24 140.377 206.22 142.717 204.24V195.3C140.257 195.42 137.917 195.78 136.057 196.2C131.737 197.1 129.457 199.32 129.457 202.5C129.457 205.32 131.677 207.24 134.977 207.24ZM156.281 207.54C159.461 207.24 160.301 206.52 160.301 203.52V186.3H156.281V184.14L162.701 180.6H164.621V185.7H164.981C166.961 181.74 170.321 180 173.201 180C175.961 180 178.241 181.5 178.241 183.6C178.241 184.8 177.341 185.7 176.081 185.7C175.421 185.7 175.061 185.58 174.401 185.28C173.741 184.92 172.541 184.38 171.281 184.38C167.441 184.38 164.621 187.98 164.621 192.54V203.52C164.621 206.52 165.161 207.24 168.041 207.54V210H156.281V207.54ZM182.682 207.54C185.862 207.24 186.702 206.52 186.702 203.52V186.3H182.682V184.14L189.102 180.6H191.022V203.52C191.022 206.52 191.562 207.24 194.442 207.54V210H182.682V207.54ZM188.982 175.5C186.942 175.5 185.322 173.88 185.322 171.78C185.322 169.8 186.942 168.18 188.982 168.18C190.962 168.18 192.582 169.8 192.582 171.78C192.582 173.88 190.962 175.5 188.982 175.5Z" fill="black"/>
<path d="M51.3662 207.06L52.0927 206.373L51.7968 206.06H51.3662V207.06ZM51.1263 207.06V206.06H50.585L50.289 206.513L51.1263 207.06ZM49.2062 210V211H49.7475L50.0435 210.547L49.2062 210ZM47.0462 210H46.0462V211H47.0462V210ZM47.0462 173.7H48.0462V172.7H47.0462V173.7ZM43.0263 173.7H42.0263V174.7H43.0263V173.7ZM43.0263 171.54L42.5434 170.664L42.0263 170.949V171.54H43.0263ZM49.4463 168V167H49.1888L48.9634 167.124L49.4463 168ZM51.3662 168H52.3662V167H51.3662V168ZM51.3662 184.62H50.3662V187.695L52.175 185.208L51.3662 184.62ZM71.7663 194.88L72.7661 194.86L72.766 194.859L71.7663 194.88ZM67.0863 195.42L68.0846 195.361L68.0839 195.352L67.0863 195.42ZM51.3662 187.44L50.5792 186.823L50.3662 187.095V187.44H51.3662ZM59.4062 210.6V209.6C56.6956 209.6 54.0141 208.404 52.0927 206.373L51.3662 207.06L50.6398 207.747C52.9184 210.156 56.1169 211.6 59.4062 211.6V210.6ZM51.3662 207.06V206.06H51.1263V207.06V208.06H51.3662V207.06ZM51.1263 207.06L50.289 206.513L48.369 209.453L49.2062 210L50.0435 210.547L51.9635 207.607L51.1263 207.06ZM49.2062 210V209H47.0462V210V211H49.2062V210ZM47.0462 210H48.0462V173.7H47.0462H46.0462V210H47.0462ZM47.0462 173.7V172.7H43.0263V173.7V174.7H47.0462V173.7ZM43.0263 173.7H44.0263V171.54H43.0263H42.0263V173.7H43.0263ZM43.0263 171.54L43.5091 172.416L49.9291 168.876L49.4463 168L48.9634 167.124L42.5434 170.664L43.0263 171.54ZM49.4463 168V169H51.3662V168V167H49.4463V168ZM51.3662 168H50.3662V184.62H51.3662H52.3662V168H51.3662ZM51.3662 184.62L52.175 185.208C53.928 182.798 57.0006 181 60.2463 181V180V179C56.2919 179 52.6445 181.162 50.5575 184.032L51.3662 184.62ZM60.2463 180V181C65.8848 181 70.5922 186.652 70.7665 194.901L71.7663 194.88L72.766 194.859C72.5803 186.068 67.4477 179 60.2463 179V180ZM71.7663 194.88L70.7665 194.9C70.9395 203.552 65.7953 209.6 59.4062 209.6V210.6V211.6C67.2972 211.6 72.953 204.208 72.7661 194.86L71.7663 194.88ZM59.1663 207.3V208.3C62.0941 208.3 64.4851 206.937 66.0503 204.593C67.5935 202.282 68.3031 199.077 68.0845 195.361L67.0863 195.42L66.088 195.479C66.2894 198.903 65.619 201.638 64.3872 203.482C63.1774 205.293 61.3984 206.3 59.1663 206.3V207.3ZM67.0863 195.42L68.0839 195.352C67.8343 191.701 66.7849 188.575 65.0945 186.335C63.3915 184.078 61.0281 182.72 58.2663 182.72V183.72V184.72C60.3044 184.72 62.111 185.702 63.498 187.54C64.8976 189.395 65.8582 192.119 66.0886 195.488L67.0863 195.42ZM58.2663 183.72V182.72C55.3718 182.72 52.463 184.42 50.5792 186.823L51.3662 187.44L52.1533 188.057C53.7495 186.02 56.1207 184.72 58.2663 184.72V183.72ZM51.3662 187.44H50.3662V198H51.3662H52.3662V187.44H51.3662ZM51.3662 198H50.3662C50.3662 201.062 51.1233 203.642 52.6539 205.474C54.2046 207.329 56.4526 208.3 59.1663 208.3V207.3V206.3C56.9599 206.3 55.3079 205.531 54.1886 204.191C53.0492 202.828 52.3662 200.758 52.3662 198H51.3662ZM77.6125 194.76L78.6125 194.768V194.767L77.6125 194.76ZM90.8725 180L90.8819 179L90.8805 179L90.8725 180ZM101.913 191.34L102.141 192.314L102.98 192.117L102.909 191.258L101.913 191.34ZM82.2325 195.96L82.004 194.986L81.2325 195.168V195.96H82.2325ZM82.2925 196.62L83.2816 196.473L83.2744 196.425L83.2626 196.377L82.2925 196.62ZM100.353 204.12L101.037 203.391L100.352 202.747L99.6671 203.392L100.353 204.12ZM102.333 205.98L103.04 206.687L103.769 205.958L103.017 205.251L102.333 205.98ZM82.1125 192.78L81.1153 192.705L81.0116 194.083L82.3532 193.751L82.1125 192.78ZM96.8725 189.12L97.1132 190.091L98.074 189.852L97.8455 188.889L96.8725 189.12ZM91.9525 210.6V209.6C87.351 209.6 84.0376 207.665 81.8579 204.877C79.6558 202.059 78.584 198.329 78.6125 194.768L77.6125 194.76L76.6125 194.752C76.581 198.691 77.7592 202.881 80.2821 206.108C82.8275 209.365 86.714 211.6 91.9525 211.6V210.6ZM77.6125 194.76L78.6125 194.767C78.6694 186.683 84.0268 180.945 90.8645 181L90.8725 180L90.8805 179C82.7182 178.935 76.6756 185.797 76.6125 194.753L77.6125 194.76ZM90.8725 180L90.8631 181C93.7796 181.027 96.1427 182.12 97.8478 183.926C99.5635 185.744 100.661 188.337 100.916 191.422L101.913 191.34L102.909 191.258C102.624 187.803 101.382 184.756 99.3022 182.554C97.2123 180.34 94.3254 179.033 90.8819 179L90.8725 180ZM101.913 191.34L101.684 190.366L82.004 194.986L82.2325 195.96L82.461 196.934L102.141 192.314L101.913 191.34ZM82.2325 195.96H81.2325C81.2325 196.13 81.2285 196.487 81.3224 196.863L82.2925 196.62L83.2626 196.377C83.2365 196.273 83.2325 196.15 83.2325 195.96H82.2325ZM82.2925 196.62L81.3034 196.767C81.8345 200.329 83.0871 203.173 85.1343 205.128C87.1951 207.096 89.9519 208.06 93.2725 208.06V207.06V206.06C90.3531 206.06 88.1299 205.224 86.5157 203.682C84.8879 202.127 83.7705 199.751 83.2816 196.473L82.2925 196.62ZM93.2725 207.06V208.06C96.1296 208.06 98.8293 206.927 101.038 204.848L100.353 204.12L99.6671 203.392C97.7957 205.153 95.5754 206.06 93.2725 206.06V207.06ZM100.353 204.12L99.6678 204.849L101.648 206.709L102.333 205.98L103.017 205.251L101.037 203.391L100.353 204.12ZM102.333 205.98L101.625 205.273C98.6039 208.294 95.6688 209.6 91.9525 209.6V210.6V211.6C96.2762 211.6 99.7011 210.026 103.04 206.687L102.333 205.98ZM82.1125 192.78L82.3532 193.751L97.1132 190.091L96.8725 189.12L96.6318 188.149L81.8718 191.809L82.1125 192.78ZM96.8725 189.12L97.8455 188.889C97.3881 186.962 96.5033 185.35 95.1945 184.216C93.8774 183.076 92.1982 182.48 90.2725 182.48V183.48V184.48C91.7668 184.48 92.9676 184.934 93.8855 185.729C94.8117 186.53 95.5169 187.738 95.8995 189.351L96.8725 189.12ZM90.2725 183.48V182.48C85.0714 182.48 81.5597 186.802 81.1153 192.705L82.1125 192.78L83.1097 192.855C83.5053 187.598 86.4736 184.48 90.2725 184.48V183.48ZM108.119 207.54L108.025 206.544L107.119 206.63V207.54H108.119ZM112.139 173.7H113.139V172.7H112.139V173.7ZM108.119 173.7H107.119V174.7H108.119V173.7ZM108.119 171.54L107.636 170.664L107.119 170.949V171.54H108.119ZM114.539 168V167H114.282L114.056 167.124L114.539 168ZM116.459 168H117.459V167H116.459V168ZM120.479 207.54H121.479V206.622L120.565 206.544L120.479 207.54ZM120.479 210V211H121.479V210H120.479ZM108.119 210H107.119V211H108.119V210ZM108.119 207.54L108.213 208.536C109.787 208.387 111.133 208.123 112.02 207.258C112.944 206.357 113.139 205.045 113.139 203.52H112.139H111.139C111.139 204.995 110.914 205.543 110.624 205.827C110.295 206.147 109.631 206.393 108.025 206.544L108.119 207.54ZM112.139 203.52H113.139V173.7H112.139H111.139V203.52H112.139ZM112.139 173.7V172.7H108.119V173.7V174.7H112.139V173.7ZM108.119 173.7H109.119V171.54H108.119H107.119V173.7H108.119ZM108.119 171.54L108.602 172.416L115.022 168.876L114.539 168L114.056 167.124L107.636 170.664L108.119 171.54ZM114.539 168V169H116.459V168V167H114.539V168ZM116.459 168H115.459V203.52H116.459H117.459V168H116.459ZM116.459 203.52H115.459C115.459 204.977 115.559 206.317 116.444 207.236C116.89 207.7 117.462 207.981 118.105 208.168C118.739 208.352 119.503 208.46 120.393 208.536L120.479 207.54L120.565 206.544C119.715 206.47 119.106 206.376 118.661 206.247C118.224 206.12 118.009 205.978 117.885 205.849C117.629 205.583 117.459 205.063 117.459 203.52H116.459ZM120.479 207.54H119.479V210H120.479H121.479V207.54H120.479ZM120.479 210V209H108.119V210V211H120.479V210ZM108.119 210H109.119V207.54H108.119H107.119V210H108.119ZM142.717 192.54L142.745 193.54L143.717 193.512V192.54H142.717ZM133.117 184.56L133.698 185.374L133.707 185.367L133.717 185.36L133.117 184.56ZM131.317 187.14L130.368 186.824L130.361 186.844L130.355 186.865L131.317 187.14ZM126.817 186.42L127.814 186.5L127.814 186.493L127.815 186.485L126.817 186.42ZM151.417 206.4L152.084 205.655L151.439 205.077L150.774 205.634L151.417 206.4ZM153.157 207.96L153.933 208.591L154.534 207.851L153.824 207.215L153.157 207.96ZM143.317 206.88L144.261 206.55L144.026 205.88H143.317V206.88ZM143.017 206.88V205.88H142.61L142.319 206.164L143.017 206.88ZM142.717 204.24L143.363 205.003L143.717 204.704V204.24H142.717ZM142.717 195.3H143.717V194.25L142.668 194.301L142.717 195.3ZM136.057 196.2L136.261 197.179L136.269 197.177L136.277 197.175L136.057 196.2ZM133.657 210.6V209.6C128.95 209.6 125.897 206.594 125.897 202.8H124.897H123.897C123.897 207.886 128.043 211.6 133.657 211.6V210.6ZM124.897 202.8H125.897C125.897 200.049 126.998 197.902 129.557 196.341C132.2 194.729 136.445 193.718 142.745 193.54L142.717 192.54L142.688 191.54C136.268 191.722 131.603 192.751 128.516 194.634C125.345 196.568 123.897 199.371 123.897 202.8H124.897ZM142.717 192.54H143.717V189.66H142.717H141.717V192.54H142.717ZM142.717 189.66H143.717C143.717 187.473 143.186 185.637 141.954 184.349C140.715 183.053 138.926 182.48 136.777 182.48V183.48V184.48C138.587 184.48 139.769 184.957 140.509 185.731C141.257 186.513 141.717 187.767 141.717 189.66H142.717ZM136.777 183.48V182.48C135.175 182.48 133.689 182.881 132.517 183.76L133.117 184.56L133.717 185.36C134.464 184.799 135.498 184.48 136.777 184.48V183.48ZM133.117 184.56L132.535 183.746C131.488 184.494 130.78 185.589 130.368 186.824L131.317 187.14L132.265 187.456C132.574 186.531 133.065 185.826 133.698 185.374L133.117 184.56ZM131.317 187.14L130.355 186.865C130.214 187.361 130.016 187.647 129.825 187.808C129.645 187.959 129.402 188.06 129.037 188.06V189.06V190.06C129.811 190.06 130.528 189.831 131.114 189.337C131.688 188.853 132.06 188.179 132.278 187.415L131.317 187.14ZM129.037 189.06V188.06C128.329 188.06 127.733 187.51 127.814 186.5L126.817 186.42L125.82 186.34C125.661 188.33 126.984 190.06 129.037 190.06V189.06ZM126.817 186.42L127.815 186.485C127.908 185.063 128.812 183.711 130.417 182.679C132.02 181.649 134.241 181 136.717 181V180V179C133.912 179 131.304 179.731 129.336 180.996C127.372 182.259 125.966 184.117 125.819 186.355L126.817 186.42ZM136.717 180V181C142.35 181 146.037 184.055 146.037 187.62H147.037H148.037C148.037 182.425 142.844 179 136.717 179V180ZM147.037 187.62H146.037V204.54H147.037H148.037V187.62H147.037ZM147.037 204.54H146.037C146.037 206.251 146.851 207.542 148.186 208.029C149.456 208.493 150.919 208.122 152.059 207.166L151.417 206.4L150.774 205.634C150.054 206.238 149.327 206.317 148.872 206.151C148.482 206.008 148.037 205.589 148.037 204.54H147.037ZM151.417 206.4L150.749 207.145L152.489 208.705L153.157 207.96L153.824 207.215L152.084 205.655L151.417 206.4ZM153.157 207.96L152.381 207.329C151.663 208.212 151.002 208.753 150.363 209.079C149.731 209.401 149.066 209.54 148.297 209.54V210.54V211.54C149.327 211.54 150.312 211.349 151.271 210.861C152.221 210.377 153.09 209.628 153.933 208.591L153.157 207.96ZM148.297 210.54V209.54C147.243 209.54 146.426 209.273 145.793 208.806C145.157 208.335 144.63 207.605 144.261 206.55L143.317 206.88L142.373 207.21C142.844 208.555 143.577 209.655 144.605 210.414C145.637 211.177 146.89 211.54 148.297 211.54V210.54ZM143.317 206.88V205.88H143.017V206.88V207.88H143.317V206.88ZM143.017 206.88L142.319 206.164C140.114 208.314 136.888 209.6 133.657 209.6V210.6V211.6C137.386 211.6 141.12 210.126 143.715 207.596L143.017 206.88ZM134.977 207.24V208.24C137.873 208.24 140.858 207.123 143.363 205.003L142.717 204.24L142.071 203.477C139.895 205.317 137.36 206.24 134.977 206.24V207.24ZM142.717 204.24H143.717V195.3H142.717H141.717V204.24H142.717ZM142.717 195.3L142.668 194.301C140.145 194.424 137.748 194.793 135.836 195.225L136.057 196.2L136.277 197.175C138.085 196.767 140.368 196.416 142.765 196.299L142.717 195.3ZM136.057 196.2L135.853 195.221C133.579 195.695 131.733 196.537 130.444 197.773C129.132 199.032 128.457 200.645 128.457 202.5H129.457H130.457C130.457 201.175 130.921 200.088 131.829 199.217C132.76 198.323 134.215 197.605 136.261 197.179L136.057 196.2ZM129.457 202.5H128.457C128.457 204.191 129.131 205.656 130.327 206.686C131.51 207.704 133.137 208.24 134.977 208.24V207.24V206.24C133.516 206.24 132.383 205.816 131.631 205.169C130.892 204.534 130.457 203.629 130.457 202.5H129.457ZM156.281 207.54L156.187 206.544L155.281 206.63V207.54H156.281ZM160.301 186.3H161.301V185.3H160.301V186.3ZM156.281 186.3H155.281V187.3H156.281V186.3ZM156.281 184.14L155.798 183.264L155.281 183.549V184.14H156.281ZM162.701 180.6V179.6H162.444L162.218 179.724L162.701 180.6ZM164.621 180.6H165.621V179.6H164.621V180.6ZM164.621 185.7H163.621V186.7H164.621V185.7ZM164.981 185.7V186.7H165.599L165.875 186.147L164.981 185.7ZM174.401 185.28L173.922 186.158L173.954 186.175L173.987 186.19L174.401 185.28ZM168.041 207.54H169.041V206.639L168.145 206.545L168.041 207.54ZM168.041 210V211H169.041V210H168.041ZM156.281 210H155.281V211H156.281V210ZM156.281 207.54L156.375 208.536C157.949 208.387 159.295 208.123 160.182 207.258C161.106 206.357 161.301 205.045 161.301 203.52H160.301H159.301C159.301 204.995 159.076 205.543 158.785 205.827C158.457 206.147 157.793 206.393 156.187 206.544L156.281 207.54ZM160.301 203.52H161.301V186.3H160.301H159.301V203.52H160.301ZM160.301 186.3V185.3H156.281V186.3V187.3H160.301V186.3ZM156.281 186.3H157.281V184.14H156.281H155.281V186.3H156.281ZM156.281 184.14L156.764 185.016L163.184 181.476L162.701 180.6L162.218 179.724L155.798 183.264L156.281 184.14ZM162.701 180.6V181.6H164.621V180.6V179.6H162.701V180.6ZM164.621 180.6H163.621V185.7H164.621H165.621V180.6H164.621ZM164.621 185.7V186.7H164.981V185.7V184.7H164.621V185.7ZM164.981 185.7L165.875 186.147C167.698 182.501 170.727 181 173.201 181V180V179C169.915 179 166.223 180.979 164.087 185.253L164.981 185.7ZM173.201 180V181C174.411 181 175.463 181.331 176.184 181.833C176.897 182.33 177.241 182.95 177.241 183.6H178.241H179.241C179.241 182.15 178.445 180.97 177.328 180.192C176.219 179.419 174.751 179 173.201 179V180ZM178.241 183.6H177.241C177.241 184.229 176.807 184.7 176.081 184.7V185.7V186.7C177.874 186.7 179.241 185.371 179.241 183.6H178.241ZM176.081 185.7V184.7C175.619 184.7 175.407 184.639 174.815 184.37L174.401 185.28L173.987 186.19C174.715 186.521 175.223 186.7 176.081 186.7V185.7ZM174.401 185.28L174.88 184.402C174.172 184.016 172.793 183.38 171.281 183.38V184.38V185.38C172.289 185.38 173.31 185.824 173.922 186.158L174.401 185.28ZM171.281 184.38V183.38C166.698 183.38 163.621 187.64 163.621 192.54H164.621H165.621C165.621 188.32 168.184 185.38 171.281 185.38V184.38ZM164.621 192.54H163.621V203.52H164.621H165.621V192.54H164.621ZM164.621 203.52H163.621C163.621 204.985 163.727 206.278 164.484 207.184C165.262 208.116 166.508 208.386 167.937 208.535L168.041 207.54L168.145 206.545C166.694 206.394 166.229 206.154 166.018 205.901C165.785 205.622 165.621 205.055 165.621 203.52H164.621ZM168.041 207.54H167.041V210H168.041H169.041V207.54H168.041ZM168.041 210V209H156.281V210V211H168.041V210ZM156.281 210H157.281V207.54H156.281H155.281V210H156.281ZM182.682 207.54L182.588 206.544L181.682 206.63V207.54H182.682ZM186.702 186.3H187.702V185.3H186.702V186.3ZM182.682 186.3H181.682V187.3H182.682V186.3ZM182.682 184.14L182.199 183.264L181.682 183.549V184.14H182.682ZM189.102 180.6V179.6H188.844L188.619 179.724L189.102 180.6ZM191.022 180.6H192.022V179.6H191.022V180.6ZM194.442 207.54H195.442V206.639L194.545 206.545L194.442 207.54ZM194.442 210V211H195.442V210H194.442ZM182.682 210H181.682V211H182.682V210ZM182.682 207.54L182.776 208.536C184.35 208.387 185.696 208.123 186.583 207.258C187.507 206.357 187.702 205.045 187.702 203.52H186.702H185.702C185.702 204.995 185.477 205.543 185.186 205.827C184.858 206.147 184.194 206.393 182.588 206.544L182.682 207.54ZM186.702 203.52H187.702V186.3H186.702H185.702V203.52H186.702ZM186.702 186.3V185.3H182.682V186.3V187.3H186.702V186.3ZM182.682 186.3H183.682V184.14H182.682H181.682V186.3H182.682ZM182.682 184.14L183.165 185.016L189.585 181.476L189.102 180.6L188.619 179.724L182.199 183.264L182.682 184.14ZM189.102 180.6V181.6H191.022V180.6V179.6H189.102V180.6ZM191.022 180.6H190.022V203.52H191.022H192.022V180.6H191.022ZM191.022 203.52H190.022C190.022 204.985 190.128 206.278 190.884 207.184C191.663 208.116 192.909 208.386 194.338 208.535L194.442 207.54L194.545 206.545C193.095 206.394 192.63 206.154 192.419 205.901C192.186 205.622 192.022 205.055 192.022 203.52H191.022ZM194.442 207.54H193.442V210H194.442H195.442V207.54H194.442ZM194.442 210V209H182.682V210V211H194.442V210ZM182.682 210H183.682V207.54H182.682H181.682V210H182.682ZM188.982 175.5V174.5C187.505 174.5 186.322 173.338 186.322 171.78H185.322H184.322C184.322 174.422 186.379 176.5 188.982 176.5V175.5ZM185.322 171.78H186.322C186.322 170.363 187.483 169.18 188.982 169.18V168.18V167.18C186.4 167.18 184.322 169.237 184.322 171.78H185.322ZM188.982 168.18V169.18C190.41 169.18 191.582 170.352 191.582 171.78H192.582H193.582C193.582 169.248 191.514 167.18 188.982 167.18V168.18ZM192.582 171.78H191.582C191.582 173.349 190.388 174.5 188.982 174.5V175.5V176.5C191.535 176.5 193.582 174.411 193.582 171.78H192.582Z" fill="black" mask="url(#path-2-outside-2_44_2)"/>
</svg>
