<svg width="346" height="139" viewBox="0 0 346 139" fill="none" xmlns="http://www.w3.org/2000/svg">
<path d="M6.00067 128C16.1219 134.667 26.2431 134.667 36.3643 128C46.4855 121.333 56.6067 121.333 66.7279 128C76.8492 134.667 86.9704 134.667 97.0916 128C107.213 121.333 117.334 121.333 127.455 128C137.576 134.667 147.698 134.667 157.819 128C167.94 121.333 178.061 121.333 188.182 128C198.304 134.667 208.425 134.667 218.546 128C228.667 121.333 238.789 121.333 248.91 128C259.031 134.667 269.152 134.667 279.273 128C289.395 121.333 299.516 121.333 309.637 128C319.758 134.667 329.879 134.667 340.001 128" stroke="black" stroke-width="12" stroke-linecap="round" stroke-linejoin="round"/>
<path d="M22.2328 1V32.4756C26.3607 28.0876 32.4729 25 38.9936 25C52.4021 25.0003 62.3518 38.0122 63.0082 54.9307L63.0327 55.7393V55.7402C63.3995 74.0884 52.3439 88.2002 37.3129 88.2002C31.3034 88.2001 25.4334 85.6748 21.103 81.4121L17.7504 86.5469L17.4545 87H11.5932V14.4004H3.55316V8.48926L4.07074 8.2041L16.9106 1.12402L17.1362 1H22.2328ZM106.255 25C112.879 25.0625 118.39 27.5702 122.377 31.7939C126.354 36.0066 128.767 41.8726 129.323 48.5977L129.393 49.457L128.554 49.6533L90.0014 58.7031C90.0028 58.7142 90.0037 58.7253 90.0053 58.7363L90.0561 58.9971L90.0678 59.0449L90.0746 59.0928C91.0736 65.7912 93.376 70.7773 96.8412 74.0869C100.293 77.3836 105.006 79.1201 111.045 79.1201C115.928 79.1201 120.609 77.193 124.52 73.5117L125.205 72.8672L125.89 73.5107L129.85 77.2314L130.602 77.9375L129.872 78.667C123.354 85.1854 116.749 88.2002 108.406 88.2002C98.2472 88.2002 90.7608 83.8795 85.853 77.6006C80.9676 71.3504 78.6645 63.2005 78.726 55.5117C78.8496 38.0362 90.5916 24.8749 106.253 25H106.255ZM209.934 25C221.941 25 231.574 31.6657 231.574 41.2402V75.0801C231.574 77.509 232.649 78.7826 233.902 79.2402C235.219 79.7214 237.042 79.4181 238.692 78.0342L239.356 77.4766L240.001 78.0557L243.482 81.1758L244.191 81.8115L243.59 82.5508C241.968 84.5479 240.334 85.9417 238.588 86.8311C236.835 87.7242 235.024 88.0801 233.094 88.0801C230.458 88.0801 228.17 87.4019 226.305 86.0244C224.695 84.835 223.458 83.1659 222.577 81.0889C217.617 85.5837 210.714 88.2002 203.814 88.2002C193.04 88.2001 185.294 81.1255 185.294 71.5996C185.294 65.0807 188.018 59.8025 194.053 56.1211C199.854 52.5831 208.662 50.5477 220.934 50.1113V45.3203C220.934 41.3874 219.979 38.5884 218.242 36.7715C216.511 34.9627 213.845 33.96 210.054 33.96C207.336 33.96 205.042 34.6393 203.334 35.9199L203.315 35.9336C201.842 36.9857 200.751 38.5921 200.082 40.5967C199.683 41.9723 199.03 43.1109 198.083 43.9092C197.115 44.7253 195.918 45.1201 194.574 45.1201C191.142 45.1199 188.858 42.2501 189.137 38.7607C189.409 34.6991 191.968 31.2414 195.713 28.834C199.466 26.4214 204.49 25 209.934 25ZM35.0336 34.4404C30.4657 34.4404 25.567 37.1253 22.2328 41.2324V62C22.2328 67.6675 23.6364 72.0625 26.1108 75.0234C28.5651 77.9603 32.1671 79.5996 36.8334 79.5996C41.6455 79.5995 45.5097 77.4083 48.1069 73.5195C50.7251 69.5991 52.0851 63.8977 51.6752 56.9072V56.9082C51.2048 50.0288 49.2398 44.3799 46.2953 40.4775C43.3634 36.592 39.4715 34.4406 35.0336 34.4404ZM220.934 57.6572C216.463 57.9389 212.238 58.6065 208.834 59.375L208.827 59.377L208.818 59.3789C204.612 60.2551 201.507 61.7535 199.466 63.7119C197.448 65.648 196.414 68.0848 196.414 71C196.414 73.539 197.405 75.6282 199.112 77.0967C200.831 78.5758 203.344 79.4805 206.455 79.4805C211.347 79.4804 216.497 77.6361 220.934 74.0098V57.6572ZM105.045 33.96C97.1064 33.9601 91.0806 40.2182 89.8588 50.248L117.018 43.5137C116.173 40.5918 114.773 38.2998 112.926 36.7012C110.891 34.939 108.25 33.96 105.045 33.96ZM326.464 1.36035C330.976 1.36035 334.664 5.04749 334.664 9.55957C334.664 14.2903 330.998 18 326.464 18C321.821 17.9999 318.144 14.3011 318.144 9.55957C318.144 5.03678 321.843 1.36042 326.464 1.36035ZM172.459 87H145.739V80.1699L146.645 80.084C149.841 79.7825 151.51 79.2817 152.446 78.3691C153.344 77.4929 153.779 76.0148 153.779 73.04V14.4004H145.739V8.48926L146.256 8.2041L159.096 1.12402L159.322 1H164.419V73.04C164.419 76.0835 164.724 77.5332 165.55 78.3916C165.959 78.8163 166.568 79.1708 167.545 79.4541C168.53 79.7396 169.826 79.9357 171.545 80.084L172.459 80.1621V87ZM279.582 87H254.063V80.1699L254.968 80.084C258.164 79.7825 259.833 79.2817 260.769 78.3691C261.667 77.4929 262.103 76.0148 262.103 73.04V39.5996H254.063V33.6895L254.58 33.4043L267.419 26.3242L267.645 26.2002H272.743V34.8506C276.942 28.0837 283.289 25 288.903 25C291.833 25 294.561 25.7941 296.584 27.2041C298.616 28.6198 299.983 30.6997 299.983 33.2002C299.983 36.171 297.716 38.4004 294.663 38.4004C293.144 38.4004 292.276 38.1013 290.889 37.4707L290.856 37.4551L290.824 37.4375C289.551 36.7435 287.33 35.7599 285.063 35.7598C278.126 35.7598 272.743 42.3003 272.743 51.0801V73.04C272.743 76.0751 273.041 77.5724 273.77 78.4443C274.476 79.2894 275.796 79.7839 278.686 80.085L279.582 80.1787V87ZM338.384 87H312.865V80.1699L313.771 80.084C316.966 79.7825 318.635 79.2816 319.571 78.3691C320.469 77.4929 320.905 76.0148 320.905 73.04V39.5996H312.865V33.6895L313.381 33.4043L326.221 26.3242L326.447 26.2002H331.544V73.04C331.544 76.0751 331.843 77.5724 332.572 78.4443C333.278 79.2894 334.597 79.7838 337.488 80.085L338.384 80.1787V87Z" fill="black" stroke="black" stroke-width="2"/>
</svg>
