<?xml version="1.0" encoding="utf-8" ?><svg xmlns="http://www.w3.org/2000/svg" xmlns:xlink="http://www.w3.org/1999/xlink" viewBox="80 100 878 830"><path fill="#15120D" d="M354.331 574.569C364.185 573.931 408.715 589.81 420.48 593.703L518.284 626.71L606.031 655.964C643.548 668.283 681.88 678.951 719.296 691.446C720.08 690.287 720.898 689.129 721.774 688.037C723.456 685.937 725.709 684.294 728.46 684.055C735.765 683.418 812.188 705.797 823.154 710.003C836.965 715.3 849.856 722.723 863.913 727.607C882.856 734.187 898.542 734.526 917.815 743.917C921.704 745.812 925.773 747.82 929.096 750.635C933.18 754.093 935.129 758.296 935.497 763.625C936.656 780.426 919.119 775.997 912.563 783.836C907.817 789.511 910.739 802.957 910.673 809.972C910.594 820.911 908.91 831.78 905.676 842.231C901.465 856.081 895.467 865.873 896.619 880.463C899.84 884.772 903.311 886.358 906.192 892.161C908.746 897.292 909.037 903.256 906.996 908.611C902.826 919.417 895.194 921.813 884.498 920.014C871.661 917.854 859.532 913.458 847.044 909.915C820.081 902.267 792.123 894.996 766.345 883.878C761.996 882.06 758.385 879.958 754.391 877.492C751.343 882.676 743.181 896.009 739.325 900.172C734.268 899.946 722.425 902.13 719.965 898.403C719.417 896.373 720.141 894.881 720.761 892.797C718.041 894 714.67 895.942 711.93 894.368C711.044 892.528 711.396 891.137 711.783 889.188C708.52 888.849 707.905 891.755 704.245 890.024C702.943 888.14 703.374 888.041 703.836 885.338C702.643 885.062 700.446 886.074 698.516 886.427C696.729 885.738 697.405 886.292 696.352 884.786C696.32 882.776 696.604 881.779 697.006 879.785C695.355 879.117 691.972 882.974 688.205 881.414C687.253 879.56 688.504 875.675 688.99 873.451C679.813 876.435 675.923 878.664 678.199 867.247C675.75 868.22 669.578 871.404 668.261 868C668.627 866.202 668.938 865.927 668.46 864.315C665.482 863.806 665.4 864.639 662.306 865.117L661.564 864.447C660.906 862.387 661.235 861.534 661.566 859.314C650.06 863.283 655.63 858.035 653.163 854.852C649.951 854.291 648.489 858.17 645.965 855.456C645.304 853.004 645.546 852.632 646.114 850.046C638.532 853.097 636.981 852.021 639.271 844.12C636.723 845.282 632.223 848.091 630.513 844.949C630.647 843.832 630.748 843.058 630.767 841.936C627.789 841.369 626.8 842.298 623.939 842.33L623.161 841.373C622.764 839.023 623.345 837.359 623.858 835.012C621.018 836.151 617.562 838.318 614.874 836.634C613.976 834.513 614.52 834.041 614.577 831.727C612.113 831.225 611.233 832.061 608.803 832.448L607.917 831.736C607.238 829.789 607.571 829.024 607.928 826.9C607.441 827.05 606.953 827.197 606.463 827.342C603.776 828.136 602.448 828.892 600.053 827.59C599.401 826.141 599.801 825.187 600.098 823.56L600.232 822.848C597.489 822.366 597.117 825.298 593.464 823.518C592.362 821.628 592.965 821.072 592.944 818.357C590.182 817.907 589.343 821.148 585.827 819.362C584.881 817.928 585.099 817.076 585.13 815.324L585.147 814.637L584.534 814.259C581.723 815.292 580.763 816.172 578.134 814.694C577.298 813.133 577.567 812.194 577.683 810.389L577.735 809.653C574.847 808.987 571.888 812.472 569.181 810.236C568.69 808.308 569.413 807.129 569.622 805.196C567.22 804.807 566.239 805.682 563.868 806.078L562.962 805.33C562.212 803.218 562.567 802.141 562.847 799.832C560.297 800.644 557.463 802.128 555.108 800.645C555.067 798.717 555.499 797.958 554.108 796.805C551.526 796.139 551.207 796.937 548.328 797.387L547.51 796.652C546.855 794.482 547.349 793.057 547.761 790.812C544.66 792.205 542.289 793.867 539.281 791.954C538.708 790.376 539.12 789.611 539.561 787.952L539.74 787.3C536.537 786.695 535.818 789.635 532.215 787.327C531.324 784.734 532.66 785.444 532.184 782.899C529.527 783.532 527.163 784.51 524.922 783.56C523.705 780.981 525.25 781.169 524.387 778.586C521.67 779.016 519.349 779.901 517.153 779.045C516.308 777.23 516.738 776.97 516.998 774.598L516.53 774.104C512.938 773.24 511.709 776.525 509.065 773.82C508.447 771.923 509.009 770.578 509.465 768.594C507.188 769.584 505.065 770.703 502.648 770.059C501.383 768.204 502.376 768.143 501.873 765.168L501.189 764.774C500.693 764.953 500.195 765.128 499.696 765.298C497.209 766.144 496.742 766.422 494.624 765.374C493.654 763.636 494.117 762.425 494.249 760.154C491.079 759.586 490.158 762.685 486.745 760.454C485.8 758.629 486.181 757.813 486.338 755.857L485.629 755.589C483.095 756.71 482.205 757.708 479.837 756.168C478.645 753.68 480.307 752.203 479.273 750.508C476.221 751.467 473.253 753.237 470.576 751.467C469.664 749.449 471.007 748.543 470.671 746.207C468.115 746.838 466.403 747.868 464.292 746.341C463.399 744.503 464.131 743.717 464.178 741.396C461.266 740.536 460.402 744.203 457.208 741.912C456.334 740.178 456.813 738.784 457.103 736.798C455.013 737.56 451.803 739.056 449.913 738.001C447.858 736.853 449.449 735.657 448.682 733.286C445.96 732.953 445.378 733.64 442.586 734.092L441.757 733.273C441.153 731.008 441.581 729.665 441.961 727.359C439.381 728.523 437.082 730.134 434.672 728.278C433.892 726.336 434.337 725.196 434.691 723.025C432.02 724.267 426.894 727.026 425.303 723.509C425.541 721.944 425.953 720.729 425.284 719.366C424.787 719.488 424.289 719.606 423.79 719.719C421.646 720.202 420.459 720.581 418.714 719.474C418.182 717.727 418.298 717.313 418.379 715.419L418.408 714.819C415.925 713.832 414.397 717.018 410.813 714.887C409.93 713.469 410.148 712.565 410.177 710.855L410.194 710.156C406.793 710.073 406.802 713.236 403.217 710.511C402.427 708.906 403.184 707.47 403.207 705.29C400.867 705.914 397.783 707.062 395.689 706.12C394.523 704.035 395.877 702.96 395.381 701.081C395.055 699.843 391.084 702.948 387.92 701.594C387.026 700.352 387.435 698.774 387.289 696.913C385.77 696.562 385.578 696.672 384.11 696.993L381.54 697.535L380.668 696.866C379.963 694.906 380.346 693.559 380.609 691.441C378.051 692.362 375.286 693.815 373.004 691.975C372.921 690.539 372.971 689.951 373.071 688.542L372.293 687.868C368.699 687.317 367.625 690.493 365.246 687.997C364.588 685.878 365.196 684.263 365.662 682.033C362.698 683.045 360.307 684.352 357.484 683.015C356.339 680.753 357.325 681.04 357.085 677.995C354.359 677.307 353.22 680.86 349.928 678.558C348.778 676.331 349.614 675.505 349.376 673.215C346.596 672.946 346.075 675.666 342.737 674.015C341.833 672.641 342.119 671.677 342.214 669.967L342.259 669.244C340.262 668.243 338.168 671.476 334.875 669.597C334.024 668.081 334.285 666.178 334.32 664.371C331.23 663.627 330.269 666.913 326.678 664.55C325.868 663.143 326.111 662.437 326.259 660.802L326.319 660.192L325.853 659.751C323.381 660.723 322.145 661.825 319.901 660.296C318.464 657.86 320.529 655.805 318.943 654.214C316.136 655.679 313.645 657.546 311.175 654.967C310.61 652.993 311.081 651.653 311.473 649.584C308.668 650.783 305.91 652.552 303.839 649.588C303.49 647.401 304.27 646.032 305.059 643.92C302.08 645.164 297.889 647.486 295.023 645.646C294.599 644.088 294.733 643.365 294.815 641.777L294.082 641.047C291.85 640.413 291.047 641.473 288.786 641.762L287.9 641.018C287 638.918 287.382 637.266 287.562 634.943C284.066 635.751 281.123 637.323 278.144 634.92C276.377 631.676 278.792 624.447 279.801 620.582C284.03 616.832 305.843 603.266 311.66 599.885C322.103 593.816 344.086 578.463 354.331 574.569Z"/><path fill="white" d="M355.42 579.492C359.194 579.851 366.996 582.197 370.895 583.354C385.339 587.639 399.624 592.753 413.948 597.497L550.811 643.567C583.705 654.656 616.744 665.315 649.918 675.539C671.934 682.347 695.306 688.962 717.015 696.457C712.565 705.267 703.648 719.692 705.067 729.692C706.69 741.135 718.762 736.545 724.311 741.737C726.008 743.325 726.312 745.451 725.78 747.63C724.848 751.456 722.204 755.013 720.147 758.325C713.15 769.596 702.582 784.076 704.535 798.044C706.031 808.737 737.787 853.704 745.807 863.12C748.159 865.882 750.64 867.953 753.567 870.083C748.224 877.152 741.926 887.476 736.978 895.083C733.069 895.087 728.531 895.391 724.58 895.56C725.316 892.516 726.822 889.409 723.645 887.744C721.164 887.677 718.934 888.76 716.55 889.643C717.229 887.014 718.261 884.759 715.39 883.42C712.929 883.452 710.648 884.64 708.309 885.593C709.361 883.277 710.179 882.119 709.497 879.771L708.37 879.19C705.898 879.154 704.059 880.198 701.733 881.17C702.377 878.256 703.679 875.198 700.416 873.855C697.811 874.011 695.517 875.329 693.086 876.436C694.718 865.361 689.836 868.193 681.85 870.847C682.372 867.619 683.776 863.998 680.232 862.52C677.601 862.615 675.837 863.599 673.39 864.624C673.638 862.036 674.384 858.982 672.119 857.278C669.95 857.38 669.416 859.162 666.998 859.515L666.542 858.811C666.617 858.466 666.688 858.12 666.755 857.774C667.144 855.755 667.279 855.238 666.253 853.712C664.071 853.144 661.474 854.409 659.102 855.192L658.373 854.789C658.786 852.261 659.546 850.593 657.374 848.975C655.19 848.788 653.017 849.924 650.887 850.757C651.349 848.217 652.225 846.095 649.641 844.779C647.435 844.795 645.483 845.777 643.38 846.589C643.831 844.141 644.733 841.464 642.911 839.511C640.118 840.002 638.552 841.134 636.124 839.232C636.084 838.119 636.035 837.099 635.951 835.989L634.993 835.434C632.462 835.49 630.339 836.725 627.974 837.789C629.734 828.312 628.22 827.81 619.74 831.587C620.173 829.396 621.197 826.547 619.711 824.785C616.789 824.607 615.583 827.072 612.809 827.053C611.655 825.341 612.246 825.182 612.238 822.545L611.409 821.883C608.97 821.624 607.436 822.363 605.085 823.128C607.568 812.469 602.007 819.415 598.232 818.246C598.335 816.995 598.391 815.803 598.447 814.552C596.612 811.236 593.126 813.476 590.361 814.677C590.681 812.334 591.725 809.167 589.1 808.257L587.004 809.06C585.179 809.764 584.913 810.081 582.939 809.706L582.984 809.284L583.048 808.581C583.292 806.122 583.833 805.228 581.597 803.874C579.101 803.848 576.667 805.013 574.262 805.908C574.935 803.108 576.33 800.514 574.043 798.543C572.184 798.395 570.441 799.628 568.721 800.54C565.867 800.215 569.159 797.251 566.073 794.462C564.193 794.133 562.537 795.074 560.717 795.815L560.076 795.527C560.369 793.759 560.572 793.208 560.192 791.426C557.818 789.052 556.506 791.833 552.86 791.662C551.563 788.438 553.224 789.179 552.423 786.135C550.062 785.168 547.242 786.714 544.769 787.674C545.227 785.574 546.468 782.16 544.099 781.144C541.455 782.03 540.422 782.654 537.759 782.142L537.905 780.841C538.103 779.188 538.412 778.779 537.585 777.303C534.738 776.115 532.518 777.595 529.448 778.812C529.668 776.196 530.457 773.942 528.113 772.38C525.981 772.251 524.05 773.303 521.997 774.129C522.633 771.631 523.683 769.337 521.124 767.924C518.824 767.954 516.328 769.306 514.125 770.257C517.491 757.179 511.181 764.813 507.628 764.186C506.357 762.104 507.674 762.543 507.136 759.29L506.114 758.676C503.463 758.577 501.451 759.618 498.932 760.583C499.343 758.217 500.329 755.442 498.281 753.807C495.594 754.355 493.529 756.157 491.178 754.476C491.183 752.381 491.629 751.692 490.082 750.481C487.728 750.138 486.65 750.805 484.424 751.662L484.592 749.739C484.826 747.267 485.109 746.346 482.829 744.962C480.434 744.837 477.79 746.014 475.434 746.824C475.961 744.611 477.259 741.414 474.838 740.278C472.828 740.998 471.18 741.87 469.255 741.019C469.697 738.664 470.38 737.575 469.753 735.618L468.5 735.128C465.841 735.338 464.118 736.338 461.67 737.428C461.773 736.719 461.861 736.007 461.935 735.295C462.066 733.916 462.097 732.932 461.201 731.828C458.248 731.03 456.139 734.393 454.019 732.125C454.276 730.495 454.441 730.153 454.149 728.515L452.962 727.779C450.525 727.469 448.792 728.258 446.408 728.987C446.843 726.459 447.69 724.299 445.831 722.295C443.339 722.642 441.345 724.163 439.583 722.079C439.694 720.41 439.783 720.113 439.487 718.434L438.413 717.731C435.675 717.502 433.193 718.786 430.538 719.8C431.12 716.959 432.522 713.801 429.234 712.691C426.96 712.954 425.299 714.091 423.246 715.189L423.537 713.501C423.962 711.07 424.607 710.09 422.358 708.701C420.133 708.608 417.239 709.899 415.027 710.684C415.942 708.313 417.579 705.489 415.092 703.845C412.698 703.7 410.654 704.784 408.359 705.688C408.639 703.034 409.652 700.991 407.119 699.478C404.711 699.329 402.85 700.273 400.538 701.116C401.013 698.435 401.837 696.386 399.352 694.76C396.937 694.689 394.882 695.714 392.572 696.584C392.967 694.21 393.558 692.8 391.756 691.044C389.762 690.796 387.67 691.884 385.725 692.635C386.088 690.324 387.089 687.567 385.402 685.885C383.009 685.537 381.665 686.592 379.004 687.105C378.048 685.469 378.292 684.74 378.363 682.704L378.394 681.97L377.556 681.396C375.069 681.515 372.44 682.862 370.065 683.847C371.917 674.437 368.931 675.581 361.837 678.33C362.373 675.643 363.436 673.066 360.659 671.637C358.172 671.775 356.418 672.918 354.146 674.039C354.702 671.787 355.387 669.956 355.033 667.705C352.89 665.16 350.947 668.611 347.883 668.201C346.674 665.24 348.382 665.923 347.735 663.135C345.253 662.143 341.709 663.8 339.089 664.713C339.549 662.265 340.492 659.819 338.707 657.887C336.777 657.622 334.516 658.963 332.299 659.674L331.511 659.148C330.616 657.793 330.848 657.08 330.952 655.434L330.996 654.822L330.383 654.165C328.095 653.905 326.392 654.866 324.185 655.729C324.645 652.914 325.437 650.424 322.811 648.78C320.592 648.56 318.607 649.473 316.429 650.191L316.538 648.737C316.739 646.288 317.189 645.171 314.858 643.881C312.724 643.866 311.228 644.799 309.247 645.704C309.699 643.175 310.559 641.152 308.667 639.099C305.882 637.937 302.227 639.973 299.268 641.123C299.773 638.964 301.296 635.204 299.471 633.752C297.752 633.686 294.839 635.335 293.132 636.131L292.545 635.711C291.423 633.769 292.16 632.639 291.783 630.415L290.77 629.713C288.231 629.379 285.25 630.395 282.667 631.037C283.101 628.494 283.517 625.948 283.914 623.4C300.654 612.655 318.112 602.831 334.712 591.802C341.107 587.554 348.455 582.452 355.42 579.492Z"/><path fill="#15120D" d="M358.231 594.566C364.397 594.231 388.936 600.828 384.788 610.711C383.708 613.284 377.878 616.191 375.219 616.965C363.766 617.682 332.856 603.893 358.231 594.566Z"/><path fill="white" d="M359.659 599.521C363.965 600.034 368.516 601.935 372.616 603.392C375.768 604.513 379.904 605.844 380.161 609.582C378.836 612.281 376.885 612.672 374.107 613.683C369.403 613.147 357.16 607.218 352.558 604.887C355.038 601.854 356.093 601.166 359.659 599.521Z"/><path fill="white" d="M730.4 740.596C728.08 738.498 725.863 736.675 723.004 735.31C719.355 733.567 710.447 732.777 710.013 728.073C709.517 722.691 722.4 695.595 726.569 691.313C727.585 690.269 728.422 689.668 729.916 689.616C735.919 689.404 810.507 710.983 819.311 714.285C826.295 716.904 832.898 720.629 839.65 723.787C846.447 726.965 853.579 729.656 860.65 732.158C878.934 738.629 914.663 742.731 927.487 756.735C929.672 759.121 930.46 762.202 930.145 765.403C929.913 767.765 928.824 769.679 926.954 771.127C918.741 777.483 912.944 772.26 905.565 785.008L904.856 785.201L903.843 784.226C905.862 803.579 906.321 821.59 900.488 840.387C896.241 854.072 891.362 863.161 891.037 877.635L890.734 877.033C888.453 872.421 887.934 868.913 887.207 863.868C886.305 864.51 886.248 865.933 886.065 867.072C883.396 883.64 905.087 887.344 902.481 903.633C900.476 916.165 893.438 916.064 882.784 914.264C871.273 911.944 859.827 907.988 848.529 904.712C841.107 902.56 829.36 899.616 822.573 897.502C812.625 894.404 762.309 879.173 757.779 873.173C758.114 871.652 758.312 871.194 758.859 869.771C758.428 866.99 750.381 860.989 748.338 857.587C741.939 846.93 707.047 803.295 709.692 793.532L710.125 793.404C715.516 806.138 725.172 819.614 733.066 830.637C743.478 845.178 752.544 862.86 770.313 868.622C793.562 877.628 816.284 884.77 840.215 891.798C856.059 896.45 872.542 901.991 888.951 904.855C894.836 905.882 900.628 901.775 899.504 895.369L898.999 894.928C896.992 897.747 895.219 900.939 891.541 901.633C881.131 903.598 771.267 867.961 760.571 860.2C757.082 857.668 754.066 854.142 751.373 850.809C743.951 841.627 713.329 799.053 711.979 789.74C709.388 771.849 747.234 745.134 728.933 729.999C725.145 726.866 717.561 723.608 712.586 724.351C712.103 724.423 711.919 724.494 711.416 724.634L711.209 725.295C716.838 730.605 728.764 725.798 730.4 740.596Z"/><path fill="#15120D" d="M903.843 784.226C902.399 772.87 905.617 764.19 918.537 762.372C920.032 762.162 921.061 762.538 922.317 763.367L922.323 764.046C919.947 765.392 916.784 765.516 914.065 766.625C905.504 770.115 905.253 776.865 905.565 785.008L904.856 785.201L903.843 784.226Z"/><path fill="#15120D" d="M820.083 732.59C820.528 732.55 820.973 732.514 821.419 732.485C835.049 731.591 846.488 735.381 857.086 744.183C871.057 756.067 864.054 770.727 858.844 784.72C856.045 791.831 854.89 798.046 853.214 805.514C849.185 823.463 860.215 845.407 848.039 861.036C844.102 866.089 836.377 867.43 830.471 867.711C820.234 867.482 811.463 864.11 802.646 859.046C793.109 853.569 787.861 845.56 785.094 835.062C782.817 826.422 782.376 817.111 783.236 808.238C784.36 796.632 795.464 755.319 801.259 745.662C805.643 738.355 811.965 734.612 820.083 732.59Z"/><path fill="white" d="M820.311 750.079C828.967 749.125 855.982 756.961 858.269 768.392C859.045 772.275 850.415 789.707 849.685 795.518C848.905 801.728 846.441 809.498 847.1 816.383C846.232 833.985 857.283 858.755 832.006 862.445C813.435 862.683 789.984 850.366 791.235 829.42C791.814 815.45 795.691 800.385 800.011 787C804.243 773.885 805.814 754.813 820.311 750.079Z"/><path fill="white" d="M823.882 734.638C836.745 734.294 865.16 745.935 862.21 761.964C859.273 761.918 857.606 757.251 854.772 755.445C843.507 748.263 826.644 740.31 813.464 746.973C803.787 751.865 800.558 765.275 797.576 774.942C793.242 788.218 788.162 807.24 786.304 820.807C784.478 802.386 791.911 783.178 796.883 765.672C801.468 749.53 805.473 737.832 823.882 734.638Z"/><path fill="#15120D" d="M736.634 781.08C748.782 780.61 753.933 793.847 740.532 797.78C726.459 797.743 724.293 784.383 736.634 781.08Z"/><path fill="white" d="M735.944 784.049C743.812 783.75 749.999 790.097 741.18 794.572C733.174 795.209 726.771 789.737 735.944 784.049Z"/><path fill="#15120D" d="M763.103 738.125C776.694 737.773 779.327 751.059 766.683 754.463C762.088 754.544 757.301 753.062 755.722 748.255C755.113 746.45 755.274 744.474 756.166 742.792C757.676 739.954 760.202 738.922 763.103 738.125Z"/><path fill="white" d="M762.46 741.058C771.367 740.284 776.495 746.848 767.558 751.375C759.133 751.77 753.277 746.539 762.46 741.058Z"/><path fill="#15120D" d="M744.586 703.057C757.136 702.354 761.368 714.384 749.036 719.284C744.711 719.727 739.689 718.485 737.771 714.151C736.939 712.318 736.933 710.215 737.755 708.377C739.143 705.254 741.617 704.176 744.586 703.057Z"/><path fill="white" d="M745.635 705.482C754.204 705.376 757.977 713.745 747.944 716.493C738.778 715.928 736.247 709.739 745.635 705.482Z"/><path fill="#15120D" d="M838.608 231.463C843.084 231.264 857.57 240.592 862.394 243.336L901.728 265.824C908.94 269.97 943.4 289.319 947.605 293.414C948.508 299.319 948.189 305.894 947.702 311.813C943.019 316.252 918.807 330.356 912.607 332.091C904.866 329.997 884.305 316.624 877.155 311.775C875.395 312.856 873.453 314.577 871.828 315.922C873.176 323.403 872.963 323.925 866.166 328.134C832.03 349.274 797.71 370.107 763.319 390.829L718.38 418.149C710.094 423.167 701.242 429.447 692.261 432.744C688.904 433.977 677.661 425.68 674.454 423.674C665.519 418.086 655.681 412.79 647.229 406.528L632.536 415.306L924.255 599.087C926.857 600.782 929.854 602.511 932.503 604.111C939.503 608.339 939.301 611.235 938.949 618.53C936.097 621.264 900.388 642.831 896.095 644.736C890.97 642.54 881.406 636.198 876.248 632.962L839.637 609.86L711.505 529.2L590.362 453.145L554.445 430.696C549.896 427.844 539.395 421.645 535.984 418.41C535.726 411.144 534.498 408.128 541.47 404.098C558.357 394.336 575.493 384.844 592.576 375.419L664.877 334.925L774.08 273.782C794.318 262.45 815.093 250.262 835.546 239.491C835.646 235.383 835.143 234.159 838.608 231.463Z"/><path fill="white" d="M820.129 253.728C825.15 250.85 831.672 247.323 836.416 244.233L836.491 267.563C836.504 271.339 835.511 277.961 838.253 280.438C836.445 284.052 812.401 293.79 806.561 297.244C751.74 329.527 697.292 362.44 643.227 395.974C636.067 400.423 628.59 404.43 621.469 408.918C617.821 411.217 622.017 413.676 624.001 414.957C648.383 430.704 673.043 446.01 697.538 461.586L858.594 563.281C883.151 578.746 908.712 594.378 932.987 610.129C920.668 617.166 908.438 624.356 896.299 631.7C893.195 629.637 890.064 627.618 886.904 625.642L885.476 624.636C883.568 623.821 883.329 623.519 881.706 622.149L880.195 621.232C878.796 620.721 878.825 620.658 877.637 619.718C877.641 617.21 883.161 614.883 885.439 611.854C880.467 613.703 879.795 615.261 875.16 617.1C873.702 617.678 872.415 616.564 870.994 615.764L869.926 615.713L869.482 614.812C868.058 613.78 866.655 612.72 865.274 611.632L863.617 610.782C861.759 609.93 861.739 610.009 860.337 608.592C862.465 607.013 865.16 604.908 866.68 602.763L865.986 602.65C862.724 603.941 860.838 605.518 858.016 607.586C856.774 606.839 855.176 606.023 853.877 605.318C851.251 604.32 850.336 604.895 849.299 602.048L848.952 601.89C846.744 601.629 844.326 600.475 842.985 598.678L842.549 597.095L840.886 596.735C839.353 595.901 838.762 595.377 837.43 594.307L835.274 597.053C843.586 602.259 893.281 632.535 894.829 635.504C895.238 636.288 895.017 636.339 894.755 637.115L893.563 637.426C890.496 636.915 834.884 600.87 826.84 595.79L631.361 472.802L568.957 433.617L549.408 421.378C547.37 420.101 542.204 417.113 540.641 415.725C539.983 413.882 539.909 414.705 540.399 413.169C541.929 413.099 576.926 435.389 581.585 438.226C580.838 436.597 578.532 435.225 576.913 433.787C578.593 433.544 578.713 433.813 580.439 434.347C579.398 433.42 579.237 433.407 578.589 432.206C577.492 432.507 578.058 432.512 576.872 431.86C575.628 430.856 573.605 429.563 572.235 428.623L570.421 427.711C569.652 426.96 565.916 424.752 564.784 424.049C569.946 421.131 576.034 418.3 579.522 413.602C573.588 416.1 568.234 419.585 562.762 422.952L558.414 420.372L558.132 420.524C556.834 420.413 557.285 420.558 556.127 419.944L557.007 419.288C555.373 418.567 554.347 418.226 553.73 416.8C555.536 414.247 559.77 415.003 560.597 411.468L559.973 411.067C557.524 411.877 553.173 414.357 550.715 415.666L541.824 409.975C545.783 407.592 549.415 405.621 553.478 403.456C555.885 405.084 557.627 406.661 560.433 406.888L560.803 406.251C559.53 404.379 557.536 403.579 555.493 402.44L558.815 400.203C560.411 401.203 565.874 405.022 567.34 403.858C565.598 402.011 562.806 400.587 562.006 398.845L562.547 398.007C564.796 397.201 563.686 397.284 566.003 397.7L566.56 396.174C573.511 391.159 574.167 400.08 578.19 397.206C576.695 394.589 574.358 395.424 572.897 392.83C573.985 391.379 573.301 391.985 575.248 391.249C577.248 391.452 578.516 393.394 581.235 394.712C583.039 394.673 582.409 395.042 583.425 394.022C582.8 392.949 579.711 391.414 578.223 390.421L578.098 389.645L578.8 388.676C581.782 387.598 584.937 390.393 588.56 391.168L588.782 390.692C587.407 388.742 585.339 387.927 583.179 386.756C585.071 385.68 586.462 385.018 588.451 384.124C593.112 386.635 599.487 391.796 604.135 392.741L604.672 392.289C603.356 388.957 594.128 384.728 590.444 382.685C592.278 381.559 594.35 380.072 596.452 380.3L597.243 379.269C598.85 377.635 599.668 377.467 601.829 376.858L602.234 376.503L602.209 375.66L603.004 375.415C609.609 371.759 610.442 377.628 614.366 377.42L614.826 376.744C613.584 374.56 610.152 374.14 609.492 372.34C609.642 372.181 609.792 372.021 609.942 371.862C609.77 371.479 612.738 370.361 612.761 370.367C616.531 371.355 623.098 377.394 626.755 377.4L627.26 376.657C625.423 373.268 617.621 371.199 615.619 368.801C620.047 364.048 622 370.936 626.517 370.522L626.96 369.93C625.89 368.112 623.909 368.101 621.851 366.08C622.211 364.526 621.872 365.275 623.762 364.063C627.472 364.269 629.798 369.018 632.328 366.88C631.411 364.814 628.687 365.03 627.228 362.683L627.754 361.795C629.276 360.971 629.479 360.642 631.171 360.879L632.291 359.539C633.635 358.335 635.178 357.663 636.795 356.784C640.075 359.031 648.332 365.195 651.851 365.088L651.788 364.338C648.719 361.103 642.593 357.995 638.535 355.72L643.668 352.982C645.883 354.341 648.126 355.511 650.414 356.739L651.425 356.605L651.476 356.636C649.562 354.374 648.804 353.832 646.503 352.052L646.43 351.375C650.195 348.718 654.826 353.164 659.102 354.797L659.78 355.05C656.863 351.684 655.5 351.047 651.748 348.54L655.474 346.331C657.904 348.213 658.518 348.768 661.482 349.941L662.318 349.833L662.476 350.065C661.268 348.724 658.882 346.304 658.177 344.802L658.87 343.86C660.589 343.547 660.619 343.495 662.449 343.654L663.02 342.278C664.982 340.964 665.757 340.205 667.951 340.444L669.076 339.533C670.212 337.501 670.86 337.549 672.957 337.618L673.525 336.264L677.675 333.8C680.032 335.479 681.591 336.943 684.389 337.31L684.796 336.727C683.626 334.87 681.667 334.041 679.701 332.891C681.149 331.919 683.52 330.18 685.148 330.262L686.439 328.899C688.589 327.66 689.478 327.13 691.796 326.309L692.969 325.415C698.333 321.94 698.768 325.49 703.919 326.749L704.674 325.917C704.041 324.22 701.448 324.864 699.738 322.465C700.316 320.815 700.659 321.095 702.619 319.904C705.058 321.486 706.434 322.742 709.237 323.02L709.544 322.452C708.3 320.696 706.265 319.846 704.323 318.755L708.724 316.443C711.118 317.882 720.13 323.575 722.19 324.043L722.592 323.592C721.426 319.458 715.695 318.479 711.54 315.15C711.99 313.986 711.637 314.507 712.928 313.79C716.659 313.581 719.891 316.315 724.037 317.824L724.723 318.069C722.065 315.061 720.267 314.899 717.548 311.891L717.871 310.808C719.173 310.515 719.276 310.566 720.629 310.616L722.102 309.763C723.359 304.206 729.818 312.323 732.482 310.514C731.04 308.308 729.159 308.76 727.295 306.484L727.568 305.193L728.586 304.637C734.418 304.747 742.843 313.194 745.88 311.855L745.637 311.022C742.892 308.473 736.184 305.099 732.591 303.16C733.826 302.382 735.314 301.583 736.603 300.853C740.14 303.042 742.186 304.556 746.155 305.943C744.294 303.856 739.882 300.648 739.101 299.074C741.824 297.416 746.334 300.662 749.292 300.631C747.931 298.702 746.211 297.9 744.178 296.634L748.222 294.309L749.981 295.425C751.882 296.651 752.284 297.214 754.463 297.41L754.887 296.843C753.652 294.984 751.854 294.305 749.838 293.201L754.168 291.051C757.569 292.901 764.834 298.296 768.011 298.316L768.44 297.819C766.773 294.117 758.973 293.102 757.244 289.504L757.647 288.653C761.858 286.948 763.916 293.081 766.757 291.023C766.304 288.746 762.945 288.775 762.291 286.608C763.732 285.541 764.006 285.602 765.725 285.18L766.928 283.813C768.846 282.747 768.923 282.697 771.021 282.1L771.445 281.738C772.282 279.184 773.73 278.609 776.276 278.209C781.32 281.301 786.976 285.161 792.431 287.185C788.231 282.269 784.087 280.416 778.562 277.346L784.316 274.353C788.077 276.994 789.266 277.566 793.446 278.941C791.113 276.304 789.211 275.516 786.563 273.001C788.927 271.373 793.374 273.404 796.788 273.857C796.431 272.624 794.232 272.156 792.379 270.373L792.73 269.532C795.194 268.306 794.425 268.275 796.874 268.401L797.828 267.183C798.965 265.943 798.947 265.828 800.517 265.078C803.847 265.13 811.589 273.261 815.855 273.061L816.317 272.51C815.226 270.011 805.998 265.282 803.17 263.645L807.168 261.2C809.181 262.519 811.583 264.269 813.779 265.103L814.477 264.894C814.42 261.656 810.581 262.228 809.75 259.883C811.861 255.971 819.29 262.228 822.641 263.557L822.178 263.037C820.377 261.042 816.363 257.739 815.471 256.554C817.67 254.879 822.831 257.458 825.544 258.248C825.579 256.722 821.475 254.519 820.129 253.728Z"/><path fill="white" d="M835.274 597.053C843.586 602.259 893.281 632.535 894.829 635.504C895.238 636.288 895.017 636.339 894.755 637.115L893.563 637.426C890.496 636.915 834.884 600.87 826.84 595.79L631.361 472.802L568.957 433.617L549.408 421.378C547.37 420.101 542.204 417.113 540.641 415.725C539.983 413.882 539.909 414.705 540.399 413.169C541.929 413.099 576.926 435.389 581.585 438.226C592.187 445.36 603.479 451.768 614.194 458.761C616.258 460.107 618.674 461.686 620.799 462.869L669.405 493.316L677.16 498.148L777.833 561.015L808.978 580.584C812.061 582.53 821.551 588.824 824.412 590.196C828.001 592.532 831.622 594.818 835.274 597.053Z"/><path fill="#15120D" d="M677.16 498.148L680.474 496.553C681.65 497.275 683.234 498.347 684.461 498.811L685.839 499.587C687.496 501.049 687.6 501.149 689.593 502.037L691.336 503.277C692.407 503.882 694.937 505.443 696.04 505.452L697.171 506.783C698.644 507.713 700.262 508.789 701.754 509.648L702.723 511.165L703.391 510.744C704.678 511.584 705.733 512.679 707.129 512.07C711.401 510.206 712.306 508.731 716.845 506.951C714.342 510.625 711.411 510.995 709.588 513.862C709.87 515.278 710.825 515.577 712.152 516.302L714.076 517.065C715.389 518.012 716.576 518.917 717.988 519.719C723.912 515.799 728.168 512.485 734.884 510.075C731.459 513.884 724.984 517.655 720.511 520.609C721.227 521.995 721.751 522.208 723.019 523.093C723.733 523.681 724.158 524.229 724.903 524.385C725.978 525.014 727.623 526.34 728.759 525.784C732.682 523.863 734.94 522.097 739.097 520.451C736.519 523.599 732.438 525.332 730.815 527.624C731.896 528.745 731.815 528.672 733.278 529.223C737.513 527.346 740.218 524.888 744.285 523.357C741.099 526.988 739.536 527.984 735.543 530.743C736.863 531.678 738.763 532.933 739.95 533.957C740.225 534.107 741.124 534.629 741.381 534.703C742.561 535.455 743.237 535.802 744.279 536.75L743.757 537.042C745.808 538.096 748.05 540.38 749.937 540.58L749.825 540.279L749.478 540.206C752.557 537.884 753.737 536.672 757.439 535.597L758.118 535.966C756.681 537.336 753.426 539.752 752.933 541.3C754.115 542.765 753.398 542.126 755.541 542.857L755.724 543.759L756.641 543.931C757.73 544.767 758.82 545.533 759.799 546.487C761.46 547.714 768.375 552.837 770.051 553.032C774.399 551.377 775.93 548.975 781.763 547.013L781.31 547.471C778.878 549.896 774.109 552.61 773.695 554.651C774.421 555.464 774.981 555.559 776.185 555.35L777.601 556.22C778.487 558.039 779.034 557.951 780.973 559.301C784.818 556.622 792.272 551.465 796.402 549.509L797.517 549.714L797.794 550.629C795.546 554.26 785.163 557.401 783.721 560.67C784.961 561.951 785.047 561.94 786.519 562.807L785.62 563.161C787.007 563.926 786.755 563.718 788.442 563.829L791.71 565.921L792.096 566.635L793.051 566.829C795.512 568.277 796.029 569.453 798.321 567.604C799.774 566.432 803.201 564.928 805.01 564.952C803.145 566.794 800.37 568.668 798.083 570.011C798.125 572.254 802.141 573.642 804.035 573.962L805.301 574.735L805.492 575.732C808.128 577.147 810.532 579.142 813.066 579.743C813.351 579.909 813.636 580.076 813.921 580.242C814.688 580.603 817.289 581.886 817.954 582.112C818.714 582.311 819.37 582.439 820.089 582.737C820.906 584.468 821.884 584.695 823.666 585.888C824.352 586.889 823.887 586.594 825.033 586.815L830.299 590.15C832.528 588.479 835.692 585.653 838.424 586.006C837.813 588.027 833.915 590.122 832.028 591.319L831.562 591.337L832.169 592.718L831.649 593.428C830.148 592.979 826.221 590.332 824.688 589.366L824.412 590.196C821.551 588.824 812.061 582.53 808.978 580.584L777.833 561.015L677.16 498.148Z"/><path fill="#15120D" d="M584.29 435.746C589.277 432.019 593.671 428.77 599.588 426.675C596.404 430.541 590.21 434.453 585.693 436.707C586.897 437.929 586.943 438.157 588.58 438.75C592.173 438.582 595.544 435.346 599.584 433.658C597.408 436.66 592.807 438.667 592.162 440.827C592.818 441.355 593.275 441.708 593.968 442.209C598.018 440.116 600.228 438.495 604.67 437.318C601.685 439.962 598.232 441.855 596.035 443.845C598.095 444.883 598.135 445.334 600.061 445.176C601.929 443.918 604.811 441.515 606.806 441.32L607.337 441.77C606.339 443.944 603.179 445.39 600.888 446.753C602.068 447.435 604.882 449.165 606.003 449.593C610.341 446.864 617.532 441.925 622.261 440.755L622.449 441.217C619.311 444.281 612.151 448.789 608.081 450.691C608.689 452.082 611.29 453.282 612.731 454.149C617.136 451.196 618.369 450.12 623.224 448.227C620.657 451.36 616.515 452.781 615.199 455.168C615.838 456.545 616.245 456.402 617.838 457.348C620.312 455.785 623.263 453.61 626.148 453.469C624.578 455.363 622.226 456.88 620.178 458.297C620.903 459.55 621.881 459.999 623.109 460.798C621.742 461.653 621.814 461.607 620.799 462.869C618.674 461.686 616.258 460.107 614.194 458.761C603.479 451.768 592.187 445.36 581.585 438.226C580.838 436.597 578.532 435.225 576.913 433.787C578.593 433.544 578.713 433.813 580.439 434.347C581.505 434.792 583.225 435.555 584.29 435.746Z"/><path fill="#15120D" d="M633.632 454.999C631.012 457.967 627.753 459.166 625.71 461.724L625.857 462.518C631.574 465.479 638.464 456.377 644.311 455.479C644.602 455.378 644.892 455.276 645.183 455.175C641.096 459.579 636.362 462.102 631.286 465.203C631.968 466.42 633.407 467.1 634.646 467.884L636.461 468.815C637.65 469.523 639.205 470.529 640.433 471.037L641.923 472.072C643.199 472.963 644.173 473.723 645.603 474.367L647.131 475.392C648.539 476.636 649.001 477.038 650.581 478.022C656.933 473.794 662.576 469.628 669.87 467.165C665.708 471.444 655.897 476.218 653.614 479.095C653.682 479.436 653.833 480.29 653.931 480.589C655.039 481.685 656.701 482.799 658.273 482.875C659.472 483.498 661.42 484.761 662.549 484.715L664.074 485.806C665.265 487.091 665.291 487.375 667.007 487.715C671.039 486.776 672.929 484.249 677.51 482.484C674.974 486.101 671.819 486.867 670.297 489.707C670.934 491.154 671.246 490.983 672.793 492.033C671.326 491.965 670.678 492.553 669.405 493.316L620.799 462.869C621.814 461.607 621.742 461.653 623.109 460.798C627.214 457.391 628.566 456.645 633.632 454.999Z"/><path fill="#15120D" d="M672.793 492.033C676.339 489.605 682.973 484.912 687.33 484.653L687.353 484.693L686.392 484.896L686.174 485.867C683.167 488.055 677.779 490.88 675.69 492.935L675.802 493.578C676.946 494.27 678.224 495.417 679.18 494.933C683.686 492.65 684.855 491.104 689.772 489.418C686.731 492.779 684.37 494.237 680.474 496.553L677.16 498.148L669.405 493.316C670.678 492.553 671.326 491.965 672.793 492.033Z"/><path fill="#15120D" d="M759.799 546.487C764.459 544.993 769.672 539.045 778.026 536.494C774.645 540.373 764.369 545.537 763.6 548.508C766.044 551.432 773.136 545.224 776.853 544.013L776.374 544.505C773.737 547.17 769.104 549.493 768.938 551.718L770.051 553.032C768.375 552.837 761.46 547.714 759.799 546.487Z"/><path fill="#15120D" d="M798.083 570.011C800.043 571.25 800.055 571.691 802.053 571.82C808.372 568.352 814.739 563.238 821.323 561.285C815.972 567.229 805.922 571.077 804.035 573.962C802.141 573.642 798.125 572.254 798.083 570.011Z"/><path fill="#15120D" d="M842.985 598.678C845.369 599.456 846.001 600.214 847.707 599.295C855.072 595.326 858.31 591.28 866.447 588.568C861.803 594.181 849.723 599.343 848.952 601.89C846.744 601.629 844.326 600.475 842.985 598.678Z"/><path fill="#15120D" d="M739.95 533.957C743.886 529.398 753.619 523.638 759.508 521.752C754.608 526.505 747.232 530.93 741.381 534.703C741.124 534.629 740.225 534.107 739.95 533.957Z"/><path fill="#15120D" d="M805.301 574.735C806.655 575.306 807.128 575.842 808.348 575.233C812.372 573.223 813.758 571.789 818.18 570.047C815.693 573.59 813.001 574.316 810.118 577.211L810.383 577.984C813.468 579.162 817.775 575.194 820.642 575.284C818.585 577.635 816.582 578.619 813.921 580.242C813.636 580.076 813.351 579.909 813.066 579.743C810.532 579.142 808.128 577.147 805.492 575.732L805.301 574.735Z"/><path fill="#15120D" d="M824.412 590.196L824.688 589.366C826.221 590.332 830.148 592.979 831.649 593.428L832.169 592.718L831.562 591.337L832.028 591.319C833.414 592.09 834.752 593.221 836.149 592.603C840.522 590.667 841.219 589.233 845.93 587.358C843.306 590.882 841.126 592.099 837.43 594.307L835.274 597.053C831.622 594.818 828.001 592.532 824.412 590.196Z"/><path fill="#15120D" d="M696.04 505.452C700.885 502.063 709.676 496.117 715.048 494.254C710.901 499.221 702.872 503.719 697.171 506.783L696.04 505.452Z"/><path fill="#15120D" d="M686.439 328.899C691.848 332.075 698.318 335.16 702.323 339.944L702.757 340.481C698.246 338.765 688.789 333.429 685.148 330.262L686.439 328.899Z"/><path fill="#15120D" d="M869.482 614.812C874.626 610.323 879.577 606.839 886.074 604.609C881.689 609.44 876.497 612.304 870.994 615.764L869.926 615.713L869.482 614.812Z"/><path fill="#15120D" d="M823.666 585.888C828.624 582.376 835.303 577.636 841.128 575.784C836.567 580.746 831.065 583.86 825.033 586.815C823.887 586.594 824.352 586.889 823.666 585.888Z"/><path fill="#15120D" d="M566.56 396.174C569.723 397.736 576.368 400.574 577.908 403.456C575.544 404.508 568.095 399.073 566.003 397.7L566.56 396.174Z"/><path fill="#15120D" d="M663.02 342.278C665.626 343.548 673.48 346.943 674.196 349.611C671.474 350.254 664.648 345.508 662.449 343.654L663.02 342.278Z"/><path fill="#15120D" d="M744.279 536.75C746.834 536.481 752.023 532.375 756.183 530.929C754.144 533.367 748.044 536.882 748.008 538.807L749.478 540.206L749.825 540.279L749.937 540.58C748.05 540.38 745.808 538.096 743.757 537.042L744.279 536.75Z"/><path fill="#15120D" d="M849.299 602.048C850.723 602.84 851.634 603.744 853.122 603.101C857.534 601.195 858.665 599.646 863.444 597.935C860.158 601.941 857.418 602.373 853.877 605.318C851.251 604.32 850.336 604.895 849.299 602.048Z"/><path fill="#15120D" d="M786.519 562.807C791.191 559.349 792.18 558.459 797.588 556.519C794.939 559.546 791.74 561.542 788.442 563.829C786.755 563.718 787.007 563.926 785.62 563.161L786.519 562.807Z"/><path fill="#15120D" d="M723.019 523.093C725.87 521.286 727.859 519.785 731.143 518.988L731.424 519.374C729.553 521.615 727.366 522.786 724.903 524.385C724.158 524.229 723.733 523.681 723.019 523.093Z"/><path fill="#15120D" d="M653.931 480.589C654.565 480.766 655.334 480.981 656.238 481.233C659.508 479.835 660.764 478.908 664.329 477.988C663.119 479.842 660.058 481.207 658.273 482.875C656.701 482.799 655.039 481.685 653.931 480.589Z"/><path fill="#15120D" d="M791.71 565.921C795.985 562.441 796.993 561.562 802.23 559.692C799.113 563.318 797.249 564.573 793.051 566.829L792.096 566.635L791.71 565.921Z"/><path fill="#15120D" d="M557.007 419.288C560.959 416.689 563.198 415.181 567.875 413.933C564.773 416.641 562.103 418.469 558.414 420.372L558.132 420.524C556.834 420.413 557.285 420.558 556.127 419.944L557.007 419.288Z"/><path fill="#15120D" d="M701.754 509.648C705.828 506.577 707.595 505.467 712.524 503.83C709.772 506.59 706.613 508.562 703.391 510.744L702.723 511.165L701.754 509.648Z"/><path fill="#15120D" d="M570.421 427.711C574.407 424.852 576.297 423.555 581.089 421.96C577.975 425.195 576.379 426.455 572.235 428.623L570.421 427.711Z"/><path fill="#15120D" d="M771.021 282.1L771.445 281.738C772.282 279.184 773.73 278.609 776.276 278.209C774.586 279.514 774.136 279.802 772.209 280.715C774.024 281.828 776.113 282.783 777.088 284.59L776.63 285.035C774.494 284.741 772.825 283.381 771.021 282.1Z"/><path fill="#15120D" d="M885.476 624.636C887.798 622.964 889.571 621.399 892.301 620.631L893.261 620.796C892.92 622.164 891.64 622.965 890.457 623.666C889.286 624.347 888.101 625.006 886.904 625.642L885.476 624.636Z"/><path fill="#15120D" d="M689.593 502.037C691.903 500.452 693.817 498.819 696.505 498.243L696.967 498.671C695.486 500.8 693.525 501.823 691.336 503.277L689.593 502.037Z"/><path fill="#15120D" d="M863.617 610.782C865.787 609.056 867.38 607.493 870 606.668L870.979 606.851C870.381 608.921 867.165 610.501 865.274 611.632L863.617 610.782Z"/><path fill="#15120D" d="M712.152 516.302C714.506 514.519 716.435 512.756 719.213 511.864L720.066 512.055C718.693 514.347 716.332 515.604 714.076 517.065L712.152 516.302Z"/><path fill="#15120D" d="M776.185 555.35C778.307 553.686 779.948 552.075 782.508 551.393L783.448 551.643C782.811 553.718 779.527 555.28 777.601 556.22L776.185 555.35Z"/><path fill="#15120D" d="M755.541 542.857C759.128 539.942 760.858 538.603 765.362 536.932C762.425 540.164 760.439 541.657 756.641 543.931L755.724 543.759L755.541 542.857Z"/><path fill="#15120D" d="M880.195 621.232C884.261 618.178 885.363 617.258 890.274 615.543C887.334 618.597 885.502 620.058 881.706 622.149L880.195 621.232Z"/><path fill="#15120D" d="M601.829 376.858L602.234 376.503L602.209 375.66L603.004 375.415C604.682 377.087 607.857 378.369 608.848 379.82L608.815 380.656C606.929 380.731 602.9 378.353 601.829 376.858Z"/><path fill="#15120D" d="M576.872 431.86C579.073 429.707 580.367 428.328 583.357 427.688L584.015 428.131C583.131 430.018 580.46 431.198 578.589 432.206C577.492 432.507 578.058 432.512 576.872 431.86Z"/><path fill="#15120D" d="M645.603 474.367C647.455 472.881 649.822 470.571 652.316 470.925L652.439 471.621C651.09 473.425 649.14 474.253 647.131 475.392L645.603 474.367Z"/><path fill="#15120D" d="M645.253 461.737C642.167 465.27 640.427 466.241 636.461 468.815L634.646 467.884C638.447 465.061 640.839 463.664 645.253 461.737Z"/><path fill="#15120D" d="M817.954 582.112C820.172 580.462 821.889 578.841 824.537 578.271L825.419 578.578C824.681 580.48 821.886 581.928 820.089 582.737C819.37 582.439 818.714 582.311 817.954 582.112Z"/><path fill="#15120D" d="M662.549 484.715C664.601 483.141 665.908 481.861 668.382 481.159L669.435 481.364C669.016 483.03 667.772 483.619 666.275 484.516C665.545 484.952 664.811 485.382 664.074 485.806L662.549 484.715Z"/><path fill="#15120D" d="M684.461 498.811C686.564 497.188 688.343 495.464 690.863 494.89L691.564 495.247C690.639 497.276 687.817 498.501 685.839 499.587L684.461 498.811Z"/><path fill="#15120D" d="M840.886 596.735C842.94 594.929 844.354 593.362 846.923 592.516L847.875 592.71C847.261 594.734 844.36 596.065 842.549 597.095L840.886 596.735Z"/><path fill="#15120D" d="M640.433 471.037C642.523 469.505 643.993 468.104 646.487 467.587L647.054 468.027C646.131 469.793 643.707 470.994 641.923 472.072L640.433 471.037Z"/><path fill="#15120D" d="M673.525 336.264C675.647 337.321 677.557 337.989 679 339.799L678.904 340.577C676.636 340.759 674.761 338.995 672.957 337.618L673.525 336.264Z"/><path fill="#15120D" d="M765.725 285.18L766.928 283.813C768.922 285.169 770.778 286.048 771.771 288.154L771.292 288.435C768.572 287.609 767.913 286.93 765.725 285.18Z"/><path fill="#15120D" d="M632.291 359.539C634.236 360.745 636.258 361.666 637.367 363.563L637.03 364.018C634.904 363.616 632.851 362.246 631.171 360.879L632.291 359.539Z"/><path fill="#15120D" d="M720.629 310.616L722.102 309.763C723.825 310.684 725.697 311.413 726.68 313.025L726.193 313.617C723.627 313.383 722.67 312.3 720.629 310.616Z"/><path fill="#15120D" d="M597.243 379.269C599.1 380.303 601.38 381.259 602.459 382.99L602.111 383.51C600.109 383.26 597.775 381.698 596.452 380.3L597.243 379.269Z"/><path fill="#15120D" d="M669.076 339.533C670.776 340.538 672.854 341.431 673.672 343.123L673.147 343.61C671.22 343.219 669.306 341.824 667.951 340.444L669.076 339.533Z"/><path fill="#15120D" d="M692.969 325.415C694.745 326.411 696.609 327.189 697.714 328.845L697.369 329.415C695.039 329.019 693.738 327.739 691.796 326.309L692.969 325.415Z"/><path fill="#15120D" d="M797.828 267.183C799.502 268.131 801.167 268.818 802.138 270.435L801.803 271.118C800.004 271.026 798.053 269.677 796.874 268.401L797.828 267.183Z"/><path fill="white" d="M844.005 288.638C846.368 290.016 849.786 290.757 852.557 292.232C860.911 296.676 869.056 301.465 877.252 306.196C869.674 310.905 866.788 312.138 867.836 321.438C852.604 331.514 834.315 341.948 818.503 351.645L699.965 423.569C698.804 424.315 698.705 424.566 697.375 424.645C696.632 423.055 696.548 419.669 696.299 417.622C695.772 413.296 690.277 409.486 686.896 406.932C688.093 404.618 718.024 387.239 722.81 384.368L818.362 326.858C830.876 319.222 843.738 311.849 856.124 304.019C857.587 303.094 858.713 302.198 859.311 300.554C858.364 295.277 845.883 294.211 842.968 290.328L844.005 288.638Z"/><path fill="#15120D" d="M794.79 345.087L794.817 345.509C792.763 348.528 765.207 364.166 760.441 366.634L760.416 366.016C763.751 362.358 789.66 347.49 794.79 345.087Z"/><path fill="#15120D" d="M733.824 382.079L733.844 382.306C732.61 385.117 713.835 395.374 709.906 397.119L709.841 396.667C711.116 394.526 730.672 383.373 733.824 382.079Z"/><path fill="#15120D" d="M830.968 323.458L831.766 323.559L831.534 324.338C828.676 326.538 825.065 328.342 821.863 330.072L821.335 329.836C822.153 327.939 828.917 324.578 830.968 323.458Z"/><path fill="#15120D" d="M768.477 377.518C768.258 379.783 761.855 382.882 759.846 384.044L759.712 383.295C760.605 381.088 766.265 378.637 768.477 377.518Z"/><path fill="#15120D" d="M821.494 345.416C821.971 345.823 821.78 345.541 821.871 346.363C819.797 348.356 817.541 349.513 815.066 350.986L814.844 350.153C816.927 348.081 819.006 346.964 821.494 345.416Z"/><path fill="white" d="M839.771 236.454C844.475 238.395 865.103 250.851 870.566 253.957C894.617 267.546 918.581 281.288 942.457 295.182C938.898 297.043 934.426 299.995 930.935 302.161L912.055 313.349C892.985 301.55 872.919 291.202 853.754 279.532C849.361 276.857 844.591 274.04 839.998 271.766C840.023 259.995 839.947 248.224 839.771 236.454Z"/><path fill="#15120D" d="M844.246 243.119C849.802 243.993 930.998 291.334 935.383 295.29C932.762 297.694 928.491 300.097 925.353 302.014C921.5 304.543 916.328 307.299 912.244 309.615C904.193 305.993 849.056 274.499 844.025 269.644C843.993 261.761 843.162 250.697 844.246 243.119Z"/><path fill="white" d="M846.652 254.131C849.528 255.689 852.387 257.557 855.226 259.212C878.09 272.538 900.755 286.674 924.002 299.311L918.749 302.662L912.246 306.639C896.451 297.992 880.993 288.221 865.196 279.506C859.02 276.1 852.722 272.445 846.718 268.767L846.652 254.131Z"/><path fill="white" d="M846.916 246.166C854.549 251.148 863.907 256.357 871.857 260.965L914.681 285.79C917.181 287.251 929.434 293.965 930.613 295.199L929.954 295.912C928.8 296.59 927.43 297.25 926.226 297.871C907.986 286.543 887.851 275.974 869.485 264.684C863.106 260.762 852.942 255.761 847.379 251.713C846.599 250.066 846.865 248.05 846.916 246.166Z"/><path fill="white" d="M820.753 294.488C826.479 296.824 826.273 297.513 827.495 303.211C818.956 309.687 799.469 320.598 789.454 326.67L698.878 380.918C685.369 389.022 669.067 397.591 656.448 406.55C652.873 404.635 648.135 402.726 649.748 397.615C651.094 397.76 656.396 400.219 658.199 400.919C667.098 394.506 680.689 386.877 690.378 381.157C695.223 378.157 700.513 375.084 704.939 371.545C697.213 373.628 666.77 392.503 658.171 397.675L652.199 394.776C657.964 391.5 663.508 387.923 669.223 384.597C719.942 355.078 769.721 323.415 820.753 294.488Z"/><path fill="#15120D" d="M812.55 306.421L813.008 306.48L813.141 307.022C810.988 309.132 796.158 318.408 793.016 320.243C774.183 331.239 753.043 345.044 733.73 354.872L733.19 354.827C735.38 351.287 803.76 311.395 812.55 306.421Z"/><path fill="white" d="M830.314 307.452C832.569 308.303 834.644 309.454 836.787 310.561C821.117 320.949 801.256 332.298 784.972 341.997L720.146 381.12C707.374 388.79 694.438 396.162 681.91 404.229C674.662 408.896 674.749 412.458 677.036 420.079L670.737 415.795C667.118 413.614 663.53 411.381 659.974 409.097L761.865 348.71C784.222 335.351 807.876 320.211 830.314 307.452Z"/><path fill="white" d="M839.563 274.902C842.121 275.673 860.532 287.048 864.192 289.196L910.793 315.925C910.604 318.75 910.738 322.777 910.759 325.691L909.895 325.696C905.893 323.465 882.668 310.263 881.02 307.838C880.94 307.124 880.843 306.411 880.728 305.701C880.035 301.575 876.75 300.651 873.361 298.751C868.209 295.813 863.024 292.934 857.805 290.116C855.111 288.691 849.094 285.8 846.866 284.18C844.727 276.385 841.541 281.656 839.563 274.902Z"/><path fill="white" d="M943.446 297.948C943.662 300.03 943.427 306.461 943.399 308.863C935.372 314.383 922.281 321.742 913.756 326.581C913.385 324.403 913.507 318.433 913.503 315.922C923.661 310.232 933.647 304.238 943.446 297.948Z"/><path fill="white" d="M684.158 408.601L688.467 409.595C691.852 413.802 699.857 425.479 690.529 427.767C689.882 427.557 689.242 427.329 688.609 427.082C681.818 424.387 673.228 411.329 684.158 408.601Z"/><path fill="white" d="M837.457 294.53C840.531 294.082 850.401 299.158 853.646 300.728C850.997 302.638 848.109 304.286 845.303 305.971L841.621 308.018C837.975 306.297 834.415 304.221 830.895 302.24L830.597 297.158C832.892 296.303 835.179 295.427 837.457 294.53Z"/><path fill="white" d="M933.581 612.929C934.084 613.013 933.744 612.919 934.472 613.496L934.4 615.184C932.394 618.11 903.931 634.413 898.339 637.962L897.745 637.668C897.625 636.92 897.31 634.828 898.115 634.313C909.745 626.873 921.946 620.405 933.581 612.929Z"/><path fill="white" d="M645.503 398.395L646.135 398.538C646.939 400.076 646.673 399.217 646.21 401.463C643.22 404.383 631.61 410.38 627.508 412.625L625.154 410.735C626.91 408.876 642.239 400.354 645.503 398.395Z"/><path fill="white" d="M841.277 282.947C842.14 283.45 841.94 283.424 842.602 284.295L842.345 285.372C839.366 288.489 832.464 291.764 828.412 293.897C827.391 293.203 827.156 292.961 826.26 292.096C826.617 291.132 839.319 284.085 841.277 282.947Z"/><path fill="#15120D" d="M252.096 201.591C272.54 198.67 289.251 225.998 287.007 244.147C285.72 254.628 277.042 259.059 269.035 263.427C260.145 268.276 257.093 268.661 247.36 267.515C242.572 267.189 230.495 269.828 230.211 275.996C229.975 281.113 239.041 289.827 242.436 293.917C242.934 298.164 243.075 302.62 243.285 306.905C256.851 316.791 270.868 330.161 284.521 341.122C309.975 361.737 336.486 381.013 363.945 398.87C395.16 419.543 424.206 431.971 456.947 448.955C483.73 463.34 509.119 480.345 535.572 495.251C552.954 504.793 570.773 513.456 588.885 521.508C594.586 524.122 598.032 528.302 599.75 534.297C604.905 553.229 590.161 573.003 573.606 580.74C558.364 587.864 548.949 583.362 537.194 573.013C520.866 558.64 501.89 546.761 482.881 536.211C447.595 517.354 413.773 495.877 381.699 471.962C369.938 463.034 358.927 453.099 347.372 443.931C321.138 423.116 293.328 404.207 265.223 386.027C258.938 381.962 252.582 377.645 246.107 373.895C231.69 365.545 217.204 359.091 203.258 349.856C199.74 352.033 197.267 353.44 193.298 354.593C184.636 353.071 166.374 340.72 158.891 339.352C146.087 337.012 135.274 370.396 132.294 380.053C129.993 387.911 128.834 395.517 126.032 403.263C124.627 407.145 121.668 410.604 116.946 409.255C113.786 407.999 111.698 403.038 110.424 400.405C103.419 385.917 103.547 371.289 105.109 355.745C105.48 352.054 104.163 346.006 104.46 341.758C105.385 328.542 107.08 313.33 111.958 300.989C115.259 292.807 119.878 285.221 125.631 278.532C136.932 265.409 164.01 245.321 181.168 238.784C186.124 236.896 202.978 240.583 210.758 236.203C220.304 230.828 220.961 227.846 224.111 219.042C225.997 213.768 246.75 203.93 252.096 201.591Z"/><path fill="#FF5340" d="M233.432 306.917C240.528 309.087 262.997 330.148 270.363 336.326C300.795 361.851 332.42 384.149 365.551 406.035C393.687 424.622 424.045 437.832 453.82 453.418C480.869 467.617 506.282 485.133 532.956 499.837C545.152 506.417 557.51 512.691 570.018 518.653C575.781 521.358 582.657 523.856 588.036 526.828C598.291 532.492 596.943 547.303 591.888 555.885C585.207 567.227 576.523 574.881 563.931 578.466C562.665 578.699 561.385 578.845 560.099 578.904C552.441 579.224 544.897 572.848 539.422 567.947C516.384 547.324 489.078 533.804 462.51 518.541C443.194 507.392 424.303 495.522 405.878 482.955C379.744 464.787 357.06 444.267 331.722 425.368C303.112 404.03 272.865 383.928 242.335 365.467C228.747 357.251 213.391 352.781 201.205 341.638C200.92 337.927 200.326 333.817 201.132 330.145C202.85 322.323 226.206 311.277 233.432 306.917Z"/><path fill="#15120D" d="M584.07 533.064C585.475 532.929 587.267 532.588 588.182 533.803C586.555 535.415 579.472 536.918 577.012 538.248C565.573 544.43 555.057 557.368 555.984 570.93C556.172 571.29 556.192 571.764 556.263 572.208L555.561 572.421C554.724 571.827 554.075 571.409 553.925 570.244C551.621 552.329 568.304 536.906 584.07 533.064Z"/><path fill="#FF5340" d="M184.442 242.682C189.559 243.455 207.945 246.206 211.793 248.904C213.912 250.389 215.075 264.189 217.721 269.099C223.069 279.02 229.331 286.758 237.03 294.929C230.158 298.553 221.988 304.016 215.192 308.143C209.288 311.728 197.304 318.177 192.417 322.531L190.906 323.088C191.544 324.115 191.467 323.496 191.38 324.635C190.771 332.61 191.177 340.914 191.461 348.887C183.137 344.825 161.051 331.798 153.575 334.793C137.451 341.255 129.172 371.611 125.002 387.507C123.956 391.494 122.226 401.574 120.21 403.623C119.129 402.047 119.114 393.644 119.005 391.011C122.935 386.92 126.086 375.171 127.655 369.658C131.663 355.583 137.587 344.123 145.059 331.653C146.64 329.016 146.988 321.082 144.938 318.315C140.207 316.564 137.212 322.398 135.122 325.849C126.034 340.862 122.265 357.741 119.222 374.724C119.013 371.441 118.572 366.408 119.028 363.286C119.657 358.989 121.674 353.396 121.991 349.133C121.667 347.849 121.779 346.038 121.602 344.439L120.342 344.094C119.318 349.003 118.335 353.919 117.391 358.843C110.121 340.108 109.861 319.716 117.711 301.111C120.763 294.013 124.881 287.422 129.922 281.567C141.5 268.24 168.151 249.273 184.442 242.682Z"/><path fill="#FF5340" d="M128.422 327.286C128.977 325.984 129.556 324.693 130.16 323.412C138.963 304.903 153.659 290.535 169.428 306.369C172.083 309.035 188.4 321.989 190.906 323.088C191.544 324.115 191.467 323.496 191.38 324.635C190.771 332.61 191.177 340.914 191.461 348.887C183.137 344.825 161.051 331.798 153.575 334.793C137.451 341.255 129.172 371.611 125.002 387.507C123.956 391.494 122.226 401.574 120.21 403.623C119.129 402.047 119.114 393.644 119.005 391.011C122.935 386.92 126.086 375.171 127.655 369.658C131.663 355.583 137.587 344.123 145.059 331.653C146.64 329.016 146.988 321.082 144.938 318.315C140.207 316.564 137.212 322.398 135.122 325.849C126.034 340.862 122.265 357.741 119.222 374.724C119.013 371.441 118.572 366.408 119.028 363.286C119.657 358.989 121.674 353.396 121.991 349.133C121.667 347.849 121.779 346.038 121.602 344.439L120.342 344.094C121.18 338.982 123.711 331.388 125.646 326.575C127.243 327.532 126.374 327.223 128.422 327.286Z"/><path fill="#15120D" d="M125.646 326.575C127.243 327.532 126.374 327.223 128.422 327.286C125.058 335.907 124.227 340.667 121.991 349.133C121.667 347.849 121.779 346.038 121.602 344.439L120.342 344.094C121.18 338.982 123.711 331.388 125.646 326.575Z"/><path fill="#15120D" d="M155.921 302.669L156.856 303.413C158.407 306.916 158.466 326.787 157.419 330.881L156.529 330.496C155.175 328.339 155.254 306.062 155.921 302.669Z"/><path fill="#15120D" d="M125.646 326.575C129.911 314.685 147.85 287.113 164.01 298.927C170.364 303.573 188.264 316.75 192.417 322.531L190.906 323.088C188.4 321.989 172.083 309.035 169.428 306.369C153.659 290.535 138.963 304.903 130.16 323.412C129.556 324.693 128.977 325.984 128.422 327.286C126.374 327.223 127.243 327.532 125.646 326.575Z"/><path fill="#FF5340" d="M254.785 206.005C263.566 207.562 268.95 211.277 274.215 218.558C280.774 227.631 287.188 246.134 275.155 253.554C270.799 256.24 265.765 258.843 261.223 261.312C260.413 261.794 259.803 262.192 258.957 262.588C254.776 264.016 242.992 260.956 236.344 263.977C229.942 266.887 228.222 269.009 225.191 275.118L221.506 268.566C226.112 250.939 241.227 247.244 256.756 242.783L256.971 242.193C252.754 239.556 239.552 245.213 235.47 247.415C227.179 251.887 222.086 257.167 219.331 266.307C216.969 257.867 217.919 249.026 210.047 244.263C221.559 242.303 239.56 234.496 240.044 220.857C237.038 221.836 233.455 230.338 229.708 233.23C224.595 237.177 220.308 238.65 214.415 240.95C217.108 238.883 221.693 235.359 223.626 232.515C225.889 229.185 227.548 222.028 230.264 219.139C231.281 218.059 235.994 218.978 237.573 219.225C237.305 218.909 236.296 218.065 235.943 217.756L237.153 216.135L236.728 215.645C239.696 213.494 251.396 207.295 254.785 206.005Z"/><path fill="#FF5340" d="M254.785 206.005C263.566 207.562 268.95 211.277 274.215 218.558C280.774 227.631 287.188 246.134 275.155 253.554C270.799 256.24 265.765 258.843 261.223 261.312C260.413 261.794 259.803 262.192 258.957 262.588C262.462 245.522 256.843 228.477 240.633 220.356L237.573 219.225C237.305 218.909 236.296 218.065 235.943 217.756L237.153 216.135L236.728 215.645C239.696 213.494 251.396 207.295 254.785 206.005Z"/><path fill="#15120D" d="M237.153 216.135C254.217 221.249 268 244.203 261.223 261.312C260.413 261.794 259.803 262.192 258.957 262.588C262.462 245.522 256.843 228.477 240.633 220.356L237.573 219.225C237.305 218.909 236.296 218.065 235.943 217.756L237.153 216.135Z"/><path fill="#FF5340" d="M237.608 297.922L238.1 298.104C238.779 299.836 238.53 303.487 238.512 305.515L233.763 303.302C225.415 307.064 203.017 318.769 198.325 327.37C196.157 331.346 197.452 341.629 199.608 346.078L198.84 346.866C197.117 347.74 195.728 348.237 193.913 348.919C193.905 341.001 193.734 332.329 194.157 324.488C197.457 321.843 206.294 316.928 210.379 314.519C219.586 309.204 228.665 303.67 237.608 297.922Z"/><path fill="#FF5340" d="M142.707 321.804C145.901 329.337 137.265 338.213 134.358 344.749C130.747 352.866 127.686 361.142 124.283 369.344C124.096 368.294 125.405 363.173 125.725 361.866C129.12 347.99 133.963 333.265 142.707 321.804Z"/><path fill="#FF5340" d="M109.712 344.436C110.773 345.736 112.134 353.821 113.066 356.032C114.06 358.391 114.823 359.57 116.324 361.684C116.041 365.373 116.122 369.332 116.127 373.055L115.672 372.975C111.416 367.846 109.837 351.096 109.712 344.436Z"/><path fill="#FF5340" d="M109.446 377.306C111.215 380.307 115.389 390.184 116.161 393.873C116.318 394.626 116.2 399.441 116.167 400.541L115.862 400.518C113.007 397.345 109.708 381.954 109.446 377.306Z"/><path fill="#FF5340" d="M111.999 373.923C114.406 378.012 116.788 381.997 121.623 377.575C122.072 378.39 121.122 380.942 120.803 382.144C119.812 384.937 119.449 385.816 117.972 388.373C115.207 384.513 112.734 378.599 111.999 373.923Z"/><path fill="#15120D" d="M613.405 106.617C621.691 106.033 627.804 109.217 634.872 113.154C645.085 118.843 662.347 127.275 665.621 139.173C669.788 154.315 670.395 223.263 662.813 235.912C660.965 238.995 658.217 241.558 655.269 243.579C647.634 248.816 578.937 288.318 573.975 289.425C566.601 291.07 559.114 285.383 553.138 281.774C542.642 287.212 529.935 295.439 519.059 301.444C487.654 318.784 456.229 337.481 424.696 354.526C424.434 354.686 423.652 355.249 423.619 355.72C423.277 360.926 425.725 371.895 419.871 374.762C416.873 376.23 407.808 370.147 406.833 367.129C406.403 365.797 406.445 365.677 405.319 364.674C395.264 367.629 389.489 356.339 390.433 347.843C390.963 343.064 388.641 336.458 393.713 333.304C398.538 330.303 403.371 327.688 408.237 324.91L440.537 306.617C467.896 291.207 496.247 274.435 523.73 259.712C522.66 253.179 522.063 244.287 525.554 238.363C526.404 236.92 528.623 235.218 529.967 234.128C528.15 229.489 525.445 222.497 524.385 217.701C519.197 194.238 533.968 149.274 552.444 134.81C563.811 125.912 598.969 109.631 613.405 106.617Z"/><path fill="white" d="M635.418 119.985C641.799 123.55 657.227 131.848 659.829 138.683C665.004 152.273 664.304 220.409 658.065 232.63C656.417 235.858 652.76 238.348 649.811 240.346C635.191 250.252 616.065 259.938 600.331 268.861C591.485 273.878 579.951 281.998 570.671 285.128C570.808 280.855 570.91 276.441 571.22 272.184C571.506 268.248 572.62 269.4 571.834 265.408C575.103 262.797 575.457 263.131 577.982 259.621C569.274 236.382 569.366 223.319 576.349 198.733C578.655 190.613 580.951 185.248 584.747 177.671C592.001 163.189 600.554 159.452 614.782 152.636C623.709 148.287 632.721 144.115 641.814 140.125C644.945 138.769 653.376 135.804 655.371 134.743L655.099 134.187C651.225 132.902 642.959 136.837 638.806 138.501C625.073 144.237 602.083 154.451 590.959 163.993C587.938 166.584 584.068 172.624 582.323 176.256C568.801 204.395 564.173 226.939 573.718 256.558C561.932 250.156 546.56 239.657 534.993 234.279C533.638 228.814 531.341 224.532 530.081 218.28C532.314 221.137 538.43 233.041 539.732 234.069C543.037 236.679 560.682 247.479 564.056 246.707C564.689 245.167 563.574 241.359 563.225 239.636C560.381 225.598 562.29 211.915 566.113 198.245C567.452 193.459 570.084 187.363 570.424 182.323C569.376 179.498 561.678 175.896 558.72 174.224C561.837 167.621 564.757 159.991 569.576 154.42C579.549 142.894 620.646 126.123 635.418 119.985Z"/><path fill="#15120D" d="M630.389 159.164C642.96 158.166 650.656 165.788 652.483 177.861C655.533 197.99 646.933 217.304 635.294 233.246C629.312 241.439 617.991 247.457 608.085 249.133C565.917 249.974 584.427 165.742 630.389 159.164Z"/><path fill="white" d="M632.27 161.655C642.255 160.858 648.193 166.687 649.84 176.237C653.065 194.94 646.397 211.133 636.319 226.361L633.758 220.529C636.22 209.26 639.502 198.037 641.561 186.701C642.236 182.983 642.451 178.342 640.061 175.15C639.037 173.784 637.592 172.92 635.885 172.764C631.794 172.39 609.666 184.51 606.146 187.808C604.011 189.808 604.577 194.059 604.592 196.75C604.548 210.055 603.779 222.743 603.484 235.981C607.688 243.871 608.518 243.948 617.438 243.971C600.935 250.564 589.273 245.239 587.066 226.86C585.158 210.977 592.021 193.449 601.376 180.865C608.995 170.617 619.464 163.364 632.27 161.655Z"/><path fill="white" d="M634.712 174.894C642.498 177.061 637.694 189.494 636.641 194.667C634.883 203.305 631.415 213.269 631.005 222.059C632.03 223.931 633.135 226.588 634.036 228.584C628.916 238.526 621.129 241.176 610.45 240.507C608.083 238.803 607.712 237.397 606.559 234.792C608.243 227.127 615.59 198.706 614.475 193.269C613.949 190.704 612.221 189.921 610.947 187.861C614.607 185.126 629.76 177.517 634.712 174.894Z"/><path fill="#15120D" d="M626.752 191.388C635.577 192.474 629.799 204.34 627.667 209.316C626.396 212.282 624.417 213.846 621.712 215.471C616.238 215.001 616.578 210.777 617.621 206.546C619.244 199.957 620.805 195.021 626.752 191.388Z"/><path fill="white" d="M623.678 197.345C624.139 199.417 623.514 206.305 622.882 208.676C622.266 210.988 621.904 211.116 619.936 212.284C619.453 209.229 622.106 200.247 623.678 197.345Z"/><path fill="white" d="M627.056 194.103L628.375 194.707C629.337 197.179 626.968 204.345 626.156 207.267L625.923 207.534L625.557 207.081C625.872 203.24 626.215 197.684 627.056 194.103Z"/><path fill="#15120D" d="M628.069 222.467L628.536 222.995C627.28 225.238 613.078 232.69 610.199 234.108L609.671 233.292C611.123 230.902 624.918 223.999 628.069 222.467Z"/><path fill="white" d="M607.879 189.992C610.476 191.413 610.755 192.072 612.437 194.545C610.795 200.901 609.391 207.934 607.984 214.394L607.366 216.178C606.544 214.881 607.378 192.666 607.879 189.992Z"/><path fill="#15120D" d="M572.114 153.998C575.032 154.483 585.281 160.153 586.701 162.701C583.398 162.411 572.974 157.132 572.114 153.998Z"/><path fill="white" d="M534.229 258.442C536.846 258.739 555.904 270.698 559.702 272.956C549.119 279.95 529.489 290.269 517.923 296.837C488.153 313.616 458.498 330.599 428.961 347.786L430.876 342.295L439.252 336.743C440.594 335.376 441.9 334.161 441.814 332.079C441.585 326.549 439.585 324.603 434.108 324.272C425.511 323.753 419.562 328.939 412.059 332.022C410.834 332.525 405.625 332.391 404.058 332.382C445.678 306.988 492.589 284.056 534.229 258.442Z"/><path fill="white" d="M616.158 111.603C622.061 112.14 627.483 115.54 632.682 118.324C617.354 124.436 602.345 131.318 587.712 138.945C571.031 147.717 562.819 154.318 556.943 173.17C547.24 167.898 544.752 164.581 540.416 177.282C538.02 184.299 536.718 189.532 535.6 196.891C534.245 203.675 532.849 206.25 529.002 211.635C526.643 193.491 540.173 149.772 555.604 139.144C569.349 129.676 600.057 114.916 616.158 111.603Z"/><path fill="#15120D" d="M553.592 143.913C556.775 144.007 564.298 148.079 565.827 151.039C562.365 150.483 555.742 146.831 553.592 143.913Z"/><path fill="white" d="M431.255 327.147C434.409 327.403 438.726 327.709 438.558 331.655C436.363 335.653 432.594 337.25 428.634 339.546C426.574 345.546 425.414 347.389 421.561 352.383C419.113 355.556 419.693 366.884 419.639 371.244C414.841 369.379 410.947 367.962 408.779 363.157C404.402 358.511 392.853 364.198 394.386 349.116C394.627 346.743 394.219 341.198 394.006 338.564C404.602 332.767 404.938 337.284 415.029 334.328C420.437 332.744 423.515 328.299 431.255 327.147Z"/><path fill="#15120D" d="M400.862 350.779C403.599 351.559 411.499 354.962 412.982 357.782C413.68 359.112 413.123 359.994 412.724 361.341C409.125 360.786 402.85 357.947 400.809 354.731C399.909 353.313 400.482 352.225 400.862 350.779Z"/><path fill="#15120D" d="M396.796 340.033C400 340.796 417.036 350.268 418.209 352.862C415.229 352.934 397.925 343.055 396.796 340.033Z"/><path fill="#15120D" d="M413.635 337.847C414.516 338.76 414.629 340.013 415.323 341.306C418.126 341.702 417.397 340.114 420.105 340.132C420.646 341.5 420.439 341.358 420.203 343.015C417.098 343.859 414.093 344.393 412.173 341.215C412.353 338.969 412.126 339.804 413.635 337.847Z"/><path fill="#15120D" d="M426.98 329.814C427.753 330.406 428.226 331.428 428.713 332.252C430.743 332.722 430.748 332.731 432.931 331.646L433.761 331.226L434.39 331.679L434.695 333.576C432.232 335.349 429.41 336.126 427.036 333.72C426.296 332.125 426.607 331.544 426.98 329.814Z"/><path fill="white" d="M534.21 236.482C544.471 242.422 564.122 255.158 573.845 259.579C572.091 261.891 571.438 262.602 570.41 265.411C557.422 259.622 541.005 246.143 527.729 241.375C532.796 246.831 538.842 249.796 545.218 253.534C551.102 257.135 563.643 263.997 568.428 267.562C568.728 268.378 568.405 282.086 568.423 284.485C567.564 284.105 565.269 283.146 564.829 282.477C563.317 280.179 563.957 274.047 563.979 271.142C557.541 266.557 538.513 255.435 531.661 252.09C531.532 252.488 531.398 252.885 531.261 253.28C530.688 254.924 530.384 256.112 528.899 256.83C527.523 254.746 528.599 245.391 528.805 242.419C530.637 240.467 532.438 238.488 534.21 236.482Z"/><path fill="white" d="M537.669 203.283C537.436 201.205 537.889 200.134 538.421 198.062L559.296 209.388C558.682 211 556.899 215.887 556.098 217.1C552.93 221.895 549.662 221.202 549.899 226.872C548.132 226.403 532.383 216.776 531.077 214.893C530.983 213.29 531.135 213.66 532.265 211.98L533.05 211.074L533.945 209.386L534.628 208.38L535.592 207.056L536.067 205.377L537.239 204.159L537.669 203.283Z"/><path fill="#15120D" d="M533.945 209.386L534.628 208.38C537.722 210.203 550.493 216.469 551.601 218.576C547.277 218.679 537.435 212.023 533.945 209.386Z"/><path fill="#15120D" d="M535.592 207.056L536.067 205.377L536.457 205.637C540.634 208.366 550.629 212.932 553.69 215.569L553.661 216.254C550.903 216.378 539.167 209.018 535.592 207.056Z"/><path fill="#15120D" d="M537.669 203.283C540.783 204.179 553.04 210.635 555.052 213.048C553.051 213.857 539.587 205.988 537.239 204.159L537.669 203.283Z"/><path fill="#15120D" d="M533.05 211.074C538.689 214.301 546.088 218.009 550.538 222.537C544.825 220.541 536.781 215.932 532.265 211.98L533.05 211.074Z"/><path fill="#15120D" d="M538.726 200.485C541.65 201.301 554.777 208.124 556.669 210.537C552.994 210.209 540.383 203.779 538.726 200.485Z"/><path fill="white" d="M546.443 170.781L552.352 174.092C548.356 183.203 546.727 188.312 545.217 198.203L538.622 195.076C540.697 186.294 542.821 179.05 546.443 170.781Z"/><path fill="white" d="M562.471 179.64C564.52 180.676 566.59 181.852 568.61 182.959C564.916 191.28 563.039 197.659 561.053 206.392C559.341 206.39 557.004 204.728 555.402 203.793C557.647 193.9 558.897 189.05 562.471 179.64Z"/><path fill="white" d="M554.683 175.583L560.55 178.798C556.715 184.948 554.431 195.154 553.184 202.192C551.614 202.075 549.148 200.328 547.67 199.435C549.441 189.918 550.949 184.407 554.683 175.583Z"/><path fill="white" d="M558.675 218.398C558.782 219.177 558.662 223.739 558.685 224.911C558.78 229.896 559.199 233.736 560.024 238.681C558.965 237.063 558.3 235.464 557.494 233.716C556.065 230.66 553.942 228.776 551.614 226.326C554.446 223.45 556.301 221.626 558.675 218.398Z"/><path fill="white" d="M535.793 222.379C539.589 223.359 552.835 231.412 555.504 235.078C552.686 235.222 539.92 226.896 537.136 224.819C536.673 224.473 536.023 222.928 535.793 222.379Z"/><path fill="white" d="M540.579 231.419C542.198 231.738 546.003 233.546 547.471 234.531C551.303 237.1 559.581 239.657 561.592 243.525C558.704 242.939 543.31 233.634 540.579 231.419Z"/><path fill="#15120D" d="M354.545 769.511C357.025 769.185 358.68 769.965 360.812 771.152C370.059 776.3 379.239 781.58 388.433 786.822C407.932 798.104 427.516 809.237 447.184 820.222C473.655 835.001 501.938 850.23 527.573 866.632C528.418 867.173 535.862 874.719 536.631 875.705C540.342 880.462 560.584 900.357 560.831 904.421C560.361 906.087 560.43 905.985 559.077 907.065C555.201 908.092 547.66 905.792 543.463 904.82C531.5 901.919 516.147 898.633 504.759 894.579C501.322 893.355 488.567 885.875 484.953 883.821L447.517 862.406C426.234 850.416 405.027 838.29 383.899 826.03C367.663 816.759 349.698 806.824 333.938 796.852C329.741 778.384 340.502 775.943 354.545 769.511Z"/><path fill="white" d="M340.005 782.616C344.656 779.856 351.49 776.735 356.526 774.281C389.421 793.461 422.48 812.359 455.699 830.972C469.883 838.813 483.994 846.786 498.031 854.888C502.847 857.656 513.559 863.486 517.654 866.55C515.741 866.913 515.598 866.595 514.487 867.738C514.105 871.452 517.044 872.698 516.926 875.362C516.126 875.572 515.843 875.682 515.021 875.766C510.272 876.489 506.831 873.388 502.994 875.951C502.071 878.173 502.376 877.535 502.832 880.299C504.099 882.853 506.335 884.236 507.843 887.175C505.015 889.079 504.353 888.858 501.543 887.274C493.992 883.018 486.456 878.731 478.915 874.456L422.822 842.281C395.477 826.604 364.707 809.902 338.138 793.607C338.302 790.472 338.316 787.182 339.135 784.172L339.263 782.972L340.005 782.616Z"/><path fill="white" d="M339.135 784.172C353.558 793.708 376.413 805.591 391.902 814.261L464.442 855.58L490.768 870.278C493.978 872.067 497.278 873.851 500.422 875.743C501.088 876.144 501.616 879.057 502.832 880.299C504.099 882.853 506.335 884.236 507.843 887.175C505.015 889.079 504.353 888.858 501.543 887.274C493.992 883.018 486.456 878.731 478.915 874.456L422.822 842.281C395.477 826.604 364.707 809.902 338.138 793.607C338.302 790.472 338.316 787.182 339.135 784.172Z"/><path fill="#15120D" d="M339.135 784.172L339.263 782.972L340.005 782.616C347.571 785.667 355.097 790.5 362.27 794.488C397.328 813.976 432.118 834.001 466.928 853.931L489.42 866.553C493.083 868.627 498.802 872.27 502.551 873.793C505.009 874.79 511.021 874.446 515.021 875.766C510.272 876.489 506.831 873.388 502.994 875.951C502.071 878.173 502.376 877.535 502.832 880.299C501.616 879.057 501.088 876.144 500.422 875.743C497.278 873.851 493.978 872.067 490.768 870.278L464.442 855.58L391.902 814.261C376.413 805.591 353.558 793.708 339.135 784.172Z"/><path fill="white" d="M517.104 869.363C518.898 869.499 524.171 870.361 525.14 871.282C527.7 873.713 543.088 889.076 543.633 891.114C536.103 895.451 541.223 895.994 539.004 898.456C536.215 898.358 529.724 896.373 526.737 895.561C522.962 894.572 512.066 891.912 509.304 890.387C510.578 889.192 510.708 889.199 511.488 887.574C511.16 884.812 505.807 879.596 503.642 876.849C508.321 877.318 514.428 879.253 518.469 878.006C521.577 875.123 518.945 872.28 517.104 869.363Z"/><path fill="#15120D" d="M155.579 651.7C152.29 648.871 149.51 645.752 153.772 641.854C163.005 633.408 182.163 648.704 165.747 652.765C164.198 667.748 161.14 683.535 159.789 698.285L169.827 696.117C176.623 685.542 187.827 669.952 195.818 659.99C190.191 641.372 211.109 648.025 213.593 659.271C214.937 665.356 209.029 667.056 203.948 666.459C197.176 675.33 190.577 684.331 184.153 693.457C187.825 693.163 197.214 692.958 200.037 695.263C200.595 701.504 179.64 704.93 174.912 705.724C170.533 712.189 164.016 720.216 160.315 726.179C169.18 724.705 180.128 723.214 188.696 721.395C194.507 713.848 215.402 684.623 223.718 682.957C225.215 683.439 224.593 683.006 225.523 684.459C225.335 695.379 211.731 710.226 204.958 718.768C218.433 716.746 231.893 714.626 245.338 712.41C246.31 705.47 250.225 702.541 255.202 708.957C261.237 716.737 257.538 740.839 246.612 724.289L195.318 731.24C185.068 745.403 173.033 760.19 162.143 773.963C167.076 782.842 161.126 787.583 152.443 783.289C143.068 778.653 139.172 764.083 153.204 767.38C161.563 755.991 170.903 744.882 179.437 733.476C169.967 735.123 160.904 736.867 151.256 736.517C149.281 738.447 146.227 741.946 143.529 742.081C138.573 737.793 149.292 724.331 152.013 720.519L151.382 721.569C150.389 717.965 149.562 714.779 148.772 711.129C144.205 712.074 139.136 713.238 134.572 713.961C136.604 721.584 138.5 729.242 140.259 736.932C139.517 738.218 139.811 738.289 138.86 738.707L137.707 738.212L137.204 738.865C135.865 735.048 133.401 724.182 132.322 719.812C129.331 707.49 126.259 695.188 123.107 682.906L126.839 682.602C128.624 689.619 130.334 696.655 131.967 703.709C137.746 702.432 143.551 701.268 149.376 700.216C151.171 684.01 153.24 667.836 155.579 651.7Z"/><path fill="white" d="M219.867 689.458L220.17 689.769C220.149 692.281 217.871 696.08 216.299 698.114C197.566 722.359 178.505 746.352 159.684 770.527C159.295 770.679 158.906 770.832 158.517 770.984C157.782 770.305 157.352 769.866 156.67 769.149C156.915 767.548 215.186 693.004 219.867 689.458Z"/><path fill="white" d="M246.3 716.184C248.327 716.027 247.514 715.743 248.975 716.57C249.872 718.362 249.782 717.482 249.565 719.244C247.475 721.21 208.7 725.687 203.578 726.359C202.057 726.631 200.921 727.01 199.472 726.561C199.517 725.109 200.548 724.534 201.808 723.113C216.628 721.156 231.474 718.351 246.3 716.184Z"/><path fill="white" d="M187.799 696.678C189.394 696.402 193.159 696.734 194.941 696.833C185.853 700.417 179.717 701.018 170.241 702.923L139.802 709.119C137.657 709.635 133.788 710.899 132.925 707.928C133.577 707.282 134.162 706.767 135.129 706.609C152.627 703.749 170.29 699.265 187.799 696.678Z"/><path fill="white" d="M159.835 648.086C162.017 648.61 161.723 648.16 162.587 649.554C162.257 654.332 156.261 698.189 155.636 699.555L153.496 699.318C152.822 698.278 158.854 653.474 159.835 648.086Z"/><path fill="white" d="M201.4 658.172C202.969 658.48 203.191 658.801 203.664 660.066C203.25 661.626 179.43 693.925 177.578 695.232C176.775 695.113 176.051 694.915 175.259 694.728C176.035 693.045 181.473 685.75 182.875 683.805L201.4 658.172Z"/><path fill="white" d="M184.597 725.713L184.858 725.924C184.731 727.361 183.465 728.391 182.426 729.55C172.353 730.921 159.39 733.803 149.599 733.419C149.262 733.179 149.438 733.366 149.32 732.702C154.752 729.69 176.922 726.985 184.597 725.713Z"/><path fill="white" d="M147.39 770.341C152.659 770.429 160.762 774.793 160.2 780.774C154.222 781.647 148.011 776.385 147.39 770.341Z"/><path fill="white" d="M169.607 706.619C169.175 708.578 157.678 723.339 155.519 726.707L151.373 728.415C151.005 727.011 163.991 709.95 165.922 707.657C165.922 707.657 169.212 706.73 169.607 706.619Z"/><path fill="white" d="M198.443 652.451C205.038 652.393 214.459 658.41 207.364 663.692L206.675 662.912C206.201 652.218 203.142 656.769 198.216 656.049C197.708 654.609 198.055 653.94 198.443 652.451Z"/><path fill="white" d="M249.126 709.585C254.322 711.493 255.249 721.948 252.633 726.033C251.571 724.979 250.498 724.2 250.158 722.804C250.678 721.704 251.817 719.467 251.7 718.345C251.07 712.339 247.762 716.282 249.126 709.585Z"/><path fill="white" d="M157.452 643.566C161.158 643.317 166.996 643.113 167.808 647.693L166.976 648.665L165.803 648.721L165.197 647.56C163.607 645.969 162.575 645.037 160.156 645.393C157.83 646.994 157.617 647.462 154.977 647.344L154.569 646.506C155.769 644.215 155.146 645.004 157.452 643.566Z"/><path fill="white" d="M159.829 708.398L160.225 708.839C159.823 710.462 157.707 712.767 156.549 714.252L156.09 713.931C156.554 711.621 158.039 709.826 159.829 708.398Z"/><path fill="#15120D" d="M114.098 677.693C110.996 676.596 107.527 674.821 107.202 671.066C106.327 660.955 128.922 656.236 128.654 668.601C128.604 670.906 126.586 672.783 124.938 674.108C125.471 676.912 126.194 679.812 126.839 682.602L123.107 682.906C126.259 695.188 129.331 707.49 132.322 719.812C133.401 724.182 135.865 735.048 137.204 738.865L137.707 738.212L138.86 738.707C139.811 738.289 139.517 738.218 140.259 736.932C141.712 741.269 143.754 755.551 140.797 759.044C132.818 760.588 125.169 721.522 123.746 715.906C115.627 717.572 107.473 719.068 99.2909 720.392C98.9604 723.564 98.6572 726.018 95.4314 727.417C87.2582 727.563 83.1298 704.955 92.5447 704.528C95.3022 705.526 96.1694 707.679 97.4305 710.226C105.174 708.593 113.509 707.242 121.354 705.775C119.14 696.453 116.857 686.853 114.098 677.693Z"/><path fill="white" d="M138.687 752.602C138.584 752.449 138.482 752.297 138.379 752.145L137.886 751.371C136.828 749.742 136.083 748.522 135.566 746.599C130.105 726.301 125.789 705.71 120.044 685.484C118.843 681.254 117.317 676.421 116.607 672.138C117.71 670.557 117.017 671.142 118.772 670.326L119.838 670.726C121.082 672.518 122.479 680.172 123.107 682.906C126.259 695.188 129.331 707.49 132.322 719.812C133.401 724.182 135.865 735.048 137.204 738.865C138.492 744.465 138.684 746.862 138.687 752.602Z"/><path fill="white" d="M121.577 709.157C122.033 709.331 122.478 709.854 122.889 710.238L122.813 711.475C120.852 713.358 104.072 716.065 100.117 716.856C98.5706 716.833 99.2199 717.106 98.1209 715.977L98.6143 714.48C101.122 712.411 117.237 709.964 121.577 709.157Z"/><path fill="white" d="M91.8195 708.199C95.5953 711.474 96.1227 719.825 94.9489 724.395C91.6317 720.575 90.0823 712.954 91.8195 708.199Z"/><path fill="white" d="M116.595 665.575C119.342 665.357 123.328 664.854 124.772 667.644C123.705 671.502 123.159 669.644 120.88 668.168C119.328 667.164 118.503 667.55 116.678 667.642C113.527 670.287 114.881 672.034 112.56 673.323L111.617 672.941C109.573 669.205 113.959 666.924 116.595 665.575Z"/><path fill="#15120D" d="M248.48 802.64C250.148 802.51 250.098 802.392 251.545 803.163C254.638 810.645 219.49 825.195 214.017 827.755C197.641 835.475 181.165 842.981 164.593 850.272C164.744 859.355 159.999 861.928 152.837 855.809C150.864 853.397 149.525 850.53 148.943 847.468C147.264 838.736 152.997 834.73 160.369 840.462C186.137 829.416 211.463 815.67 237.632 805.354C241.003 804.024 244.917 803.322 248.48 802.64Z"/><path fill="white" d="M242.893 807.561L243.359 807.959C240.833 811.619 171.773 842.774 163.476 846.655C162.875 845.277 162.717 845.261 162.842 843.806C164.791 842.508 181.732 834.98 185.196 833.367C197.339 827.703 209.522 822.127 221.745 816.638C227.921 813.849 236.699 809.529 242.893 807.561Z"/><path fill="white" d="M152.671 841.181C160 841.973 161.433 849.491 160.443 855.633C153.636 854.234 152.072 847.217 152.671 841.181Z"/><path fill="#15120D" d="M207.342 744.543C211.485 745.36 215.493 746.75 219.252 748.674C225.498 751.831 236.17 759.175 242.365 763.22C255.876 772.018 269.33 780.904 282.725 789.877C295.816 784.326 298.542 795.5 291.825 805.201C284.069 812.713 276.512 810.588 277.316 799.132C263.87 790.611 250.539 781.91 237.325 773.034C227.062 766.161 213.054 758.463 206.84 747.518C206.192 746.377 206.843 745.526 207.342 744.543Z"/><path fill="white" d="M213.089 750.333C214.971 750.73 217.156 751.693 219.262 753.044C239.517 766.033 259.896 779.262 279.87 792.614C280.283 792.89 279.709 794.452 279.534 795.178C277.305 795.715 216.972 754.932 213.089 750.333Z"/><path fill="white" d="M288.083 791.955C296.126 794.689 288.858 802.861 284.686 805.611C282.375 805.213 283.289 805.726 281.724 804.257C279.803 799.294 283.706 794.118 288.083 791.955Z"/></svg>