<?xml version="1.0" encoding="utf-8" ?><svg xmlns="http://www.w3.org/2000/svg" xmlns:xlink="http://www.w3.org/1999/xlink" viewBox="238 88 660 856"><path fill="#15120D" d="M806.673 96.6115C809.646 97.8391 880.063 157.747 885.276 163.049C885.842 167.694 886.353 171.911 886.639 176.598C881.155 180.131 867.005 187.115 860.826 190.393L805.49 219.649L612.753 321.186L577.738 339.633C568.429 344.514 554.676 350.763 546.943 357.21C543.805 360.425 540.878 364.349 538.079 367.804C521.485 388.292 509.713 412.963 506.202 439.216C505.488 444.556 505.191 449.944 504.441 455.278C504.38 456.847 502.561 458.558 502.481 459.927C501.773 472.001 502.428 485.919 502.455 497.88C502.533 532.771 502.788 567.661 503.217 602.549L504.705 812.193C505.298 851.631 505.611 891.072 505.644 930.515C492.654 932.646 475.591 932.668 462.24 933.686C457.818 934.023 449.81 931.171 444.864 931.62C429.704 932.998 418.497 933.065 403.48 929.649C403.36 914.185 403.967 898.241 404.263 882.732L406.009 794.046L411.435 525.44C404.739 555.286 398.998 587.031 392.938 617.127L354.95 806.731L340.023 881.552C339.355 884.893 333.273 918.227 331.141 921.016C330.289 922.131 316.485 921.803 313.412 920.545C312.056 918.397 315.491 904.67 316.174 901.307L322.636 869.574L324.36 861.082L274.715 859.997L266.81 900.233C265.904 904.848 263.587 918.448 261.807 922.066C258.892 923.683 249.177 923.587 246.412 921.888C245.793 920.699 245.898 919.591 246.179 918.297C253.457 884.859 258.985 850.612 266.671 817.306C249.392 809.853 242.381 797.32 245.128 778.297C246.745 767.094 249.569 755.63 251.795 744.495L265.035 678.126L305.879 473.079L332.277 340.213L340.888 296.823C342.144 290.52 344.2 278.627 346.064 272.849C349.602 261.779 356.508 252.09 365.818 245.134C375.17 238.192 385.798 231.074 395.431 224.31L455.433 182.11L497.557 152.438C504.966 147.207 512.261 141.975 519.828 136.805C525.626 132.843 532.424 137.48 531.216 144.293C530.856 145.919 529.486 147.489 528.177 148.469C519.144 155.235 509.555 161.674 500.296 168.122C482.134 180.887 463.879 193.518 445.533 206.016C445.942 213.685 445.589 223.848 445.546 231.661L445.38 277.123L542.64 216.591L576.182 195.802C581.093 192.77 585.792 189.779 590.894 186.642C595.467 183.428 600.717 186.748 601.44 191.779C602.252 197.423 589.223 203.463 585.14 205.925L564.667 218.376C549.769 227.451 531.187 239.587 516.177 247.709C516.349 255.25 516.447 262.792 516.471 270.335C524.282 266.218 534.789 259.489 542.591 254.793L589.584 226.524L737.365 137.876C759.69 124.57 784.083 108.922 806.673 96.6115Z"/><path fill="#FF5340" d="M360.366 380.848C381.933 369.071 407.264 353.205 428.518 340.376L515.221 288.765L807.892 114.775C832.136 133.575 857.201 155.275 881.23 174.853L664.646 289.193L589.08 328.989C580.291 333.561 568.017 340.805 559.443 344.624C568.368 335.979 577.595 329.053 587.57 321.654C587.539 316.101 587.685 308.358 587.224 303.02C579.112 298.422 568.077 293.815 559.484 289.573L495.75 326.085C486.263 331.526 476.455 337.351 466.846 342.601C465.14 343.534 460.193 344.535 458.136 345.048C448.601 347.424 442.937 344.667 434.232 343.049C427.938 345.719 420.802 349.918 414.978 353.662C414.473 370.75 414.117 387.842 413.913 404.936C399.822 399.839 381.712 393.909 368.165 388.449C368.643 386.137 369.396 383.77 368.888 381.55C366.692 378.497 363.402 380.762 360.547 382.065L360.366 380.848Z"/><path fill="white" d="M436.542 347.658C446.998 351.09 452.84 350.838 463.232 347.986C462.981 366.064 462.841 384.143 462.812 402.222L461.997 570.384L460.462 929.491L455.111 928.556C445.189 927.093 437.106 927.652 427.294 928.94L436.542 347.658Z"/><path fill="white" d="M466.524 457.283C474.97 460.084 483.351 462.738 491.702 465.836L498.041 462.695L500.576 812.723L501.423 896.355C501.452 900.028 501.821 924.527 501.4 926.681L500.377 927.168C488.401 927.904 476.472 929.064 464.458 929.741L466.524 457.283Z"/><path fill="white" d="M432.186 215.436L432.9 215.766L431.474 286.671C419.357 301.092 418.622 313.773 414.723 331.91C399.733 341.526 383.034 350.491 367.881 360.008C363.05 363.043 351.73 369.238 347.989 372.651C347.928 376.885 348.036 381.297 348.079 385.545C349.275 386.378 350.971 387.349 352.243 388.129L269.081 804.05L265.639 801.993C257.431 795.868 257.072 786.857 258.865 777.547C261.104 765.929 263.584 754.35 265.891 742.743L281.251 665.324L329.815 421.229L346.955 334.708L353.033 303.452C360.541 264.832 359.614 265.856 391.701 243.462L432.186 215.436Z"/><path fill="white" d="M431.693 348.483C432.2 348.551 431.908 348.454 432.457 349.004C432.685 364.487 431.875 380.411 431.664 395.934L429.691 514.944L423.301 928.83L411.919 927.098C410.366 926.9 409.323 926.892 407.935 926.155C407.003 924.506 407.8 907.178 407.867 904.294C408.175 892.114 408.419 879.932 408.599 867.749L411.199 737.927L418.75 355.776L431.693 348.483Z"/><path fill="white" d="M364.311 384.51L364.779 385.058C364.528 388.224 362.32 397.302 361.581 401.124L354.553 437.427L331.368 554.312L285.736 784.127L268.523 870.158C265.316 886.239 262.277 903.435 258.656 919.332C256.357 919.096 253.857 919.004 251.533 918.869L250.745 918.637C250.175 916.994 260.459 868.12 261.432 863.268L284.55 748.008L356.234 388.308L364.311 384.51Z"/><path fill="white" d="M518.866 142.408L519.447 142.715C520.691 145 521.022 145.505 522.737 147.454L471.721 182.999C463.291 188.882 454.564 195.113 446.145 200.92C441.286 204.271 434.311 196.621 432.915 209.886L393.389 237.428C354.801 264.114 357.273 261.115 348.279 306.885L340.15 348.161L309.303 503.707L273.639 682.574L261.889 742.064C259.527 753.841 257.038 765.711 254.816 777.497C253.954 783.168 253.576 788.806 255.367 794.347C257.716 801.618 262.195 804.67 268.523 807.997L267.376 812.796C262.983 813.011 255.919 806.389 253.664 802.762C247.716 793.195 247.877 784.738 249.942 774.016L316.082 442.383L337.651 333.802C341.389 314.848 344.929 295.886 349.085 277.019C354.047 254.487 373.447 244.67 390.871 232.406L432.784 202.873C461.446 182.958 490.067 161.99 518.866 142.408Z"/><path fill="white" d="M559.329 311.358C562.549 312.196 577.786 319.705 581.405 321.517C547.763 344.804 517.156 380.258 505.883 420.245C502.547 432.076 501.754 442.588 500.404 454.594C500.078 457.5 495.248 459.646 492.699 460.876C492.647 460.905 492.6 460.944 492.543 460.963C489.782 461.856 475.491 456.041 471.789 454.757C478.78 448.115 477.971 440.087 479.451 430.806C488.018 377.094 517.188 342.429 559.329 311.358Z"/><path fill="white" d="M411.821 452.721L412.505 453.086C413.084 454.973 412.255 499.095 411.61 503.127C409.338 517.312 404.481 539.112 401.414 553.834L386.193 629.743L354.437 788.347C345.829 831.064 336.718 874.731 328.725 917.49L317.237 917.494C319.543 902.264 324.105 882.874 327.3 867.507L328.436 861.232C340.285 862.019 341.332 849.612 331.021 847.723C333.635 837.196 336.104 824.001 338.116 813.284C344.329 813.692 350.417 810.942 347.04 803.063C346.099 800.868 343.164 800.33 340.908 799.91C342.731 788.574 345.772 776.505 347.979 765.066C352.22 765.476 354.904 765.531 357.333 761.452C360.812 755.609 353.167 753.124 351.174 751.212C352.123 743.004 355.71 727.6 357.479 718.787C359.534 719.145 361.447 719.677 363.439 718.545C368.398 715.728 368.426 707.896 362.279 706.615C361.173 706.384 361.438 706.518 360.485 705.775C361.189 698.651 365.626 680.853 367.173 672.665C378.65 673.746 380.161 661.692 369.594 659.24C371.75 650.513 374.48 636.874 375.843 627.987C377.298 628.144 380.019 628.577 381.225 627.802C388.45 623.163 386.46 616.535 378.791 614.702C381.101 604.219 383.107 593.625 385.43 583.116C386.534 583.252 389.177 583.622 389.989 583.122C397.042 578.782 395.021 572.25 387.825 570.185L393.988 540.23C404.57 541.295 406.189 530.112 396.592 527.057C397.457 523.265 402.115 498.679 403.128 497.477C404.002 497.406 406.827 497.225 407.42 496.807C413.336 492.636 411.794 485.75 405.172 483.641C407.675 474.465 409.687 462.334 411.821 452.721Z"/><path fill="#FF5340" d="M803.962 102.376L804.417 102.591C805.343 103.755 805.712 109.303 805.928 111.263C793.07 118.116 776.912 128.376 763.98 136.047L673.724 189.723L353.268 380.453C352.959 380.747 353.203 380.551 352.378 380.751C351.799 379.228 352.064 376.096 352.105 374.323L640.2 200.83L757.194 130.56C772.301 121.395 789.362 111.969 803.962 102.376Z"/><path fill="white" d="M556.53 295.894L557.18 296.071C557.745 297.941 557.53 305.534 557.524 307.923C515.898 336.294 483.468 377.744 475.478 428.723C474.649 434.013 474.4 439.415 473.341 444.675C472.431 449.189 471.362 450.333 467.58 452.686L466.844 452.123C466.145 447.935 466.651 424.618 466.694 418.996L467.112 347.066C477.506 341.561 488.301 335.051 498.588 329.17L556.53 295.894Z"/><path fill="white" d="M284.701 810.004C301.145 811.132 317.728 811.667 334.27 812.864C331.817 822.258 328.84 837.988 327.138 847.672C311.328 847.366 293.353 846.921 277.659 846.066C280.111 834.066 282.459 822.045 284.701 810.004Z"/><path fill="white" d="M294.708 759.936C306.439 761.492 320.945 762.488 332.892 763.633C330.923 771.454 329.287 780.76 328.259 788.821C327.861 791.94 329.48 797.364 328.699 799.332L326.878 799.257C313.713 798.414 300.554 797.473 287.402 796.432C290.069 785.213 292.486 771.392 294.708 759.936Z"/><path fill="white" d="M313.732 663.8C326.049 666.005 338.974 667.902 351.358 669.895C348.849 681.129 346.795 693.052 344.541 704.405C332.005 702.473 319.448 700.687 306.871 699.046C309.231 687.64 311.808 675.239 313.732 663.8Z"/><path fill="white" d="M503.757 255.463L504.271 255.542C504.905 257.205 504.819 274.375 504.867 277.632C485.434 288.99 465.469 301.157 446.195 312.821L445.789 312.901L445.237 312.518C444.774 307.122 445.191 298.018 445.418 292.491C454.696 284.7 463.268 280.171 473.531 273.935L503.757 255.463Z"/><path fill="white" d="M304.255 711.892L342.087 716.717C339.768 727.771 337.915 739.761 335.255 750.595C323.231 748.728 309.691 748.145 297.371 746.394C299.931 735.393 302.137 723.022 304.255 711.892Z"/><path fill="white" d="M332.457 570.3C344.703 573.151 356.92 576.121 369.108 579.211C366.654 588.987 364.518 601.533 362.505 611.667C352.19 608.789 336.479 605.991 325.731 603.736C328.166 593.805 330.438 580.494 332.457 570.3Z"/><path fill="white" d="M322.887 617.273C331.901 618.36 350.636 622.578 360.157 624.611C357.731 634.197 355.854 646.787 353.71 656.856C341.277 654.583 328.831 652.386 316.371 650.266C318.739 640.571 321.006 627.2 322.887 617.273Z"/><path fill="white" d="M359.077 435.122C368.251 437.452 384.984 443.662 394.398 446.888C392.177 455.9 389.872 469.102 388.184 478.38C383.666 478.092 358.406 469.225 352.677 467.304C355.086 457.602 357.176 445.123 359.077 435.122Z"/><path fill="white" d="M341.262 525.734L377.31 535.477L371.241 566.4C359.34 563.203 346.975 560.453 334.96 557.319C336.974 546.773 339.075 536.245 341.262 525.734Z"/><path fill="white" d="M350.181 481.102C361.372 484.168 374.696 488.341 385.721 491.992C383.359 501.884 381.548 512.739 379.553 522.82C369.037 519.508 354.387 515.542 343.671 512.981C346.202 502.972 347.733 491.433 350.181 481.102Z"/><path fill="white" d="M367.458 392.599C379.172 396.848 390.923 400.996 402.71 405.042C400.456 414.27 398.575 424.916 396.736 434.321C384.984 430.306 373.259 426.216 361.56 422.05C363.836 412.655 365.631 402.161 367.458 392.599Z"/><path fill="white" d="M594.567 189.339L595.877 189.685C597.419 191.322 596.956 190.399 597.438 192.493C596.522 195.221 586.302 200.443 583.459 202.168L556.658 218.53C543.192 226.77 529.568 235.165 516.028 243.312C512.486 245.443 510.946 242.325 507.585 244.366C505.163 245.838 504.91 247.796 504.293 250.375L469.827 271.5C463.506 275.328 454.136 280.552 448.538 284.899C447.127 285.983 446.979 286.489 445.492 286.634C444.816 285.46 445.257 283.418 445.404 281.966C451.683 277.741 458.852 273.279 465.388 269.407C508.674 243.763 550.987 214.308 594.567 189.339Z"/><path fill="white" d="M438.341 205.194C439.83 205.448 440.16 205.344 441.269 206.355C441.874 208.996 441.585 234.457 441.513 239.412C441.148 264.755 441.788 290.656 441.195 315.909L436.205 318.9C435.509 319.182 435.909 319.103 434.988 319.017C434.432 317.486 435.246 298.226 435.296 295.513L436.372 244.764C436.561 233.178 436.714 221.506 437.065 209.919C437.13 207.767 437.353 207.048 438.341 205.194Z"/><path fill="#FF5340" d="M809.481 103.996C833.318 122.718 856.163 143.663 879.646 162.901C882.469 165.214 881.962 167.304 882.108 170.688C862.551 153.759 841.813 137.771 822.047 121.062C817.949 117.597 813.816 114.355 809.812 110.745C809.514 108.557 809.532 106.216 809.481 103.996Z"/><path fill="white" d="M351.96 471.635C358.154 473.064 404.65 487.251 406.518 488.709C407.127 490.47 406.396 491.74 405.771 493.583C402.442 493.077 391.265 489.457 387.542 488.328L350.778 477.074L351.96 471.635Z"/><path fill="white" d="M315.794 654.304C320.922 654.966 371.059 663.442 372.287 664.806C372.706 666.484 372.098 667.498 371.49 669.156C352.659 666.405 333.321 662.97 314.468 659.959L315.794 654.304Z"/><path fill="white" d="M324.733 607.743C330.779 608.866 379.398 618.452 381.069 620.152C381.509 622.188 381.266 621.779 380.514 624.078C377.381 624.189 365.13 621.53 361.373 620.786C348.84 618.374 336.332 615.834 323.851 613.166C324.214 611.373 324.458 609.553 324.733 607.743Z"/><path fill="white" d="M276.826 850.229C290.416 850.569 317.622 851.209 332.412 852.09C332.766 852.394 333.12 852.698 333.475 853.002C334.044 854.56 333.501 855.574 333.01 857.209L275.53 855.964C275.885 853.874 276.294 852.287 276.826 850.229Z"/><path fill="white" d="M296.732 750.546C302.889 751.487 311.529 751.719 317.39 752.696C322.918 753.617 351.358 755.011 353.497 757.746C353.608 759.744 353.474 759.803 352.846 761.641C333.873 759.548 314.383 757.81 295.374 755.983L296.732 750.546Z"/><path fill="white" d="M286.718 800.568C302.255 801.904 326.606 802.872 342.725 804.493C343.06 804.76 343.395 805.027 343.729 805.294C344.164 806.964 343.738 807.576 343.126 809.202C323.996 808.369 304.709 806.902 285.534 805.964L286.718 800.568Z"/><path fill="white" d="M342.83 516.87C350.433 518.86 396.555 530.749 398.423 532.72C398.827 534.214 398.289 535.193 397.789 536.697C380.847 533.51 359.653 525.677 342.07 522.01L342.83 516.87Z"/><path fill="white" d="M334.225 561.388C349.321 565.321 373.611 570.536 389.195 575.016C389.485 575.331 389.775 575.645 390.066 575.959C390.367 577.448 389.884 578.301 389.372 579.746C386.524 579.463 372.689 575.839 368.956 574.952L347.103 569.778C343.518 568.928 336.938 567.579 333.829 566.222C333.281 564.514 333.818 563.185 334.225 561.388Z"/><path fill="white" d="M561.476 295.051C567.789 297.698 577.363 302.434 583.473 305.497L583.531 317.89C576.145 314.371 568.793 311.213 561.47 307.489L561.476 295.051Z"/><path fill="white" d="M306.154 703.082C318.032 704.766 329.923 706.36 341.825 707.864C345.644 708.357 360.721 709.731 362.503 711.526C362.996 712.903 362.499 713.959 362.108 715.424L323.057 710.259C319.413 709.781 308.388 708.606 305.629 707.716C305.2 706.227 305.787 704.664 306.154 703.082Z"/><path fill="white" d="M360.905 426.149C373.288 430.078 385.602 434.869 398.004 438.841C402.551 440.297 408.445 442.116 412.707 444.122C413.413 445.69 413.029 447.139 412.841 448.906C396.659 442.642 377.075 437.068 360.113 430.911L360.905 426.149Z"/><path fill="white" d="M336.962 764.108C338.647 764.264 339.859 764.216 341.33 765.035C341.362 766.753 338.9 777.603 338.405 780.782C337.423 787.081 338.032 794.053 336.87 799.618C335.528 799.616 334.768 799.778 333.699 798.998C329.643 792.392 335.252 771.838 336.962 764.108Z"/><path fill="white" d="M345.796 717.396C347.579 717.484 348.887 717.314 350.28 718.345C350.33 720.571 348.804 727.58 348.301 730.185C346.905 737.29 345.566 744.406 344.286 751.533C342.662 751.35 340.862 751.406 339.708 750.415C340.304 742.932 344.322 725.905 345.796 717.396Z"/><path fill="white" d="M355.339 670.68C357.606 671.016 357.962 670.673 359.4 671.912C359.112 676.634 354.304 699.378 353.13 705.523C351.122 705.281 350.662 705.318 348.867 704.498C348.634 702.525 354.521 673.447 355.339 670.68Z"/><path fill="white" d="M363.846 625.306C365.762 625.624 366.029 625.682 367.848 626.339C368.583 628.011 362.926 654.509 362.164 658.352L357.651 657.561C359.74 647.06 362.181 635.825 363.846 625.306Z"/><path fill="white" d="M372.705 579.943C374.244 580.3 375.591 580.413 376.738 581.434C376.31 587.439 372.104 606.646 370.744 613.296C369.056 612.948 368.08 612.9 366.689 611.874C367.103 606.444 371.447 586.334 372.705 579.943Z"/><path fill="white" d="M398.112 448.068C400.301 448.727 400.762 448.464 402.05 449.887C401.568 455.719 397.34 474.28 396.08 481.007C394.622 480.563 394.174 480.343 392.827 479.713C391.281 476.94 397.149 453.014 398.112 448.068Z"/><path fill="white" d="M381.176 536.585C382.872 536.984 383.986 537.023 385.123 538.301C384.926 541.987 383.61 546.843 382.891 550.586C381.756 556.497 380.637 562.402 379.532 568.319C377.478 567.733 376.735 567.903 375.494 566.6C375.931 560.668 379.743 543.058 381.176 536.585Z"/><path fill="white" d="M389.162 493.255C390.789 493.626 392.198 493.679 393.18 494.907C392.821 499.838 388.727 518.63 387.66 524.385C386.321 524.481 384.698 524.19 383.708 523.238C383.491 519.471 388.209 498.255 389.162 493.255Z"/><path fill="white" d="M406.353 406.244C407.776 406.605 408.101 406.794 409.429 407.361C410.685 409.685 405.438 432.697 404.598 436.902C402.849 436.359 402.342 436.307 400.869 435.156C400.891 432.419 405.651 409.65 406.353 406.244Z"/><path fill="white" d="M430.832 293.82C432.333 298.357 429.04 305.057 427.609 309.554C425.819 315.176 424.932 320.026 424.274 325.878L419.764 328.796C419.548 327.335 420.38 323.577 420.713 322.004C423.02 311.121 424.569 303.04 430.832 293.82Z"/><path fill="white" d="M509.74 247.175C510.957 247.354 510.921 247.29 511.956 247.924C512.949 253.904 512.295 265.195 512.542 271.564C512.599 273.021 511.166 273.588 509.84 274.559L508.987 274.818L508.613 274.283C508.586 269.847 507.705 249.844 509.74 247.175Z"/><path fill="white" d="M405.86 450.613C407.364 451.18 406.798 450.686 407.769 451.866C406.554 460.975 403.382 472.839 401.683 482.422C400.641 482.293 401.119 482.502 400.29 481.71C400.228 478.632 404.981 455.224 405.86 450.613Z"/><path fill="white" d="M397.553 495.207C398.309 495.784 398.052 495.591 398.545 496.506C398.291 500.673 393.728 522.079 392.423 526.202L391.793 525.593C391.488 523.355 396.612 498.558 397.553 495.207Z"/><path fill="white" d="M413.294 412.445L413.719 413.04C413.949 419.763 412.699 433.383 409.654 439.25L408.91 438.359C408.509 436.677 412.723 415.7 413.294 412.445Z"/><path fill="#FFFFFF" d="M380.806 581.79C380.922 581.89 381.075 581.959 381.154 582.09C382.208 583.852 375.924 610.416 375.201 614.444L374.632 614.047C374.251 611.148 379.909 585.958 380.806 581.79Z"/><path fill="#FFFFFF" d="M389.653 538.272C390.672 540.487 384.97 565.095 384.159 569.447C382.865 567.184 388.272 541.854 389.653 538.272Z"/><path fill="white" d="M523.116 139.251C524.935 139.491 525.344 139.463 526.647 140.685C527.44 142.314 527.268 142.633 527.003 144.403C525.349 144.369 525.468 144.376 524.125 143.392C523.104 141.656 523.21 141.345 523.116 139.251Z"/><path fill="#FF5340" d="M352.812 385.058L360.366 380.848L360.547 382.065C357.551 383.648 356.161 384.282 352.812 385.058Z"/></svg>