<svg viewBox="0 0 1024 1024" fill="none" xmlns="http://www.w3.org/2000/svg">
<g clip-path="url(#clip0_126_293)">
<path d="M0 0H1024V696.724V700.854V1024H144.834H131.928H21.9043H8.93129H0V1011.28V1007.33V902.573V898.302V842.614V838.603V827.701V823.706V700.911V696.798V0Z" fill="#15120D"/>
<path d="M0 0H1024V696.724L846.533 696.805C813.344 696.961 780.155 696.899 746.966 696.62C748.804 688.043 751.453 679.616 753.453 671.118C760.285 642.086 770.955 615.689 782.107 588.071L781.598 588.027C781.222 585.645 781.942 587.16 780.788 584.781L780.169 584.688C779.888 585.608 779.684 586.111 779.306 586.998L778.645 586.157C782.596 575.791 787.956 564.862 792.627 554.718C809.835 517.345 829.198 480.931 847.526 444.103C851.257 436.606 855.065 428.938 858.205 421.184C858.651 420.124 859.73 418.394 860.349 417.331C866.01 406.144 878.45 382.562 878.868 371.041C880.317 370.759 881.423 370.07 882.789 369.408C866.074 305.265 779.798 318.392 730.827 325.21C635.081 338.539 543.898 362.802 452.628 393.898C451.384 396.589 450.127 400.156 449.05 402.98C444.857 402.375 437.99 402.174 433.581 401.909L433.684 382.921C436.682 380.422 441.859 376.429 444.041 373.427C443.004 367.541 440.062 360.158 437.429 354.82C427.715 353.332 417.49 352.936 407.561 351.477C407.654 345.524 408.096 300.598 407.025 297.781C405.462 296.656 406.267 296.813 404.621 296.953C402.704 299.477 403.546 312.065 403.574 315.962L403.966 351.163C383.273 349.558 360.817 346.896 340.013 344.894C339.074 337.689 338.873 330.148 337.871 322.68C341.011 319.039 344.432 314.374 347.414 310.517C347.604 307.609 348.361 304.665 346.206 302.463C340.961 300.531 341.449 300.063 341.065 294.865C345.472 294.352 351.81 293.766 355.932 292.609C355.954 292.155 355.966 291.7 355.966 291.245C355.984 289.577 356.255 284.794 354.871 283.84C349.77 280.321 338.297 287.707 333.8 284.033C333.437 282.518 333.324 282.576 333.912 281.168C338.961 279.619 359.747 279.289 366.145 278.219C367.286 278.028 369.114 276.117 369.234 274.873C369.429 272.854 369.341 273.202 368.453 271.568C366.562 270.146 343.802 267.577 340.218 267.249C343.554 263.494 345.442 259.537 340.995 255.732C339.813 241.734 334.113 241.471 322.719 235.442C322.232 230.375 321.068 229.279 319.815 224.354C319.042 221.317 319.956 217.279 318.97 215.216C317.374 214.166 318.206 214.361 316.44 214.428C314.754 216.003 315.668 223.905 315.5 227.398C314.969 228.054 314.148 229.373 314.075 230.18C313.137 240.561 313.101 253.186 312.859 263.483C307.435 263.161 276.105 258.506 273.833 260.102C273.156 262.172 273.163 264.119 274.052 266.119C277.472 268.146 305.542 276.313 311.071 278.014C310.744 298.743 309.199 321.318 308.339 342.213C304.77 341.771 301.198 341.362 297.622 340.984C297.136 335.53 296.225 330.121 294.895 324.808C293.709 325.823 292.668 326.976 291.205 327.301C286.856 314.827 273.398 315.731 263.19 319.779C256.069 322.602 251.039 326.547 245.773 332.01C243.85 334.202 242.05 336.149 240.382 338.551C239.037 337.649 237.681 337.773 236.017 337.667C231.471 345.575 231.447 377.371 230.029 388.575C213.948 387.854 197.488 385.974 181.554 385.307C177.438 388.871 171.497 393.614 168.547 397.996C168.138 403.692 167.639 421.271 169.404 426.054C173.329 430.064 198.783 439.597 205.986 443.583C201.804 446.667 193.745 452.018 190.67 455.706C189.516 466.28 189.951 492.288 190.34 503.443C186.33 498.142 172.34 481.318 166.24 479.575C165.543 479.734 165.003 479.68 164.868 480.245C163.724 485.038 164.496 496.141 164.528 501.028C159.77 502.669 156.435 504.049 151.852 506.208C149.558 503.777 146.503 499.745 143.273 499.485C140.666 501.538 142.01 509.919 142.034 513.388C132.737 519.28 127.377 520.594 134.803 532.726C140.115 541.403 150.232 535.493 155.234 536.563C155.66 538.121 155.389 538.435 154.927 539.998C152.636 541.997 147.087 545.55 144.289 547.015C140.466 549.016 135.293 553.053 131.601 554.671C119.393 560.024 122.415 565.765 122.439 578.512L122.295 603.813C119.015 604.843 108.39 607.365 106.746 609.546C105.847 612.458 105.974 614.431 106.227 617.413C108.477 643.942 113.581 672.192 124.189 696.741L0 696.798V0Z" fill="white"/>
<path d="M878.868 371.041C880.317 370.759 881.423 370.07 882.789 369.408C883.013 374.267 882.803 378.263 880.873 382.829C874.167 398.688 866.511 414.489 859.029 429.98C842.847 463.07 826.379 496.02 809.628 528.827C802.919 542.169 796.795 555.96 790.501 569.497C788.181 574.488 784.467 583.845 782.107 588.071L781.598 588.027C781.222 585.645 781.942 587.16 780.788 584.781L780.169 584.688C779.888 585.608 779.684 586.111 779.306 586.998L778.645 586.157C782.596 575.791 787.956 564.862 792.627 554.718C809.835 517.345 829.198 480.931 847.526 444.103C851.257 436.606 855.065 428.938 858.205 421.184C858.651 420.124 859.73 418.394 860.349 417.331C866.01 406.144 878.45 382.562 878.868 371.041Z" fill="#15120D"/>
<path d="M244.847 327.076C257.67 314.617 284.412 303.754 294.895 324.808C293.709 325.823 292.668 326.976 291.205 327.301C286.856 314.827 273.398 315.731 263.19 319.779C256.069 322.602 251.039 326.547 245.773 332.01C244.944 329.771 244.836 329.453 244.847 327.076Z" fill="#15120D"/>
<path d="M244.847 327.076C244.836 329.453 244.944 329.771 245.773 332.01C243.85 334.202 242.05 336.149 240.382 338.551C239.037 337.649 237.681 337.773 236.017 337.667C238.545 333.695 241.576 330.428 244.847 327.076Z" fill="#15120D"/>
<path d="M650.264 399.087C652.777 391.239 661.39 390.849 667.714 388.67C669.396 388.091 674.304 383.507 676.067 383.557C683.976 383.781 693.264 381.508 700.792 381.333C702.328 382.212 702.264 382.103 702.996 383.705C702.78 385.752 700.529 389.5 699.465 391.661C702.808 391.666 708.244 390.723 711.72 390.221C743.035 386.621 816.97 380.167 842.02 399.611C845.48 401.71 846.79 402.703 849.904 405.311C854.332 409.215 857.042 412.364 860.349 417.331C859.73 418.394 858.651 420.124 858.205 421.184C855.065 428.938 851.257 436.606 847.526 444.103C829.198 480.931 809.835 517.345 792.627 554.718C787.956 564.862 782.596 575.791 778.645 586.157C777.287 588.584 776.65 591.459 774.83 594.275C775.218 590.925 777.742 582.911 778.742 579.015C778.435 576.773 779.185 575.903 778.041 574.396L777.294 574.921L778.209 575.61L776.806 575.425L777.01 575.062L776.392 575.596C776.005 577.195 776.303 576.43 774.854 577.768C773.12 582.265 770.806 592.274 769.417 597.397L759.85 631.618C742.86 692.607 726.703 757.828 716.286 820.311C701.552 822.055 690.374 821.579 675.575 820.219C673.456 820.025 666.386 819.619 664.665 819.228L660.96 818.864C658.293 818.529 655.613 818.336 652.935 818.112C634.203 816.547 615.586 813.944 596.914 811.819C596.489 776.299 596.91 740.102 596.946 704.521L603.003 702.978C603.562 697.193 603.381 691.562 603.325 685.754C607.728 684.642 611.711 683.855 616.18 682.594C616.316 678.94 617.395 671.109 615.488 667.943C614.012 665.493 579.667 662.778 574.447 662.119C577.245 652.63 577.957 642.569 565.82 640.181C558.614 638.763 557.572 636.475 551.592 642.172C541.125 640.945 530.693 638.735 520.816 634.973C506.072 629.365 493.102 619.617 477.668 615.786C473.554 614.765 454.44 609.979 451.801 613.354C452.567 615.879 458.865 621.289 461.352 624.11C457.095 626.505 451.565 628.515 446.939 630.583C449.382 634.518 456.956 641.827 460.499 645.73C458.145 646.817 455.736 647.751 453.33 648.718C448.593 640.778 445.192 639.755 435.498 642.064C433.843 642.458 431.557 643.416 430.728 644.969C431.132 646.497 432.445 647.148 433.79 648.156C416.661 647.869 396.428 644.742 379.219 642.827C360.919 640.79 356.104 640.454 337.795 643.367L308.972 647.92L205.515 663.779C205.104 678.718 202.576 679.075 217.885 680.937L218.486 697.753L224.332 699.313C224.133 714.503 224.168 729.694 224.436 744.883C216.776 743.335 208.6 741.106 200.89 739.331L143.805 726.124C139.663 720.501 136.71 713.888 133.717 707.57C119.335 677.555 111.384 644.865 110.373 611.597C126.911 606.722 144.694 601.349 160.896 595.595C195.517 583.299 229.208 568.494 263.205 554.711L297.288 540.66C334.108 525.759 330.086 529.264 339.681 490.115C350.153 485.883 360.527 481.37 371.112 477.403C414.052 461.595 457.68 447.722 501.865 435.826L501.169 434.706C501.957 434.377 502.459 434.047 503.199 433.621C502.071 433.338 501.953 433.231 501.04 432.56L500.225 431.951L518.107 427.14C537.616 421.721 562.552 416.337 582.175 411.849C588.753 410.345 648.369 398.334 650.264 399.087Z" fill="#FF5340"/>
<path d="M650.264 399.087C652.777 391.239 661.39 390.849 667.714 388.67C669.396 388.091 674.304 383.507 676.067 383.557C683.976 383.781 693.264 381.508 700.792 381.333C702.328 382.212 702.264 382.103 702.996 383.705C702.78 385.752 700.529 389.5 699.465 391.661L698.094 396.082C696.685 403.037 695.606 409.915 695.279 417.019C694.382 436.483 697.319 585.982 694.306 591.344L693.229 592.04C692.216 591.692 692.426 591.98 691.992 591.183C689.982 587.5 690.961 554.806 690.965 547.965L690.827 455.896C690.888 442.843 690.852 429.789 690.718 416.736C690.697 412.523 691.487 397.323 689.528 394.491L688.836 394.383C678.735 406.36 680.115 448.133 680.035 464.457L679.981 545.991C679.96 551.482 682.03 566.104 677.75 569.306C677.039 569.311 676.626 569.525 676.104 568.947C671.35 563.68 677.586 483.565 673.197 468.239C672.71 466.541 672.069 465.4 670.49 464.497C665.7 464.641 665.377 472.661 665.275 476.502C664.778 495.205 664.959 513.979 664.933 532.697C665.102 572.714 664.999 612.732 664.625 652.748C664.54 659.309 664.62 666.258 664.539 672.855C664.523 674.172 663.866 674.938 663.018 675.724C660.814 675.057 661.093 668.574 661.064 666.288C660.784 643.735 660.715 621.17 660.669 598.614L660.601 482.106L660.446 432.578C660.445 425.539 660.308 407.898 661.675 401.297C659.269 401.641 654.815 402.956 653.078 402.1L652.864 402.943C650.706 411.81 651.493 444.533 651.493 455.738L651.557 560.309C651.559 568.883 651.577 577.482 651.475 586.053C651.431 589.757 652.274 595.569 649.306 597.979C648.442 597.527 648.276 597.618 648.235 596.881C647.168 577.617 647.581 552.524 647.586 533.752C647.595 495.435 647.541 458.519 647.598 420.312C647.605 415.843 647.957 407.346 648.665 403.26L650.264 399.087Z" fill="white"/>
<path d="M653.078 402.1C654.545 398.753 657.784 395.778 661.604 397.114C662.455 398.709 662.251 399.558 661.675 401.297C659.269 401.641 654.815 402.956 653.078 402.1Z" fill="#15120D"/>
<path d="M518.107 427.14C537.616 421.721 562.552 416.337 582.175 411.849C588.753 410.345 648.369 398.334 650.264 399.087L648.665 403.26C616.112 408.7 583.767 415.314 551.691 423.089C541.734 425.497 529.605 428.154 519.965 431.026C519.769 430.111 519.589 429.258 519.428 428.333L519.316 427.669L518.107 427.14Z" fill="#15120D"/>
<path d="M711.72 390.221C743.035 386.621 816.97 380.167 842.02 399.611C840.946 400.64 839.942 401.496 839.036 402.669C807.188 384.044 749.586 390.793 713.841 394.113C713.329 392.506 713.795 392.59 713.363 390.839L711.72 390.221Z" fill="#15120D"/>
<path d="M774.854 577.768C778.137 562.94 783.49 545.607 787.519 530.709C790.006 521.549 792.55 512.405 795.151 503.277C796.24 499.36 799.258 484.738 802.841 483.187C804.244 483.888 803.749 483.354 804.295 484.913C802.651 493.721 796.803 511.865 794.186 521.572L784.265 558.318C782.641 564.437 780.623 573.171 778.742 579.015C778.435 576.773 779.185 575.903 778.041 574.396L777.294 574.921L778.209 575.61L776.806 575.425L777.01 575.062L776.392 575.596C776.005 577.195 776.303 576.43 774.854 577.768Z" fill="#15120D"/>
<path d="M660.96 818.864C660.946 814.215 660.206 795.183 662.088 792.503L663.112 792.066C666.389 794.783 666.078 816.981 664.665 819.228L660.96 818.864Z" fill="white"/>
<path d="M500.225 431.951L518.107 427.14L519.316 427.669L519.428 428.333C519.589 429.258 519.769 430.111 519.965 431.026L501.865 435.826L501.169 434.706C501.957 434.377 502.459 434.047 503.199 433.621C502.071 433.338 501.953 433.231 501.04 432.56L500.225 431.951Z" fill="#15120D"/>
<path d="M849.904 405.311C854.332 409.215 857.042 412.364 860.349 417.331C859.73 418.394 858.651 420.124 858.205 421.184C854.288 415.564 852.063 412.931 846.982 408.348C848.265 407.624 848.975 406.486 849.904 405.311Z" fill="#15120D"/>
<path d="M699.465 391.661C702.808 391.666 708.244 390.723 711.72 390.221L713.363 390.839C713.795 392.59 713.329 392.506 713.841 394.113C707.915 394.654 703.921 394.648 698.094 396.082L699.465 391.661Z" fill="#15120D"/>
<path d="M839.036 402.669C839.942 401.496 840.946 400.64 842.02 399.611C845.48 401.71 846.79 402.703 849.904 405.311C848.975 406.486 848.265 407.624 846.982 408.348C844.606 406.461 841.559 404.434 839.036 402.669Z" fill="#15120D"/>
<path d="M662.665 694.318C664.692 698.776 668.019 711.298 666.595 716.284C665.929 718.616 664.908 719.309 662.968 720.509C654.074 716.899 660.324 700.463 662.665 694.318Z" fill="white"/>
<path d="M692.51 608.913C692.837 609.052 693.678 609.584 694.018 609.788C695.239 613.503 695.987 626.431 693.806 629.647C692.465 628.615 691.769 628.416 691.419 626.508C690.732 622.77 690.737 611.537 692.51 608.913Z" fill="white"/>
<path d="M691.698 743.847C696.378 747.13 696.287 752.515 692.711 756.638C686.834 754.189 688.258 747.798 691.698 743.847Z" fill="white"/>
<path d="M649.077 626.242L650.617 626.887C653.796 630.582 653.919 634.201 650.555 637.764C643.944 636.039 646.27 630.363 649.077 626.242Z" fill="white"/>
<path d="M691.739 592.147C692.693 592.343 693.724 592.317 694.04 592.908C695.468 595.571 694.594 601.906 694.272 604.865L692.317 604.224C690.506 601.96 691.501 595.337 691.739 592.147Z" fill="white"/>
<path d="M692.87 636.826C694.102 637.34 693.881 637.262 694.995 638.035C696.696 641.095 696.053 643.597 694.017 646.258C689.709 645.026 690.435 639.525 692.87 636.826Z" fill="white"/>
<path d="M662.468 744.229C667.043 745.67 666.553 749.102 664.41 752.388C658.863 751.469 659.546 747.591 662.468 744.229Z" fill="white"/>
<path d="M649.449 768.227C654.314 769.785 653.85 772.57 651.863 776.352C650.903 776.235 650.555 776.078 649.623 775.801C647.07 773.136 647.595 771.223 649.449 768.227Z" fill="white"/>
<path d="M648.172 606.257L649.761 606.527C652.362 608.624 651.721 612.205 650.517 614.896C646.428 614.278 647.109 609.229 648.172 606.257Z" fill="white"/>
<path d="M745.861 700.918L1024 700.854V1024H144.834H131.928C141.709 1020.15 158.404 1015.83 168.831 1012.74L232.97 993.471L404.822 941.898C437.772 932.346 470.637 922.504 503.413 912.375C503.701 913.923 503.495 915.023 504.909 915.878L514.266 913.141C514.288 916.338 514.223 922.955 518.527 922.861C524.711 922.726 524.559 913.582 524.492 910.064L582.483 892.754C582.568 904.291 582.363 915.806 582.664 927.349C592.811 932.735 602.127 932.855 613.185 929.928C618.239 928.591 628.383 925.395 630.991 920.789L630.723 920.011C627.67 918.941 624.841 921.46 621.019 923.127L621.028 881.209C627.242 879.67 636.936 880.749 643.8 880.803C662.696 881.076 681.59 880.103 700.359 877.889C704.178 877.443 714.826 877.111 716.649 873.48L716.06 872.586C712.377 870.982 703.32 873.547 698.929 874.064C677.72 876.558 656.755 876.531 635.464 876.502L635.731 857.032C643.177 857.117 650.614 857.442 658.147 857.503C657.501 860.118 656.886 862.346 656.622 865.159C656.133 870.369 661.106 876.293 665.582 870.653C668.291 867.24 667.257 862.309 666.733 858.189C668.239 857.385 669.429 856.955 669.902 855.216C669.295 854.734 669.085 854.577 668.496 854.03C667.007 852.646 668.809 844.775 669.197 842.43L670.036 840.992C671.601 836.14 678.651 836.905 682.775 836.91C679.785 836.191 676.779 836.942 675.02 836.248C674.881 835.926 674.025 833.977 673.88 833.833C670.625 830.589 662.129 829.466 658.072 831.721C656.612 832.533 656.632 834.282 656.274 835.623L656.095 836.27L653.243 836.037C645.997 835.476 648.162 833.029 645.952 832.311C634.629 828.634 622.331 826.703 610.729 823.936C606.472 822.921 597.714 822.726 596.166 817.935C597.266 815.484 601.002 816.456 603.174 816.771C619.723 819.176 707.22 830.399 718.848 823.346C720.194 822.529 720.489 821.102 720.837 819.668C722.566 812.545 722.915 804.89 724.447 797.662C731.297 765.339 737.916 732.999 745.861 700.918Z" fill="white"/>
<path d="M131.928 1024C141.709 1020.15 158.404 1015.83 168.831 1012.74L232.97 993.471L404.822 941.898C437.772 932.346 470.637 922.504 503.413 912.375C503.701 913.923 503.495 915.023 504.909 915.878L396.968 948.379C396.983 964.491 397.218 981.158 396.926 997.225C380.921 1005.95 365.877 1004.95 350.404 995.806C350.142 984.665 350.07 973.52 350.188 962.376L211.051 1004.05L167.269 1017.19C160.842 1019.11 150.817 1021.74 144.834 1024H131.928Z" fill="#15120D"/>
<path d="M370.514 956.328C377.995 954.033 385.584 951.626 393.089 949.449C393.184 964.64 393.173 979.831 393.057 995.023C386.325 997.963 377.265 1000.36 369.893 999.257C368.456 998.801 368.406 998.864 366.901 998.665L366.744 992.409L369.965 992.359C370.697 981.248 370.512 967.582 370.514 956.328Z" fill="white"/>
<path d="M369.965 992.359C369.928 994.611 369.84 997.02 369.893 999.257C368.456 998.801 368.406 998.864 366.901 998.665L366.744 992.409L369.965 992.359Z" fill="white"/>
<path d="M353.999 961.328L366.478 957.492C366.582 967.109 365.893 983.539 366.744 992.409L366.901 998.665C362.421 997.74 358.131 995.583 354.054 993.58L353.999 961.328Z" fill="white"/>
<path d="M682.775 836.91C699.288 837.21 721.178 837.309 735.755 829.231C751.43 820.543 726.985 811.836 725.788 809.315C729.431 805.303 737.321 811.576 740.247 813.887C745.166 817.772 746.771 826.93 740.932 830.835C722.722 843.015 691.138 841.4 670.036 840.992C671.601 836.14 678.651 836.905 682.775 836.91Z" fill="#15120D"/>
<path d="M731.078 795.301C738.363 796.001 753.85 803.166 760.233 807.165C769.207 812.786 773.982 816.711 776.614 827.117C771.822 852.204 706.981 856.401 685.375 856.578C683.537 856.331 684.356 856.654 682.841 855.531C682.538 854.098 682.458 854.783 683.188 853.424C685.519 851.858 692.144 852.366 695.323 852.269C700.761 852.055 706.19 851.671 711.604 851.116C743.199 847.683 810.103 832.216 744.15 804.039C740.358 802.419 734.266 800.769 730.98 798.629C730.335 796.964 730.572 797.402 731.078 795.301Z" fill="#15120D"/>
<path d="M577.139 913.59C578.758 913.851 578.108 913.475 579.133 914.791C578.227 918.964 561.583 919.738 560.942 927.954C565.347 937.259 598.08 935.622 601.286 938.115C601.6 939.904 601.623 938.973 600.673 940.961C590.815 940.696 570.268 939.669 562.474 934.531C546.551 924.034 568.874 915.435 577.139 913.59Z" fill="#15120D"/>
<path d="M339.66 987.385C341.01 987.646 340.498 987.464 341.65 988.372L341.757 989.482C339.693 992.679 332.759 993.863 332.556 998.649C335.657 1006.72 358.453 1005.52 364.523 1009.53C365.094 1009.91 364.834 1010.98 364.81 1011.94C356.591 1012.42 333.336 1008.8 328.939 1000.33C325.699 994.086 335.314 989.329 339.66 987.385Z" fill="#15120D"/>
<path d="M630.969 909.31C636.939 909.611 647.93 913.688 649.056 920.334C650.979 931.682 631.166 936.199 623.047 938.308L621.512 938.058C620.285 936.98 620.635 937.632 620.371 936.067C622.362 933.258 632.167 932.633 636.094 930.345C654.726 919.486 642.013 918.092 631.378 912.345C630.334 910.7 630.627 911.637 630.969 909.31Z" fill="#15120D"/>
<path d="M402.092 982.283C406.626 982.482 411.077 983.565 415.195 985.472C420.174 987.805 422.975 992.168 419.549 997.266C414.73 1004.44 403.545 1007.89 395.57 1009.91L394.266 1009.9C392.79 1008.6 393.14 1009.37 392.841 1007.71C394.781 1004.97 417.847 1000.92 417.537 992.144C415.072 987.871 407.053 987.534 403.091 985.591C401.87 984.992 402.132 983.568 402.092 982.283Z" fill="#15120D"/>
<path d="M662.049 887.701C663.19 887.954 663.106 887.966 663.964 888.779C666.134 895.436 672.478 909.668 663.534 913.125C651.419 910.421 658.823 894.832 662.049 887.701Z" fill="#15120D"/>
<path d="M661.972 894.256C663.447 896.026 665.852 903.692 665.531 906.338C665.211 908.965 665.087 908.963 663.108 910.759C656.999 907.183 660.34 899.51 661.972 894.256Z" fill="white"/>
<path d="M573.597 946.398C582.834 946.655 592.56 949.668 602.358 948.764C605.936 948.434 618.869 946.059 620.889 947.299C621.47 948.991 621.446 948.128 620.714 949.972C619.194 950.354 617.662 950.691 616.122 950.981C607.695 952.613 580.116 953.83 573.605 949.41C572.811 947.696 572.995 948.642 573.597 946.398Z" fill="#15120D"/>
<path d="M518.191 932.214C520.53 932.812 521.681 933.588 522.958 935.798C524.113 937.798 524.387 940.186 523.715 942.395C523.023 944.616 522.045 945.214 520.139 946.255C511.238 944.994 513.081 936.947 518.191 932.214Z" fill="#15120D"/>
<path d="M518.277 935.173C522.086 936.334 521.652 940.683 520.38 943.55L518.421 943.196C515.671 940.686 516.938 938.191 518.277 935.173Z" fill="white"/>
<path d="M659.567 944.134C659.461 940.738 659.339 939.253 661.521 936.668C667.129 934.259 672.985 944.035 665.209 949.574C661.233 950.267 659.724 947.656 659.567 944.134Z" fill="white"/>
<path d="M659.567 944.134C659.461 940.738 659.339 939.253 661.521 936.668C667.129 934.259 672.985 944.035 665.209 949.574C668.731 943.493 665.861 945.012 664.838 939.818C664.99 940.587 664.751 937.179 664.769 937.431L664.088 937.444L662.587 940.466C661.584 942.521 661.633 943.049 659.567 944.134Z" fill="#15120D"/>
<path d="M455.6 397.187C478.697 390.1 501.214 381.861 524.549 374.996C601.182 352.451 679.778 335.186 759.127 325.715C792.011 321.79 830.818 319.547 858.805 339.998C868.489 347.074 877.122 358.96 878.868 371.041C878.45 382.562 866.01 406.144 860.349 417.331C857.042 412.364 854.332 409.215 849.904 405.311C846.79 402.703 845.48 401.71 842.02 399.611C816.97 380.167 743.035 386.621 711.72 390.221C708.244 390.723 702.808 391.666 699.465 391.661C700.529 389.5 702.78 385.752 702.996 383.705C702.264 382.103 702.328 382.212 700.792 381.333C693.264 381.508 683.976 383.781 676.067 383.557C674.304 383.507 669.396 388.091 667.714 388.67C661.39 390.849 652.777 391.239 650.264 399.087C648.369 398.334 588.753 410.345 582.175 411.849C562.552 416.337 537.616 421.721 518.107 427.14L500.225 431.951C446.066 446.343 392.823 463.988 340.788 484.79C341.836 479.518 342.521 474.704 345.08 469.975C350.14 466.374 366.266 459.952 372.53 457.398L412.121 441.452C443.552 429.129 442.182 427.919 455.6 397.187Z" fill="#FF5340"/>
<path d="M0 700.911L126.073 700.933C129.542 708.41 136.303 723.714 141.006 729.504C167.841 736.872 197.236 742.228 224.392 749.067L224.452 757.871C222.122 757.155 220.271 756.294 217.938 756.709L216.781 757.452C216.759 761.066 221.572 761.664 224.398 762.428L224.443 773.68C206.985 769.392 189.281 764.765 171.675 761.039C167.913 760.243 162.519 757.714 158.837 758.647L158.045 759.463C158.08 760.232 157.877 760.749 158.513 761.294C160.899 763.341 217.546 776.166 224.401 777.912L224.389 790.845L223.703 790.788C217.398 790.218 205.609 786.182 200.956 787.326L200.386 788.052C200.927 791.563 208.623 792.01 211.805 792.543C186.934 795.914 162.232 799.635 137.426 803.434C91.7149 810.434 45.6445 816.322 0 823.706V700.911Z" fill="white"/>
<path d="M110.027 721.686C110.571 721.66 111.115 721.638 111.659 721.621C115.596 721.491 136.135 721.432 135.981 726.744C133.891 727.549 115.14 725.76 109.884 725.831C118.556 731.696 132.345 733.325 142.337 736.221C149.51 738.299 156.556 741.137 163.731 743.106C172.119 745.408 181.028 747.151 189.566 748.945C192.809 749.907 203.969 751.069 203.803 754.892L202.646 755.791C200.27 756.282 196.92 755.132 194.505 754.587C176.432 750.486 158.51 746.181 140.956 740.199C131.7 737.044 109.842 734.693 104.548 726.174C104.2 722.809 107.255 722.303 110.027 721.686Z" fill="#15120D"/>
<path d="M0 827.701C14.3309 825.406 36.6751 821.593 50.8798 820.262C72.8982 829.759 95.0185 839.018 117.237 848.038L232.643 896.122L280.534 916.17C286.547 918.704 297.245 922.795 302.652 925.514L248.322 940.206C239.212 942.701 226.569 946.622 217.737 948.384C181.681 929.207 143.465 910.767 106.888 892.204L40.9681 858.973C27.7499 852.32 13.3648 844.764 0 838.603V827.701Z" fill="white"/>
<path d="M21.9043 1024C26.6588 1022.18 35.578 1019.91 40.7355 1018.45L77.5998 1008.09L187.825 977.124L515.011 884.814C515.206 892.883 515.021 900.958 514.457 909.01C511.196 909.716 506.701 911.311 503.413 912.375C470.637 922.504 437.772 932.346 404.822 941.898L232.97 993.471L168.831 1012.74C158.404 1015.83 141.709 1020.15 131.928 1024H21.9043Z" fill="white"/>
<path d="M0 842.614L100.911 893.362C137.39 911.887 176.171 932.211 213.001 949.802C196.942 953.857 180.961 958.217 165.067 962.878C176.944 969.821 153.312 955.73 165.067 962.878C161.87 961.013 116.048 932.986 112.945 933.339L112.825 934.163C114.858 936.843 155.54 960.291 161.64 963.642L120.973 974.558C110.145 966.8 94.8447 957.806 83.3278 950.485C55.7141 932.833 27.937 915.438 0 898.302L0 842.614Z" fill="white"/>
<path d="M0 902.573L57.6656 938.624C77.2229 951.209 96.8962 963.613 116.683 975.834C77.7191 986.072 38.8238 996.57 0 1007.33V902.573Z" fill="white"/>
<path d="M245.773 332.01C251.039 326.547 256.069 322.602 263.19 319.779C273.398 315.731 286.856 314.827 291.205 327.301C292.053 331.751 292.825 336.215 293.52 340.691C290.822 340.354 287.619 339.866 284.956 339.631C280.001 342.448 275.143 347.894 270.759 351.781C267.098 354.999 263.507 358.296 259.989 361.67C252.851 368.07 245.817 374.587 238.891 381.217C238.573 384.808 240.017 388.277 235.709 389.428C232.588 387.14 237.61 352.298 237.673 346.678C237.702 344.123 239.086 340.756 240.382 338.551C242.05 336.149 243.85 334.202 245.773 332.01Z" fill="#FF5340"/>
<path d="M0 1011.28L118.421 979.088L118.241 992.719L41.5717 1014.33C35.728 1015.98 13.4896 1021.88 8.93129 1024H0V1011.28Z" fill="white"/>
<path d="M282.488 346.425C282.228 349.973 281.988 353.522 281.767 357.072C271.452 366.531 260.342 375.225 249.8 384.442C248.045 385.977 245.8 388.065 243.871 389.314C242.363 388.079 242.072 384.058 243.366 382.677C248.726 376.955 254.978 371.867 260.68 366.483C260.745 364.482 260.448 363.653 259.989 361.67C263.507 358.296 267.098 354.999 270.759 351.781C272.227 352.058 273.9 352.413 275.357 352.641C277.754 350.592 280.131 348.52 282.488 346.425Z" fill="white"/>
<path d="M270.759 351.781C272.227 352.058 273.9 352.413 275.357 352.641C270.519 357.312 265.626 361.927 260.68 366.483C260.745 364.482 260.448 363.653 259.989 361.67C263.507 358.296 267.098 354.999 270.759 351.781Z" fill="#15120D"/>
<path d="M656.095 836.27L656.274 835.623C656.632 834.282 656.612 832.533 658.072 831.721C662.129 829.466 670.625 830.589 673.88 833.833C674.025 833.977 674.881 835.926 675.02 836.248C676.779 836.942 679.785 836.191 682.775 836.91C678.651 836.905 671.601 836.14 670.036 840.992L669.197 842.43C661.072 846.201 667.582 868.68 661.189 870.667L661.994 870.689L660.593 870.132C657.907 865.232 661.49 857.832 661.643 851.893C661.831 844.64 657.962 842.383 658.405 837.74C657.463 836.367 658.022 836.983 656.095 836.27Z" fill="white"/>
<path d="M184.864 389.726L368.166 401.865L418.225 405.042C427.367 405.606 437.94 406.026 446.965 407.021L443.767 413.143C429.02 420.217 363.454 441.922 356.254 450.033C353.576 453.052 353.91 457.082 354.075 460.823C350.841 462.164 342.697 465.211 341.346 468.242C336.656 478.768 335.359 491.986 332.22 503.16C305.44 513.68 278.882 526.056 252.271 537.073C249.896 538.056 247.312 538.695 247.294 541.567L248.288 542.117C252.858 542.038 262.257 537.413 266.85 535.431C267.132 535.314 268.41 534.95 268.743 534.85C270.135 536.237 269.814 544.666 269.955 547.465C262.019 550.722 251.915 555.222 244.001 557.773C232.772 550.413 236.115 535.755 234.73 523.7C226.953 523.122 209.295 522.558 201.773 523.418C198.746 523.764 183.675 533.101 180.195 535.188L143.938 556.824C141.11 558.514 128.772 566.786 126.716 566.232C126.576 564.518 126.444 564.449 127.244 562.879C133.008 557.916 149.294 548.96 156.419 544.409C169.579 536.25 182.52 527.613 196.057 520.086C202.48 516.516 210.553 517.372 217.662 517.45C226.943 517.546 236.223 517.767 245.498 518.112C250.463 518.277 255.475 518.665 260.425 518.11C261.019 510.709 261.493 453.331 259.759 449.539C259.051 447.989 256.554 446.82 255.1 446.065C248.929 442.863 242.233 440.306 235.852 437.532C218.732 430.09 201.344 423.121 184.443 415.193C184.559 410.4 183.958 393.109 184.864 389.726Z" fill="white"/>
<path d="M283.088 481.554C286.813 481.316 289.794 481.054 289.787 485.821C289.782 488.605 289.51 491.698 289.401 494.504C288.846 494.519 288.291 494.528 287.736 494.531C280.599 494.573 282.889 486.942 283.088 481.554Z" fill="#15120D"/>
<path d="M283.019 429.541C286.993 429.261 289.908 428.901 289.733 434.223C289.648 436.836 289.508 439.458 289.421 442.072C280.236 442.246 282.542 437.128 283.019 429.541Z" fill="#15120D"/>
<path d="M351.294 433.022C352.961 432.913 355.831 432.417 356.845 433.926C358.558 436.473 357.584 442.303 357.487 445.452C355.562 445.604 354.346 445.909 352.608 445.107C350.172 442.447 351.22 437.148 351.294 433.022Z" fill="#15120D"/>
<path d="M308.058 431.116C309.991 431.038 311.915 430.853 313.371 431.996C313.782 434.469 314.038 441.675 312.88 443.654C310.772 443.637 309.963 443.738 307.977 443.164C306.641 441.177 306.964 433.011 308.058 431.116Z" fill="#15120D"/>
<path d="M121.364 809.698C126.802 808.148 264.902 863.065 282.53 867.457C285.542 868.208 306.34 875.351 310.043 876.916C310.669 879.036 308.12 879.416 308.717 882.271C312.096 885.009 318.412 882.779 321.712 880.731C324.996 882.07 328.222 883.17 331.599 884.26C349.711 890.102 367.522 896.745 385.635 902.583C380.903 904.512 369.686 907.287 364.504 908.699L324.079 919.573C318.639 921.044 313.072 922.661 307.551 923.732C295.715 918.105 281.5 912.477 269.333 907.443L222.129 887.667L57.4075 819.134C77.9806 815.631 100.65 812.463 121.364 809.698Z" fill="white"/>
<path d="M196.13 798.288C204.773 801.866 215.462 805.153 224.482 807.898L224.453 819.131C228.38 821.871 232.467 823.333 236.933 824.934C240.294 824.324 246.673 822.655 249.54 820.74C250.717 819.954 250.581 818.313 250.771 816.637L251.424 816.192C255.448 816.949 270.344 822.102 275.153 823.644C290.603 828.6 306.902 833.245 322.18 838.527C317.695 839.46 310.424 841.254 306.376 839.173C303.688 837.791 302.292 836.737 299.3 835.856C296.395 836.778 298.962 842.286 295.385 846.912L294.925 847.497C296.644 859.789 302.4 859.491 312.697 856.227C315.306 857.958 316.379 858.443 319.153 859.67C326.113 858.451 332.045 857.014 336.819 851.222C336.967 848.634 337.341 846.055 337.666 843.481C344.204 845.666 359.835 851.229 365.839 852.338C368.317 852.471 371.436 852.463 373.255 854.318C376.408 856.786 451.985 880.199 460.171 882.693C450.374 885.544 440.599 888.05 430.771 890.747C417.775 894.312 404.752 898.241 391.64 901.351C382.033 897.333 370.78 893.661 360.88 890.203C349.872 886.357 338.301 882.186 327.183 878.817C328.434 878.743 334.148 878.816 334.238 877.228C334.444 873.58 330.924 866.849 327.025 866.141C323.289 866.931 317.314 871.955 314.034 874.427C307.087 871.605 297.309 868.579 289.984 866.038L243.802 849.762C205.518 835.963 168.899 821.636 130.16 808.38C150.776 805.803 175.58 801.867 196.13 798.288Z" fill="white"/>
<path d="M365.839 852.338C368.317 852.471 371.436 852.463 373.255 854.318L372.011 854.585C371.364 856.624 376.747 873.497 373.093 877.631C368.151 879.058 353.128 875.137 348.008 873.581L348.72 868.392C354.237 865.622 364.705 858.73 368.742 854.173L368.663 853.551L365.839 852.338Z" fill="#15120D"/>
<path d="M368.855 859.331C369.759 864.06 370.103 867.154 370.513 871.976L370.405 873.496L369.546 874.13L368.12 873.741C365.459 873.428 354.891 872.5 353.385 870.596C354.239 869.504 354.312 869.837 356.145 869.533L358.023 867.818C362.217 864.936 365.078 862.783 368.855 859.331Z" fill="white"/>
<path d="M356.145 869.533L358.023 867.818C363.086 869.299 365.558 869.954 370.513 871.976L370.405 873.496L369.546 874.13L368.12 873.741C365.459 873.428 354.891 872.5 353.385 870.596C354.239 869.504 354.312 869.837 356.145 869.533Z" fill="white"/>
<path d="M368.12 873.741C365.459 873.428 354.891 872.5 353.385 870.596C354.239 869.504 354.312 869.837 356.145 869.533C358.773 870.511 368.113 872.538 369.071 873.392L368.12 873.741Z" fill="white"/>
<path d="M552.175 714.773C557.587 713.424 563.027 712.193 568.492 711.08C568.716 743.384 568.76 775.69 568.624 807.995L498.52 797.601C489.959 796.248 475.072 794.333 466.852 792.295L466.889 733.799C479.847 730.793 493.567 727.881 506.416 724.7C506.644 732.646 505.901 741.618 505.803 749.613C505.648 762.257 517.115 759.092 516.505 751.18C515.964 744.159 516.357 729.381 515.081 722.922L523.635 721.017C529.877 719.559 537.421 717.603 543.627 716.481C543.146 721.244 541.054 732.971 548.023 733.61C554.32 730.704 552.671 720.458 552.175 714.773Z" fill="#FF5340"/>
<path d="M510.033 769.656C514.692 771.029 516.543 782.412 515.969 786.602C515.669 788.793 514.292 789.61 512.626 790.672C501.485 789.82 507.539 775.79 510.033 769.656Z" fill="#15120D"/>
<path d="M510.699 775.264C512.533 776.835 513.465 781.901 513.555 784.27C513.64 786.525 513.265 786.791 511.773 788.322C506.375 785.402 509.238 779.976 510.699 775.264Z" fill="white"/>
<path d="M547.435 741.863C554.629 743.067 555.378 750.29 549.092 753.705C541.473 753.045 541.773 745.947 547.435 741.863Z" fill="#15120D"/>
<path d="M547.446 744.752C549.384 744.985 549.665 745.408 550.473 746.986C550.484 748.937 550.164 749.258 549.246 750.946C547.125 750.713 546.77 750.604 545.893 748.794C545.985 746.768 546.299 746.54 547.446 744.752Z" fill="white"/>
<path d="M261.289 789.176C266.045 788.369 277.434 792.636 282.617 794.211L318.693 805.196L436.353 841.321L436.554 867.927C440.986 869.983 447.313 872.144 452 873.897C457.077 872.169 462.484 870.523 467.106 867.84L467.024 850.505C469.323 851.269 475.287 852.96 476.842 854.368C476.769 854.182 477.572 856.181 477.593 856.239C480.405 864.062 501.328 857.868 508.548 863.525C510.253 864.861 511.665 865.345 512.258 867.459C511.435 869.039 512.036 868.335 509.864 869.168C495.593 873.374 480.403 876.729 466.293 881.326C458.396 877.656 435.455 871.038 425.862 867.925L338.431 839.915C339.263 837.418 340.477 835.075 337.886 833.477C335.289 833.439 330.638 835.537 327.872 836.531C302.177 828.151 276.427 819.942 250.623 811.903L250.574 790.616C253.982 790.274 257.857 789.649 261.289 789.176Z" fill="white"/>
<path d="M382.058 832.472C382.968 832.394 382.957 832.467 383.879 832.618C384.889 834.347 385.232 837.739 384.579 839.63C382.063 846.909 375.915 845.652 370.363 844.179C367.886 842.974 365.131 841.659 366.036 838.529C368.739 836.032 377.472 834.198 382.058 832.472Z" fill="#15120D"/>
<path d="M385.509 830.096L387.769 830L389 833.121L387.393 839.088C379.85 848.427 378.681 847.228 368.235 846.544C363.625 844.274 365.032 845.885 362 841.077C364.885 836.13 379.921 832.119 385.509 830.096Z" fill="white"/>
<path d="M355.59 644.698C358.323 644.383 371.574 646.046 375.259 646.436L421.001 651.309C417.52 654.099 413.226 655.247 410.723 658.4C398.367 658.338 382.468 657.935 371.268 662.679C360.465 667.254 372.517 674.464 379.007 674.412C381.632 674.391 388.653 675.706 391.45 676.113C389.175 677.847 387.725 678.525 387.601 681.562C390.322 687.251 402.352 685.118 408.085 685.942C417.105 687.239 421.391 691.418 431.024 691.576C452.629 691.93 473.631 682.107 495.552 690.042C482.398 691.797 466.607 696.517 453.549 697.623C446.84 698.191 432.057 695.273 424.619 694.317L292.376 675.826C268.038 672.281 243.682 668.86 219.309 665.564C264.314 659.591 310.733 650.517 355.59 644.698Z" fill="white"/>
<path d="M347.445 667.135C352.022 666.63 358.11 666.746 360.231 671.638C360.065 676.585 354.951 675.811 351.375 675.581C347.395 675.422 340.905 677.344 338.188 673.703C338.358 669.477 343.994 667.752 347.445 667.135Z" fill="#15120D"/>
<path d="M342.142 661.755C351.715 658.919 355.874 658.124 363.932 670.404L364 674.962C360.314 679.97 356.949 677.567 352.704 676.295C347.115 674.26 335.954 681.889 332 674.726C334.89 667.678 338.366 665.364 342.142 661.755Z" fill="white"/>
<path d="M357.452 651.561C358.035 651.531 358.618 651.506 359.201 651.488C362.536 651.379 369.724 652.691 368.676 657.221C367.241 658.816 367.049 658.809 364.988 659.617C360.516 659.642 357.365 659.635 353.684 656.9C352.89 655.302 352.971 656.11 353.41 654.397C354.834 652.685 355.381 652.582 357.452 651.561Z" fill="#15120D"/>
<path d="M350.181 649.39C355.644 648.049 365.826 645.167 370 655.794L369.404 661.08C363.439 661.552 353.403 664.675 349 655.861L350.181 649.39Z" fill="white"/>
<path d="M250.489 703.337C260.297 705.324 270.844 706.792 280.765 708.456L339.252 718.216C339.493 735.877 339.581 753.541 339.518 771.204C329.708 768.67 319.192 766.663 309.206 764.41C289.608 759.994 270.036 755.461 250.492 750.81C250.406 734.986 250.404 719.161 250.489 703.337Z" fill="#FF5340"/>
<path d="M429.601 651.642C448.355 652.236 445.704 652.586 461.665 661.065C458.331 660.549 454.658 660.059 451.374 659.432C447.995 662.696 440.756 667.933 438.7 670.265C438.86 674.133 448.257 674.27 451.459 674.758C471.269 677.779 489.67 674.285 508.404 667.863C517.524 664.722 519.28 665.364 528.253 667.928C526.877 669.251 525.389 670.313 525.082 672.126C527.42 678.702 546.017 672.446 554.563 681.006C546.876 698.009 548.972 708.001 550.202 726.229C550.311 727.845 548.924 729.728 547.463 730.422C541.107 728.842 556.927 673.152 530.041 683.893C529.511 683.998 528.131 684.309 527.671 684.337C520.435 687.282 516.609 696.473 514.789 703.452C515.517 704.338 515.829 705.045 516.736 705.369C516.881 709.431 514.473 715.176 516.548 718.094C517.946 718.08 518.242 717.995 519.628 717.713C522.576 719.689 519.684 719.985 523.635 721.017L515.081 722.922L514.955 723.887C514.5 727.648 515.768 732.847 513.652 735.183L513.064 734.972C512.798 740.432 516.71 752.264 511.405 755.18C510.181 754.761 509.5 754.665 509.103 752.958C507.846 747.562 508.762 740.75 508.97 735.123C509.312 725.872 509.46 716.389 508.458 707.19C508.206 704.876 505.704 700.628 504.375 698.579C502.415 695.556 502.384 694.603 501.682 691.077C501.309 690.739 500.931 690.408 500.547 690.082C492.574 683.364 471.954 684.041 461.992 685.079C457.317 685.566 450.536 687.482 446.03 687.797L445.145 687.851C431.445 691.202 423.95 688.208 411.936 683.541L411.194 683.449C405.669 682.792 395.977 683.647 391.945 681.732L391.278 680.73C391.727 679.215 392.628 678.537 393.743 677.393L394.026 676.104C390.046 670 375.802 674.574 370.349 668.162C370.315 661.674 398.339 660.891 403.901 661.05C411.58 661.271 436.926 669.715 440.947 659.22C440.49 656.258 432.519 653.409 429.601 651.642Z" fill="white"/>
<path d="M514.789 703.452C515.517 704.338 515.829 705.045 516.736 705.369C516.881 709.431 514.473 715.176 516.548 718.094C517.946 718.08 518.242 717.995 519.628 717.713C522.576 719.689 519.684 719.985 523.635 721.017L515.081 722.922L514.955 723.887C514.5 727.648 515.768 732.847 513.652 735.183L513.064 734.972C512.291 725.362 512.512 712.736 514.789 703.452Z" fill="#15120D"/>
<path d="M411.936 683.541C412.215 682.154 412.059 682.639 412.801 681.397C415.242 680.7 416.039 681.423 418.384 682.717C418.77 684.171 418.428 684.127 419.492 684.706C426.492 688.518 438.334 685.659 445.074 686.047C441.934 688.194 428.857 687.353 424.669 687.16C432.084 689.644 442.336 686.645 445.145 687.851C431.445 691.202 423.95 688.208 411.936 683.541Z" fill="white"/>
<path d="M527.671 684.337C521.133 682.923 511.69 690.121 507.151 688.047L507.027 687.198C510.201 683.608 523.335 681.655 528.167 681.884C529.13 681.93 529.523 683.09 530.041 683.893C529.511 683.998 528.131 684.309 527.671 684.337Z" fill="white"/>
<path d="M418.384 682.717C423.346 684.038 424.526 683.878 429.221 684.303C432.2 684.573 444.416 683.914 445.751 684.502C445.622 685.692 445.856 685.181 445.074 686.047C438.334 685.659 426.492 688.518 419.492 684.706C418.428 684.127 418.77 684.171 418.384 682.717Z" fill="white"/>
<path d="M381.384 667.028C385.089 666.979 391.779 667.668 394.738 669.847L394.843 670.697L393.595 671.206C390.276 670.887 381.422 670.269 379.085 668.249L379.266 667.632L381.384 667.028Z" fill="white"/>
<path d="M363.847 722.353C371.981 723.226 382.773 725.241 390.921 726.62L436.15 734.268L436.062 785.779L390.846 775.752C383.372 774.106 371.008 771.004 363.84 770.265L363.847 722.353Z" fill="#FF5340"/>
<path d="M222.023 681.512C297.608 692.121 373.962 704.706 449.506 716.15L449.526 732.823C418.558 726.542 381.998 721.229 350.499 716.146L222.153 694.816L222.023 681.512Z" fill="white"/>
<path d="M318.744 780.735C321.188 780.664 332.649 785 335.891 785.426C339.144 785.853 339.196 786.741 339.837 789.534C342.038 791.99 348.725 793.662 352.164 794.758C355.058 793.93 358.109 792.92 361 792.02C385.346 797.419 411.876 804.789 436.278 810.906C436.622 819.183 436.356 829.047 436.394 837.485C426.316 833.858 414.52 830.7 404.106 827.261C387.542 822.713 371.109 817.287 354.688 812.25L272.748 787.325C287.987 785.437 303.371 782.664 318.744 780.735Z" fill="white"/>
<path d="M466.8 796.228C500.146 804.249 535.334 811.27 568.957 818.827C568.858 822.927 568.912 827.206 568.903 831.322C572.673 832.852 578.179 834.291 582.407 835.88C587.155 834.151 591.855 832.082 596.512 830.104L596.942 825.041C609.253 827.617 624.407 830.366 636.273 833.775L635.88 834.477C621.439 838.598 606.956 842.574 592.434 846.403C577.26 841.885 561.937 838.365 546.557 834.641L466.888 815.701C466.97 809.21 466.941 802.718 466.8 796.228Z" fill="white"/>
<path d="M510.429 809.691C516.007 810.531 518.777 820.077 512.671 824.146C503.288 823.38 505.955 814.734 510.429 809.691Z" fill="#15120D"/>
<path d="M511.041 813.227C514.111 815.239 514.484 819.119 511.903 821.776C507.303 819.734 509.045 816.611 511.041 813.227Z" fill="white"/>
<path d="M230.428 528.946C233.92 532.131 226.661 548.218 239.784 559.884C230.38 564.163 219.04 568.549 209.42 572.423C189.828 580.519 169.991 588.011 149.938 594.888L142.477 597.511C142.546 589.474 142.549 581.437 142.486 573.401C155.379 567.518 169.01 560.142 181.784 553.763C198.006 545.662 214.439 537.463 230.428 528.946Z" fill="white"/>
<path d="M630.337 852.003L631.428 852.142C632.65 854.354 631.749 870.603 631.579 874.192L524.931 905.933C524.447 905.809 524.785 905.928 524.072 905.288C522.24 897.425 523.042 890.275 523.874 882.368C558.938 871.718 595.2 862.483 630.337 852.003Z" fill="white"/>
<path d="M214.862 447.073C224.298 451.494 234.314 456.191 244.025 459.895C248.371 457.651 252.542 455.082 256.502 452.21L256.598 507.25L256.612 514.141C242.586 513.664 228.553 513.404 214.519 513.361L214.488 468.836C214.479 464.468 214.18 450.764 214.862 447.073Z" fill="white"/>
<path d="M209.299 667.955C218.349 669.524 228.732 670.713 237.911 672.018L307.072 681.612C354.353 688.265 403.893 695.941 451.114 701.641C451.186 705.275 451.113 709.032 451.088 712.678C443.293 710.99 433.144 709.729 425.117 708.512L382.395 701.9L209.423 675.65L209.299 667.955Z" fill="white"/>
<path d="M286.653 344.066C303.917 345.216 322.537 347.302 339.858 348.976L434.624 358.617C435.798 361.364 438.421 367.168 438.331 370.023C424.153 367.99 404.323 366.684 389.742 365.339L285.921 356.21C285.964 351.961 286.285 348.289 286.653 344.066Z" fill="white"/>
<path d="M466.868 819.375C480.092 823.012 493.424 825.759 506.757 828.901C533.165 834.992 559.475 841.504 585.676 848.434C580.641 850.115 573.419 851.792 568.122 853.16C566.36 853.631 558.762 855.944 557.578 855.752C560.388 843.424 547.277 851.329 543.655 844.354C542.421 841.978 541.384 840.498 538.357 840.172C530.721 839.351 523.82 840.906 516.203 841.3C508.317 841.708 498.417 838.81 490.971 842.491C489.48 843.346 489.76 846.369 489.839 848.023C486.527 848.839 483.654 849.694 480.393 850.705C476.559 849.327 471.03 847.876 467.012 846.689L466.868 819.375Z" fill="white"/>
<path d="M461.727 616.945C474.033 616.803 491.881 624.911 502.481 630.754C501.949 631.544 501.199 632.518 500.74 633.247C497.526 638.354 490.011 640.154 488.073 646.533C485.811 653.982 493.37 657.525 497.564 661.893C498.169 662.523 499.642 665.237 500.113 666.107C479.202 671.897 472.373 673.476 450.25 670.561C448.134 670.361 447.767 670.691 446.364 669.62C446.972 668.187 451.339 665.088 453.044 663.64C456.788 664.26 471.423 667.457 474.05 665.23L473.86 664.14C470.751 660.643 459.148 655.229 454.332 652.748C462.066 649.891 465.766 648.528 472.872 644.262C472.672 641.942 472.311 639.911 471.931 637.623C475.047 636.91 486.116 635.154 487.771 634.357L487.845 633.567C484.332 630.001 473.926 629.627 471.06 627.395C469.391 626.095 464.996 619.88 461.727 616.945Z" fill="white"/>
<path d="M460.85 735.097C461.05 735.06 462.144 735.075 462.389 735.074C463.47 737.215 463.05 772.567 463.056 777.011L463.366 866.023L456.112 868.519C454.947 868.987 455.029 868.96 453.771 868.908C452.967 866.472 453.416 836.771 453.404 832.402L452.946 736.664C455.424 736.326 458.363 735.623 460.85 735.097Z" fill="white"/>
<path d="M527.696 842.688C533.135 842.305 538.953 841.27 541.557 846.967C543.57 851.369 553.305 848.254 555.257 853.001C553.028 857.545 532.92 861.043 527.04 863.194L526.363 863.446C522.532 867.453 522.179 871.691 521.615 876.974C520.905 883.63 520.136 890.137 520.282 896.842C520.396 902.051 523.588 916.825 519.527 920.38L518.881 920.214C516.462 917.21 516.992 915.733 517.197 911.877C518.195 899.439 518.167 884.571 516.467 872.176C513.709 852.063 488.553 860.784 481.119 855.913L480.959 854.935C484.146 851.137 490.371 851.789 492.421 849.179C492.363 847.399 492.22 846.676 492.81 844.972C496.444 841.648 510.395 844.369 515.489 844.105C519.94 843.875 523.311 843.353 527.696 842.688Z" fill="white"/>
<path d="M439.869 734.815C442.888 735.516 446.335 736.123 449.406 736.735L449.542 868.884L440.409 865.623L439.869 734.815Z" fill="white"/>
<path d="M214.896 953.136C215.714 954.35 215.992 962.35 216.362 965.097C186.289 974.316 154.116 982.551 123.653 991.272L123.183 991.32L122.548 990.748C122.117 987.324 122.331 981.787 122.362 978.178C152.888 970.722 184.229 960.98 214.896 953.136Z" fill="white"/>
<path d="M363.945 774.92C371.361 774.765 384.614 778.333 392.397 780.032C407 783.183 421.583 786.425 436.146 789.757L436.23 806.945C434.384 806.905 417.96 802.456 414.995 801.695L363.852 788.674L363.945 774.92Z" fill="white"/>
<path d="M592.208 705.58C592.475 705.726 592.743 705.871 593.011 706.017C593.444 709.406 593.123 715.741 593.089 719.358L593.049 742.325L593.02 827.556C590.267 828.54 587.028 830.24 584.301 830.439C583.835 789.662 584.314 748.128 584.251 707.292L592.208 705.58Z" fill="white"/>
<path d="M328.026 258.897C330.802 258.741 337.004 259.616 340.018 259.957C336.859 265.873 331.707 270.204 329.035 275.885C328.099 277.876 332.907 289.254 324.987 286.101C322.92 283.132 325.752 277.774 322.131 275.69L321.179 276.159C318.814 281.112 321.418 299.08 321.244 305.441C321.217 306.465 321.977 307.867 322.648 308.644C325.778 309.432 329.977 305.969 333.336 304.033C337.35 304.217 339.993 304.201 343.433 306.302L343.361 306.994C340.253 308.234 337.764 307.539 334.412 307.124C329.517 309.676 325.371 312.651 321.606 316.678C321.586 323.571 321.883 330.485 322.117 337.375L322.286 343.395L312.446 342.421C312.475 332.419 316.345 281.372 314.074 276.052C312.619 272.647 284.536 266.094 279.279 263.846C279.108 263.773 278.94 263.696 278.77 263.622C290.152 265.111 301.556 266.419 312.979 267.543C318.421 264.967 322.958 262.073 328.026 258.897Z" fill="white"/>
<path d="M285.231 360.081C288.862 360.73 295.998 361.185 299.849 361.524L327.512 363.946L395.766 370.037C409.269 371.248 424.519 372.324 437.885 374.071L431.099 379.543L277.281 366.862C280.352 363.859 281.776 362.619 285.231 360.081Z" fill="white"/>
<path d="M305.237 928.542C305.839 928.597 305.472 928.51 306.249 929.049C306.729 931.812 306.544 936.71 306.524 939.699C277.942 947.585 249.196 956.145 220.67 963.863C220.103 963.881 220.462 963.919 219.656 963.478C219.099 960.685 219.327 954.997 219.354 951.902C247.491 943.939 276.895 936.209 305.237 928.542Z" fill="white"/>
<path d="M209.85 445.487C210.917 447.102 210.577 505.546 210.593 513.434C203.324 513.21 201.137 512.77 194.739 516.161C193.538 513.92 194.007 463.308 194.434 457.367C197.751 454.351 205.864 448.597 209.85 445.487Z" fill="white"/>
<path d="M578.294 708.568C579.96 708.317 579.353 708.07 580.395 708.791C580.97 721.351 580.429 745.647 580.47 757.565C580.497 765.469 581.078 828.162 580 830.179C578.221 830.69 578.452 830.397 576.337 829.805C575.218 829.407 573.92 829.088 573.058 828.237C572.014 827.209 572.524 719.282 572.526 709.959L578.294 708.568Z" fill="white"/>
<path d="M228.048 699.749C230.306 700.018 232.891 700.478 235.17 700.825C236.133 739.668 235.744 781.33 235.956 820.385C233.724 819.614 230.601 818.102 228.372 817.105L228.048 699.749Z" fill="white"/>
<path d="M238.953 701.505L246.467 702.85L246.743 793.04C246.733 796.554 247.07 816.457 246.227 817.972C244.299 818.855 241.573 819.757 239.528 820.501L238.953 701.505Z" fill="white"/>
<path d="M387.66 906.075L388.208 906.389C388.748 908.387 388.565 914.116 388.558 916.502C362.749 923.65 336.988 930.97 311.277 938.462L310.585 937.996C310.154 935.072 310.275 930.44 310.265 927.339C335.345 919.962 362.239 913.118 387.66 906.075Z" fill="white"/>
<path d="M250.69 755.13C277.596 761.365 308.046 769.205 335.033 774.057C333.029 774.5 330.592 774.818 328.534 775.143C324.944 775.76 302.765 779.321 300.735 779.107C287.701 777.731 262.684 770.692 250.515 766.362C250.464 762.617 250.522 758.871 250.69 755.13Z" fill="white"/>
<path d="M503.826 706.119L504.965 706.173C506.547 708.41 506.328 717.418 506.404 720.624L456.106 732.01C454.834 732.285 455.28 732.244 453.989 732.119C452.649 730.009 453.321 719.715 453.384 716.349C469.567 713.618 487.634 709.49 503.826 706.119Z" fill="white"/>
<path d="M616.257 882.518L616.617 882.595C617.882 884.027 617.326 919.887 617.294 924.512C611.061 926.914 606.458 927.66 599.885 928.157L599.01 927.874C597.997 926.01 598.427 892.582 598.426 887.915C604.486 886.312 610.298 884.445 616.257 882.518Z" fill="white"/>
<path d="M462.545 886.069C463.245 886.007 462.834 885.979 463.749 886.35C464.282 888.73 463.978 892.643 463.904 895.206C460.636 896.312 457.008 897.305 453.66 898.197C433.695 903.516 413.88 909.731 393.897 914.931C393.212 914.999 393.627 915.018 392.683 914.647C392.089 912.075 392.277 907.72 392.289 904.936C415.744 898.783 439.163 892.494 462.545 886.069Z" fill="white"/>
<path d="M203.281 527.015C209.74 526.756 218.37 527.24 225.124 527.295C200.049 539.294 173.034 553.314 148.25 566.048C140.409 570.249 139.589 570.612 130.692 570.016C136.948 565.312 152.534 556.624 159.892 552.21C168.71 546.884 177.557 541.607 186.434 536.379C191.812 533.215 197.623 529.559 203.281 527.015Z" fill="white"/>
<path d="M182.231 419.362C183.982 419.62 196.647 425.05 198.967 426.087C216.636 433.988 235.565 441.372 252.855 449.87C250.877 451.286 247.309 453.28 245.099 454.591C244.817 454.694 244.545 454.824 244.255 454.898C242.008 455.476 181.049 427.777 175.059 424.757L182.231 419.362Z" fill="white"/>
<path d="M598.421 686.659L599.158 687.042C599.663 689.742 599.478 697.035 599.479 700.11C583.898 703.286 567.992 707.025 552.37 710.363L551.841 710.203C551.039 707.776 552.178 699.133 552.481 696.325C567.756 692.924 583.07 689.702 598.421 686.659Z" fill="white"/>
<path d="M168.069 503.99C168.934 503.902 168.446 503.871 169.511 504.26C170.362 507.883 168.515 520.855 167.773 524.933C159.598 529.681 149.363 536.297 140.044 532.03C136.835 529.058 136.373 527.251 134.837 523.246C143.247 516.075 157.481 507.76 168.069 503.99Z" fill="white"/>
<path d="M517.414 637.859C528.855 642.277 537.406 644.402 549.522 645.631C548.892 647.019 547.772 649.565 547.426 651.029C546.724 653.997 547.335 655.956 545.945 658.833C544.25 659.761 543.322 659.314 541.125 659.155C531.818 658.804 524.477 660.085 515.488 661.769L511.867 654.663C514.173 650.443 514.006 649.412 512.454 644.812C513.921 642.542 515.808 640.071 517.414 637.859Z" fill="white"/>
<path d="M588.431 851.582C589.429 851.431 589.024 851.438 590.057 851.814C590.783 854.083 590.475 856.757 590.396 859.206C571.521 865.753 548.267 870.932 528.656 876.886C527.794 877.03 528.269 877.052 527.253 876.636C526.687 874.319 526.991 870.868 527.07 868.383C545.188 862.596 569.757 856.669 588.431 851.582Z" fill="white"/>
<path d="M526.441 663.758C534.179 663.095 539.895 663.356 547.585 663.714C551.467 669.47 555.35 668.772 561.856 669.032C566.781 669.229 568.481 669.374 572.152 666.041C582.69 667.19 593.408 667.722 603.912 669.395L594.296 670.86L556.498 678.403C549.089 672.177 537.253 672.84 527.508 672.154C529.296 670.612 530.795 669.747 530.85 667.309C529.223 665.096 528.414 665.374 526.441 663.758Z" fill="white"/>
<path d="M610.294 671.588C611.581 671.462 610.972 671.34 612.12 671.969C612.802 674.369 612.465 677.17 612.355 679.727L555.137 691.742L553.962 691.823L553.431 691.263C553.877 689.009 555.854 685.416 556.805 682.531L557.007 681.906C574.798 678.616 592.561 675.176 610.294 671.588Z" fill="white"/>
<path d="M498.483 693.158L499.175 693.444C500.581 697.593 501.17 698.94 503.763 702.262C491.262 705.511 473.819 708.58 460.871 711.168L454.933 712.255L454.979 701.642C468.032 698.506 485.008 695.762 498.483 693.158Z" fill="white"/>
<path d="M168.452 485.98C178.455 494.666 181.355 498.928 189.916 508.874L189.92 518.498C182.066 523.673 166.683 532.264 160.475 537.08L159.62 537.041C159.133 535.634 159.319 535.588 159.727 534.099C162.725 530.884 167.499 530.893 168.404 530.137C170.573 528.323 177.3 523.517 179.256 521.702C178.499 520.225 177.068 520.161 175.597 519.839C174.31 520.881 174.198 521.049 172.653 521.768C172.541 518.988 173.524 507.423 174.226 504.845L175.13 504.638C177.077 503.742 179.305 503.952 181.519 503.921C168.019 494.705 168.187 505.08 168.452 485.98Z" fill="white"/>
<path d="M175.597 519.839C174.31 520.881 174.198 521.049 172.653 521.768C172.541 518.988 173.524 507.423 174.226 504.845L175.13 504.638C182.701 509.353 181.998 513.694 175.597 519.839Z" fill="white"/>
<path d="M181.519 503.921C186.807 509.078 184.811 515.942 180.136 520.827C179.849 521.125 179.556 521.417 179.256 521.702C178.499 520.225 177.068 520.161 175.597 519.839C181.998 513.694 182.701 509.353 175.13 504.638C177.077 503.742 179.305 503.952 181.519 503.921Z" fill="#15120D"/>
<path d="M353.394 720.667C355.56 720.984 357.758 721.357 359.923 721.701C359.41 736.745 360.163 752.453 359.998 767.569C359.929 773.889 360.303 781.93 359.731 788.142C357.841 788.893 355.489 789.625 353.531 790.294L353.394 720.667Z" fill="white"/>
<path d="M343.397 718.817C345.414 719.255 347.595 719.575 349.643 719.918L349.891 789.944C348.04 789.49 345.325 788.548 343.434 787.96L343.397 718.817Z" fill="white"/>
<path d="M511.804 872.514C513.269 872.491 512.651 872.233 513.77 873.061C514.749 875.636 514.548 878.398 514.594 881.208C510.292 881.847 501.978 884.41 497.537 885.675L469.874 893.428C468.602 893.816 469.223 893.821 468.009 893.472C467.235 891.393 467.559 887.281 467.567 884.801L511.804 872.514Z" fill="white"/>
<path d="M642.114 836.517L642.718 836.755C643.347 838.621 643.077 842.473 643.041 844.611C627.105 849.278 610.923 853.314 595.106 858.108L594.241 857.812C593.653 855.595 593.981 852.594 594.082 850.219C609.69 845.135 626.68 841.745 642.114 836.517Z" fill="white"/>
<path d="M516.736 705.369C517.118 704.836 517.5 704.304 517.882 703.771C524.005 701.267 537.234 699.262 543.468 698.115C543.667 702.835 543.78 707.557 543.809 712.281C535.953 714.127 527.218 715.68 519.628 717.713C518.242 717.995 517.946 718.08 516.548 718.094C514.473 715.176 516.881 709.431 516.736 705.369Z" fill="white"/>
<path d="M506.009 632.817C507.661 633.387 511.882 635.456 513.664 636.267C511.25 639.111 509.755 641.114 508.089 644.457L510.005 650.376L507.533 654.551L511.211 662.714L504.181 664.858C502.972 663.678 501.423 660.129 499.23 658.129C496.724 655.844 492.624 652.131 491.821 648.831C490.764 644.489 498.485 641.749 501.209 638.951C503.223 636.883 504.325 635.222 506.009 632.817Z" fill="#FF5340"/>
<path d="M329.925 508.535L330.212 508.801C330.619 510.674 328.718 515.161 328.055 517.076C324.683 526.815 312.575 529.945 303.129 533.749C301.995 532.21 302.45 522.568 302.471 520.051C310.691 517.292 321.778 512.106 329.925 508.535Z" fill="white"/>
<path d="M296.935 522.478L297.963 522.631C298.579 524.056 298.421 533.408 298.447 535.562C290.529 538.78 282.645 542.083 274.798 545.469L274.377 545.339C273.657 543.897 273.641 535.057 273.575 532.83C280.674 529.352 289.51 525.823 296.935 522.478Z" fill="white"/>
<path d="M126.534 573.455C130.254 573.896 134.39 574.132 138.157 574.423C138.317 581.054 138.86 591.652 138.336 597.947C137.364 599.402 137.228 599.035 135.106 599.75L126.093 602.581C126.561 593.115 126.467 582.979 126.534 573.455Z" fill="white"/>
<path d="M301.353 845.233C301.458 843.622 301.265 842.802 302.048 841.582C304.488 841.783 307.544 843.919 309.227 844.037C317.152 844.592 328.551 841.102 335.483 837.984C334.998 839.788 333.923 844.617 332.949 845.859C329.144 845.678 329.574 844.705 326.437 847.695C323.689 850.314 321.797 852.463 318.745 854.786C316.282 853.486 314.436 852.489 312.067 850.959C308.859 853.671 306.781 854.602 302.487 854.582C298.047 851.145 298.748 849.6 301.353 845.233Z" fill="white"/>
<path d="M301.993 846.134L302.69 843.771L303.148 843.606C302.417 850.653 306.804 850.435 312.067 850.959C308.859 853.671 306.781 854.602 302.487 854.582C303.892 854.081 303.742 854.46 304.177 853.603C301.777 850.428 300.946 850.185 301.993 846.134Z" fill="white"/>
<path d="M593.16 889.496C593.856 889.439 593.405 889.431 594.485 889.76C595.302 898.716 594.842 918.034 594.908 927.751L589.625 926.17C588.221 925.715 587.842 925.716 586.719 924.754C585.98 919.152 586.387 898.278 586.369 891.702L593.16 889.496Z" fill="white"/>
<path d="M286.532 371.873C291.354 372.199 296.357 372.7 301.189 373.113C301.464 379.442 301.382 386.619 301.449 393.015C296.485 392.781 291.524 392.491 286.567 392.143L286.532 371.873Z" fill="white"/>
<path d="M334.555 311.557C336.666 311.504 338.852 311.778 340.964 311.973C338.507 315.164 336.098 318.391 333.735 321.653C333.995 326.133 336.139 340.93 335.59 344.163L334.381 344.363C331.745 344.107 329.114 343.792 326.491 343.421C326.505 335.545 325.914 326.327 325.537 318.4C328.667 315.508 330.983 313.801 334.555 311.557Z" fill="white"/>
<path d="M318.083 233.855C318.239 234.695 318.689 237.198 319.206 237.652C325.093 242.821 330.456 242.677 336.095 248.779C336.569 250.922 336.882 253.355 337.221 255.547L331.446 255C325.851 253.919 322.171 257.794 316.951 261.043C316.818 253.923 317.502 240.938 318.083 233.855Z" fill="white"/>
<path d="M250.556 770.865C258.43 773.283 266.342 775.577 274.288 777.747C277.853 778.699 284.393 779.951 287.45 781.173C286.604 781.604 285.581 781.668 284.597 781.832C275.839 783.03 267.779 784.078 259.06 785.638L250.518 781.808L250.556 770.865Z" fill="white"/>
<path d="M313.701 374.218L326.942 375.2L326.682 394.754L313.448 393.988C313.41 389.598 313.097 378.01 313.701 374.218Z" fill="white"/>
<path d="M273.357 369.899C273.855 374.423 273.581 386.502 273.603 391.583C266.642 390.78 258.454 390.41 251.378 389.932L250.52 389.794C250.697 388.145 270.398 372.588 273.357 369.899Z" fill="white"/>
<path d="M338.971 376.381C343.206 376.592 347.428 377.001 351.624 377.608L351.582 396.532L338.977 395.667L338.971 376.381Z" fill="white"/>
<path d="M363.658 378.44C367.469 378.519 372.292 378.991 376.167 379.258L376.118 398.206C372.02 397.927 367.921 397.68 363.819 397.465L363.658 378.44Z" fill="white"/>
<path d="M387.527 380.441C391.321 380.609 395.111 380.839 398.897 381.13L398.929 399.561C394.879 399.549 391.544 399.346 387.496 399.045L387.527 380.441Z" fill="white"/>
<path d="M566.618 644.307C575.878 645.426 573.387 661.45 566.742 665.585C555.875 664.14 560.188 649.607 566.618 644.307Z" fill="#FF5340"/>
<path d="M410.628 382.181C413.945 382.459 417.674 382.58 421.03 382.764L421.008 401.026L410.492 400.499C410.462 394.393 410.507 388.286 410.628 382.181Z" fill="white"/>
<path d="M647.079 839.551C650.023 839.779 652.963 840.05 655.899 840.365C657.455 843.147 660.171 849.085 658.611 852.09C655.796 854.325 651.78 853.398 648.035 853.137C644.754 853.13 639.481 853.404 636.574 852.06L636.772 851.326C639.846 849.535 643.552 848.628 647.037 847.413L647.079 839.551Z" fill="white"/>
<path d="M534.778 686.196C541.584 685.457 541.53 688.449 543.296 694.088L524.105 698.026C522.539 698.345 520.639 698.871 519.117 698.659L519.016 697.904C520.694 694.564 523.752 691.771 527.301 690.558L527.432 689.736L525.802 689.144L525.752 688.481C528.112 686.64 531.827 686.507 534.778 686.196Z" fill="white"/>
<path d="M532.301 689.018C534.364 689.235 537.119 689.146 539.247 689.141L532.941 691.682C530.547 692.276 530.533 692.622 528.568 691.921L528.496 691C529.726 689.594 530.507 689.552 532.301 689.018Z" fill="#15120D"/>
<path d="M179.561 392.431C180.708 394.161 180.306 412.143 180.304 415.64C178.139 417.314 175.56 419.086 173.315 420.708L172.631 420.535C172.225 414.428 172.487 405.568 172.49 399.258C174.731 396.968 177.233 394.654 179.561 392.431Z" fill="white"/>
<path d="M397.827 435.529C398.758 437.023 398.451 440.292 398.441 442.234C391.609 445.666 382.49 448.959 375.192 451.768C374.28 450.211 374.404 446.961 374.322 444.996L397.827 435.529Z" fill="white"/>
<path d="M464.889 626.659C466.991 629.266 468.618 631.281 471.833 632.392C472.555 632.641 472.349 632.456 472.637 633.104C465.304 635.354 470.501 638.996 465.906 644.378C464.682 644.332 464.77 644.327 463.734 643.656L452.842 632.334C457.451 630.629 460.777 629.336 464.889 626.659Z" fill="white"/>
<path d="M423.388 425.535L423.651 425.732C424.404 426.993 424.164 430.218 424.165 431.874C417.32 434.831 410.096 437.662 403.17 440.484L402.907 440.279C402.152 438.995 402.445 435.573 402.466 433.88C409.364 430.912 416.34 428.129 423.388 425.535Z" fill="white"/>
<path d="M556.895 642.294C558.59 642.225 560.791 642.965 562.487 643.419C559.917 646.256 557.888 649.118 557.292 653.032C556.765 656.491 558.69 661.811 558.121 664.872C544.821 665.575 550.962 648.323 556.895 642.294Z" fill="#FF5340"/>
<path d="M277.572 371.045C279.203 371.221 280.888 371.165 282.113 372.117C282.671 376.339 282.414 387.128 282.41 391.853C280.631 391.785 279.367 391.945 277.882 391.019C277.309 386.655 277.568 375.904 277.572 371.045Z" fill="white"/>
<path d="M223.261 794.695C223.567 794.783 223.872 794.871 224.178 794.958C224.72 797.171 224.535 801.528 224.525 804.01C220.32 802.657 216.105 801.336 211.88 800.046C209.23 799.179 207.729 798.657 205.143 797.451C211.189 796.574 217.228 795.655 223.261 794.695Z" fill="white"/>
<path d="M337.797 270.632C345.509 271.946 353.702 272.984 361.479 274.09C358.817 274.653 356.566 274.817 353.877 275.062C347.476 275.25 339.668 276.32 332.808 276.643L337.797 270.632Z" fill="white"/>
<path d="M330.764 375.547C332.244 375.635 332.857 375.762 334.289 376.033C335.677 377.629 334.932 392.298 334.875 395.538C332.871 395.329 332.517 395.626 331.128 394.623C330.473 390.514 330.719 380.09 330.764 375.547Z" fill="white"/>
<path d="M425.075 383.08C426.966 383.23 427.421 383.288 429.259 383.721C429.908 385.386 429.647 398.655 429.639 401.557C428.17 401.514 426.277 401.647 425.376 400.773C424.835 396.656 425.066 387.653 425.075 383.08Z" fill="white"/>
<path d="M369.551 446.952L370.036 447.2C370.667 448.789 370.492 451.843 370.502 453.683C366.314 455.36 362.495 457.119 358.409 459.003L357.906 458.461C356.705 451.806 364.505 449.371 369.551 446.952Z" fill="white"/>
<path d="M305.431 373.384C307.001 373.5 307.474 373.343 308.656 374.331C310.229 377.819 309.486 388.976 309.476 393.671C307.721 393.636 307.148 393.737 305.512 393.03C305.067 390.899 305.402 376.494 305.431 373.384Z" fill="white"/>
<path d="M355.596 377.533C357.012 377.683 357.662 377.846 359.03 378.164C360.008 379.781 359.72 394.679 359.724 397.422C358.202 397.266 356.842 397.361 355.764 396.394C355.223 392.251 355.548 382.16 355.596 377.533Z" fill="white"/>
<path d="M424.306 652.668L425.035 653.24C428.14 655.704 432.214 657.753 435.73 659.696C433.254 660.034 430.794 660.245 428.308 660.478C423.434 660.509 420.43 660.137 415.616 659.441C419.47 657.288 421.453 656.169 424.306 652.668Z" fill="white"/>
<path d="M351.466 286.725C352.266 287.576 351.973 287.049 351.929 288.587C350.223 290.063 330.731 292.449 326.635 293.141C326.185 291.65 326.121 292.335 326.675 291.01C329.573 289.468 347 287.359 351.466 286.725Z" fill="white"/>
<path d="M402.909 381.396C404.26 381.487 405.192 381.357 406.149 382.245C406.721 385.13 406.44 396.576 406.413 400.218C404.948 400.194 404.691 400.122 403.243 399.816C402.558 398.08 402.889 384.232 402.909 381.396Z" fill="white"/>
<path d="M380.31 379.579C382.194 379.837 382.079 379.529 383.357 380.534C383.823 385.122 383.517 393.97 383.465 398.957L380.969 398.33C379.639 396.066 380.139 382.765 380.31 379.579Z" fill="white"/>
<path d="M438.973 419.49L439.518 419.549L439.768 420.072C437.378 424.672 433.14 427.643 428.783 430.169L428.3 430.195C427.567 428.73 427.886 425.657 427.933 423.862L438.973 419.49Z" fill="white"/>
<path d="M537.129 807.358C545.773 809.611 558.524 809.909 567.432 812.128C568.874 812.487 568.814 813.253 569.342 814.611C565.928 814.532 539.403 808.767 537.129 807.358Z" fill="white"/>
<path d="M326.284 870.393C328.154 870.795 329.055 873.108 330.005 874.729C325.578 875.554 322.347 876.691 318.102 878.099L316.516 878.506L316.16 878.066C318.091 875.604 323.567 872.148 326.284 870.393Z" fill="white"/>
<path d="M329.557 296.708C330.358 296.869 330.178 297.025 330.962 297.932L330.724 299.775C329.229 301.945 328.623 302.116 326.296 303.552L325.438 303.793C324.461 301.815 324.443 300.055 325.315 298.083C326.972 296.565 326.794 297.046 329.557 296.708Z" fill="white"/>
<path d="M338.285 777.62L339.142 777.754C339.916 779.438 339.966 780.153 338.72 781.418C336.681 781.945 336.119 781.397 333.881 780.763C332.233 780.401 331.774 780.362 330.234 779.561C331.077 778.59 336.461 777.95 338.285 777.62Z" fill="white"/>
<path d="M440.903 645.116C443.144 644.963 448.309 645.063 448.065 648.364L446.889 648.441C444.673 647.948 440.758 647.381 439.017 646.262L439.146 645.651L440.903 645.116Z" fill="white"/>
<path d="M329.948 849.268L331.742 849.666L332.139 850.385C331.238 851.895 328.858 853.016 327.251 853.969C327.026 854.037 326.12 854.167 325.854 854.21C326.163 852.785 328.781 850.465 329.948 849.268Z" fill="white"/>
</g>
<defs>
<clipPath id="clip0_126_293">
<rect width="1024" height="1024" fill="white"/>
</clipPath>
</defs>
</svg>
