<svg xmlns="http://www.w3.org/2000/svg" viewBox="44 98 892 840" width="892" height="840">
<path d="M801.443 106.398C814.939 110.793 841.89 124.506 855.936 131.148L877.597 141.348C883.435 144.082 891.471 146.765 894.977 152.132C895.128 164.819 895.687 180.006 895.27 192.511C891.186 194.32 888.461 194.777 884.101 195.731L884.044 268.141C884.063 278.449 884.383 289.026 884.272 299.311C884.248 301.617 883.47 304.168 882.037 306.033C885.255 324.805 885.18 343.995 881.816 362.741C885.379 368.814 884.089 399.656 883.845 407.57C883.797 410.663 882.476 414.179 882.256 417.133C882.116 419.007 883.116 422.572 883.176 424.803C883.502 436.924 886.247 452.124 881.501 463.621C884.326 473.049 885.485 502.038 882.282 511.659L882.064 512.332L881.928 512.735C886.336 522.33 884.638 552.184 883.145 563.148C883.034 563.968 882.115 565.026 882.295 566.449C884.444 583.368 885.394 598.987 882.678 615.863C881.835 621.098 885.26 633.7 883.963 639.897C884.198 648.807 882.681 657.592 882.692 665.752C882.701 673.075 884.608 682.139 884.568 690.678C884.53 698.673 883.008 705.595 882.867 712.342C883.813 721.031 884.029 729.431 884.534 738.123C884.92 744.769 882.18 753.502 882.607 759.152C883.268 767.897 884.509 777.588 884.886 786.447L960.936 786.592C968.132 786.601 997.162 785.819 1001.64 787.798L1002.07 788.564C999.765 791.431 988.575 790.424 984.795 790.383L965.149 790.348C938.323 790.158 911.496 790.129 884.669 790.262C884.576 794.517 884.239 798.169 883.652 802.372C881.759 815.906 883.784 829.439 883.444 843.295C888.396 833.083 893.286 823.584 900.99 815.106C903.051 812.837 905.719 807.757 909.156 808.832C910.351 811.151 904.273 821.336 902.992 824.345C898.552 835.054 895.106 846.149 892.698 857.489C900.359 847.051 907.182 839.544 918.631 833.051C921.148 831.623 926.501 827.66 929.447 828.814L930 829.851C927.716 833.85 921.222 840.383 917.899 844.304C911.747 851.595 906.28 859.437 901.566 867.731C905.467 865.698 920.629 857.523 923.579 862.211C923.366 863.253 923.352 864.066 922.355 864.699C913.026 870.62 907.65 876.006 900.846 884.813C905.25 884.232 911.491 882.897 915.377 885.34C916.763 888.532 908.661 891.17 906.043 893.79L905.517 894.313C914.51 894.981 923.387 896.504 933.045 897.88C941.926 899.899 955.58 898.491 962.962 904.048C965.538 905.988 961.365 910.514 959.264 911.553C941.285 920.447 919.173 926.11 900.256 932.511C878.289 939.873 856.118 946.726 834.076 953.815C813.223 960.523 793.85 955.101 772.678 951.962L691.94 939.639L428.593 896.857L177.576 858.164C163.944 855.934 150.337 853.197 136.687 850.868C115.511 847.083 94.2924 843.548 73.034 840.262C66.5361 839.238 59.967 838.227 53.4793 837.154C47.999 836.247 37.2891 836.221 34.1957 831.188C34.2012 830.42 34.0638 829.995 34.5221 829.326C38.7516 823.147 71.4932 820.653 80.076 818.717C74.9709 815.396 64.5035 812.202 63.152 809.894C64.0822 806.01 75.6519 806.992 78.8805 808.137C80.9621 808.874 82.8863 809.572 84.9262 810.43C80.3776 802.756 74.7863 796.13 67.9629 790.296C65.3719 788.081 62.2298 787.052 62.1563 784.216C67.9334 778.603 87.5979 796.502 91.6614 800.706C88.3401 789.637 85.2095 779.915 80.4556 769.325C68.5176 769.175 56.5784 769.146 44.6399 769.239C40.0624 769.251 28.732 770.249 25.5878 767.754L25.3777 767.212C27.8463 764.518 40.6862 765.653 44.7796 765.653C56.1226 765.61 67.4658 765.636 78.8085 765.732L78.4839 765C76.4253 760.413 71.1399 753.178 70.93 749.302L71.3354 748.475C75.6392 748.605 85.1791 762.098 87.4624 765.618L96.8801 765.688C96.8181 761.993 96.7499 758.203 96.9748 754.49C97.2427 750.066 98.2594 745.103 97.8408 740.693C96.5957 727.573 95.9053 715.129 97.8444 702.044C98.2899 699.038 96.5101 691.986 96.7944 688.63C96.9374 677.295 98.7957 667.04 97.4339 655.676C96.7082 649.62 96.7137 639.878 97.5567 633.871C99.5483 619.677 95.1759 605.633 97.4146 591.38C98.4123 585.028 97.5763 579.654 97.1289 573.346C96.8026 567.752 96.676 561.885 96.572 556.266C96.5029 552.535 97.9167 548.694 97.9399 544.956C97.0567 535.316 96.7586 525.841 96.7291 516.162C96.4602 511.74 97.7804 506.736 97.5278 502.378C97.0425 494.001 96.0642 485.584 96.0973 477.176C96.1283 469.263 97.9467 462.314 97.0943 454.339C96.2775 446.697 96.8842 438.588 96.7289 430.901C96.6995 426.264 97.9843 422.12 98.1783 417.545C97.4828 408.77 96.1152 400.523 96.9398 391.613C96.7165 387.497 98.5064 380.768 98.1232 376.885C96.8915 364.403 96.9459 352.697 97.2846 340.191C97.7047 324.68 96.8709 309.442 97.5256 293.846C93.2008 292.493 85.7466 291.438 83.4212 287.126C81.305 283.202 80.7943 262.619 82.3522 258.492C83.0004 256.774 83.9624 256.199 85.5972 255.572C92.2404 253.02 138.63 242.823 144.193 243.607C145.332 243.767 146.963 244.165 148.051 244.11C149.525 244.035 151.745 241.601 153.141 240.908C155.435 239.769 159.243 239.474 161.795 238.95C180.649 235.074 199.718 230.424 218.733 227.477C220.097 228.075 221.655 228.7 222.928 229.425C223.869 228.586 226.795 225.909 227.812 225.643C238.058 222.957 249.846 220.775 260.195 218.669L288.006 213.002C294.508 211.642 301.05 210.014 307.63 209.213C308.852 209.896 310.715 211.227 311.86 211.137C312.673 210.195 314.825 207.612 315.797 207.35C320.541 206.075 326.098 205.065 330.895 204.087L366.867 196.72L385.062 192.841C389.086 191.959 393.427 190.007 397.462 192.271C401.975 194.803 402.585 189.245 406.258 188.513C436.981 182.389 467.734 175.351 498.509 169.75C499.7 169.534 500.933 171.475 503.52 170.874C507.282 166.23 513.186 166.445 519.005 165.343C524.553 164.255 530.088 163.106 535.611 161.898C555.546 157.661 578.05 152.433 597.971 148.937L601.552 151.766C602.84 150.37 604.256 148.758 605.571 147.422C635.556 140.453 666.161 135.053 696.253 128.471C697.819 128.03 701.112 130.099 702.279 129.171C703.883 127.895 704.817 126.801 706.942 126.351C729.082 121.666 751.34 117.424 773.457 112.628C782.648 110.635 792.39 108.84 801.443 106.398Z" fill="#15120D"/>
<path d="M80.076 818.717C83.4136 820.995 86.4153 826.862 89.4815 826.709L90.8399 825.436C93.9467 825.751 97.0569 826.03 100.17 826.273C100.574 828.097 100.576 828.93 101.847 830.3C103.554 830.495 103.818 829.804 104.569 828.266C109.596 828.513 126.792 832.635 128.839 832.201L129.269 831.498C129.341 833.138 129.172 834.205 130.184 835.444L131.01 835.512C133.067 833.292 132.757 832.571 133.21 829.341C154.65 831.145 177.655 836.284 198.98 839.477C199.306 842.158 199.27 843.517 200.576 845.893L201.587 846.388C203.056 845.372 202.407 846.004 203.288 844.119L203.664 845.313C206.299 846.246 213.074 846.783 215.983 846.792C216.633 845.628 216.68 844.236 216.861 842.881C216.842 845.067 216.567 846.619 217.661 848.445L218.624 849.141C221.22 847.87 220.546 845.266 220.699 842.614C263.482 848.25 305.61 858.682 348.784 862.485C357.081 863.216 365.47 865.064 373.816 865.751C374.64 868.076 375.303 870.599 376.816 872.471L377.904 872.849C379.215 872.16 379.14 872.236 379.856 870.94C381.54 871.584 397.542 872.76 400.826 873.181C401.959 875.187 401.198 874.564 402.867 875.57C404.826 874.613 404.845 872.343 405.129 870.327C419.082 872.966 433.077 874.242 447.085 876.273C462.877 878.562 478.674 881.334 494.441 883.893L552.871 893.595C562.893 895.208 574.465 897.307 584.47 898.172C585.041 900.708 585.49 903.698 586.771 905.875L587.688 906.345C589.059 905.761 589.092 905.36 589.868 904.058C591.897 905.711 612.409 907.254 616.886 908.019C617.666 909.112 617.761 909.077 618.889 909.854L619.922 909.66C621.081 908.062 621.145 906.136 621.441 904.146C640.098 906.708 658.965 907.924 677.549 910.506C705.652 914.412 733.649 919.26 761.833 922.72C779.849 924.932 797.784 928.883 815.872 930.553C817.003 930.657 818.299 930.374 819.389 930.061C840.717 922.006 862.116 914.025 883.047 904.97C883.847 904.624 884.155 904.15 884.561 903.431C887.051 902.731 892.763 901.667 895.219 902.575C895.537 904.337 895.513 904.334 896.839 905.197C900.057 904.476 901.676 898.462 905.12 894.735L905.517 894.313C914.51 894.981 923.387 896.504 933.045 897.88C941.926 899.899 955.58 898.491 962.962 904.048C965.538 905.988 961.365 910.514 959.264 911.553C941.285 920.447 919.173 926.11 900.256 932.511C878.289 939.873 856.118 946.726 834.076 953.815C813.223 960.523 793.85 955.101 772.678 951.962L691.94 939.639L428.593 896.857L177.576 858.164C163.944 855.934 150.337 853.197 136.687 850.868C115.511 847.083 94.2924 843.548 73.034 840.262C66.5361 839.238 59.967 838.227 53.4793 837.154C47.999 836.247 37.2891 836.221 34.1957 831.188C34.2012 830.42 34.0638 829.995 34.5221 829.326C38.7516 823.147 71.4932 820.653 80.076 818.717Z" fill="white"/>
<path d="M884.561 903.431C883.706 888.666 884.395 873.798 882.707 858.924C881.688 849.941 894.782 827.525 900.587 821.098C897.557 827.879 884.378 863.092 889.461 867.444C892.309 866.96 893.815 862.467 895.355 860.036C901.862 849.766 910.044 842.855 920.012 836.217C911.959 845.544 904.49 854.264 898.676 865.211C896.87 868.612 891.473 875.381 893.421 878.803C895.19 879.467 895.471 879.118 897.03 876.95C901.547 870.671 908.087 868.385 915.134 865.571C910.512 868.773 889.537 887.269 895.055 892.355C897.41 892.549 898.027 890.234 900.868 889.109C903.386 888.113 905.398 887.682 907.997 887.058C903.551 890.446 901.385 892.622 898.41 897.498C897.222 899.445 896.773 900.868 895.219 902.575C892.763 901.667 887.051 902.731 884.561 903.431Z" fill="#FFFFFF"/>
<path d="M619.116 861.105C615.618 870.846 610.638 884.842 611.633 895.341C612.825 896.647 612.12 896.291 613.753 896.573C616.925 894.349 620.868 888.534 626 884.598C619.402 893.907 618.162 896.728 616.886 908.019C612.409 907.254 591.897 905.711 589.868 904.058C588.031 895.758 585.89 890.184 581.698 882.767C585.366 886.443 592.07 896.443 594.658 896.862C597.608 895.408 597.161 891.414 597.362 888.397C598.543 891.045 600.487 897.584 604.033 896.634C605.495 894.312 605.975 891.134 606.553 888.435C608.742 878.231 613.714 869.864 619.116 861.105Z" fill="#FFFFFF"/>
<path d="M377.736 826.055C383.81 836.571 385.951 844.866 389.461 856.241C389.873 857.577 390.255 857.775 391.245 858.354C392.074 858.039 392.557 857.969 392.86 856.933C395.694 847.243 398.029 839.66 404.17 831.301C401.823 837.401 395.221 857.07 397.617 862.922L398.487 863.56C400.287 863.16 404.49 858.22 406.457 856.549C403.07 862.849 401.521 865.942 400.826 873.181C397.542 872.76 381.54 871.584 379.856 870.94C377.655 864.19 374.991 860.079 371.358 854.066L371.972 854.455C375.707 856.846 381.984 863.37 383.896 864.16C389.208 861.859 379.211 830.959 377.736 826.055Z" fill="#FFFFFF"/>
<path d="M116.144 787.067C114.947 794.279 111.203 819.835 116.676 824.248L117.504 824.117C120.335 818.706 122.995 812.992 126.83 808.265C125.605 811.363 121.366 822.548 122.388 825.426C125.303 826.191 132.625 819.292 135.628 817.477C131.997 823.267 130.797 824.855 129.269 831.498L128.839 832.201C126.792 832.635 109.596 828.513 104.569 828.266C100.792 820.363 101.202 817.453 95.7915 808.144C99.9751 812.096 105.211 819.617 108.355 821.885L109.315 821.762C110.877 819.334 110.188 815.034 110.207 812.199C110.266 803.398 112.957 795.169 116.144 787.067Z" fill="#FFFFFF"/>
<path d="M72.759 789.842C83.5536 796.003 85.3507 799.011 91.7992 809.3C97.0408 817.664 96.7895 816.139 100.17 826.273C97.0569 826.03 93.9467 825.751 90.8399 825.436C85.9792 817.423 79.8991 813.857 71.5225 810.03C77.5469 811.134 85.5404 814.682 88.7003 814.957C92.2666 809.95 76.5731 793.738 72.759 789.842Z" fill="#FFFFFF"/>
<path d="M213.378 821.892C212.961 826.812 211.885 834.057 213.323 838.586L214.072 839.327C217.26 838.329 218.308 834.218 219.648 831.311C219.122 835.568 217.648 838.76 216.861 842.881C216.68 844.236 216.633 845.628 215.983 846.792C213.074 846.783 206.299 846.246 203.664 845.313L203.288 844.119C201.846 835.305 201.257 832.364 197.87 823.877L198.286 824.434C201.236 828.444 204.94 836.812 207.172 839.233L207.952 838.986C210.033 834.791 211.177 827.304 213.378 821.892Z" fill="#FFFFFF"/>
<path d="M813.435 286.73C814.308 287.785 814.002 334.616 814.017 339.925C756.414 345.049 698.917 351.299 641.559 358.672C641.581 342.235 640.42 328.413 641.204 311.241L641.551 310.097C646.34 306.967 721.918 298.701 729.06 298.387C728.976 304.689 728.182 343.185 729.553 346.217C731.045 346.946 730.298 346.85 731.853 346.633C733.55 344.807 732.805 335.043 732.826 332.02C732.982 320.7 732.956 309.379 732.749 298.06C760.24 295.673 786.468 290.472 813.435 286.73Z" fill="#FFFFFF"/>
<path d="M769.765 229.679C770.555 229.494 771.199 229.53 772.027 229.497C773.174 230.94 771.348 251.919 771.457 255.395C771.809 266.52 771.841 277.774 773.052 288.864C746.4 293.744 716.904 294.078 690.591 298.032C689.345 298.183 689.778 298.215 688.521 297.804C684.693 289.559 686.617 251.535 687.604 241.464C713.555 236.73 743.229 233.602 769.765 229.679Z" fill="#FFFFFF"/>
<path d="M727.857 177.134L729.156 177.175C729.623 177.987 729.875 224.147 730.492 230.975L643.123 244.325C642.314 244.496 642.136 244.397 641.281 244.338C639.843 240.563 641.048 201.529 640.804 193.551C652.837 190.915 665.168 188.954 677.296 186.706L727.857 177.134Z" fill="#FFFFFF"/>
<path d="M682.55 242.19L683.177 242.242C683.506 243.146 682.417 258.428 682.301 261.116C681.636 273.7 682.232 286.32 684.081 298.786C657.063 302.894 630.078 307.218 603.128 311.755C602.117 311.835 602.648 311.883 601.546 311.529C601.041 308.113 601.264 303.299 600.997 299.749C599.868 284.74 601.302 270.232 601.529 255.232C627.554 252.035 655.894 245.676 682.55 242.19Z" fill="#FFFFFF"/>
<path d="M595.841 256.16C596.217 256.077 596.731 256.222 597.167 256.292C598.124 259.06 596.847 271.821 596.664 275.556C596.046 288.153 596.926 300.076 597.629 312.626C581.92 314.553 566.145 316.921 550.449 319.001C539.66 320.431 528.515 321.572 517.796 323.228L515.796 323.247C513.805 318.472 515.241 277.076 515.65 268.773C526.953 267.227 538.715 264.816 550.084 263.089C565.341 260.771 580.635 258.723 595.841 256.16Z" fill="#FFFFFF"/>
<path d="M810.64 161.649C812.567 161.396 812.279 161.122 813.682 161.859C814.606 177.761 813.589 199.634 813.871 216.354C799.18 217.558 786.981 221.97 773.081 224.775C762.388 226.932 748.194 228.656 737.152 230.269L734.974 230.4C733.352 228.449 733.485 182.122 733.516 175.983L810.64 161.649Z" fill="#FFFFFF"/>
<path d="M806.77 506.709C808.63 506.518 811.977 506.53 813.956 506.473L813.968 559.351C788.544 560.791 763.101 561.873 737.646 562.598L731.556 563.02C730.203 541.466 730.608 533.207 733.144 512.078C740.877 511.024 751.54 510.573 759.545 509.99C775.274 508.73 791.017 507.636 806.77 506.709Z" fill="#FFFFFF"/>
<path d="M511.227 269.695L511.459 269.712C512.121 270.519 511.316 277.457 511.265 279.473C510.886 294.3 510.616 309.071 511.709 323.867C485.058 327.448 458.008 330.177 431.521 334.093L431.179 333.96C428.774 330.949 430.853 288.243 431.06 282.73C440.119 280.858 451.461 279.263 460.638 277.79L511.227 269.695Z" fill="#FFFFFF"/>
<path d="M727.427 512.732L728.523 512.646C729.844 514.296 727.184 525.167 726.98 528.513C726.313 539.44 726.346 552.529 728.253 563.289C700.445 564.011 672.562 565.862 644.875 566.569L643.494 566.567C642.356 565.224 641.7 524.395 641.608 519.61C669.456 517.954 699.454 515.035 727.427 512.732Z" fill="#FFFFFF"/>
<path d="M725.491 406.716C726.931 406.516 727.351 406.283 728.635 406.907C729.082 410.453 727.338 417.874 727.202 421.774C726.81 433.033 726.713 444.266 728.445 455.389C719.909 456.404 711.031 457.089 702.446 457.835C703.91 454.718 704.749 453.057 705.37 449.628C703.556 447.571 702.724 446.946 700.531 445.254C701.355 443.35 704.505 436.451 703.479 434.815C700.451 436.399 697.49 443.232 697.726 446.704C698.74 448.415 700.481 449.294 702.174 450.406C700.863 453.633 699.694 455.391 697.858 458.346L679.88 460.163C668.443 461.576 654.824 462.446 643.146 463.547C641.899 444.192 640.739 433.163 643.608 413.665C671.158 411.314 697.692 408.782 725.491 406.716Z" fill="#FFFFFF"/>
<path d="M768.419 348.242C769.521 349.585 767.814 365.318 767.602 368.449C766.855 379.462 767.764 389.572 768.808 400.466C743.288 401.02 712.444 403.156 687.101 405.608L686.645 405.081C684.456 393.684 685.209 369.34 686.604 357.615C694.708 356.297 703.642 355.493 711.873 354.497C730.689 352.126 749.54 350.041 768.419 348.242Z" fill="#FFFFFF"/>
<path d="M761.99 456.793C764.061 456.582 766.377 456.522 768.476 456.418C766.478 477.101 767.18 484.828 768.98 505.145C743.839 506.856 718.695 509.357 693.55 511.351C691.178 511.485 688.425 511.849 686.032 512.104C686.038 504.974 685.239 496.7 684.992 489.398C684.673 479.992 685.086 472.915 685.767 463.59C710.441 461.842 736.952 458.872 761.99 456.793Z" fill="#FFFFFF"/>
<path d="M708.509 619.274C715.555 618.934 723.245 619.01 730.35 618.959C728.308 637.342 727.848 648.768 728.612 667.005C707.698 667.114 686.852 666.442 665.921 666.253C658.7 666.139 651.478 666.115 644.256 666.18C644.593 656.906 643.415 646.612 643.195 637.262C643.059 631.478 643.372 625.813 643.639 620.038C665.264 619.986 686.888 619.731 708.509 619.274Z" fill="#FFFFFF"/>
<path d="M634.566 194.673L636.258 194.51C636.428 194.68 636.598 194.851 636.768 195.021C636.786 210.15 636.32 230.735 637.151 245.284C611.841 249.625 586.474 253.633 561.059 257.309C559.349 257.517 560.039 257.731 558.669 257.155C556.696 248.023 558.028 218.647 558.477 208.56C561.029 207.991 563.588 207.542 566.163 207.092C588.997 203.102 611.721 198.592 634.566 194.673Z" fill="#FFFFFF"/>
<path d="M767.055 565.731L769.503 565.743C770.624 566.718 770.236 566.982 770.039 569.311C768.689 585.229 768.353 598.459 769.697 614.35L689.375 615.499C687.947 615.569 687.906 615.696 686.647 615.099C686.375 613.148 686.456 610.51 686.588 608.532C687.468 595.346 685.694 582.194 685.928 569.051C712.963 567.762 740.006 566.656 767.055 565.731Z" fill="#FFFFFF"/>
<path d="M643.604 720.449C671.747 720.695 699.888 721.139 728.025 721.782C727.581 736.313 729.59 752.762 729.486 768.648C717.879 768.548 706.45 767.907 694.861 767.558C678.053 767.174 661.248 766.683 644.446 766.084C643.514 750.891 643.233 735.666 643.604 720.449Z" fill="#FFFFFF"/>
<path d="M686.498 771.491C712.874 771.413 744.984 773.368 771.58 774.524C771.201 779.929 770.509 785.241 770.504 790.665C770.496 800.864 771.458 811.31 772.198 821.501C744.364 819.043 714.32 818.321 686.318 817.042C684.711 797.978 686.244 789.936 686.498 771.491Z" fill="#FFFFFF"/>
<path d="M687.129 670.755C714.758 671.496 743.4 671.021 771.073 670.773C769.202 686.6 769.004 702.58 770.482 718.448C742.561 718.534 714.108 717.276 686.167 717.113C685.696 709.305 685.258 700.318 685.632 692.498C685.979 685.252 686.811 678.107 687.129 670.755Z" fill="#FFFFFF"/>
<path d="M809.137 401.707C810.196 401.53 812.704 401.505 813.895 401.462L813.963 448.545C787.695 450.058 762.252 452.774 736.122 454.818C734.378 455.038 734.371 455.076 732.533 454.811C729.328 449.028 732.158 414.204 733.112 406.274C758.247 404.367 783.613 403.831 809.137 401.707Z" fill="#FFFFFF"/>
<path d="M790.445 618.264C798.291 618.062 806.141 618.073 813.985 618.297L814.012 667.086C794.081 666.189 775.199 666.477 755.25 666.711L732.412 666.955C732.479 660.602 731.815 653.533 732.047 647.302C732.393 637.99 733.269 628.236 733.949 618.913L790.445 618.264Z" fill="#FFFFFF"/>
<path d="M426.336 283.224L427.113 283.2C427.825 284.849 427.161 288.53 427.031 290.433C426.046 304.812 425.356 320.115 427.028 334.489C418.616 335.831 408.857 336.701 400.302 337.736L351.117 343.813L350.483 343.768C349.667 342.691 349.366 328.457 349.119 326.12C348.005 315.606 349.472 304.804 350.578 294.344C375.768 290.676 401.128 286.334 426.336 283.224Z" fill="#FFFFFF"/>
<path d="M731.672 721.91C757.177 721.996 788.784 722.063 814.007 723.686L814.055 772.158C787.745 770.188 759.444 769.928 732.784 768.826C733.282 751.562 732.074 738.824 731.672 721.91Z" fill="#FFFFFF"/>
<path d="M634.735 414.806C636.757 414.544 637.752 414.24 639.668 414.76C636.815 435.399 637.417 443.091 639.509 463.975C616.171 466.292 586.072 468.725 562.875 469.541L558.541 469.811C558.374 453.496 556.727 439.851 558.213 423.124C565.509 422.739 575.084 421.479 582.483 420.714C599.921 418.932 617.339 416.962 634.735 414.806Z" fill="#FFFFFF"/>
<path d="M594.763 471.726L596.42 471.668C597.143 472.711 596.981 480.539 597.012 482.408C597.212 494.492 598.489 506.449 599.342 518.514C591.665 519.371 581.944 519.691 574.067 520.133C555.848 521.155 537.615 521.932 519.375 522.463C518.179 522.528 517.44 522.45 516.251 522.365C513.629 519.235 515.13 482.662 515.56 476.372C541.835 474.506 568.387 473.678 594.763 471.726Z" fill="#FFFFFF"/>
<path d="M552.514 209.657C553.587 209.446 553.176 209.47 554.275 209.699C554.807 211.448 553.976 224.927 553.823 227.709C553.243 238.248 553.764 247.727 554.576 258.244C528.794 262.415 501.748 266.736 476.09 271.258C475.326 271.282 475.33 271.21 474.567 271.026C472.545 266.013 473.7 232.024 473.99 224.3C498.793 219.037 527.343 214.333 552.514 209.657Z" fill="#FFFFFF"/>
<path d="M595.306 368.21C596.733 367.956 596.08 367.815 597.328 368.36C596.456 383.878 596.886 399.442 598.614 414.888C571.59 417.444 544.591 420.258 517.621 423.331C516.2 423.518 516.179 423.497 514.746 423.319C513.954 422.193 514.589 412.47 514.656 410.433C515.019 399.366 515.038 388.29 514.714 377.222C522.754 376.802 533.732 375.282 541.888 374.384C559.707 372.44 577.514 370.382 595.306 368.21Z" fill="#FFFFFF"/>
<path d="M681.384 464.227C682.142 465.445 681.079 473.84 680.995 476.487C680.606 488.713 681.481 500.186 682.408 512.336C655.988 514.572 629.548 516.555 603.09 518.286C603.017 515.802 602.798 513.33 602.56 510.856C601.292 497.662 600.825 484.48 600.624 471.222C627.558 469.054 654.478 466.722 681.384 464.227Z" fill="#FFFFFF"/>
<path d="M681.615 358.223L682.013 358.289C682.432 359.394 681.319 372.818 681.203 375.56C680.761 385.992 681.969 395.604 682.586 405.946C655.731 408.074 629.853 411.301 603.118 414.311L602.357 413.967C601.642 410.54 601.712 404.832 601.488 401.091C600.799 389.608 600.586 379.118 601.125 367.624C604.611 367.085 608.251 366.733 611.769 366.338C635.028 363.726 658.312 360.367 681.615 358.223Z" fill="#FFFFFF"/>
<path d="M635.786 310.697L636.543 310.585C636.774 310.777 637.005 310.969 637.236 311.161C637.246 315.327 636.69 323.625 636.768 327.53C636.966 337.559 636.629 349.356 638.165 359.056L559.796 368.212C559.057 368.267 558.31 368.258 557.566 368.269C555.188 364.967 557.404 328.426 557.594 322.14C583.817 319.105 609.746 314.52 635.786 310.697Z" fill="#FFFFFF"/>
<path d="M731.839 823.333C756.874 823.495 788.574 826.699 813.896 828.615L813.968 875.845L733.395 868.419C733.179 853.035 731.077 839.104 731.839 823.333Z" fill="#FFFFFF"/>
<path d="M643.61 818.783C657.131 819.069 671.514 820.168 685.076 820.936L728.051 822.964C726.922 835.373 729.172 854.839 729.529 868.135C701.519 866.229 672.102 864.445 644.253 861.97C643.851 848.308 642.645 832.119 643.61 818.783Z" fill="#FFFFFF"/>
<path d="M510.052 377.754L510.38 377.922C511.907 380.67 510.51 417.716 510.377 423.876C497.104 424.801 484.055 426.499 470.831 427.775C457.627 429.049 444.369 430.144 431.151 431.322C429.713 427.042 430.36 391.894 430.395 385.391C455.997 382.388 484.323 379.959 510.052 377.754Z" fill="#FFFFFF"/>
<path d="M558.408 718.447C585.371 719.04 613.111 719.399 640.024 720.353C638.525 733.583 640.087 752.292 640.687 765.987L558.573 763.373C557.468 748.42 557.413 733.408 558.408 718.447Z" fill="#FFFFFF"/>
<path d="M516.868 669.243C544.156 669.882 571.452 670.172 598.748 670.112C598.196 679.879 597.698 688.764 598.227 698.534C598.389 701.524 599.55 713.024 598.959 714.994L598.004 715.324C570.427 714.381 542.844 713.652 515.255 713.139C515.565 708.406 515.678 703.663 515.594 698.921C515.468 693.554 513.816 673.591 515.431 669.598L516.868 669.243Z" fill="#FFFFFF"/>
<path d="M514.938 765.332C525.201 765.499 536.584 766.326 546.923 766.819C564.596 767.666 582.278 768.322 599.965 768.789C599.758 774.811 600.271 780.979 600.358 787.024C600.484 795.827 600.185 804.026 601.163 812.799L515.093 808.025C515.155 794.69 513.427 778.032 514.938 765.332Z" fill="#FFFFFF"/>
<path d="M602.564 670.185C629.165 669.651 656.879 670.323 683.591 670.549C683.378 677.199 682.139 684.951 681.752 691.755C681.256 700.489 681.625 707.737 682.354 716.362L681.779 716.942C676.221 717.471 661.834 716.676 655.773 716.538L602.954 715.364C602.739 707.93 602.031 700.317 601.911 692.862C601.791 685.334 602.185 677.707 602.564 670.185Z" fill="#FFFFFF"/>
<path d="M818.039 221.306C836.198 229.705 861.301 239.064 880.142 246.457C880.162 257.208 880.241 267.959 880.378 278.709C880.458 286.473 881.043 295.307 879.508 302.824C873.676 303.171 827.947 285.332 818.02 282.624L818.039 221.306Z" fill="#FFFFFF"/>
<path d="M664.511 569.778C670.155 569.452 676.597 569.439 682.308 569.308C681.654 578.358 682.649 586.714 682.777 595.7C682.869 602.168 682.508 609.072 682.334 615.591L618.875 616.492L602.517 616.907C602.536 610.063 601.718 602.644 601.653 595.683C601.579 587.642 602.087 580.084 602.639 572.071C622.907 571.661 644.204 570.578 664.511 569.778Z" fill="#FFFFFF"/>
<path d="M636.358 520.235C637.115 520.187 636.697 520.114 637.534 520.723C637.866 523.037 637.687 531.77 637.776 534.841C638.108 545.427 638.546 556.01 639.09 566.588L560.409 569.928L559.254 569.62C558.841 568.026 558.896 561.091 558.8 558.78C558.329 547.488 557.422 536.362 557.622 525.059C566.395 524.315 575.8 524.028 584.652 523.47C601.881 522.294 619.116 521.216 636.358 520.235Z" fill="#FFFFFF"/>
<path d="M469.539 225.182L469.74 225.315C470.337 226.633 470.021 231.044 469.932 232.643C469.194 245.86 470.334 258.929 470.503 272.142C443.83 276.508 418.735 280.004 392.114 283.911L391.558 283.707C390.448 281.304 390.39 244.634 390.496 239.733L469.539 225.182Z" fill="#FFFFFF"/>
<path d="M507.827 476.71C509.928 476.619 510.176 476.253 511.709 477.108C510.94 495.221 510.624 503.996 511.814 522.533C487.035 523.907 461.78 524.839 437.125 526.49C434.798 526.617 434.055 526.677 431.777 526.391C431.172 524.857 432.066 520.329 431.988 518.284C431.526 506.154 430.695 494.039 430.455 481.902C455.886 479.532 482.226 478.554 507.827 476.71Z" fill="#FFFFFF"/>
<path d="M553.466 322.754C553.893 323.468 552.958 331.646 552.916 333.438C552.658 344.424 551.553 358.185 553.714 368.858C527.013 371.914 500.281 374.682 473.521 377.165C472.528 375.787 473.123 337.455 473.439 332.599C499.133 330.222 527.593 325.992 553.466 322.754Z" fill="#FFFFFF"/>
<path d="M614.182 620.724C622.461 620.376 631.604 620.458 639.951 620.364C638.023 631.953 640.291 653.093 640.46 666.089L585.375 666.026C576.707 666.089 568.039 665.995 559.375 665.744C560.594 650.451 558.862 636.998 558.675 621.703C576.005 620.795 596.283 621.276 614.182 620.724Z" fill="#FFFFFF"/>
<path d="M590.774 572.71C592.963 572.502 596.842 572.501 599.153 572.433C596.969 586.289 597.543 603.083 599.098 616.949L523.875 618.181L515.358 618.382C515.949 604.324 514.561 590.312 514.95 575.631C540.235 574.958 565.512 573.984 590.774 572.71Z" fill="#FFFFFF"/>
<path d="M540.52 525.786C544.588 525.424 549.942 525.422 554.11 525.301C553.118 535.772 554.804 558.676 555.299 570.197C533.187 571.066 511.07 571.791 488.948 572.371L475.518 572.715C475.466 556.866 472.568 544.758 474.292 528.598C477.129 528.531 480.044 528.315 482.882 528.122C502.089 526.822 521.301 526.53 540.52 525.786Z" fill="#FFFFFF"/>
<path d="M549.283 424.195L554.267 423.735C552.837 437.117 553.794 456.446 554.684 470.071L481.124 474.44L474.898 474.694C475.345 467.541 474.155 462.365 473.995 455.602C473.808 447.693 473.85 439.601 473.715 431.649C498.296 428.58 524.47 426.722 549.283 424.195Z" fill="#FFFFFF"/>
<path d="M797.311 111.553L797.909 111.591C799.165 112.974 798.794 145.286 798.789 150.239C791.624 152.001 782.497 153.142 775.038 154.69C752.286 159.411 729.398 163.174 706.641 167.859C706.45 167.87 705.73 167.625 705.509 167.56C704.343 165.074 704.288 140.587 704.656 136.094C704.801 134.315 705.297 132.551 705.868 130.817C735.257 123.514 767.87 119.081 797.311 111.553Z" fill="#FFFFFF"/>
<path d="M519.519 622.238L555.082 621.838C554.657 636.477 556.223 650.39 555.758 665.651C540.721 665.855 524.836 665.412 509.709 665.293C497.74 664.957 485.552 664.989 473.547 664.78C472.903 648.034 473.331 639.672 474.256 622.924C489.102 622.967 504.631 622.483 519.519 622.238Z" fill="#FFFFFF"/>
<path d="M474.016 716.335C498.919 716.449 529.872 716.964 554.666 718.4C554.206 734.777 552.88 745.942 554.75 762.59L554.68 762.696C553.204 763.367 482.664 759.755 475.324 759.444C475.314 744.578 473.56 732.251 474.016 716.335Z" fill="#FFFFFF"/>
<path d="M685.682 869.025L771.084 875.649C769.736 890.358 769.917 905.167 771.623 919.839C769.549 920.046 753.837 917.686 750.764 917.257C729.439 914.34 708.149 911.17 686.899 907.748C686.468 895.849 685.114 880.529 685.682 869.025Z" fill="#FFFFFF"/>
<path d="M346.123 295.189L346.688 295.496C346.937 298.845 344.895 308.587 344.986 313.94C345.161 324.201 345.752 334.096 346.244 344.318C342.664 344.943 338.77 345.415 335.139 345.842C314.797 348.231 294.242 351.957 273.85 353.701L273.179 353.384C271.421 339.503 272.133 321.538 273.113 307.651C281.834 306.621 290.821 304.703 299.519 303.174L346.123 295.189Z" fill="#FFFFFF"/>
<path d="M463.982 529.213C465.793 529.022 468.747 529.004 470.653 528.929C468.509 540.903 471.189 559.86 471.749 572.968C447.868 573.163 422.271 574.291 398.125 574.774L390.995 574.956C391.211 566.483 390 557.159 389.727 548.609C389.551 543.082 389.749 538.084 389.987 532.575L463.982 529.213Z" fill="#FFFFFF"/>
<path d="M426.392 385.745C427.164 386.922 426.565 392.077 426.454 393.837C425.657 406.544 426.377 419.091 427.162 431.799C402.353 433.125 375.78 435.466 351.04 437.632C348.405 434.983 349.747 398.861 350.01 393.154C359.012 392.501 369.127 391.154 378.207 390.22C394.258 388.611 410.32 387.12 426.392 385.745Z" fill="#FFFFFF"/>
<path d="M430.598 668.993C457.471 668.768 484.345 668.834 511.217 669.189C510.415 684.826 512.634 697.352 511.413 713.008L431.35 711.418C431.957 699.753 430.439 682.159 430.598 668.993Z" fill="#FFFFFF"/>
<path d="M603.631 768.952C628.995 769.58 658.012 769.966 683.122 771.422C681.914 786.485 680.205 800.895 682.668 815.941C681.094 817.289 653.913 815.148 649.502 814.922L604.997 813.03C603.912 800.714 604.112 782.126 603.631 768.952Z" fill="#FFFFFF"/>
<path d="M696.861 132.615C698.098 132.55 697.658 132.499 698.816 132.893C701.404 136.633 700.173 161.097 700.881 167.959L700.956 168.648C692.531 170.617 682.715 172.253 674.143 173.89L609.865 186.027C608.138 186.33 606.937 186.786 605.414 186.047C605.366 185.878 605.318 185.709 605.27 185.54C604.755 176 604.799 166.323 604.508 156.76C604.442 154.589 606.377 151.525 608.569 150.975C616.772 148.917 625.188 147.436 633.474 145.691L696.861 132.615Z" fill="#FFFFFF"/>
<path d="M424.184 482.226L425.999 482.12L426.656 482.747C426.913 487.575 426.695 492.319 426.935 497.113C427.446 507.354 428.36 516.543 427.612 526.803C403.746 528.465 377.924 529.199 353.861 530.434C352.246 530.494 352.189 530.601 350.694 530.087C348.902 521.018 349.092 496.825 349.538 487.097C374.346 486.078 399.303 483.47 424.184 482.226Z" fill="#FFFFFF"/>
<path d="M464.567 333.813C466.295 333.584 467.777 333.163 469.339 333.792C468.435 349.525 469.558 361.99 469.368 377.449C463.204 378.288 455.353 378.752 448.936 379.401C431.178 381.214 413.406 382.885 395.621 384.413C394.002 384.652 393.529 384.764 391.848 384.635C388.969 381.251 390.089 349.927 390.349 343.159C414.123 339.551 440.442 336.897 464.567 333.813Z" fill="#FFFFFF"/>
<path d="M390.415 714.341L470.535 716.108C469.115 731.067 471.279 744.334 471.629 759.184C444.746 758.425 417.871 757.384 391.01 756.061C391.071 741.776 390.07 728.916 390.415 714.341Z" fill="#FFFFFF"/>
<path d="M467.298 432.212C468.609 431.96 468.597 431.845 469.816 432.303C470.498 438.436 469.685 447.33 469.965 453.828C470.271 460.931 470.916 467.907 471.391 474.997C447.665 475.778 419.586 478.418 395.487 480.079C394.319 480.172 393.139 480.202 391.967 480.249L391.45 479.745C389.509 469.43 390.243 449.532 390.56 438.578C415.98 436.048 441.754 434.792 467.298 432.212Z" fill="#FFFFFF"/>
<path d="M558.355 814.456C569.894 814.706 582.865 815.82 594.496 816.519C609.695 817.393 624.904 818.066 640.12 818.538C638.191 828.816 640.259 849.97 640.648 861.591C636.581 861.46 632.077 861.018 627.987 860.704C626.386 860.628 625.574 860.775 624.337 859.786C625.431 857.401 627.644 853.036 626.747 850.585L625.793 850.367C621.712 852.228 618.61 856.375 615.639 859.798C598.801 857.967 576.303 857.383 558.898 856.336C559.027 841.442 556.956 829.921 558.355 814.456Z" fill="#FFFFFF"/>
<path d="M496.349 576.289C500.963 575.929 506.408 575.957 511.091 575.866C510.414 590.622 512.084 603.976 511.499 618.342C505.007 618.632 497.435 618.452 490.828 618.557C475.764 618.91 460.696 619.08 445.628 619.068L431.483 619.196C431.809 606.498 430.415 592.043 430.638 578.071C451.452 577.929 475.217 576.902 496.349 576.289Z" fill="#FFFFFF"/>
<path d="M802.568 110.576C805.949 111.739 812.431 115.02 815.924 116.668L841.224 128.617L869.964 142.13C875.912 144.927 885.033 148.79 890.004 152.505C892.27 156.494 891.12 180.779 891.205 187.391C888.004 187.28 811.661 154.038 802.942 150.42C803.036 137.137 802.911 123.855 802.568 110.576Z" fill="#FFFFFF"/>
<path d="M430.531 761.565C457.258 762.165 484.45 763.988 511.253 764.996C509.557 777.37 511.02 794.883 511.474 807.819C484.829 805.688 458.159 803.9 431.469 802.455C431.917 789.048 430.385 775.463 430.531 761.565Z" fill="#FFFFFF"/>
<path d="M474.625 809.22C501.261 810.632 527.804 812.872 554.609 814.173C553.562 824.245 553.946 831.463 554.586 841.557C554.812 845.121 555.217 852.708 554.897 856.079C528.801 854.58 500.712 851.919 474.602 849.369C475.258 839.082 471.946 818.832 474.625 809.22Z" fill="#FFFFFF"/>
<path d="M440.93 623.271C450.618 622.918 460.765 623.023 470.492 622.986C470.639 629.076 469.653 636.592 469.353 642.863C468.965 650.961 469.446 656.775 470.188 664.725C454.013 664.183 435.943 664.776 419.75 665.071C410.271 665.293 400.499 665.04 390.996 664.908C390.527 651.169 389.191 638.057 390.009 624.367C406.405 623.529 424.413 623.523 440.93 623.271Z" fill="#FFFFFF"/>
<path d="M386.094 240.653C386.93 241.654 386.361 251.263 386.438 253.476C386.802 263.964 387.47 274.224 387.49 284.738C362.46 288.319 337.494 292.33 312.602 296.77C312.408 296.507 312.059 296.096 312.069 295.764C312.505 281.966 311.171 268.2 311.193 254.413C336.209 250.095 361.177 245.508 386.094 240.653Z" fill="#FFFFFF"/>
<path d="M497.644 173.64C498.605 173.877 499.707 174.048 500.448 174.772C503.06 177.324 502.008 200.867 502.316 206.222C470.794 212.61 438.768 218.075 407.134 224.372L404.994 224.554C402.003 222.222 401.765 198.589 404.61 194.715C406.754 191.795 413.517 190.934 417.334 190.221C444.145 185.21 470.895 178.874 497.644 173.64Z" fill="#FFFFFF"/>
<path d="M594.358 153.59C596.603 153.37 596.422 153.029 598.111 153.874C600.767 158.254 600.395 181.352 600.517 187.718L511.92 204.482L507.864 205.365C506.064 197.429 504.504 181.036 506.882 173.224C507.517 171.14 532.942 166.576 537.136 165.697C556.234 161.777 575.309 157.741 594.358 153.59Z" fill="#FFFFFF"/>
<path d="M349.394 669.046C375.076 668.916 401.595 669.576 427.137 669.027C426.695 676.465 426.739 682.067 427.064 689.452C427.237 693.379 428.136 707.888 427.332 711.318C401.631 710.503 375.925 709.867 350.216 709.408C350.504 702.04 349.455 693.687 349.174 686.248C348.95 680.316 349.134 674.955 349.394 669.046Z" fill="#FFFFFF"/>
<path d="M402.263 578.726C410.324 578.406 419.017 578.431 427.13 578.302C426.429 591.598 427.277 606.036 427.743 619.427C410.659 619.514 392.907 620.111 375.759 620.447C367.378 620.553 358.998 620.732 350.621 620.986C350.787 613.661 350.01 606.863 349.663 599.576C349.364 593.299 349.455 586.785 349.481 580.488C367.063 579.596 384.66 579.008 402.263 578.726Z" fill="#FFFFFF"/>
<path d="M268.093 308.694C268.603 308.662 268.263 308.648 269.075 308.971C269.338 311.163 268.937 314.026 268.734 316.274C267.588 328.982 268.359 341.651 269.632 354.327C247.433 357.815 222.944 359.685 200.395 362.675C200.135 362.62 199.533 362.284 199.261 362.148C196.609 351.981 197.602 330.218 198.04 319.739C221.358 315.85 244.71 312.168 268.093 308.694Z" fill="#FFFFFF"/>
<path d="M818.37 344.107C832.136 349.541 846.515 354.144 860.519 358.991C866.653 361.113 872.937 362.746 879.04 365.033C880.295 374.632 881.328 404.846 879.278 413.323C877.619 413.617 823.548 399.008 817.946 397.657L817.968 361.367C817.97 357.738 817.7 347.053 818.37 344.107Z" fill="#FFFFFF"/>
<path d="M345.253 393.733L345.901 393.736C346.086 393.98 346.272 394.223 346.457 394.466C345.728 402.885 345.528 413.097 345.595 421.376C345.64 427 346.219 432.873 346.602 438.008C337.946 439.066 324.567 439.644 315.704 440.598C310.158 441.195 282.843 443.73 279.718 443.256C276.492 437.686 288.566 431.541 289.704 427.058C290.334 424.573 289.694 415.54 288.361 413.549L288.378 414.198L288.015 414.55L288.175 416.12L289.045 425.851C286.001 430.496 282.231 432.13 279.159 436.339C278.744 436.907 277.613 442.114 276.95 443.669C275.392 444.104 275.495 444.151 273.936 443.793C272.465 440.192 272.478 407.454 272.638 401.838C296.614 399.55 321.177 395.473 345.253 393.733Z" fill="#FFFFFF"/>
<path d="M377.496 533.29L386.482 532.786C385.027 544.915 386.67 562.483 387.47 575.096L320.719 577.541L312.431 577.865C313.113 563.107 311.046 550.041 311.905 536.418C318.249 535.762 327.728 535.693 334.343 535.403C348.732 534.782 363.116 534.078 377.496 533.29Z" fill="#FFFFFF"/>
<path d="M340.75 487.705C341.941 487.556 344.622 487.528 345.935 487.471C344.554 501.644 345.916 516.755 346.664 530.931C324.377 532.045 300.695 532.827 278.362 533.544L273.065 533.814C273.846 518.447 272.245 507.303 272.525 492.597C293.314 490.021 319.448 489.162 340.75 487.705Z" fill="#FFFFFF"/>
<path d="M350.282 758.483C374.892 758.732 402.062 760.735 427.007 761.514C425.93 774.352 428.011 788.8 427.97 802.208L350.661 798.074C350.36 784.06 349.645 772.764 350.282 758.483Z" fill="#FFFFFF"/>
<path d="M379.582 439.292L386.943 438.797C385.492 456.415 387.092 463.862 387.535 480.567C367.835 482.914 341.394 483.687 321.124 484.935L313.148 485.514C313.395 472.13 311.721 458.637 311.828 444.823C334.029 442.891 357.431 440.798 379.582 439.292Z" fill="#FFFFFF"/>
<path d="M311.944 712.465C335.82 712.388 362.796 713.504 386.828 714.065C385.537 728.178 387.61 741.719 387.472 755.841C385.384 756.046 381.659 755.72 379.446 755.609C357.313 754.493 335.161 754.25 313.017 753.45C313.655 742.595 312.283 723.967 311.944 712.465Z" fill="#FFFFFF"/>
<path d="M386.086 343.817L386.337 343.988C386.871 346.101 385.903 360.635 386.045 364.503C386.31 371.732 386.925 378.085 387.617 385.342C364.1 387.3 336.98 390.211 313.544 393.023C313.479 392.981 313.402 392.952 313.349 392.896C310.128 389.495 312.271 359.043 312.534 352.858C336.154 349.589 362.482 345.968 386.086 343.817Z" fill="#FFFFFF"/>
<path d="M307.057 255.152L307.492 255.457C307.706 259.168 307.425 262.865 307.628 266.511C308.211 276.978 308.469 286.937 308.458 297.438C284.35 301.802 260.193 305.889 235.99 309.697L235.53 309.497C235.445 309.332 235.187 273.962 234.843 268.769C243.102 266.759 253.521 265.036 261.998 263.475L307.057 255.152Z" fill="#FFFFFF"/>
<path d="M297.177 536.777C300.911 536.626 304.72 536.563 308.462 536.462C307.302 547.94 309.154 564.893 308.845 578.077C287.636 578.565 266.6 579.391 245.367 579.672C242.26 579.757 239.084 579.771 235.969 579.819C236.808 566.12 235.26 553.194 234.998 539.456C240.979 538.755 250.539 538.673 256.747 538.43L297.177 536.777Z" fill="#FFFFFF"/>
<path d="M389.979 804.606C416.055 804.878 444.628 807.504 471.014 808.676C468.588 826.862 471.223 832.687 471.042 849.158C462.653 848.073 453.121 847.39 444.623 846.592C431.129 845.802 416.98 845.071 403.542 843.996C405.757 837.156 408.088 831.088 411.281 824.669C411.535 824.158 411.425 823.556 411.289 823.018C410.101 821.911 410.815 822.226 408.98 822.286C400.87 826.953 397.508 836.674 392.811 843.228L392.023 843.116C389.887 839.29 389.374 809.872 389.979 804.606Z" fill="#FFFFFF"/>
<path d="M817.953 563.894C835.136 566.115 860.567 566.935 878.287 568.061C881.192 580.415 880.801 600.935 879.066 613.393C877.102 613.846 862.607 613.84 859.391 613.864C845.586 613.937 831.781 614.096 817.978 614.342C818.081 597.526 818.073 580.71 817.953 563.894Z" fill="#FFFFFF"/>
<path d="M364.118 624.766L386.34 624.38C385.47 632.522 386.591 656.005 387.579 664.893L335.75 665.078L312.998 665.105C313.268 651.805 312.362 639.047 312.013 625.771C327.879 624.916 347.978 624.983 364.118 624.766Z" fill="#FFFFFF"/>
<path d="M818.05 453.131C823.742 454.819 876.725 463.674 877.28 465.308C880.074 473.526 881.511 500.077 879.121 508.801C879.09 508.848 879.073 508.909 879.027 508.943C876.012 511.174 824.968 504.406 817.999 503.607C818.227 486.925 818.045 469.844 818.05 453.131Z" fill="#FFFFFF"/>
<path d="M265.877 402.704C267.756 402.502 267.508 402.241 268.971 402.918C268.431 414.943 269.232 432.229 269.95 444.472C249.131 447.168 224.04 448.635 202.984 450.29C201.375 450.494 200.914 450.657 199.332 450.195C198.356 446.531 198.048 414.837 198.149 409.729C219.19 408.463 244.757 405.144 265.877 402.704Z" fill="#FFFFFF"/>
<path d="M341.185 580.716L345.944 580.551C345.592 595.616 346.604 606.202 347.13 621.058C324.58 621.662 302.024 621.989 279.466 622.041L273.57 622.119C273.657 609.253 272.445 596.518 272.61 583.041C295.067 582.807 318.693 581.672 341.185 580.716Z" fill="#FFFFFF"/>
<path d="M307.177 353.704L308.229 353.634C309.333 355.495 308.435 359.73 308.15 361.943C306.808 372.375 308.253 382.943 309.175 393.408C305.748 393.981 302.027 394.38 298.555 394.736C278.294 396.813 257.888 400.059 237.621 401.739C237.434 401.777 236.419 401.669 236.187 401.65C234.574 398.254 234.732 367.953 234.965 362.599L307.177 353.704Z" fill="#FFFFFF"/>
<path d="M877.419 763.088L878.341 762.92L879.119 763.56C881.917 774.408 880.737 796.563 879.002 807.812L821.117 823.503C819.688 823.986 819.771 823.96 818.258 823.924C817.2 820.469 817.982 781.771 817.993 775.377C828.663 773.797 839.889 771.105 850.506 768.91C859.232 767.105 868.932 765.427 877.419 763.088Z" fill="#FFFFFF"/>
<path d="M271.065 755.501L346.375 758.398C345.673 769.675 346.437 786.507 346.972 797.995C322.65 796.463 295.461 795.585 271.491 793.461C271.784 781.382 271.305 767.662 271.065 755.501Z" fill="#FFFFFF"/>
<path d="M234.451 710.535C246.202 710.497 259.218 711.287 271.15 711.533C273.049 714.01 274.837 717.041 276.513 719.724L276.498 726.453C279.268 727.907 282.43 729.805 285.438 730.345L285.636 729.868C283.732 727.563 281.027 726.221 278.438 724.701L278.626 718.476C276.919 716.149 275.629 714.078 274.104 711.635C285.582 711.749 297.059 711.951 308.534 712.241C308.075 723.123 309.124 732.785 309.508 743.578L309.467 753.258C303.824 752.913 297.957 752.728 292.291 752.476C289.694 746.269 287.222 740.011 284.875 733.706C285.441 742.113 287.049 745.021 290.576 752.429C272.606 751.996 253.698 750.625 235.599 749.908C236.319 737.652 234.552 723.146 234.451 710.535Z" fill="#FFFFFF"/>
<path d="M272.155 668.614C296.609 669.153 321.071 669.309 345.531 669.081C345.391 675.761 345.375 682.066 345.643 688.744C345.888 694.858 347.03 703.45 346.307 709.371C321.725 708.519 297.137 707.893 272.544 707.491C273.575 694.586 272.437 681.6 272.155 668.614Z" fill="#FFFFFF"/>
<path d="M302.516 445.796L308.583 445.346C307.575 456.541 308.955 473.906 309.508 485.785C291.381 486.964 272.331 488.203 254.284 490.06C256.835 485.867 257.646 480.741 259.034 475.896C263.634 472.722 266.018 471.144 270.29 467.417C266.779 468.953 261.493 472.189 258.024 474.182L257.712 474.767C255.791 478.299 255.332 482.445 253.744 486.618L251.392 490.294C246.352 490.503 240.87 491.099 235.812 491.549C235.382 477.044 234.332 466.412 234.728 451.674C248.099 450.696 261.5 449.269 274.84 448.384C273.614 450.58 272.59 452.902 271.529 455.186C272.253 458.833 271.439 460.346 272.016 463.455C274.357 460.609 273.198 456.393 274.247 453.101C274.573 452.079 276.619 449.109 277.297 448.112C285.56 447.211 294.18 446.604 302.516 445.796Z" fill="#FFFFFF"/>
<path d="M304.783 625.733C306.401 625.67 306.452 625.651 308.027 625.975C308.541 627.038 309.425 661.832 309.415 665.092C302.597 665.095 295.771 665.104 288.956 664.855C273.252 664.282 257.535 664.733 241.83 664.275L235.504 664.008C234.452 650.066 234.471 640.076 234.565 626.163C257.972 626.188 281.378 626.045 304.783 625.733Z" fill="#FFFFFF"/>
<path d="M263.932 493.25C265.411 493.09 267.564 492.702 268.736 493.415C268.739 506.971 269.623 520.113 269.588 534.028C247.922 534.727 226.266 535.698 204.624 536.942C202.811 537.06 200.643 537.428 199.18 536.596C197.359 528.502 197.329 506.189 197.508 498.029L263.932 493.25Z" fill="#FFFFFF"/>
<path d="M875.244 666.704C876.667 666.421 876.749 666.5 878.22 666.648C881.762 672.314 880.141 703.041 878.884 710.3C860.785 713.379 841.263 716.608 823.118 718.939L818.074 719.425L817.968 671.269C834.786 670.777 857.858 668.107 875.244 666.704Z" fill="#FFFFFF"/>
<path d="M229.124 269.659C230.739 269.422 230.103 269.193 231.215 269.93C232.243 277.777 231.633 301.54 231.571 310.328C209.146 313.46 186.646 317.71 164.124 320.76L163.583 320.816L162.986 320.266C162.062 307.033 162.091 295.433 162.531 282.213C184.691 277.834 206.89 273.65 229.124 269.659Z" fill="#FFFFFF"/>
<path d="M878.067 860.05C880.364 862.815 880.259 896.758 880.253 901.924C869.267 906.269 858.416 910.75 847.39 915.025C838.964 918.291 827.931 921.752 819.961 925.537C818.78 926.108 819.398 926.062 818.108 925.865C817.645 922.396 817.948 913.381 817.957 909.271L817.912 879.181C837.523 874.204 858.881 866.472 878.067 860.05Z" fill="#FFFFFF"/>
<path d="M197.129 666.977C207.157 666.866 218.91 667.595 229.05 667.943C242.294 668.407 255.544 668.625 268.796 668.597C268.079 679.611 269.517 695.056 269.256 707.453C247.671 707.565 220.013 706.189 198.487 705.102C197.3 696.346 196.991 676.098 197.129 666.977Z" fill="#FFFFFF"/>
<path d="M233.638 795.622C258.463 796.696 283.677 798.651 308.456 799.556C307.93 810.841 308.533 826.091 308.727 837.603C283.956 835.815 259.214 833.635 234.512 831.065C234.757 824.611 234.013 818.509 233.687 812.073C233.408 806.561 233.532 801.136 233.638 795.622Z" fill="#FFFFFF"/>
<path d="M225.157 539.75C227.227 539.589 229.72 539.557 231.831 539.471C230.805 550.128 232.766 567.391 232.485 579.969C211.141 579.861 189.796 580.088 168.459 580.651L162.554 580.886C161.661 566.811 161.585 557.026 162.253 543.095C182.799 542.444 204.687 540.997 225.157 539.75Z" fill="#FFFFFF"/>
<path d="M228.937 452.215L230.509 452.097C231.377 453.191 230.859 464.949 230.957 467.174C231.322 475.42 231.778 483.662 232.243 491.901L164.376 496.123C164.122 496.128 163.542 495.931 163.263 495.852C161.046 489.873 161.966 464.911 162.565 457.562L228.937 452.215Z" fill="#FFFFFF"/>
<path d="M243.83 583.735C252.217 583.517 260.769 583.475 269.173 583.348C268.517 596.492 269.382 608.984 270.126 622.083C255.222 622.334 240.315 622.411 225.409 622.312L199.443 622.548C199.72 613.234 198.382 594.091 197.931 583.99C213.231 584.086 228.532 584.001 243.83 583.735Z" fill="#FFFFFF"/>
<path d="M229.118 363.211L231.015 363.053C230.652 362.611 232.06 399.371 232.169 402.39C223.651 403.653 213.512 404.379 204.885 405.19L164.571 409.189L163.277 409.183C161.381 406.392 161.435 377.585 161.647 371.659C181.59 368.375 208.786 365.489 229.118 363.211Z" fill="#FFFFFF"/>
<path d="M162.887 707.511C184.96 708.16 208.642 709.349 230.812 710.434C230.59 715.233 231.119 720.739 231.371 725.603C231.86 733.537 232.092 741.484 232.064 749.433C229.765 749.831 214.955 748.578 211.359 748.366C195.258 747.414 179.393 746.142 163.229 745.989C162.495 734.309 162.877 719.384 162.887 707.511Z" fill="#FFFFFF"/>
<path d="M312.026 799.854C335.438 800.62 362.818 802.647 386.379 804.312C385.253 813.841 386.78 826.911 387.065 836.967C382.084 826.154 379.931 822.51 372.755 813.342L371.053 814.333C370.436 816.408 377.86 838.959 378.932 842.63C357.147 840.576 334.332 839.295 312.45 837.868C312.19 825.763 311.596 811.74 312.026 799.854Z" fill="#FFFFFF"/>
<path d="M192.195 320.694L194.009 320.513C194.64 321.681 194.136 329.63 194.062 331.512C193.636 342.386 193.941 352.495 195.773 363.285C190.437 363.655 183.858 364.752 178.446 365.396C164.167 367.096 150.027 369.174 135.725 370.785C134.802 370.976 135.056 370.89 134.046 370.677C132.257 366.395 132.258 335.754 132.535 329.158C135.41 328.655 138.315 328.319 141.212 327.969C158.263 325.911 175.204 323.176 192.195 320.694Z" fill="#FFFFFF"/>
<path d="M199.063 751.584L235.837 753.858C246.312 754.409 257.075 754.664 267.498 755.519C267.308 762.062 268.174 789.821 267.41 793.488C244.918 792.403 222.439 791.04 199.98 789.4C200.673 779.916 199.413 761.909 199.063 751.584Z" fill="#FFFFFF"/>
<path d="M394.543 195.181C399.603 196.629 398.662 202.611 398.85 206.976C399.116 213.176 399.092 219.538 399.055 225.752C372.307 230.609 345.421 236.272 318.69 240.844C316.814 241.043 317.559 241.285 316.051 240.65C315.846 240.214 315.759 240.07 315.621 239.641C314.41 235.877 314.087 215.266 315.995 212.306C317.173 210.479 388.702 196.205 394.543 195.181Z" fill="#FFFFFF"/>
<path d="M194.481 410.247C194.924 413.242 194.329 422.38 194.47 426.179C194.776 434.458 195.316 442.715 195.595 450.976C176.224 452.783 152.856 454.705 133.611 455.618C131.765 452.289 132.485 421.796 132.896 416.161C153.122 414.089 174.256 411.858 194.481 410.247Z" fill="#FFFFFF"/>
<path d="M209.756 626.225C216.704 626.064 224.097 626.177 231.08 626.162C230.692 640.076 230.792 650.273 231.966 663.975C216.899 663.477 201.825 663.205 186.75 663.157L163.514 663.023C163.452 650.81 162.744 639.09 162.209 626.9C178.061 626.89 193.911 626.665 209.756 626.225Z" fill="#FFFFFF"/>
<path d="M305.161 213.626C308.141 213.259 309.67 214.995 310.143 217.684C311.509 225.451 311.407 234.421 311.481 242.247L231.638 257.375L226.419 258.299C225.889 252.915 224.953 234.898 227.079 231.073C228.485 228.545 253.347 224.212 258.041 223.259L305.161 213.626Z" fill="#FFFFFF"/>
<path d="M183.525 498.789C186.913 498.533 190.712 498.457 194.138 498.315C193.281 513.747 194.031 522.073 195.578 537.442C179.007 537.617 158.874 539.404 141.875 540.067L132.418 540.498C131.167 528.578 130.627 514.258 131.55 502.341C148.474 500.853 166.456 499.99 183.525 498.789Z" fill="#FFFFFF"/>
<path d="M191.61 584.236C192.868 584.066 192.86 584.113 194.128 584.335C195.012 587.246 195.731 617.854 195.934 622.654C176.082 622.898 156.228 623.006 136.375 622.976C135.437 622.978 134.447 622.922 133.505 622.887C133.278 622.658 133.052 622.429 132.825 622.2C132.751 611.816 133.69 595.098 133.108 585.477L191.61 584.236Z" fill="#FFFFFF"/>
<path d="M131.705 748.431C134.718 748.469 137.893 748.742 140.91 748.938C159.01 750.115 177.349 749.887 195.413 751.464C195.486 763.968 196.611 776.271 196.527 789.076L132.587 784.693C132.571 772.359 131.831 760.609 131.705 748.431Z" fill="#FFFFFF"/>
<path d="M811.812 220.697L813.226 220.58L813.8 221.116L813.911 282.701C801.825 284.344 789.769 286.202 777.748 288.274C777.215 288.279 777.583 288.319 776.759 287.773C775.941 271.278 774.535 255.329 776.323 238.886C776.673 235.662 776.521 231.533 776.501 228.238C788.894 224.825 799.118 222.391 811.812 220.697Z" fill="#FFFFFF"/>
<path d="M513.842 856.969C542.355 859.361 570.907 861.249 599.487 862.634C599.144 870.356 599.352 878.093 600.11 885.785C598.751 883.623 598.312 882.619 595.93 882.04L594.94 882.826C593.733 885.576 593.776 888.553 593.552 891.603C590.095 885.987 588.534 884.193 583.742 879.605C580.774 877.084 577.928 874.16 574.134 873.326L573.363 873.855C573.182 877.332 580.706 887.472 582.83 893.618L583.053 894.281C560.025 890.696 537.017 886.99 514.029 883.164C513.892 873.928 513.151 866.395 513.842 856.969Z" fill="#FFFFFF"/>
<path d="M132.15 666.496C152.343 667.119 173.309 666.943 193.563 667.028C193.315 679.774 193.964 692.244 194.57 704.971L133.236 702.45C133.626 692.705 132.863 676.212 132.15 666.496Z" fill="#FFFFFF"/>
<path d="M152.296 458.3L158.969 457.796C157.367 472.433 158.268 482.104 159.259 496.451C144.174 498.306 123.822 498.719 108.025 499.928L101.175 500.2C100.112 488.688 99.2624 473.263 101.183 462.088C118.034 461.061 135.412 459.524 152.296 458.3Z" fill="#FFFFFF"/>
<path d="M813.474 343.76L813.693 343.927C814.443 346.148 813.956 390.803 813.98 397.306C800.322 398.071 786.384 399.24 772.621 400.053C772.061 390.694 771.101 383.486 771.521 373.767C771.889 365.252 772.991 355.981 772.452 347.641C786.42 346.502 799.56 345.407 813.474 343.76Z" fill="#FFFFFF"/>
<path d="M100.695 705.492C118.916 705.332 140.83 706.751 159.19 707.492C159.148 718.34 158.854 735.382 159.48 745.702C141.499 745.451 119.746 743.838 101.679 742.674C100.828 729.517 100.269 718.692 100.695 705.492Z" fill="#FFFFFF"/>
<path d="M621.97 864.315C641.862 865.753 661.911 867.653 681.816 868.673C680.98 875.125 682.544 899.629 683.084 907.262C675.787 906.219 667.937 905.467 660.576 904.64C647.531 903.224 635.08 902.205 622.147 899.874C622.167 899.822 622.787 898.301 622.782 898.329C623.617 893.737 633.034 883.03 631.19 879.066C627.062 877.921 617.672 887.093 615.081 889.612C616.918 879.749 618.599 873.605 621.97 864.315Z" fill="#FFFFFF"/>
<path d="M162.216 790.464C169.603 790.605 180.593 791.889 188.212 792.5L230.186 795.447C229.489 808.377 230.897 818.302 231.003 830.952C219.163 830.105 227.451 829.102 223.908 824.441C221.313 824.697 217.613 829.859 215.741 832.027C216.188 828.046 219.13 813.264 218.456 811.107C212.246 812.346 208.15 826.718 206.683 832.136C204.187 826.42 196.464 814.392 191.047 811.674L190.289 812.01C189.578 814.861 194.524 824.124 196.002 828.562C186.248 827.267 172.776 827.098 162.958 826.906C162.062 815.781 162.276 801.815 162.216 790.464Z" fill="#FFFFFF"/>
<path d="M156.801 283.138C157.664 282.974 157.809 283.052 158.702 283.094C159.257 285.07 158.608 299.45 158.618 302.708C158.633 309.004 158.904 315.298 159.428 321.572C140.969 323.972 122.531 326.544 104.119 329.287C102.143 329.543 102.797 329.845 101.486 329.107C100.503 322.691 101.211 300.482 101.461 293.796C106.217 293.306 115.222 291.235 120.246 290.248L156.801 283.138Z" fill="#FFFFFF"/>
<path d="M157.244 372.219L157.57 372.211C158.377 373.433 157.867 378.063 157.813 379.8C157.503 389.764 158.387 399.545 159.145 409.491C155.992 409.963 152.699 410.071 149.525 410.439C134.077 412.229 118.331 413.383 102.966 415.708L102.046 415.219C99.1032 409.877 101.262 385.328 102.122 378.292C120.535 376.639 138.913 374.615 157.244 372.219Z" fill="#FFFFFF"/>
<path d="M150.627 543.71C152.756 543.516 156.334 543.518 158.572 543.458C157.786 556.365 157.487 568.172 159.052 581.063C142.782 581.253 126.515 581.561 110.25 581.987L101.643 582.09C100.727 569.893 99.6502 557.596 101.69 545.518C117.627 545.129 134.822 544.764 150.627 543.71Z" fill="#FFFFFF"/>
<path d="M810.241 452.714C811.632 452.57 812.377 452.343 813.637 452.934C814.236 455.338 813.959 466.437 813.948 469.56C813.848 480.538 813.871 491.516 814.018 502.494C802.441 502.414 786.546 503.922 774.621 504.732C773.222 504.894 773.821 505.094 772.728 504.368C770.675 489.273 771.209 470.759 772.524 455.638C784.534 455.188 797.878 453.43 810.241 452.714Z" fill="#FFFFFF"/>
<path d="M101.843 626.995C120.677 626.751 139.975 626.95 158.846 626.932C158.823 638.587 160.247 651.996 159.787 663.032C140.345 663.073 120.912 661.774 101.571 662.012C100.991 649.394 100.754 639.637 101.843 626.995Z" fill="#FFFFFF"/>
<path d="M810.818 563.721C812.793 563.586 812.605 563.25 813.774 564.182C814.24 569.718 813.983 577.911 813.968 583.674L814.01 614.066C801.382 613.904 788.751 613.979 776.125 614.289C775.122 614.318 774.725 614.275 773.726 614.196C770.769 609.652 773.725 572.418 774.217 565.414C785.33 564.468 799.2 564.41 810.818 563.721Z" fill="#FFFFFF"/>
<path d="M215.997 232.154C223.767 230.746 222.13 241.607 222.231 246.53C222.317 250.694 222.245 254.657 222.431 258.855C202.609 263.75 178.064 267.144 157.57 271.581L151.648 272.636C151.236 266.708 149.354 251.401 152.027 246.616C153.665 243.685 207.815 233.749 215.997 232.154Z" fill="#FFFFFF"/>
<path d="M775.722 670.749C789.306 670.362 800.683 670.862 814.037 671.075C813.997 676.647 814.548 716.773 813.658 719.262L812.122 719.51C801.716 718.558 784.943 718.691 774.049 718.469C773.392 707.498 772.802 682.141 774.818 671.227L775.722 670.749Z" fill="#FFFFFF"/>
<path d="M775.23 774.531C788.204 774.81 801.171 775.318 814.127 776.056C813.995 790.196 814.704 811.481 813.808 824.605C801.315 823.296 788.541 822.78 775.971 821.632C774.863 802.22 774.024 794.586 775.23 774.531Z" fill="#FFFFFF"/>
<path d="M431.302 849.643C457.813 851.587 483.751 854.274 510.193 856.624C509.517 865.913 510.005 873.175 510.132 882.388C508.271 882.433 490.839 879.251 487.942 878.782C469.359 875.65 450.726 872.816 432.052 870.283C431.928 863.462 431.415 856.608 431.302 849.643Z" fill="#FFFFFF"/>
<path d="M774.57 876.15C787.71 877.248 800.843 878.743 814.012 879.87C813.928 890.04 813.922 900.209 813.992 910.379C814.013 914.911 814.302 922.291 813.858 926.542C801.254 924.398 788.04 922.605 775.356 920.714C774.034 903.963 773.874 892.769 774.57 876.15Z" fill="#FFFFFF"/>
<path d="M140.983 247.661C143.044 247.347 144.541 247.002 146.276 248.265C147.86 251.158 147.022 266.829 147.908 272.601L148.014 273.26L92.1153 284.084L86.3944 284.962C85.57 276.197 85.4965 268.006 85.514 259.229C103.904 254.909 122.4 251.052 140.983 247.661Z" fill="#FFFFFF"/>
<path d="M817.979 286.567C827.704 290.475 837.553 293.608 847.405 297.205C848.653 311.875 850.872 335.824 848.662 349.892C848.6 349.938 848.549 350.008 848.475 350.029C846.939 350.471 821.762 341.309 817.98 340.034L817.979 286.567Z" fill="#FFFFFF"/>
<path d="M818.044 161.766C827.165 166.376 837.912 170.47 847.441 174.41C847.595 191.95 846.221 211.354 847.665 228.389C844.609 228.306 822.33 218.726 818.026 216.923L818.044 161.766Z" fill="#FFFFFF"/>
<path d="M851.458 176.105C861.212 180.251 870.44 183.415 880.121 188.153C880.523 205.595 880.207 224.173 880.252 241.737C877.049 241.456 855.897 232.234 851.642 230.48C850.58 211.212 851.692 195.222 851.458 176.105Z" fill="#FFFFFF"/>
<path d="M849.876 511.425C859.435 512.523 868.669 512.894 878.179 513.826L878.3 514.233C881.961 526.234 881.117 551.037 878.869 563.389L878.62 563.694C877.023 564.525 853.87 562.491 850.188 562.416C850.571 542.204 851.287 532.041 849.876 511.425Z" fill="#FFFFFF"/>
<path d="M817.98 507.22C827.142 508.637 836.325 509.916 845.526 511.058C846.532 520.346 847.074 528.355 846.945 537.694C846.844 545.055 845.868 554.274 846.419 561.339C846.376 561.389 846.342 561.449 846.29 561.49C844.674 562.776 821.669 560.31 818.036 560.03L817.98 507.22Z" fill="#FFFFFF"/>
<path d="M851.428 298.156C860.076 301.413 869.56 304.464 878.348 307.383C880.65 325.136 881.472 342.071 878.346 359.853L877.917 360.152C875.808 359.969 855.578 352.882 852.267 351.768C855.251 332.63 852.289 317.183 851.428 298.156Z" fill="#FFFFFF"/>
<path d="M828.179 618.241L846.531 618.112C847.144 635.131 846.789 648.119 846.5 664.951C843.045 665.292 839.584 665.587 836.121 665.835C830.094 666.381 824.06 666.836 818.02 667.199C818.185 650.939 818.176 634.677 817.994 618.417L828.179 618.241Z" fill="#FFFFFF"/>
<path d="M817.992 401.657C827.048 404.5 838.374 407.178 847.722 409.691C847.192 423.73 846.221 440.509 846.508 454.358L846.152 454.699C843.948 454.852 822.702 450.067 817.984 449.337L817.992 401.657Z" fill="#FFFFFF"/>
<path d="M843.317 720.161C845.33 719.887 844.756 719.555 845.931 720.328C847.353 731.096 846.872 754.244 846.635 765.586L821.124 770.866C819.728 771.272 819.725 771.244 818.259 771.261C817.824 769.156 818.005 759.549 818.002 756.894L817.965 723.467C826.518 722.971 834.872 721.526 843.317 720.161Z" fill="#FFFFFF"/>
<path d="M846.099 821.117C848.115 824.01 846.475 860.084 846.516 866.19C838.229 869.291 827.484 872.295 818.878 874.969L818.287 874.818C817.492 872.899 817.915 833.514 817.919 828.219C827.346 825.989 836.741 823.622 846.099 821.117Z" fill="#FFFFFF"/>
<path d="M877.492 714.682C878.112 714.641 877.688 714.64 878.747 714.888C882.167 721.536 879.798 750.631 878.555 758.674C870.314 760.868 860.601 762.703 852.212 764.38C850.996 764.482 851.501 764.66 850.652 763.987C850.192 759.109 850.943 750.919 850.86 745.591C850.722 736.711 850.264 728.05 849.832 719.187L877.492 714.682Z" fill="#FFFFFF"/>
<path d="M870.872 617.745L879.035 617.818C880.497 628.496 879.681 651.738 878.857 662.402C872.454 662.749 865.525 663.39 859.107 663.928L850.328 664.611C851.007 647.276 851.078 635.324 850.498 618.007L870.872 617.745Z" fill="#FFFFFF"/>
<path d="M851.457 410.107C859.848 412.231 870.14 415.294 878.339 417.907C879.917 429.738 881.535 448.596 878.725 459.947C872.095 459.798 857.63 456.855 850.333 455.748C850.481 440.787 851.257 425.327 851.457 410.107Z" fill="#FFFFFF"/>
<path d="M878.464 812.102C880.78 816.869 879.114 848.629 878.374 855.626C869.219 858.502 860.144 861.627 851.16 864.999L850.688 864.575C850.017 860.305 850.964 848.359 851.002 843.341C851.065 835.232 850.727 827.957 850.336 819.818C859.371 817.612 869.527 814.639 878.464 812.102Z" fill="#FFFFFF"/>
<path d="M119.353 787.741C132.532 788.523 145.701 789.452 158.858 790.53C158.21 801.993 158.64 814.978 159.111 826.463C151.165 825.657 143.204 824.997 135.233 824.483L137.901 820.409C139.6 818.316 141.285 817.088 140.593 814.316L139.441 813.712C134.474 813.646 130.179 816.82 126.463 819.677C127.719 815.777 133.128 804.834 131.657 801.739L130.646 801.537C125.109 804.062 120.156 811.391 117.352 816.646C116.766 805.865 117.218 798.302 119.353 787.741Z" fill="#FFFFFF"/>
<path d="M125.827 330.183C127.978 329.879 127.11 329.646 128.775 330.321C128.362 343.41 129.239 358.427 130.063 371.621C122.214 372.689 112.967 373.366 104.986 374.148C103.879 374.301 103.381 374.296 102.261 374.325C99.6869 370.826 101.158 339.429 101.546 333.689C108.931 332.917 118.244 331.246 125.827 330.183Z" fill="#FFFFFF"/>
<path d="M128.855 416.747C129.464 417.434 128.963 422.214 128.918 423.524C128.545 434.317 129.124 445.245 129.661 456.025L101.969 458.144L101.159 457.509C99.6993 448.197 100.542 429.058 101.657 419.557C110.462 418.481 119.952 417.686 128.855 416.747Z" fill="#FFFFFF"/>
<path d="M117.117 585.767L129.661 585.536C130.092 598.597 128.934 610.246 129.146 622.974L112.962 623.013L101.88 623.049C100.604 609.456 100.42 599.456 101.589 585.914C106.766 585.951 111.943 585.902 117.117 585.767Z" fill="#FFFFFF"/>
<path d="M125.667 502.718L127.002 502.628C128.201 503.717 127.605 506.442 127.511 508.675C127.056 519.478 127.784 529.77 128.721 540.525C120.762 541.092 111.91 541.235 103.876 541.525C102.856 541.514 103.005 541.473 101.994 541.192C99.6881 535.735 100.756 510.929 101.145 504.093L125.667 502.718Z" fill="#FFFFFF"/>
<path d="M102.002 665.905C110.879 665.749 119.758 665.942 128.62 666.482C128.9 671.939 130.622 700.061 128.868 702.397C119.988 701.978 110.733 701.845 101.81 701.553C100.362 687.15 100.528 680.228 102.002 665.905Z" fill="#FFFFFF"/>
<path d="M101.633 746.476C110.516 746.897 119.134 747.71 128.183 748.042C128.437 760.226 128.805 772.407 129.287 784.584C126.788 784.357 122.21 784.886 120.601 783.025L120.908 781.393C121.761 779.059 123.16 776.441 121.651 774.204L120.627 774.31C116.844 777.198 116.261 779.316 114.155 783.62C109.805 783.526 106.361 783.29 102.021 782.881C100.467 771.466 100.035 757.805 101.633 746.476Z" fill="#FFFFFF"/>
<path d="M270.998 838.459C296.087 840.669 320.596 842.07 345.601 843.941C345.506 849.326 345.695 852.997 346.089 858.296C334.869 856.555 323.506 855.591 312.326 853.969C298.746 851.999 284.864 849.517 271.367 847.024C271.135 844.3 271.095 841.217 270.998 838.459Z" fill="#FFFFFF"/>
<path d="M800.83 154.192C802.432 154.034 808.473 156.866 810.262 157.637C801.858 158.87 792.979 160.928 784.531 162.356C762.691 166.048 740.532 170.835 718.708 174.339C715.017 174.92 712.775 173.171 709.368 171.417C734.056 167.188 758.74 162.018 783.364 157.385C789.215 156.284 794.91 154.987 800.83 154.192Z" fill="#FFFFFF"/>
<path d="M702.731 172.591C704.614 172.469 708.145 175.034 709.896 176.119L616.618 193.355C614.763 193.473 611.179 191.086 609.088 189.975C620.454 188.481 632.944 185.909 644.3 183.823C663.823 180.323 683.302 176.578 702.731 172.591Z" fill="#FFFFFF"/>
<path d="M402.427 847.94C410.616 848.317 419.28 849.03 427.5 849.564C427.295 856.556 427.897 862.734 428.479 869.679C425.038 869.324 421.33 868.753 417.879 868.288C413.574 867.706 410.206 867.093 405.948 866.198C407.264 862.827 413.508 853.864 410.782 851.553C407.291 851.646 403.981 854.388 401.036 856.376L402.427 847.94Z" fill="#FFFFFF"/>
<path d="M504.308 210.139C507.751 209.726 509.557 211.032 512.585 212.637L417.102 230.573C413.185 231.215 412.006 230.154 408.443 228.419C419.476 225.545 438.483 222.395 449.917 220.355C468.068 217.062 486.199 213.657 504.308 210.139Z" fill="#FFFFFF"/>
<path d="M601.615 191.614C603.962 191.343 607.122 193.484 609.379 194.679C606.292 195.493 602.749 196.016 599.586 196.542C573.003 200.959 546.647 206.592 520.13 211.323C518.578 211.731 514.802 209.128 513.221 208.21C542.731 202.924 572.197 197.392 601.615 191.614Z" fill="#FFFFFF"/>
<path d="M349.427 844.402C359.091 844.768 370.159 845.752 379.741 846.625C380.543 849.917 381.226 854.119 381.868 857.512C376.682 852.789 374.956 851.864 368.566 848.744C367.751 848.47 366.788 848.219 365.951 847.976C364.202 848.39 364.815 847.913 363.932 849.294C364.124 851.889 369.794 858.293 371.887 861.786C365.114 860.49 356.546 859.528 349.6 858.562L349.427 844.402Z" fill="#FFFFFF"/>
<path d="M400.363 229.587C402.783 229.065 405.26 231.072 407.411 232.385C380.647 237.241 353.943 242.532 327.164 247.048C324.414 247.546 323.188 246.286 320.591 244.798C331.351 242.901 342.063 240.671 352.812 238.665C368.559 235.727 384.739 233.061 400.363 229.587Z" fill="#FFFFFF"/>
<path d="M310.873 246.637C313.545 246.25 315.537 246.535 317.915 247.935L317.807 248.692C313.517 250.045 299.028 252.336 293.991 253.281C275.893 256.745 257.773 260.094 239.633 263.328C237.427 263.585 234.574 263.894 232.683 262.468C234.165 260.584 252.059 257.81 256.118 257.014L310.873 246.637Z" fill="#FFFFFF"/>
<path d="M222.855 833.859L267.299 838.14C267.489 840.567 268.086 844.377 266.95 846.262C251.87 843.073 236.662 840.521 221.367 838.611L222.855 833.859Z" fill="#FFFFFF"/>
<path d="M223.77 263.139C225.298 262.731 228.233 264.403 229.775 265.114C210.037 269.655 182.655 274.448 162.443 277.833C160.319 278.316 158.464 276.952 156.524 275.895L223.77 263.139Z" fill="#FFFFFF"/>
<path d="M101.511 786.865C105.216 787.141 108.926 787.364 112.637 787.533C109.117 795.334 108.136 801.411 107.042 809.78L106.921 815.479C104.956 813.141 103.058 810.747 101.23 808.3L101.511 786.865Z" fill="#FFFFFF"/>
<path d="M149.868 277.165L150.754 277.061C152.472 277.834 152.415 277.487 153.285 278.807C151.96 280.275 147.846 280.9 145.813 281.155C130.526 283.073 114.628 287.917 99.4726 289.801C97.4733 289.375 95.2303 288.605 93.254 287.985C111.971 284.445 131.14 280.338 149.868 277.165Z" fill="#FFFFFF"/>
<path d="M82.1924 764.802C87.6393 769.562 95.2271 784.878 97.1851 792.009C97.7055 793.904 97.4966 801.95 97.4741 804.377C96.8338 804.08 96.1663 803.791 95.9338 803.044C92.7158 792.711 89.7055 782.294 85.5355 772.289C84.4848 769.768 83.4714 767.227 82.1924 764.802Z" fill="#FFFFFF"/>
<path d="M603.415 862.883C606.635 863.033 610.083 863.356 613.317 863.603C610.531 868.427 608.692 871.525 606.476 876.644L603.648 885.016C603.448 878.204 602.975 869.51 603.415 862.883Z" fill="#FFFFFF"/>
<path d="M89.7546 769.061L96.942 769.007C97.1199 772.709 97.2569 776.308 97.6652 779.995L95.9061 780.001C93.8893 776.144 91.9819 772.804 89.7546 769.061Z" fill="#FFFFFF"/>
<path d="M174.176 831.111C179.698 830.828 190.426 831.874 196.233 832.488C197.523 832.624 197.905 834.289 198.548 835.646C195.618 835.476 176.948 831.97 174.176 831.111Z" fill="#FFFFFF"/>
<path d="M95.9061 780.001L97.6652 779.995C98.2846 782.936 98.4911 785.541 98.7802 788.526C97.842 785.26 97.1544 783.155 95.9061 780.001Z" fill="#FFFFFF"/>
</svg>
