<svg xmlns="http://www.w3.org/2000/svg" width="1265" height="930" viewBox="0 0 1265 930"><g transform="translate(121.2 -33.5)"><path fill="#15120D" d="M467.601 209.087C474.149 208.662 481.642 209.03 488.075 210.575C489.874 211.007 492.469 212.952 494.01 213.042C504.24 213.644 514.741 214.158 524.945 214.807C543.751 216.045 562.526 217.718 581.254 219.827C588.859 220.676 621.112 225.92 625.1 225.321C628.972 222.38 632.116 223.211 636.712 224.003C644.595 225.362 650.53 225.123 656.446 231.189C671.71 233.897 686.87 237.162 701.896 240.977C707.259 242.332 715.203 244.162 720.03 246.357C733.776 252.608 741.612 270.906 746.529 284.454C751.022 285.569 756.407 286.669 760.928 287.477C777.358 290.413 781.586 290.964 786.965 307.475C807.224 312.383 827.422 317.54 847.555 322.944C858.048 325.667 868.9 328.208 879.318 331.212C884.557 332.723 886.37 336.776 888.642 341.51C899.656 344.329 913.64 348.827 923.961 353.614C928.425 355.685 933.181 359.882 934.546 364.844C935.519 368.522 934.934 372.438 932.93 375.672C926.65 385.732 899.366 390.896 887.457 393.826C886.878 394.872 886.272 395.903 885.639 396.917C884.184 399.206 881.319 402.142 878.756 402.968C868.527 406.264 856.332 408.458 845.781 410.706L782.932 424.231C778.81 432.438 775.543 439.26 765.684 441.109C757.88 442.572 749.75 443.823 741.883 444.778C727.476 477.818 717.846 475.617 685.452 482.055C685.477 487.937 685.242 494.12 685.101 500.024C718.583 504.679 735.709 512.993 765.47 528.919C781.139 537.266 796.645 545.916 811.979 554.864C822.085 560.801 834.578 569.149 845.098 574.082C847.124 575.033 859.975 575.84 862.963 576.088C875.616 577.153 888.257 578.354 900.884 579.692C915.43 581.259 931.023 579.924 934.314 597.259C938.303 618.27 938.75 638.715 939.313 659.951C939.416 663.835 951.995 666.398 952.863 671.611C957.292 686.824 951.605 720.258 934.605 725.955C924.309 729.406 852.864 742.866 846.516 740.091C844.371 736.536 844.595 720.817 843.589 715.248C839.089 690.346 827.918 671.453 804.554 659.999C787.236 651.614 767.277 650.531 749.154 656.992C715.22 668.86 702.171 699.692 701.589 733.134C701.532 736.439 701.693 743.587 700.369 746.316C696.307 747.406 669.606 746.995 664.23 746.995L580.25 746.979C553.761 746.977 332.425 747.974 328.562 746.176C327.282 745.58 326.438 744.299 326.14 742.961C325.279 739.09 325.861 733.813 325.746 729.725C325.404 717.508 323.62 704.947 319.034 693.549C311.902 675.826 298.556 662.035 280.971 654.576C263.654 647.232 243.241 647.408 225.854 654.45C196.561 666.316 182.791 695.074 181.088 725.254C180.844 729.568 181.717 742.181 179.952 745.616C179.606 746.288 179.081 746.353 178.402 746.537C171.702 748.352 113.92 744.449 103.521 742.624C99.0347 741.837 93.8137 740.619 89.9603 738.09C83.7883 734.041 78.5115 714.528 76.7571 707.332C67.1874 702.853 69.3899 690.1 70.811 681.3C71.7286 675.618 76.5088 672.499 81.196 669.902C84.6936 659.383 87.9158 647.869 94.9651 639.053C117.638 610.699 264.952 592.949 305.458 588.803C306.184 588.156 313.419 583.874 314.598 583.156C321.44 578.933 328.31 574.754 335.207 570.621C357.224 557.154 379.455 544.04 401.891 531.284C424.194 518.664 443.048 507.143 468.347 501.572C416.572 503.168 358.878 498.42 307.294 491.171C292.824 489.138 277.381 472.481 270.53 459.698C244.108 410.399 243.12 346.258 254.879 292.553C261.337 264.858 277.217 227.65 306.519 219.978C315.273 217.686 340.128 216.108 350.562 215.243C378.559 212.991 406.638 211.905 434.725 211.988C439.436 212.01 460.384 213.105 463.595 211.05C464.915 210.205 466.141 209.658 467.601 209.087Z"/><path fill="#FF5340" d="M435.355 216.238L439.35 216.228C492.858 276.427 493.067 400.566 453.044 467.257C446.644 477.921 439.489 487.426 432.009 497.31C421.61 496.608 409.942 496.588 399.279 496.012C379.173 494.895 359.109 493.118 339.12 490.685L327.44 489.336C388.721 458.592 388.129 270.989 337.413 225.91C335.78 224.459 333.398 222.836 331.558 221.583C341.609 219.982 360.117 218.815 370.156 218.264C391.868 217.029 413.608 216.354 435.355 216.238Z"/><path fill="#FF5340" d="M496.343 217.466C521.234 219.411 546.475 220.184 571.355 223.204C578.593 224.082 591.738 225.26 598.646 226.745C604.881 235.715 611.082 244.552 615.805 254.44C649.661 325.309 643.54 428.357 593.635 490.305C570.83 492.474 552.414 494.192 529.485 494.916C529.472 491.081 529.555 486.786 529.4 482.992C529.925 471.846 529.529 456.439 529.466 445.026C533.011 444.813 538.052 445.028 540.721 442.905C541.623 439.984 538.513 434.225 537.522 431.19C533.263 418.146 530.813 402.971 530.404 389.24C532.725 388.973 534.726 389.015 536.327 387.055C537.973 385.04 537.661 355.195 536.695 351.553C536.384 350.378 535.561 349.485 534.484 348.921C533.086 348.189 531.102 348.161 529.561 348.022C527.49 305.018 520.641 254.188 496.343 217.466Z"/><path fill="#FF5340" d="M316.585 222.691C318.275 222.525 319.925 222.382 321.609 222.678C331.632 224.435 339.4 233.571 344.717 241.595C372.784 283.952 374.149 365.509 364.447 414.113C359.884 436.975 350.146 469.33 329.72 482.742C322.784 487.295 315.939 488.624 307.799 486.988C236.978 465.517 236.681 275.177 291.614 232.997C299.774 226.731 306.515 223.899 316.585 222.691Z"/><path fill="#15120D" d="M300.749 244.608C355.256 238.649 361.99 450.083 306.637 466.21C252.471 470.967 244.829 262.838 300.749 244.608Z"/><path fill="#FF5340" d="M302.399 249.069C311.813 248.829 317.361 255.998 322.052 263.145C311.848 285.093 308.604 307.512 306.607 331.28C280.435 346.739 279.523 363.03 305.941 378.75C307.351 403.093 311.241 426.132 321.439 448.436C319.348 451.656 318.014 453.178 315.463 456.083C292.458 477.027 277.66 432.934 273.781 417.077C265.707 384.068 264.842 348.619 269.524 315.04C272.166 296.095 281.259 254.182 302.399 249.069Z"/><path fill="#FF5340" d="M337.302 322.958L338.038 322.855L338.681 323.399C341.629 340.301 340.608 370.694 338.889 387.693C327.299 383.849 318.288 380.824 307.538 374.639C299.705 369.818 292.609 364.589 290.364 355.462C294.788 337.909 322.19 328.424 337.302 322.958Z"/><path fill="#FF5340" d="M659.614 236.227C662.829 236.547 672.044 238.581 674.988 239.358C686.476 242.39 716.676 246.679 724.379 254.66C746.399 277.473 752.173 321.87 753.035 352.406C753.964 385.326 746.015 442.997 722.747 466.962C716.383 471.983 693.93 476.102 685.419 477.335L685.506 446.261C688.831 445.97 695.508 445.835 697.838 443.835C698.785 441.56 696.923 438.626 696.097 436.471C690.744 422.502 687.81 405.348 687.318 390.4C695.294 389.318 694.501 385.476 694.372 378.28C694.218 369.684 695.024 360.383 693.591 352.02C693.2 349.737 686.566 349.689 686.666 347.747C684.391 308.974 679.408 270.52 659.614 236.227Z"/><path fill="white" d="M539.003 514.723C547.762 514.48 556.522 514.324 565.283 514.256C562.766 531.271 560.128 548.268 557.37 565.246C555.792 575.257 554.332 586.232 552.317 596.099L422.823 600.085L414.463 600.223C418.371 596.656 419.049 592.995 419.119 587.827C419.302 574.25 413.527 574.173 402.267 574.214L402.507 566.896C431.692 547.291 464.557 523.265 500.083 518.12C507.04 517.112 508.274 520.247 514.493 519.531C517.079 519.233 522.274 518.51 524.726 517.768C531.408 515.747 531.852 514.546 539.003 514.723Z"/><path fill="white" d="M590.561 514.465C604.693 514.233 619.167 514.916 633.322 515.525C642.343 515.913 652.22 516.488 661.16 517.835C665.068 518.424 666.377 521.634 670.931 522.684C687.147 526.422 686.814 523.032 700.728 533.241C700.023 548.084 698.081 563.171 697.182 578.028C696.949 581.888 696.722 587.301 695.974 591.017L695.031 591.484C659.328 592.042 622.755 594.053 586.848 594.889C587.519 568.321 590.095 540.926 590.561 514.465Z"/><path fill="#FF5340" d="M788.499 312.207C795.699 314.507 804.566 316.464 812.004 318.382C825.323 321.923 838.667 325.366 852.037 328.712C856.438 329.822 878.049 335.19 879.902 336.712C890.746 345.612 888.993 382.362 882.334 393.545C878.266 400.377 868.321 401.3 862.392 402.496C846.621 405.953 830.827 409.305 815.011 412.552C805.245 414.614 794.786 417.117 785.01 418.82C797.468 384.38 797.223 347.424 788.499 312.207Z"/><path fill="#FF5340" d="M445.35 216.211C453.346 216.604 461.89 216.193 469.77 216.835C471.683 218.762 473.542 221.147 475.032 223.471C494.822 254.357 502.564 293.17 505.89 329.18C506.151 332.005 507.331 345.88 506.943 347.902C504.672 348.48 503.713 348.664 501.627 349.646C500.932 350.584 500.058 351.877 500.118 353.466C500.511 363.883 498.938 376.548 500.917 386.52C501.161 387.754 504.767 388.725 505.958 390.033C506.079 398.485 504.021 407.804 502.957 416.235C499.106 446.75 494.187 468.989 482.355 497.384L464.76 497.498L437.541 497.328C457.388 472.799 470.187 447.76 477.979 417.033C491.394 364.132 488.167 299.278 465.306 249.245C461.76 241.808 457.762 234.455 453.336 227.506C450.87 223.635 447.631 220.212 445.35 216.211Z"/><path fill="#FF5340" d="M604.398 227.325C611.847 228.143 623.925 229.819 631.161 231.345C636.558 237.343 642.195 248.567 645.37 255.948C658.243 285.869 662.44 316.958 664.249 349.313C662.205 349.263 658.109 349.349 657.826 351.896C657.136 358.131 656.147 383.214 658.301 388.042C659.787 389.583 660.82 389.674 662.95 390.344C660.284 423.878 652.66 453.024 641.038 484.321C636.551 485.103 631.779 485.704 627.25 486.349C618.034 487.488 608.811 488.568 599.582 489.588C653.079 420.661 656.075 297.785 604.398 227.325Z"/><path fill="#FF5340" d="M748.02 289.318C754.354 290.969 774.473 293.982 777.13 297.287C785.995 308.312 789.273 338.31 790.156 351.843C791.618 374.258 786.195 417.9 771.402 434.202C766.422 437.256 750.042 439.094 743.658 440.011C759.487 395.446 762.781 334.362 748.02 289.318Z"/><path fill="white" d="M576.609 509.156C577.276 509.275 578.985 509.505 579.162 509.946C580.842 514.109 577.793 537.089 577.488 540.759C573.606 587.469 566.414 633.55 568.577 680.525C569.295 696.124 571.439 710.064 573.206 725.418L684.564 725.494C685.685 714.576 686.304 707.833 689.304 697.054C694.964 675.434 709.582 658.356 728.575 647.046C737.89 641.499 749.018 639.623 752.459 627.574C754.42 620.711 755.289 613.991 755.48 606.812C755.565 603.59 755.079 598 755.937 595.042C757.454 594.187 756.672 594.373 758.347 594.377C762.443 598.048 758.672 619.415 757.807 624.302C755.573 638.465 746.844 643.013 735.314 648.613C704.824 663.422 690.313 692.613 689.099 725.511C688.979 728.758 686.023 729.731 683.2 729.768C667.683 729.971 652.139 729.873 636.614 729.87L542.25 729.863L412.343 729.854C403.847 729.853 364.864 730.513 358.91 728.963C353.462 723.18 349.37 695.198 348.303 686.418C345.586 664.06 345.393 639.956 350.059 617.854C350.746 614.603 351.707 609.271 353.728 606.566C354.517 605.51 354.716 605.727 355.879 605.591C356.311 605.911 356.742 606.23 357.174 606.549C356.74 610.82 353.82 620.564 353.186 624.271C348.375 652.409 351.135 698.982 361.303 725.279C367.687 725.756 377.754 725.417 384.495 725.416L429.594 725.405L568.991 725.42C565.921 706.82 564.197 688.022 563.834 669.173C563.151 628.781 569.132 586.988 572.542 546.725C573.06 540.61 575.085 512.724 576.609 509.156Z"/><path fill="#FF5340" d="M472.756 213.481C476.742 213.483 487.642 213.91 489.969 216.896C518.182 253.106 523.295 313.529 525.563 355.528L511.974 355.432C511.516 351.792 511.41 346.095 511.166 342.2C510.668 334.032 509.981 325.878 509.104 317.742C505.719 287.518 494.162 236.056 472.756 213.481Z"/><path fill="#FF5340" d="M634.852 228.37C639.79 229.077 648.083 229.612 651.444 232.96C655.819 237.318 659.289 244.378 661.845 249.918C676.804 282.342 681.684 321.581 682.569 356.94L668.92 356.543C666.499 314.617 661.279 263.141 634.852 228.37Z"/><path fill="white" d="M442.12 514.88C443.788 515.018 448.964 516.84 450.863 517.455C441.038 522.812 430.439 529.678 420.936 535.749C403.518 546.838 386.355 558.322 369.458 570.191L348.822 584.83C343.938 588.316 338.34 592.598 333.01 595.186L322.666 593.239L311.122 590.582C355.119 564.377 396.307 538.415 442.12 514.88Z"/><path fill="white" d="M707.534 538.278C716.09 544.679 755.463 579.571 753.615 589.005C752.408 590.212 752.408 589.803 750.125 589.949C734.817 590.113 718.771 590.734 703.423 591.143C704.33 575.699 705.71 553.067 707.534 538.278Z"/><path fill="white" d="M796.219 601.101C802.698 600.809 816.224 600.314 821.831 602.182C829.904 604.872 829.276 622.77 826.373 629.031C824.821 632.379 822.925 633.312 819.553 634.479C813.845 634.779 797.205 635.74 791.983 633.063C786.054 630.022 786.352 618.687 786.918 612.811C787.51 606.666 789.626 602.545 796.219 601.101Z"/><path fill="#15120D" d="M795.782 605.576C802.793 605.559 811.224 604.807 817.943 605.5C825.212 606.251 824.035 621.798 822.866 626.519C822.437 628.249 820.343 629.323 818.864 629.983C812.367 630.201 805.987 630.496 799.272 630.577C789.132 630.699 791.519 617.743 791.588 611.182C791.617 608.453 793.568 606.915 795.782 605.576Z"/><path fill="#FF5340" d="M511.983 515.275C512.015 484.484 511.339 451.597 512.27 421.091C513.756 427.316 516.524 439.203 519.534 444.418L520.295 443.46C521.658 445.435 523.033 445.354 525.348 445.59C527.953 448.328 525.092 457.204 526.479 460.83L527.264 461.139L528.25 460.657C528.948 456.959 527.35 446.901 529.069 444.822L529.466 445.026C529.529 456.439 529.925 471.846 529.4 482.992C529.307 484.364 529.305 486.875 528.786 487.999C528.591 484.905 528.369 481.918 528.388 478.815C527.292 478.784 527.749 478.812 526.545 479.514C525.781 481.506 526.285 491.082 525.101 496.133L525.087 513.492C520.868 514.181 516.25 514.705 511.983 515.275Z"/><path fill="#15120D" d="M519.534 444.418L520.295 443.46C521.658 445.435 523.033 445.354 525.348 445.59C527.953 448.328 525.092 457.204 526.479 460.83L527.264 461.139L528.25 460.657C528.948 456.959 527.35 446.901 529.069 444.822L529.466 445.026C529.529 456.439 529.925 471.846 529.4 482.992C529.307 484.364 529.305 486.875 528.786 487.999C528.591 484.905 528.369 481.918 528.388 478.815C527.292 478.784 527.749 478.812 526.545 479.514C525.781 481.506 526.285 491.082 525.101 496.133C525.017 490.341 525.537 447.825 524.254 446.069C521.64 446.046 521.162 446.484 519.534 444.418Z"/><path fill="white" d="M733.311 518.345C741.894 520.514 830.616 568.918 838.101 576.231L837.824 576.871L835.891 577.444C829.719 578.905 824.176 580.195 818.229 577.176C810.43 573.217 803.301 568.465 795.904 563.834L762.677 542.939C757.089 539.41 734.822 525.983 731.248 522.295C731.477 520.231 731.894 520.313 733.311 518.345Z"/><path fill="#FF5340" d="M890.08 346.513C899.315 348.919 926.134 356.254 929.889 365.291C930.849 367.615 930.782 370.237 929.704 372.509C927.722 376.648 922.641 378.73 918.628 380.288C911.401 383.336 896.837 386.905 889.084 388.789C892.913 371.604 893.218 363.953 890.08 346.513Z"/><path fill="#FF5340" d="M668.722 422.427C669.958 423.963 674.116 442.82 676.411 445.393C677.045 446.103 679.559 446.895 680.798 447.649C681.614 457.539 680.991 474.578 681.004 485.105C681.015 494.069 681.568 512.101 680.836 520.429C677.319 519.68 672.43 518.121 668.874 517.1C668.543 485.544 668.493 453.985 668.722 422.427Z"/><path fill="white" d="M930.86 608.729L931.096 608.843C933.07 611.857 934.474 641.809 934.531 646.821L910.875 646.592C909.68 646.556 909.521 646.452 908.335 646.184C907.731 645.586 907.108 645.226 907.089 644.461C906.89 636.816 910.844 621.104 915.025 614.85C918.05 610.325 926.337 609.386 930.86 608.729Z"/><path fill="white" d="M130.559 640.844C136.78 640.789 150.781 640.085 156.047 642.535C162.677 645.619 150.078 662.407 147.332 665.854C146.662 666.498 145.663 667.322 144.751 667.396C137.307 668.006 127.918 667.596 120.551 667.496C122.92 657.333 126.316 650.261 130.559 640.844Z"/><path fill="#FF5340" d="M512.903 388.991L525.922 389.126C526.19 401.893 528.362 413.11 531.239 425.441C531.968 428.568 536.054 438.809 535.64 440.268C531.403 440.573 527.176 441.008 522.965 441.572C516.544 424.773 513.138 406.973 512.903 388.991Z"/><path fill="#FF5340" d="M669.621 390.18C673.971 390.125 678.32 390.158 682.668 390.276C683.755 402.947 684.83 414.589 688.293 426.962C689.526 431.369 691.339 436.081 692.766 440.517L692.322 441.256C688.065 441.395 683.952 441.881 679.724 442.331C673.372 426.775 670.54 406.919 669.621 390.18Z"/><path fill="#FF5340" d="M663.933 418.745C665.244 428.122 664.551 459.804 663.591 469.875C663.14 474.605 655.643 491.662 653.309 497.053C649.494 496.89 645.454 496.549 641.625 496.293L640.778 495.682C641.302 493.213 644.161 487.936 645.349 484.99C648.407 477.49 651.153 469.866 653.581 462.139C656.322 453.105 658.681 443.96 660.653 434.728C661.647 430.014 662.609 423.06 663.933 418.745Z"/><path fill="#FF5340" d="M507.186 420.866C508.425 429.235 508.631 470.545 507.038 478.063C505.673 484.503 502.581 490.971 500.522 497.26C496.462 497.466 491.454 498.185 487.346 498.664L487.288 498.641C486.731 497.504 491.629 486.677 492.334 484.485C496.023 473.02 499.549 461.727 501.926 449.903C503.828 440.44 504.809 430.654 507.08 421.291L507.186 420.866Z"/><path fill="white" d="M518.915 613.553C526.769 613.361 539.864 612.417 547.081 613.961C553.991 615.439 555.513 625.004 546.611 628.382C538.678 628.541 526.533 629.281 519.09 628.081C511.712 626.89 510.638 617.593 518.915 613.553Z"/><path fill="#15120D" d="M520.994 617.73C526.999 617.681 544.025 616.377 547.918 619.293C548.744 621.076 548.614 620.161 548.258 622.144C546.911 623.809 547.729 623.143 545.55 623.998C539.551 623.971 521.327 625.336 517.765 622.214C517.204 620.425 517.238 621.324 517.808 619.42C519.002 618.086 519.268 618.19 520.994 617.73Z"/><path fill="white" d="M707.93 607.246C717.081 607.06 743.261 603.157 739.604 617.2C738.757 620.45 736.039 621.582 733.099 622.105C725.193 622.189 698.756 625.581 700.352 614.039C700.985 609.462 703.703 607.797 707.93 607.246Z"/><path fill="#15120D" d="M706.457 611.618C712.405 611.566 730.331 610.642 734.599 612.716C736.494 615.04 735.604 616.151 733.375 617.752C728.587 617.835 723.624 618.041 718.854 617.979C714.837 617.928 705.967 619.239 704.613 614.684C704.913 613.058 705.331 612.814 706.457 611.618Z"/><path fill="white" d="M120.982 642.178C122.323 641.949 122.594 641.985 123.971 642.026L124.495 642.651C120.635 651.945 118.328 657.7 115.727 667.42L98.625 667.038C96.4367 667.075 95.6165 667.068 93.4625 666.786L93.0241 665.654C93.741 660.723 97.0093 655.819 99.6525 651.692C104.642 643.901 112.033 643.496 120.982 642.178Z"/><path fill="white" d="M933.363 661.28C934.655 662.098 935.567 664.058 936.451 665.499C899.772 666.581 861.416 668.071 824.848 668.498C823.66 667.645 822.619 666.862 822.337 665.442L822.954 664.653C826.234 663.525 853.765 663.378 858.879 663.246L933.363 661.28Z"/><path fill="white" d="M85.8534 671.552C114.576 672.309 162.036 672.216 192.577 672.621C192.896 672.852 193.216 673.083 193.535 673.315L193.272 674.502C192.096 675.815 192.022 676.068 190.431 676.888C163.572 676.877 136.713 676.684 109.857 676.308C100.936 676.116 89.5946 676.39 80.9593 675.72C82.5751 674.415 84.2617 672.912 85.8534 671.552Z"/><path fill="white" d="M397.708 567.934C398.287 569.888 397.846 572.244 397.616 574.291C382.669 574.879 374.975 589.592 385.815 601.058C379.195 601.727 370.464 601.503 363.387 601.904C361.295 601.979 358.943 601.864 356.83 601.81C363.444 591.686 387.555 574.833 397.708 567.934Z"/><path fill="white" d="M81.4194 706.922C86.313 707.04 96.3902 706.573 100.356 709.217C104.86 712.221 105.093 718.704 102.024 723.11C97.246 725.303 92.5914 725.366 87.4403 725.563C85.0526 719.479 83.0419 713.254 81.4194 706.922Z"/><path fill="#FF5340" d="M530.058 352.13L532.268 352.962C533.766 355.131 532.91 380.484 532.789 384.682C523.442 384.53 514.016 384.787 504.6 384.645C504.367 376.514 504.488 367.783 504.469 359.625C504.334 357.557 504.037 355.765 504.599 353.799C505.84 352.78 505.128 353.037 506.857 353.153C508.967 356.368 507.078 374.023 508.414 378.784C509.601 383.012 527.134 381.744 529.278 380.48C530.883 376.742 529.666 358.498 530.019 352.7L530.058 352.13Z"/><path fill="#FF5340" d="M663.156 353.358L663.897 353.824C666.468 357.967 662.459 377.908 666.474 381.796C667.446 382.737 683.48 382.67 684.939 382.015C690.143 379.679 684.45 355.652 688.074 353.701L689.134 354.081C690.33 355.737 689.933 355.39 689.984 357.875L689.952 385.677C680.856 385.993 670.723 385.679 661.551 385.579C661.476 375.934 661.258 365.371 661.555 355.679C661.601 354.169 662.028 354.236 663.156 353.358Z"/><path fill="white" d="M604.481 493.66C615.715 492.31 627.476 490.524 638.543 489.269C637.627 491.215 636.217 493.988 635.533 495.945C625.788 495.536 616.039 495.22 606.288 494.997L604.481 493.66Z"/><path fill="#FF5340" d="M512.161 368.986L525.75 369.03L525.834 376.845L512.421 376.962L512.161 368.986Z"/><path fill="#FF5340" d="M670.565 370.247C674.648 370.233 678.732 370.263 682.815 370.336C682.828 372.233 683.114 376.438 682.351 377.902L669.469 377.821C669.363 375.687 669.012 372.584 669.593 370.642L670.565 370.247Z"/><path fill="#FF5340" d="M668.937 361.008C673.582 361.108 677.61 360.109 681.614 361.583C683.021 363.247 682.537 363.056 682.599 365.873C677.851 365.661 673.213 366.803 669.647 365.177C668.565 363.491 668.96 363.413 668.937 361.008Z"/><path fill="#FF5340" d="M512.057 359.918C516.698 359.969 521.227 358.79 524.913 360.552C525.987 362.309 525.579 362.375 525.548 364.847C520.92 364.585 516.917 365.486 513.014 364.114C511.625 362.544 512.109 362.685 512.057 359.918Z"/><path fill="white" d="M663.582 485.306C664.857 487.188 664.617 495.314 664.207 497.593C662.641 498.027 661.187 497.614 659.492 497.376L658.795 497.162C658.732 495.248 662.347 487.068 663.582 485.306Z"/><path fill="#ffffff" d="M606.288 494.997C603.209 495.064 601.256 495.196 598.18 494.657L598.517 494.679L598.852 494.065L604.481 493.66L606.288 494.997Z"/><path fill="#15120D" d="M751.042 784.913C735.365 777.872 724.255 769.164 716.31 753.539C708.564 738.032 707.321 720.076 712.857 703.65C718.39 687.607 730.012 674.384 745.212 666.837C760.502 659.296 778.742 658.512 794.809 664.03C810.883 669.648 824.049 681.449 831.385 696.815C845.634 726.696 834.711 763.149 806.019 779.747C802.609 781.719 799.147 783.333 795.587 785.003L931.616 784.984L968.372 784.98C972.673 784.975 984.178 783.582 986.531 786.944L986.326 788.041C984.776 789.304 985.3 788.914 983.11 789.3L323.001 789.31L127.273 789.304L65.4835 789.272C60.6545 789.258 39.1944 790.467 36.9354 787.626L37.1786 786.726C38.21 785.828 39.5565 784.848 40.9508 784.867C46.4227 784.944 52.1261 784.969 57.5809 784.969L97.4697 784.965L230.402 784.879C223.975 781.904 219.674 779.774 214.028 775.39C200.687 765.152 191.979 750.018 189.832 733.34C185.257 695.817 209.682 664.996 247.18 660.691C254.751 659.561 266.1 661.34 273.33 663.702C289.497 669.068 302.839 680.689 310.372 695.968C317.993 711.183 319.235 728.808 313.823 744.942C306.881 765.428 294.271 775.878 275.622 784.966L751.042 784.913Z"/><path fill="white" d="M769.242 685.391C790.834 683.052 810.237 698.654 812.586 720.245C814.934 741.837 799.34 761.246 777.75 763.604C756.147 765.963 736.723 750.357 734.373 728.753C732.023 707.149 747.637 687.732 769.242 685.391Z"/><path fill="#15120D" d="M769.207 691.274C787.494 688.923 804.251 701.768 806.729 720.038C809.207 738.307 796.478 755.153 778.226 757.757C759.795 760.388 742.747 747.506 740.244 729.056C737.742 710.607 750.741 693.649 769.207 691.274Z"/><path fill="white" d="M769.354 695.885C785.158 693.6 799.827 704.546 802.134 720.347C804.441 736.148 793.515 750.832 777.717 753.161C761.889 755.495 747.169 744.543 744.857 728.711C742.546 712.879 753.518 698.175 769.354 695.885Z"/><path fill="#15120D" d="M769.457 710.858C774.397 709.395 779.742 710.703 783.449 714.281C787.156 717.859 788.652 723.154 787.365 728.143C786.078 733.132 782.208 737.043 777.232 738.381C769.673 740.415 761.883 735.992 759.755 728.459C757.626 720.925 761.951 713.081 769.457 710.858Z"/><path fill="white" d="M773.078 714.922C778.381 714.656 782.907 718.711 783.225 724.011C783.543 729.31 779.533 733.876 774.237 734.247C768.867 734.622 764.222 730.543 763.899 725.169C763.577 719.795 767.701 715.191 773.078 714.922Z"/><path fill="white" d="M248.677 685.417C270.303 682.969 289.801 698.558 292.174 720.192C294.547 741.826 278.892 761.27 257.25 763.569C235.713 765.856 216.383 750.293 214.022 728.764C211.66 707.236 227.157 687.852 248.677 685.417Z"/><path fill="#15120D" d="M248.883 691.265C267.388 688.909 284.262 702.097 286.446 720.623C288.631 739.149 275.287 755.901 256.741 757.914C238.437 759.9 221.951 746.767 219.795 728.482C217.639 710.197 230.618 693.59 248.883 691.265Z"/><path fill="white" d="M248.595 695.979C264.333 693.466 279.141 704.148 281.722 719.874C284.302 735.601 273.684 750.455 257.969 753.103C242.158 755.767 227.194 745.07 224.598 729.248C222.001 713.426 232.762 698.508 248.595 695.979Z"/><path fill="#15120D" d="M249.373 710.842C257.012 708.794 264.863 713.333 266.9 720.975C268.937 728.617 264.387 736.462 256.742 738.488C249.112 740.51 241.287 735.971 239.254 728.344C237.221 720.717 241.749 712.885 249.373 710.842Z"/><path fill="white" d="M250.106 715.343C253.446 714.29 257.095 715.114 259.658 717.501C262.22 719.888 263.301 723.47 262.487 726.876C261.673 730.283 259.09 732.988 255.724 733.958C250.61 735.433 245.26 732.521 243.722 727.426C242.184 722.33 245.029 716.944 250.106 715.343Z"/></g></svg>
