<?xml version="1.0" encoding="utf-8" ?><svg xmlns="http://www.w3.org/2000/svg" xmlns:xlink="http://www.w3.org/1999/xlink" width="1344" height="768" viewBox="0 0 1344 768"><path fill="#15120D" d="M793.207 26.5214C800.176 25.4909 807.914 27.2551 814.393 30.0637C841.838 41.9599 852.649 72.509 840.033 99.4404C821.15 139.749 786.34 151.538 747.622 166.444C774.085 226.357 836.49 228.992 893.661 228.517C899.316 228.47 911.492 229.333 916.084 227.311C911.81 222.955 883.967 210.642 878.254 205.078C875.473 199.125 884.759 187.895 889.819 185.857C897.113 186.907 953.146 218.391 964.051 223.559C969.695 226.232 970.995 231.312 972.377 236.955C972.22 237.586 972.055 238.215 971.882 238.842C969.499 247.452 966.584 249.068 959.231 253.149C950.828 257.813 942.35 262.318 933.89 266.875L872.314 300.845C865.264 301.09 862.423 289.367 861.256 283.912C863.543 276.434 896.403 260.651 904.967 253.534C897.91 252.391 884.015 253.197 876.141 252.986C850.974 252.314 828.243 251.455 803.819 244.286C775.239 235.897 752.769 220.373 736.148 195.488C731.482 188.502 728.316 180.878 724.336 173.503C701.489 178.884 648.681 194.102 629.301 203.581C629.883 205.767 630.641 207.88 631.364 210.043C640.855 238.413 642.664 276.874 621.323 300.535C604.176 319.545 579.15 318.958 560.723 302.081C533.938 275.029 547.995 232.757 573.188 210.816C578.429 206.252 586.477 201.273 590.685 196.175C582.177 189.878 571.506 187.349 561.033 187.198C510.796 186.477 487.618 242.353 447.877 263.574C431.989 272.057 414.127 276.96 396.348 279.299C386.122 280.586 376.281 280.939 366.21 283.612C374.304 285.874 383.104 286.461 390.581 288.965C395.84 307.75 392.831 313.865 373.005 310.29C353.443 306.763 332.547 305.904 312.733 304.044C305.436 303.358 299.811 302.351 297.583 294.288C296.265 289.4 295.483 284.928 298.657 280.557C305.611 268.98 315.912 259.68 324.337 249.171C329.185 243.385 352.466 213.983 356.838 212.756C361.124 212.997 371.814 220.686 371.517 224.518C370.687 235.23 354.201 251.932 347.699 260.697C356.297 260.427 365.546 258.589 373.944 257.509C406.6 253.314 429.736 251.062 454.851 227.879C481.967 202.848 505.302 173 543.378 164.915C562.605 160.833 580.232 164.523 597.991 172.901C601.627 174.584 610.111 180.856 614.366 183.525C633.138 175.615 643.188 171.194 663.385 165.579C680.39 160.852 703.062 155.606 718.858 149.31C718.326 146.631 717.921 143.928 717.645 141.211C712.93 94.0761 741.476 31.795 793.207 26.5214ZM742.428 142.806C749.058 140.943 758.221 137.097 764.694 134.214C786.606 124.321 807.36 113.59 817.564 90.2527C827.089 68.468 812.457 48.5498 788.932 51.3069C771.829 56.1277 760.597 71.9131 751.372 86.3717C742.987 99.5141 738.755 127.888 742.428 142.806ZM582.039 288.31C596.234 293.376 606.273 284.971 610.799 271.531C616.242 255.368 615.261 235.345 608.795 219.642C608.066 217.887 607.204 216.885 605.347 216.438C591.042 227.5 573.013 242.705 570.303 261.83C568.807 272.391 572.771 282.569 582.039 288.31Z"/><path fill="#15120D" d="M400.872 14.4728C406.089 15.1789 416.166 19.507 421.436 21.5473C432.413 25.8426 443.417 30.0712 454.445 34.2328C467.866 39.1901 484.099 43.4804 496.769 49.4812C511.845 56.6211 502.84 71.224 494.079 78.6991C473.854 96.8832 455.248 114.047 438.783 136.114C429.737 148.238 423.252 144.75 415.39 131.554C413.515 128.407 421.764 117.943 424.222 114.398L441.152 90.0585C406.739 93.2134 385.848 94.3858 350.75 85.4643C316.847 76.8467 281.632 58.4941 246.55 58.3971C217.384 58.3165 187.824 73.3166 167.587 93.7832C149.255 112.323 129.891 146.811 130.039 173.332C133.551 170.704 137.093 168.118 140.664 165.572C165.835 147.906 195.706 135.481 226.98 140.655C257.301 145.672 281.08 170.222 274.68 202.432C271.038 220.759 255.723 236.697 240.734 246.933C206.96 269.115 158.476 271.045 129.929 239.15C124.397 232.969 120.956 227.709 116.537 220.853C95.0539 250.879 86.9172 283.27 94.1399 319.225C95.8445 327.711 96.8504 335.798 99.7995 344.171C107.396 365.739 117.262 386.53 117.601 409.789C117.203 439.146 107.887 458.675 89.9743 481.696C85.8209 487.034 77.6806 495.44 74.6519 500.921L74.3122 501.549C83.4689 501.215 101.205 496.069 107.808 499.703C109.959 500.88 111.499 502.927 112.032 505.32C113.94 513.91 114.228 520.705 103.765 522.303C80.8602 525.8 58.157 529.87 35.3565 534.078C26.8698 536.117 10.1595 537.815 8.9099 525.327C7.93873 515.621 17.592 495.939 21.7007 486.501C28.2308 471.5 35.0688 447.074 43.95 434.31C49.0504 431.743 65.2994 440.323 63.8399 446.458C60.6703 459.78 52.314 470.138 49.3828 484.001C58.5925 477.443 63.3897 472.244 70.5962 464.304C105.678 425.652 91.5894 393.953 77.0835 350.11C73.1701 338.281 68.4742 311.938 67.5468 298.963C64.7541 259.893 81.7561 224.268 107.282 195.392C106.711 188.932 105.656 181.001 105.729 174.676C105.998 151.364 113.18 129.509 125.431 109.742C143.487 80.606 160.156 63.317 190.762 48.2865C235.329 26.3998 266.738 33.707 311.884 47.4946C326.468 51.9486 340.137 57.4196 355.184 61.1334C387.436 69.1977 421.164 69.3051 453.467 61.4461C443.657 57.9744 395.11 36.8718 390.595 30.8029C389.977 29.973 389.818 29.1889 390.04 28.2011C391.071 23.6178 397.018 17.0655 400.872 14.4728ZM134.528 201.326C142.313 222.45 160.563 237.214 183.368 238.456C190.424 238.784 197.083 238.724 204.042 237.122C223.01 232.753 250.471 214.103 251.63 192.887C251.938 186.587 249.666 180.433 245.339 175.843C235.888 165.631 217.921 162.22 204.51 163.585C177.851 168.65 153.409 181.832 134.528 201.326Z"/><path fill="#15120D" d="M526.503 559.526C574.478 557.351 612.898 602.776 613 648.931C613.031 663.26 610.62 672.332 605.704 685.684C634.789 690.374 659.087 687.66 686.419 677.589C694.31 675.535 709.411 664.878 716.967 665.091C721.646 665.684 726.291 670.249 727.092 674.706C729.087 686.199 716.003 690.644 707.838 694.373C680.392 706.907 650.591 715.411 620.188 711.841C612.119 710.893 603.16 708.755 595.03 707.376C576.415 735.343 538.928 753.515 505.911 755.634C444.508 759.742 394.951 717.089 335.916 709.423C310.687 706.146 278.461 715.527 256.53 728.052C269.99 731.072 286.567 729.395 300.219 732.682C301.935 733.095 303.116 734.667 304.156 736.018C305.19 743.275 306.526 750.27 300.218 755.462C296.558 755.891 292.868 756.017 289.187 755.838C268.908 755.013 246.895 752.286 226.321 751.582C218.65 750.615 209.222 752.192 201.821 750.659C194.838 749.213 192.731 740.191 194.565 734.456C195.348 732.046 196.549 729.793 198.111 727.799C202.325 722.506 256.201 664.056 256.899 663.766C258.675 663.025 261.345 663.907 262.941 664.774C266.659 666.796 271.948 670.392 273.08 674.763C275.408 683.749 260.626 693.633 256.421 700.861C277.477 693.581 293.28 686.498 316.353 684.776C393.689 679.005 465.726 759.687 542.993 720.739C555.625 714.371 560.213 712.708 569.393 701.246C563.838 698.888 557.43 697.298 551.762 695.11C533.161 688.144 518.621 680.123 502.884 667.97C476.066 647.26 461.401 608.545 484.602 579.466C494.499 567.061 510.666 560.974 526.503 559.526ZM562.18 673.512C568.883 675.79 575.633 677.929 582.426 679.926C589.349 664.902 589.744 653.565 588.013 637.208C585.362 612.164 554.906 581.268 529.209 583.071C512.986 585.416 493.08 596.918 496.441 615.862C501.693 645.47 535.996 665.208 562.18 673.512Z"/><path fill="#15120D" d="M881.191 459.055C882.172 458.986 883.155 458.928 884.139 458.95C888.326 459.046 892.605 461.208 895.411 464.263C898.641 467.779 900.427 472.884 900.156 477.645C899.342 491.95 876.039 576.136 866.089 584.074C864.834 585.075 863.112 585.554 861.522 585.321C858.399 584.864 850.543 581.039 848.849 578.431C847.536 576.409 847.736 573.847 848.022 571.558C848.737 565.854 850.729 560.015 852.318 554.491C856.163 541.121 860.729 527.898 863.994 514.373C855.739 520.23 847.142 529.138 839.851 536.252C813.198 562.258 782.722 579.153 744.974 581.901C730.952 582.922 719.816 580.551 706.229 577.363C667.303 568.231 640.806 543.113 613.717 515.802C608.656 510.701 596.963 502.359 590.315 499.217C566.644 488.028 537.66 489.875 514.233 500.831C498.953 507.991 473.983 521.565 457.821 522.479C423.066 523.649 408.841 502.621 372.863 519.733C331.014 539.637 309.424 579.55 270.032 601.729C253.273 611.165 228.893 615.731 209.97 617.722C200.358 618.734 189.51 618.247 179.769 619.028C148.757 619.883 122.202 634.174 101.717 657.172C108.126 658.424 115.703 658.324 122.595 658.715C134.915 659.421 140.295 657.163 141.689 672.044C142.102 676.472 139.47 683.091 134.237 682.972C110.396 682.43 86.806 683.191 62.9945 684.016C60.4423 684.366 57.8261 684.792 55.2618 684.34C51.303 683.642 47.406 681.108 45.1775 677.765C42.7545 674.13 42.074 669.4 42.9659 665.151C45.0561 655.193 78.317 594.281 86.0563 589.746C87.9688 588.626 90.0081 588.43 92.0945 589.191C95.4139 590.402 102.692 595.635 104.174 598.855C104.855 600.335 104.991 601.017 104.596 602.608C103.095 608.649 92.4333 623.596 89.264 631.895C105.507 621.758 114.018 613.466 133.597 605.108C146.98 599.351 161.198 595.775 175.711 594.515C201.209 592.395 220.874 596.153 246.391 585.612C289.398 567.846 312.332 525.662 352.542 503.073C379.034 488.191 402.718 485.141 431.86 493.821C440.267 496.134 451.747 498.844 460.095 497.006C488.089 490.843 506.145 474.492 535.525 469.326C571.32 463.033 602.623 472.465 629.441 497.123C643.577 510.12 655.21 523.727 671.31 534.625C695.861 551.242 725.688 562.147 755.479 556.482C784.537 550.956 805.394 535.695 826.246 515.732C833.85 508.451 840.239 503.681 846.379 494.731C831.397 496.291 817.695 502.704 803.121 505.811C800.578 506.353 796.622 507.302 794.372 505.617C791.221 503.258 789.006 495.684 788.466 491.92C788.202 490.072 788.21 487.828 789.45 486.328C795.109 479.486 868.399 460.89 881.191 459.055Z"/><path fill="#FF5340" d="M1236.73 328.747C1239.91 329.24 1266.64 345.282 1271.35 347.912L1307.35 367.797C1318.22 373.843 1338.76 381.737 1330.83 397.484C1324.26 410.546 1300.35 419.927 1289.37 430.665C1283.33 436.563 1274.94 442.291 1268.63 448.007C1263.89 452.293 1253.93 461.656 1248.63 463.822C1243.26 464.085 1232.1 456.244 1231.53 451.104C1231.76 449.625 1232.38 447.939 1233.45 446.853C1247.61 432.552 1262.46 418.888 1276.33 404.303C1213.22 408.981 1150.01 406.895 1086.91 403.193C1055.75 401.365 1024.97 398.384 993.728 397.688C969.469 397.148 945.791 398.087 921.619 398.267L764.629 399.514C666.095 400.206 563.646 398.869 465.441 406.046C423.905 407.954 382.394 410.249 340.891 412.633C335.148 412.578 327.573 414.014 323.181 409.244C317.366 402.93 322.058 395.816 326.814 391.112C335.093 389.74 346.752 389.058 355.383 388.379C379.544 386.054 403.828 385.782 428.021 384.022C492.664 379.319 556.505 377.958 621.271 377.43C667.018 376.725 712.769 376.455 758.521 376.623C810.485 376.523 862.447 375.89 914.399 374.724C925.637 374.543 937.026 374.188 948.251 374.204C966.58 374.443 985.734 372.927 1004.01 373.963C1079.63 378.252 1154.89 383.744 1230.71 380.359C1245.29 379.707 1260.32 380.427 1274.87 379.375C1261.58 367.038 1238.67 360.496 1225.57 348.064C1218.43 341.298 1231.84 331.558 1236.73 328.747Z"/></svg>