<svg width="1190" height="700" viewBox="0 0 1190 700" fill="none" xmlns="http://www.w3.org/2000/svg">
<path d="M109.265 60.6705C142.766 59.5945 176.805 59.8035 210.286 61.3705C244.231 62.9595 278.224 65.8545 312.214 66.2165C352.664 66.6485 393.293 66.8265 433.739 66.2415C444.385 66.0885 481.99 63.1145 489.557 64.9775C491.518 65.4605 493.204 66.8995 494.179 68.6595C498.171 75.8725 491.475 169.011 491.11 185.18C490.512 211.652 490.935 238.223 490.934 264.705C490.933 288.52 490.442 312.464 491.217 336.262C492.131 364.336 495.148 392.352 495.417 420.452C495.745 454.862 491.6 490.122 491.543 524.827C491.519 539.389 493.026 615.938 490.282 624.082C484.976 628.882 454.276 627.063 445.894 626.984L386.288 626.865L203.671 627.024C164.759 626.765 125.846 626.941 86.9381 627.551C66.6511 628.052 46.6021 630.09 26.3751 631.303C16.4671 631.897 4.53607 631.601 4.41707 618.572C4.23207 598.344 4.18807 578.044 4.14507 557.783L4.19806 427.537C4.27206 405.802 3.89606 384.069 3.06906 362.35C2.47006 346.088 1.39807 329.828 1.14707 313.556C0.764067 288.658 3.27107 263.886 3.22107 239.043C3.16007 208.549 0.619069 178.079 0.0610685 147.595C-0.102931 138.666 -0.222926 68.4135 3.73207 64.7205C5.38907 63.1725 9.35206 62.7355 11.5261 62.5115C21.3621 61.4995 31.9481 62.1365 41.8671 61.9215C64.3301 61.3385 86.7961 60.9205 109.265 60.6705Z" fill="#15120D"/>
<path d="M756.265 60.6705C789.766 59.5945 823.805 59.8035 857.286 61.3705C891.231 62.9595 925.224 65.8545 959.214 66.2165C999.664 66.6485 1040.29 66.8265 1080.74 66.2415C1091.39 66.0885 1128.99 63.1145 1136.56 64.9775C1138.52 65.4605 1140.2 66.8995 1141.18 68.6595C1145.17 75.8725 1138.48 169.011 1138.11 185.18C1137.51 211.652 1137.94 238.223 1137.93 264.705C1137.93 288.52 1137.44 312.464 1138.22 336.262C1139.13 364.336 1142.15 392.352 1142.42 420.452C1142.75 454.862 1138.6 490.122 1138.54 524.827C1138.52 539.389 1140.03 615.938 1137.28 624.082C1131.98 628.882 1101.28 627.063 1092.89 626.984L1033.29 626.865L850.671 627.024C811.759 626.765 772.846 626.941 733.938 627.551C713.651 628.052 693.602 630.09 673.375 631.303C663.467 631.897 651.536 631.601 651.417 618.572C651.232 598.344 651.188 578.044 651.145 557.783L651.198 427.537C651.272 405.802 650.896 384.069 650.069 362.35C649.47 346.088 648.398 329.828 648.147 313.556C647.764 288.658 650.271 263.886 650.221 239.043C650.16 208.549 647.619 178.079 647.061 147.595C646.897 138.666 646.777 68.4135 650.732 64.7205C652.389 63.1725 656.352 62.7355 658.526 62.5115C668.362 61.4995 678.948 62.1365 688.867 61.9215C711.33 61.3385 733.796 60.9205 756.265 60.6705Z" fill="#15120D"/>
<path d="M95.1393 74.4094C132.838 73.0594 172.361 73.7514 210.106 74.9564C244.12 76.5044 278.688 79.8824 312.738 79.4494C369.268 78.7314 426.462 81.1554 482.886 77.9944C481.479 109.177 479.322 140.433 478.172 171.606C476.179 203.692 478.515 236.279 477.695 268.257C476.372 319.853 479.921 370.168 482.194 421.602C482.574 430.212 481.655 442.32 481.061 451.037C478.647 486.473 477.997 521.416 477.938 556.9C477.732 575.64 477.848 594.382 478.285 613.118C453.694 614.141 424.791 613.435 399.883 613.432L228.809 613.373C187.265 613.402 145.29 612.92 103.798 613.446C88.8333 613.607 73.8743 614.177 58.9393 615.156C45.1873 616.132 30.8923 617.767 17.1633 617.669C16.2963 544.728 17.7703 471.062 17.1333 398.077C16.8653 367.404 14.4213 336.859 14.0883 306.259C13.8503 284.419 16.5553 260.945 16.4363 239.167C16.2883 211.83 14.0833 183.859 13.3313 156.424C12.5823 129.1 13.6203 103.333 14.6643 76.1314C40.0413 76.1904 69.5063 75.0204 95.1393 74.4094Z" fill="white"/>
<path d="M742.139 74.4094C779.838 73.0594 819.361 73.7514 857.106 74.9564C891.12 76.5044 925.688 79.8824 959.738 79.4494C1016.27 78.7314 1073.46 81.1554 1129.89 77.9944C1128.48 109.177 1126.32 140.433 1125.17 171.606C1123.18 203.692 1125.52 236.279 1124.7 268.257C1123.37 319.853 1126.92 370.168 1129.19 421.602C1129.57 430.212 1128.66 442.32 1128.06 451.037C1125.65 486.473 1125 521.416 1124.94 556.9C1124.73 575.64 1124.85 594.382 1125.29 613.118C1100.69 614.141 1071.79 613.435 1046.88 613.432L875.809 613.373C834.265 613.402 792.29 612.92 750.798 613.446C735.833 613.607 720.874 614.177 705.939 615.156C692.187 616.132 677.892 617.767 664.163 617.669C663.296 544.728 664.77 471.062 664.133 398.077C663.865 367.404 661.421 336.859 661.088 306.259C660.85 284.419 663.555 260.945 663.436 239.167C663.288 211.83 661.083 183.859 660.331 156.424C659.582 129.1 660.62 103.333 661.664 76.1314C687.041 76.1904 716.506 75.0204 742.139 74.4094Z" fill="white"/>
<path d="M174.157 447.912C185.766 448.188 182.182 458.795 182.479 466.95C182.557 469.105 182.38 471.439 182.335 473.616C190.064 468.194 199.013 458.321 208.471 456.289C213.74 454.738 217.47 463.307 214.495 466.131C204.94 475.201 191.552 483.227 181.958 492.118C181.208 505.13 181.342 518.832 181.123 531.475C180.902 536.32 181.661 551.539 177.392 554.434C174.254 556.562 164.011 555.903 159.732 555.879C152.62 555.837 144.971 555.69 137.765 555.583C127.789 555.481 87.4589 556.465 80.9449 553.336C75.7449 547.749 80.8499 468.001 80.2939 455.372C79.9649 447.874 107.821 449.403 114.296 449.225C134.246 448.647 154.2 448.209 174.157 447.912Z" fill="#15120D"/>
<path d="M138.738 462.374C148.588 461.964 159.38 462.014 169.306 461.863C169.254 468.78 168.787 476.506 168.52 483.478C154.893 494.783 148.938 501.411 137.258 514.486C131.544 507.103 124.918 499.948 118.939 493.101C109.186 481.93 100.534 492.436 107.332 500.731C112.484 507.016 129.965 530.566 136.655 532.106C141.5 530.946 146.791 524.204 150.872 520.231C156.913 514.365 161.239 508.496 168.128 502.257C168.131 515.249 167.465 528.313 167.448 541.457C143.348 541.513 116.136 542.04 92.2371 540.989C92.2071 527.147 92.7161 513.214 93.0351 499.377C93.3101 487.429 93.1191 475.371 93.9211 463.457C108.862 463.173 123.801 462.812 138.738 462.374Z" fill="white"/>
<path d="M159.498 286.456C187.484 285.685 183.31 288.451 182.477 314.939C189.038 309.708 200.875 297.777 209.408 297.348C210.984 297.269 212.523 297.766 213.598 298.959C214.977 300.49 215.481 302.797 215.247 304.81C214.595 310.404 188.187 327.643 182.253 332.363C181.818 343.02 183.169 384.436 178.455 390.914C174.304 393.649 159.379 392.698 153.536 392.608C143.54 392.573 86.8111 393.058 81.0441 391.184C79.7141 389.313 79.4151 386.894 79.1201 384.661C77.6131 373.27 79.2201 355.479 79.4141 343.518C79.6571 328.568 78.7521 312.822 80.2681 298.021C80.5111 295.648 80.9671 291.533 82.6141 289.682C85.4191 286.528 151.09 286.593 159.498 286.456Z" fill="#15120D"/>
<path d="M149.772 300.215C155.97 299.959 162.755 300.038 169.001 299.991L168.681 323.995C155.687 335.014 148.458 342.266 137.285 354.922C135.28 352.393 116.172 329.703 114.432 329.329C100.478 326.336 103.968 339.9 111.562 346.745C117.827 352.391 129.182 372.218 137.304 374.277C140.795 373.082 149.808 362.169 153.136 358.698C157.96 353.407 163.177 348.072 168.123 342.862L167.643 378.541C143.598 378.908 116.869 378.152 92.5132 378.056C92.6352 352.504 92.9902 326.954 93.5782 301.409L149.772 300.215Z" fill="white"/>
<path d="M164.047 126.281L166.003 126.258C186.659 126.066 182.833 135.098 182.531 152.506C189.689 146.972 196.265 141.335 204.254 137.073C213.31 132.241 219.176 142.174 213.14 147.141C203.183 155.336 191.989 163.404 181.664 171.211C180.915 182.623 182.97 224.565 177.609 230.821C172.708 233.161 154.115 231.884 147.417 231.729C137.037 231.745 86.6199 233.001 80.7519 229.677C79.0159 226.799 78.6239 222.915 78.4409 219.618C77.6599 205.544 78.8759 190.823 79.1579 176.701C79.4149 163.802 78.7309 150.381 80.0109 137.578C80.2319 135.367 80.7179 130.627 82.3909 129.003C84.2719 127.177 154.813 126.451 164.047 126.281Z" fill="#15120D"/>
<path d="M128.497 140.702C141.11 140.167 156.618 140.133 169.223 140.265C168.939 147.815 168.712 155.366 168.541 162.919C157.34 172.341 147.461 182.775 137.256 193.246C131.483 187.128 124.973 179.077 119.296 172.705C109.844 162.095 100.227 171.109 107.238 180.064C115.129 190.144 124.368 200.491 132.863 210.169C136.503 214.317 141.157 209.114 143.53 206.511C151.966 198.53 159.728 190.293 168.028 182.212C167.639 194.087 167.402 205.966 167.316 217.847L91.936 217.834L93.308 141.793C105.035 141.362 116.765 140.999 128.497 140.702Z" fill="white"/>
<path d="M320.868 333.674C328.526 333.016 389.497 334.69 392.812 337.052C394.337 338.138 395.209 339.833 395.47 341.669C395.756 343.688 395.252 345.954 393.893 347.513C392.45 349.168 390.422 349.432 388.361 349.576C381.461 350.06 373.966 349.01 367.048 348.602C350.16 347.605 332.802 346.217 315.901 347.638C303.541 348.128 253.159 353.926 244.583 346.769C243.217 345.629 242.353 344.346 242.312 342.52C242.272 340.747 243.001 338.976 244.213 337.693C245.689 336.129 247.471 335.543 249.573 335.416C256.056 335.026 262.734 336.611 269.302 336.478C286.489 336.131 303.696 334.559 320.868 333.674Z" fill="#15120D"/>
<path d="M967.868 333.674C975.526 333.016 1036.5 334.69 1039.81 337.052C1041.34 338.138 1042.21 339.833 1042.47 341.669C1042.76 343.688 1042.25 345.954 1040.89 347.513C1039.45 349.168 1037.42 349.432 1035.36 349.576C1028.46 350.06 1020.97 349.01 1014.05 348.602C997.16 347.605 979.802 346.217 962.901 347.638C950.541 348.128 900.159 353.926 891.583 346.769C890.217 345.629 889.353 344.346 889.312 342.52C889.272 340.747 890.001 338.976 891.213 337.693C892.689 336.129 894.471 335.543 896.573 335.416C903.056 335.026 909.734 336.611 916.302 336.478C933.489 336.131 950.696 334.559 967.868 333.674Z" fill="#15120D"/>
<path d="M315.214 494.492C323.937 494.206 387.692 495.185 391.673 498.04C393.05 499.028 393.857 500.744 394.056 502.4C394.283 504.296 393.679 506.482 392.389 507.909C390.96 509.49 389.115 509.881 387.084 510.061C378.745 510.801 369.795 509.723 361.427 509.286C346.855 508.524 332.432 507.831 317.832 508.136C304.797 508.853 246.438 516.586 241.071 505.579C240.549 501.01 243.14 496.67 247.752 496.996C270.498 498.601 292.509 495.807 315.214 494.492Z" fill="#15120D"/>
<path d="M962.214 494.492C970.937 494.206 1034.69 495.185 1038.67 498.04C1040.05 499.028 1040.86 500.744 1041.06 502.4C1041.28 504.296 1040.68 506.482 1039.39 507.909C1037.96 509.49 1036.12 509.881 1034.08 510.061C1025.75 510.801 1016.8 509.723 1008.43 509.286C993.855 508.524 979.432 507.831 964.832 508.136C951.797 508.853 893.438 516.586 888.071 505.579C887.549 501.01 890.14 496.67 894.752 496.996C917.498 498.601 939.509 495.807 962.214 494.492Z" fill="#15120D"/>
<path d="M315.833 177.441C324.379 176.894 386.235 178.374 391.379 180.88C393.007 182.441 394.042 184.066 394.147 186.389C394.226 188.144 393.571 189.853 392.339 191.105C390.978 192.462 388.815 193.108 386.929 193.057C363.368 192.428 340.531 190.425 316.889 190.992C303.828 191.516 253.352 198.525 244.211 191.478C242.958 190.513 242.301 189.413 242.169 187.836C242.005 185.863 242.589 183.477 243.956 182.02C244.849 181.069 246.063 180.289 247.382 180.173C254.695 179.526 262.649 180.833 270.103 180.585C285.334 180.079 300.614 178.42 315.833 177.441Z" fill="#15120D"/>
<path d="M962.833 177.441C971.379 176.894 1033.23 178.374 1038.38 180.88C1040.01 182.441 1041.04 184.066 1041.15 186.389C1041.23 188.144 1040.57 189.853 1039.34 191.105C1037.98 192.462 1035.81 193.108 1033.93 193.057C1010.37 192.428 987.531 190.425 963.889 190.992C950.828 191.516 900.352 198.525 891.211 191.478C889.958 190.513 889.301 189.413 889.169 187.836C889.005 185.863 889.589 183.477 890.956 182.02C891.849 181.069 893.063 180.289 894.382 180.173C901.695 179.526 909.649 180.833 917.103 180.585C932.334 180.079 947.614 178.42 962.833 177.441Z" fill="#15120D"/>
<path d="M785.204 124.586C792.296 124.208 822.265 122.448 826.697 127.707C829.124 134.519 828.083 166.1 827.606 175.154C826.864 189.256 828.617 215.738 824.895 227.972C820.979 231.64 776.627 229.753 769.135 229.614C760.439 229.478 751.689 229.845 743.021 229.809C737.077 229.784 724.82 231.232 725.049 222.39C725.392 209.145 723.583 134.309 728.584 127.762C733.996 125.37 775.585 124.864 785.204 124.586Z" fill="#15120D"/>
<path d="M781.713 138.369C792.423 137.913 803.86 138.074 814.639 138.065C814.804 163.405 813.741 190.539 813.283 216.001C800.274 216.161 786.547 215.731 773.49 215.517L738.533 215.416C738.252 190.283 739.068 165.01 739.489 139.858C753.402 139.082 767.751 138.784 781.713 138.369Z" fill="white"/>
<path d="M723.955 326.436C723.455 319.352 721.177 289.418 726.359 284.896C733.128 282.351 764.722 282.846 773.783 283.167C787.896 283.665 814.343 281.454 826.64 284.964C830.375 288.816 829.255 333.194 829.245 340.688C829.26 349.385 829.778 358.127 829.892 366.794C829.969 372.738 831.629 384.968 822.784 384.892C809.535 384.778 734.742 387.88 728.109 382.993C725.624 377.623 724.4 336.049 723.955 326.436Z" fill="#15120D"/>
<path d="M726.33 485.856C725.83 478.772 723.552 448.838 728.734 444.316C735.503 441.771 767.097 442.266 776.158 442.587C790.271 443.085 816.718 440.874 829.015 444.384C832.75 448.236 831.63 492.614 831.62 500.108C831.635 508.805 832.153 517.547 832.267 526.214C832.344 532.158 834.004 544.388 825.159 544.312C811.91 544.198 737.117 547.3 730.484 542.413C727.999 537.043 726.775 495.469 726.33 485.856Z" fill="#15120D"/>
<path d="M737.797 329.689C737.156 318.989 737.119 307.55 736.924 296.773C762.257 296.17 789.405 296.764 814.871 296.782C815.256 309.786 815.064 323.519 815.075 336.577L815.579 371.531C790.454 372.246 765.171 371.867 740.015 371.881C738.999 357.983 738.453 343.642 737.797 329.689Z" fill="white"/>
<path d="M740.171 489.109C739.53 478.408 739.494 466.97 739.298 456.193C764.632 455.59 791.78 456.184 817.246 456.202C817.631 469.206 817.438 482.938 817.45 495.997L817.953 530.951C792.829 531.666 767.545 531.287 742.39 531.301C741.374 517.403 740.828 503.062 740.171 489.109Z" fill="white"/>
<path d="M926.458 17.9253C954.326 14.9572 963.411 41.5636 968.986 61.2324C982.062 50.9165 1007.77 31.2047 1023.9 48.3499C1033.87 58.9523 1031.69 77.0605 1030.75 90.3828C1040.88 86.745 1055.89 78.8896 1065.95 77.7552C1106.33 73.1994 1105.68 111.152 1085.28 132.851C1053.59 166.559 990.871 197.773 943.883 201.966C903.061 277.164 890.002 427.388 933.03 502.067C942.66 452.605 965.187 399.135 1001.03 360.628C1007.32 353.868 1013.83 347.235 1020.32 340.634C1012.41 316.617 1011.48 297.812 1019.51 273.269C1029.59 243.977 1049.49 211.644 1079.37 196.664C1097.19 187.728 1111.39 193.08 1119.77 209.686C1121.96 221.416 1117.73 236.389 1115.16 248.259C1134.56 243.643 1169.95 235.494 1184.48 251.338C1203.19 271.751 1169.23 299.541 1155.95 310.994C1164.81 315.358 1183.87 324.192 1186.7 332.025C1199.76 368.154 1160.6 364.969 1137.81 364.64C1111.09 364.252 1096.43 361.399 1071.34 357.953C1055.6 355.79 1045.44 357.583 1031.74 351.672C989.117 393.479 967.629 436.157 952.545 491.541C949.454 502.893 944.31 545.48 936.047 549.955L933.018 549.148C926.238 542.479 929.395 530.178 926.74 522.837C922.299 510.554 914.769 496.718 910.23 484.46C883.312 411.792 887.263 325.692 910.411 252.603C916.575 233.142 924.612 216.597 933.22 198.536C897.708 165.037 890.089 103.098 898.384 58.5599C901.79 40.2803 907.857 26.5429 926.458 17.9253ZM962.923 154.04C969.437 148.431 972.162 145.616 977.378 138.753L978.005 137.941C993.323 117.797 1007.91 99.844 1009.38 74.1105C1009.61 69.9832 1011.62 61.3993 1008.11 58.4516C989.344 66.2664 972.309 77.895 967.895 97.4375L966.872 101.964C964.651 112.012 962.675 122.316 960.633 132.418C958.231 144.306 956.757 144.123 962.923 154.04ZM1129.54 319.443C1111.93 321.669 1104.94 323.606 1089.65 331.364C1099.39 333.363 1109.41 335.738 1119.1 337.352L1139.49 340.677C1152.69 342.156 1158.72 341.996 1172.05 341.189C1160.79 332.235 1144.55 318.117 1129.54 319.443ZM935.354 132.68C944.067 110.496 953.894 84.7039 947.631 60.84C944.95 50.6211 944.378 38.7512 931.42 36.6041C918.353 54.9198 916.809 77.8882 921.339 99.0388C922.116 102.663 922.968 106.274 923.902 109.867C924.406 111.811 931.497 137.551 935.354 132.68ZM1012.49 149.665C1027.32 145.21 1036.2 136.516 1048.65 131.026C1057.14 127.28 1098.89 96.0821 1070.1 96.0889C1043.87 100.011 1011.73 130.025 1003.89 152.757C1005.02 153.332 1011.08 150.256 1012.49 149.665ZM1093.36 209.073C1069.95 226.606 1053.66 258.803 1047.97 285.921C1047.17 289.737 1050.41 287.796 1051.88 286.74C1072.14 268.636 1107.88 244.59 1097.45 210.816C1097.06 209.537 1094.48 209.26 1093.36 209.073ZM1101.86 300.739C1128.17 299.442 1151.11 294.034 1167.61 271.223C1175.57 260.231 1163.17 257.824 1152.59 259.642C1125.2 263.472 1094.36 275.136 1080.32 298.619C1089.43 300.047 1092.1 300.473 1101.86 300.739Z" fill="#FF5340"/>
<path d="M1069.57 417.336C1075.77 416.666 1079.41 415.829 1084.49 419.436C1089.13 426.693 1085.37 438.886 1084.15 447.519C1080.07 476.288 1068.96 502.507 1050.43 525.879C1028.89 553.051 987.196 574.766 984.585 612.349C982.709 639.334 1001 665.747 1019.9 684.24C1023.74 687.989 1027.33 692.224 1026.84 697.437L1024.31 699.189C1008.79 701.214 989.035 671.633 977.943 662.747C972.336 658.266 965.19 652.837 958.601 649.698C879.497 611.999 778.915 611.039 698.793 575.819C680.187 567.542 649.786 553.448 647.182 531.989C644.886 513.069 664.773 508.707 680.345 507.221C698.491 505.486 714.463 507.119 731.972 507.478C809.303 509.063 870.697 547.941 926.113 594.327C942.131 607.523 957.1 623.693 973.789 636.914C962.069 579.624 954.349 540.726 986.904 486.203C1004.92 456.026 1032.61 426.991 1069.57 417.336ZM687.335 534.747C691.963 555.954 821.732 597.705 850.376 592.414L850.026 590.804C840.386 585.289 801.623 571.065 790.188 567.614C764.692 559.921 711.828 534.643 687.335 534.747ZM991.741 557.348C996.389 548.024 998.525 534.77 1001.45 524.348C1008.78 498.226 1024.01 477.094 1041.18 455.76C1041.74 455.066 1042.01 454.664 1042.2 453.85C1042.09 453.721 1041.97 453.593 1041.85 453.464C1041.48 453.304 1041.11 453.144 1040.74 452.984C1012.07 474.793 992.069 498.283 988.953 533.885C988.195 542.548 985.96 550.18 991.741 557.348Z" fill="#FF5340"/>
<path d="M670.515 0.096612C702.824 -2.23993 748.183 38.3947 770.214 58.0568C852.297 131.561 862.639 232.882 860.068 332.882C859.824 342.373 858.574 355.244 845.602 354.423C835.272 344.95 826.914 322.449 819.905 309.154C814.608 299.16 808.639 289.492 802.036 280.202C748.561 205.841 669.136 140.972 654.97 46.4282C652.149 27.6006 649.218 9.17439 670.515 0.096612ZM834.077 254.146C818.223 194.259 786.136 152.373 748.264 103.125C742.107 95.1212 728.65 73.7675 719.898 70.168C724.301 95.6038 787.647 182.049 804.515 208.486C811.432 219.325 823.523 244.123 832.75 253.408C833.192 253.654 833.636 253.9 834.077 254.146Z" fill="#FF5340"/>
<path d="M672.32 283.149C727.903 277.495 804.686 356.908 830.771 397.518C843.459 417.27 854.587 444.366 866.406 465.654C874.407 480.066 907.385 519.898 901.966 533.373C899.326 535.872 897.678 535.782 893.961 536.434C887.415 533.164 882.366 529.384 876.487 525.261C794.325 467.644 687.074 424.057 663.836 319.948C660.715 305.962 656.583 290.865 672.32 283.149ZM839.493 462.797C821.04 406.6 788.407 349.926 731.23 319.555C724.158 315.8 716.553 313.639 708.438 312.877C710.715 320.575 715.556 325.803 722.049 330.764C740.401 344.793 755.767 359.236 772.176 375.028C794.441 396.454 815.641 445.613 839.493 462.797Z" fill="#FF5340"/>
</svg>
