<svg xmlns="http://www.w3.org/2000/svg" width="1449" height="1065" viewBox="0 0 1449 1065"><g transform="translate(203.3 21.0)"><path fill="white" d="M0 0L1024 0L1024 1024L0 1024L0 0Z"/><path fill="#15120D" d="M722.347 292.991L723.552 293.998C706.042 321.821 699.007 353.267 713.836 383.06C720.362 396.172 721.265 407.44 720.957 421.838C723.459 422.428 725.594 422.683 727.627 424.185C730.223 428.734 724.885 429.3 734.604 430.445C733.114 434.469 731.661 438.506 730.244 442.557C734.276 443.588 739.044 444.965 743.04 445.838C744.641 449.585 745.979 453.043 747.4 456.865C738.443 480.513 728.09 504.271 718.7 527.742C724.886 528.788 758.971 535.717 763 538.252C764.822 540.943 764.356 549.691 763.713 553.006C763.038 556.48 761.062 558.722 758.086 560.525C748.924 566.072 712.988 571.377 700.269 574.433C690.509 595.847 682.714 617.803 673.767 639.526C671.379 645.324 668.993 651.058 666.854 656.953L667.549 659.242C668.089 660.969 669.411 663.617 670.175 665.313L678.46 663.266C684.662 661.229 692.459 659.443 698.865 657.855C705.781 656.066 712.718 654.207 719.694 652.68C723.962 630.963 728.089 609.226 732.077 587.456C732.807 583.473 732.616 579.113 736.729 577.759C739.469 578.401 739.903 580.096 739.451 582.646C735.433 605.328 730.943 628.32 726.767 650.952C731.902 649.487 737.397 647.315 742.483 649.418C744.541 654.631 728.657 657.05 725.269 657.793C723.165 671.964 719.413 686.331 717.046 700.509C715.662 708.796 713.814 717.491 711.888 725.671C714.787 724.707 717.459 723.7 720.015 726.01C721.115 730.731 713.593 731.776 710.54 732.384C707.188 754.026 702.238 777.59 698.154 799.309C701.239 798.12 704.122 796.751 707.175 798.632C708.547 803.348 700.31 805.317 697.205 806.205C695.36 813.42 694.004 822.222 692.662 829.646L686.381 863.544C688.929 862.872 692.836 862.003 694.464 864.653C693.907 868.787 687.979 870.381 684.728 871.502C679.883 892.459 677.114 915.812 672.183 936.417C665.688 939.823 653.322 944.715 646.115 947.814C628.993 955.286 611.791 962.574 594.511 969.676C567.785 980.761 541.3 993.055 514.777 1004.22C507.849 1002.12 490.754 994.217 483.369 991.088L410.405 959.682C399.808 955.112 389.167 950.642 378.485 946.274C372.629 943.86 360.47 939.266 355.731 935.967C355.162 928.738 352.684 916.239 351.347 908.674C349.093 896.171 347.088 883.624 345.332 871.041C341.19 869.601 336.173 868.505 334.24 864.158C335.069 860.203 341.406 862.529 343.932 863.403C341.359 845.135 337.281 824.434 334.27 805.942C330.511 805.145 324.118 804.256 324.093 799.138C326.335 795.779 329.907 797.679 332.946 798.8C329.29 776.455 325.466 754.138 321.473 731.85C318.005 730.945 316.525 730.946 314.574 727.883C314.387 726.088 314.229 726.944 315.274 725.276C317.095 724.016 317.71 724.153 320.022 723.953C316.584 701.365 312.781 678.834 308.615 656.37C304.964 655.052 298.576 654.693 296.886 651.459C296.882 649.759 296.761 649.812 297.732 648.455C300.694 646.828 304.187 648.299 307.571 649.149L297.762 589.704C297.036 585.097 293.457 574.174 297.429 571.286C299.255 571.145 299.123 571.134 300.765 571.958C302.502 573.974 304.792 592.088 305.515 596.455C308.472 614.733 311.524 632.995 314.671 651.24L326.886 654.136C310.325 623.517 319.2 599.933 328.579 568.17C313.533 565.525 297.317 563.003 282.915 558.134C276.318 555.46 278.469 547.528 277.889 542.834C276.302 529.976 286.786 530.806 298.181 528.503C306.878 526.799 315.551 524.974 324.197 523.028C325.779 524.595 326.227 526.465 326.519 528.631C329.061 533.907 329.819 542.07 330.078 547.915C350.817 553.311 372.434 558.169 392.869 563.871C400.155 546.231 406.67 528.273 413.638 510.513C433.975 457.502 455.073 404.785 476.927 352.381C484.249 349.981 488.529 347.98 495.726 351.229C501.873 340.025 511.62 328.518 526.943 334.47C532.773 336.734 536.097 342.688 538.298 348.359C549.459 341.764 562.208 342.565 569.525 354.953C570.489 356.585 571.027 359.807 571.425 361.747C585.186 350.608 603.445 351.259 604.622 371.897C621.973 358.477 635.216 362.123 640.65 384.213C643.552 382.202 644.481 381.623 647.7 380.151C653.231 378.632 658.35 378.275 663.751 380.592C665.748 375.303 666.633 368.349 668.961 362.54C681.262 331.841 697.749 313.443 722.347 292.991Z"/><path fill="#FF5340" d="M328.579 568.17C347.711 572.721 367.453 576.734 386.706 581.082C383.168 590.259 379.104 599.419 375.419 608.609C370.195 621.636 365.354 635.769 359.828 648.597C359.288 650.124 356.246 655.7 355.352 657.177C355.182 659.288 355.516 659.232 354.481 660.712C352.109 661.062 330.713 655.212 326.886 654.136C310.325 623.517 319.2 599.933 328.579 568.17Z"/><path fill="#15120D" d="M355.352 657.177C353.698 650.77 343.809 593.096 344.779 590.579C345.042 589.896 345.764 589.726 346.367 589.399C348.511 589.385 350.607 589.987 351.082 592.437C352.707 600.826 353.926 609.492 355.077 617.975C356.427 627.92 359.198 638.699 359.828 648.597C359.288 650.124 356.246 655.7 355.352 657.177Z"/><path fill="#FF5340" d="M722.347 292.991L723.552 293.998C706.042 321.821 699.007 353.267 713.836 383.06C720.362 396.172 721.265 407.44 720.957 421.838L710.631 418.785C710.64 416.111 710.649 413.377 710.522 410.738C709.856 396.897 700.011 385.733 685.755 392.654C681.115 394.906 678.572 396.977 674.657 400.405C674.069 391.161 671.024 386.096 663.751 380.592C665.748 375.303 666.633 368.349 668.961 362.54C681.262 331.841 697.749 313.443 722.347 292.991Z"/><path fill="white" d="M326.519 528.631C329.061 533.907 329.819 542.07 330.078 547.915C320.412 545.275 309.089 542.781 299.243 540.629L296.993 540.127L296.006 539.918C292.519 539.154 289.01 538.491 285.532 537.68C299.439 534.77 312.694 532.125 326.519 528.631Z"/><path fill="#FF5340" d="M666.854 656.953L667.549 659.242C668.089 660.969 669.411 663.617 670.175 665.313C666.78 665.661 665.605 665.88 662.203 666.77C663.533 663.895 665.315 659.547 666.854 656.953Z"/><path fill="#FF5340" d="M544.48 608.702C552.016 606.533 564.144 604.373 572.122 602.65L619.78 592.203C626.186 604.965 631.332 622.806 633.505 636.945C634.584 643.961 634.735 652.253 636.068 659.096L636.178 659.633C634.958 662.361 630.201 672.466 629.848 674.833C626.841 675.978 622.396 677.159 619.211 678.102C620.115 671.144 625.5 641.298 624.861 636.592C624.039 635.693 622.988 635.127 621.698 635.109C621.075 635.1 620.335 635.24 619.891 635.717C617.654 638.128 613.448 673.602 612.84 679.719C609.272 680.641 605.532 681.499 601.932 682.295C585.478 685.935 569.149 690.775 552.737 694.482C557.166 664.827 553.646 637.178 544.48 608.702Z"/><path fill="#FF5340" d="M578.713 431.946C578.984 433.824 572.931 444.87 571.864 447.536C563.102 469.432 553.224 496.298 563.396 519.298C568.876 531.689 579.282 541.039 588.348 550.763C595.231 558.218 601.706 566.158 608.219 573.927C595.628 577.401 579.265 580.676 566.366 583.625L538.804 590.032C529.82 563.567 518.85 546.823 522.504 516.931C527.268 477.95 550.28 455.138 578.713 431.946Z"/><path fill="#FF5340" d="M599.04 761.082C599.179 761.38 599.318 761.677 599.457 761.975C596.018 782.948 591.176 812.96 588.871 833.058C583.202 834.486 573.183 838.343 567.211 840.232C551.094 845.329 535.007 850.484 519.127 856.277C517.576 854.261 519.44 790.286 519.49 782.528C544.411 774.44 573.289 768.762 599.04 761.082Z"/><path fill="#FF5340" d="M435.554 761.666C460.474 769.335 488.31 775.548 512.795 783.784C512.042 807.327 512.186 832.27 511.957 855.919L511.549 856.407C510.481 856.682 450.226 836.807 443.645 834.682C442.228 827.267 441.099 813.923 440.305 806.228L435.554 761.666Z"/><path fill="#FF5340" d="M609.767 686.517L610.725 686.704C610.892 687.977 608.943 700.677 608.627 702.644C605.875 719.751 603.544 737.518 600.211 754.488C574.095 761.893 547.079 767.777 521.107 775.527L520.173 775.475C519.091 773.915 519.949 748.043 519.991 744.395C538.469 732.969 544.84 722.725 550.946 701.676C569.298 696.197 590.713 691.828 609.767 686.517Z"/><path fill="#FF5340" d="M441.223 690.255C441.88 689.769 443.182 685.955 443.66 684.776L444.569 685.015L469.258 691.411L471.257 691.922L472.214 692.163C475.119 692.946 478.062 693.612 480.925 694.539C480.835 698.185 480.784 704.168 480.434 707.581C480.424 717.03 483.302 728.365 489.194 735.968C495.61 744.248 503.436 744.537 512.911 745.564C512.698 755.605 512.968 766.865 513.016 776.993C491.257 771.713 468.872 763.799 447.092 758.132C443.328 757.153 439.414 756 435.726 754.773L435.445 754.13L437.588 753.52C437.958 752.829 438.284 752.25 438.002 751.372C432.066 732.877 433.275 707.84 441.223 690.255Z"/><path fill="#15120D" d="M441.223 690.255C441.88 689.769 443.182 685.955 443.66 684.776L444.569 685.015L469.258 691.411L471.257 691.922L472.214 692.163C475.119 692.946 478.062 693.612 480.925 694.539C480.835 698.185 480.784 704.168 480.434 707.581C480.054 704.878 480.124 703.311 480.154 700.583C467.962 696.75 453.749 693.373 441.223 690.255Z"/><path fill="#FF5340" d="M699.251 664.422C705.655 663.126 712.023 661.65 718.345 659.998C713.559 682.038 710.153 704.359 705.215 726.367C705.097 726.895 704.472 727.302 704.074 727.611C691.676 731.122 678.283 734.396 665.754 737.47C667.703 724.978 671.474 708.288 672.315 695.475C672.385 694.408 671.117 693.616 670.278 693.024C667.822 692.661 666.614 695.188 666.211 697.3C663.619 710.906 660.894 725.339 659.058 739.012C649.633 741.12 640.429 744.222 631.035 746.409C634.252 736.714 638.926 726.029 642.767 716.463L659.546 673.974C664.304 672.814 669.155 671.539 673.978 670.748C675.035 670.456 675.972 670.199 677.016 669.85C684.114 667.818 692.011 666.118 699.251 664.422Z"/><path fill="white" d="M699.251 664.422C705.655 663.126 712.023 661.65 718.345 659.998C713.559 682.038 710.153 704.359 705.215 726.367C705.097 726.895 704.472 727.302 704.074 727.611C702.778 725.056 704.686 712.335 704.516 707.633C703.978 692.767 701.022 678.979 699.251 664.422Z"/><path fill="white" d="M677.016 669.85C677.04 670.836 677.428 673.935 676.663 674.573C675.541 674.021 674.378 671.955 673.978 670.748C675.035 670.456 675.972 670.199 677.016 669.85Z"/><path fill="#FF5340" d="M587.061 840.071C587.079 840.091 587.103 840.108 587.116 840.132C588.097 841.976 579.508 896.653 578.335 903.445L540.941 917.431C533.426 920.236 525.806 922.805 518.453 925.994C518.401 925.947 518.337 925.911 518.296 925.854C516.878 923.889 518.208 869.025 518.34 862.835C539.64 855.95 566.51 847.962 587.061 840.071Z"/><path fill="#FF5340" d="M444.197 841.597C454.978 844.646 467.125 848.978 477.891 852.527C488.142 855.906 502.106 859.939 511.775 864.019L511.471 926.686C509.949 926.841 458.364 906.731 451.622 904.145C450.527 898.768 449.937 890.549 449.247 884.868C447.497 870.46 446.353 855.966 444.197 841.597Z"/><path fill="#FF5340" d="M375.823 745.192C391.765 750.187 412.43 755.591 428.528 759.517C429.644 766.091 430.485 775.445 431.287 782.243C433.261 798.904 435.09 815.583 436.773 832.276C432.771 831.309 423.671 827.955 419.42 826.556L385.136 815.563C382.232 791.969 378.569 768.72 375.823 745.192Z"/><path fill="#FF5340" d="M656.144 746.525L657.005 746.565C657.478 747.734 647.756 808.104 646.377 814.688C630.916 819.637 611.725 825.276 596.732 831.078L596.104 831.129L595.48 830.503C595.407 828.097 595.976 825.995 596.388 823.633C600.12 802.252 602.234 780.618 606.226 759.273C622.106 754.358 639.837 751.232 656.144 746.525Z"/><path fill="#FF5340" d="M517.554 933.05C537.239 925.755 557.506 917.722 577.243 910.831C576.493 916.929 575.568 926.981 574.198 932.655C572.309 946.161 570.546 960.658 568.333 974.046C552.024 980.852 532.815 988.555 516.867 995.758C517.057 986.793 517.379 977.587 517.464 968.651L517.554 933.05Z"/><path fill="white" d="M517.464 968.651C535.567 966.531 552.618 956.122 564.434 942.607C566.392 940.368 572.179 933.553 574.198 932.655C572.309 946.161 570.546 960.658 568.333 974.046C552.024 980.852 532.815 988.555 516.867 995.758C517.057 986.793 517.379 977.587 517.464 968.651Z"/><path fill="#FF5340" d="M451.642 911.002L510.802 933.604L510.547 969.076L510.53 995.588C494.577 989.726 475.058 980.639 459.103 973.754C457.768 962.472 456.332 950.43 455.529 939.154C454.278 929.311 453.399 920.808 451.642 911.002Z"/><path fill="white" d="M455.529 939.154C461.204 942.495 470.397 948.436 475.211 952.857C487.563 964.199 492.699 968.901 510.547 969.076L510.53 995.588C494.577 989.726 475.058 980.639 459.103 973.754C457.768 962.472 456.332 950.43 455.529 939.154Z"/><path fill="#FF5340" d="M645.329 821.568C645.543 822.656 635.868 875.522 635.232 882.314C618.787 888.7 602.248 894.842 585.621 900.738C584.988 896.925 593.071 845.072 594.167 837.895C611.303 832.713 628.359 827.27 645.329 821.568Z"/><path fill="#FF5340" d="M386.295 822.18C403.424 828.171 420.632 833.932 437.915 839.463C439.988 860.106 442.237 880.73 444.66 901.335C433.306 896.824 421.69 892.992 410.372 888.387C405.157 886.266 399.926 884.204 394.618 882.326C392.271 862.85 389.238 841.639 386.295 822.18Z"/><path fill="#FF5340" d="M395.655 889.548C412.06 895.859 429.362 902.214 445.556 908.884C446.187 914.449 447.995 927.288 448.013 932.333L448.15 933.343C448.506 935.824 448.82 938.715 449.073 941.22C449.305 942.748 449.496 943.542 449.482 945.097C449.647 951.466 451.488 963.777 452.301 970.525C436.269 963.801 420.186 956.459 404.134 949.925C402.529 937.099 400.459 924.049 398.822 911.063C397.593 904.533 396.64 896.248 395.655 889.548Z"/><path fill="white" d="M398.822 911.063L399.32 910.835C414.099 929.479 426.293 937.918 449.482 945.097C449.647 951.466 451.488 963.777 452.301 970.525C436.269 963.801 420.186 956.459 404.134 949.925C402.529 937.099 400.459 924.049 398.822 911.063Z"/><path fill="white" d="M449.073 941.22C447.604 939.689 444.338 932.853 445.314 931.94C445.922 931.806 447.409 932.213 448.013 932.333L448.15 933.343C448.506 935.824 448.82 938.715 449.073 941.22Z"/><path fill="#FF5340" d="M584.094 908.426C600.657 901.816 617.403 895.782 634.027 889.315C632.462 898.997 630.421 914.19 628.3 923.333C626.588 931.872 625.394 941.16 624.131 949.828L575.347 970.939C577.494 958.382 578.794 945.631 580.722 933.034C581.034 930.996 581.266 928.41 581.707 926.444C582.598 920.423 583.535 914.49 584.094 908.426Z"/><path fill="white" d="M588.324 921.68C586.038 928.823 583.661 935.936 581.192 943.018C598.944 942.321 606.171 939.517 620.783 928.463C623.145 926.677 625.49 924.335 627.728 922.694L628.3 923.333C626.588 931.872 625.394 941.16 624.131 949.828L575.347 970.939C577.494 958.382 578.794 945.631 580.722 933.034C581.034 930.996 581.266 928.41 581.707 926.444C583.449 925.429 586.591 922.96 588.324 921.68Z"/><path fill="white" d="M328.331 733.389C330.846 733.898 332.783 734.27 335.255 735.027L335.716 735.144C337.807 735.662 339.875 736.104 341.993 736.649L345.724 737.64C353.449 739.632 361.073 741.914 368.846 743.854C369.958 751.406 371.722 760.096 372.188 767.614C373.588 771.629 373.544 778.746 374.6 783.461C376.012 787.467 377.706 807.838 378.282 812.996C370.93 810.417 363.437 808.393 356.095 805.871C350.911 804.128 345.153 802.585 339.829 800.869C338.872 792.724 337.002 782.85 335.623 774.671C333.313 760.889 330.882 747.128 328.331 733.389Z"/><path fill="#FF5340" d="M347.135 767.207C356.439 772.522 365.466 777.879 374.6 783.461C376.012 787.467 377.706 807.838 378.282 812.996C370.93 810.417 363.437 808.393 356.095 805.871C357.846 791.237 352.229 780.05 347.135 767.207Z"/><path fill="#FF5340" d="M335.255 735.027L335.716 735.144C337.807 735.662 339.875 736.104 341.993 736.649L345.724 737.64C353.449 739.632 361.073 741.914 368.846 743.854C369.958 751.406 371.722 760.096 372.188 767.614C369.539 764.865 356.166 752.508 353.298 750.536C355.121 757.036 357.64 761.714 359.567 768.532C356.598 766.952 353.663 765.416 350.804 763.594C342.429 758.259 337.158 744.399 335.255 735.027Z"/><path fill="white" d="M702.262 734.076L703.182 734.421C703.657 736.096 692.589 795.183 691.232 801.197C686.132 802.706 681.044 804.258 675.97 805.853C672.517 806.963 669.002 807.853 665.533 808.909C661.477 810.015 657.43 811.148 653.39 812.308C655.056 804.535 656.384 793.762 657.686 785.666C658.713 779.074 659.696 772.298 660.891 765.746C661.556 761.653 662.297 757.572 663.112 753.506C663.22 753.003 663.327 752.5 663.435 751.996L664.081 748.756C664.399 747.235 664.664 745.753 664.978 744.235C674.961 741.421 684.972 738.709 695.01 736.099C697.53 735.462 699.802 734.96 702.262 734.076Z"/><path fill="#FF5340" d="M664.978 744.235C674.961 741.421 684.972 738.709 695.01 736.099C697.53 735.462 699.802 734.96 702.262 734.076C700.937 736.442 701.134 736.311 700.396 738.986C695.983 754.97 682.897 766.696 670.298 776.579C666.087 779.882 662.386 783.022 657.686 785.666C658.713 779.074 659.696 772.298 660.891 765.746C661.556 761.653 662.297 757.572 663.112 753.506C663.22 753.003 663.327 752.5 663.435 751.996L664.081 748.756C664.399 747.235 664.664 745.753 664.978 744.235Z"/><path fill="#FF5340" d="M665.533 808.909C668.99 804.223 673.63 799.93 678.216 796.355C677.576 798.434 675.582 804.017 675.97 805.853C672.517 806.963 669.002 807.853 665.533 808.909Z"/><path fill="#FF5340" d="M674.613 812.902L690.078 808.322C686.015 827.851 683.171 847.359 678.892 866.857C670.349 869.86 660.415 873.769 651.964 876.39C648.591 877.786 645.168 878.896 641.711 880.065C645.21 861.144 649.493 838.523 652.192 819.599C659.054 817.245 667.567 814.881 674.613 812.902Z"/><path fill="white" d="M674.613 812.902L690.078 808.322C686.015 827.851 683.171 847.359 678.892 866.857C670.349 869.86 660.415 873.769 651.964 876.39C655.185 868.25 661.271 863.731 665.945 856.301C674.798 842.227 671.046 828.974 674.463 813.552L674.613 812.902Z"/><path fill="#FF5340" d="M341.157 808.063C346.056 809.651 350.318 811.005 355.339 812.27L379.774 820.566C382.779 840.13 385.143 859.893 387.967 879.549C386.22 878.966 383.325 878.101 381.733 877.39C373.69 874.129 359.144 868.726 350.974 866.205L341.157 808.063Z"/><path fill="white" d="M341.157 808.063C346.056 809.651 350.318 811.005 355.339 812.27C354.015 823.907 357.678 838.16 363.051 848.493C367.303 856.668 376.77 863.187 384.41 868C382.906 871.335 382.501 873.822 381.733 877.39C373.69 874.129 359.144 868.726 350.974 866.205L341.157 808.063Z"/><path fill="#FF5340" d="M456.914 605.418C468.836 609.743 478.695 619.835 484.057 631.179C495.43 655.239 485.236 671.76 480.925 694.539C478.062 693.612 475.119 692.946 472.214 692.163L471.257 691.922L469.258 691.411L444.569 685.015L443.66 684.776C458.23 652.878 478.496 642.549 456.914 605.418Z"/><path fill="white" d="M651.504 883.505L677.601 874.239C673.869 892.321 670.421 910.46 667.257 928.65C664 927.355 636.879 916.899 636.115 916.032L636.301 913.89C636.663 906.745 639.528 894.67 640.703 887.076C643.848 885.868 648.276 884.363 651.504 883.505Z"/><path fill="#FF5340" d="M640.703 887.076C643.848 885.868 648.276 884.363 651.504 883.505C648.381 892.529 641.747 906.256 636.301 913.89C636.663 906.745 639.528 894.67 640.703 887.076Z"/><path fill="white" d="M352.206 873.322C362.238 876.992 372.248 880.722 382.236 884.51C384.575 885.373 386.762 886.195 389.143 886.933C389.801 891.328 390.87 897.753 391.001 902.083L392.727 913.661C383.22 917.906 371.365 923.587 361.776 927.111C358.037 913.502 354.358 887.824 352.206 873.322Z"/><path fill="#FF5340" d="M382.236 884.51C384.575 885.373 386.762 886.195 389.143 886.933C389.801 891.328 390.87 897.753 391.001 902.083C385.202 894.762 384.722 893.394 382.236 884.51Z"/><path fill="white" d="M315.69 658.216C322.611 660.175 329.517 661.405 336.426 663.438C339.887 663.874 343.33 665.021 346.763 665.866L347.74 666.097L349.744 666.592C350.488 666.774 351.249 666.998 351.992 667.197C349.359 673.514 340.797 697.333 337.816 701.544C336.593 705.113 334.817 706.895 335.667 709.114C336.091 712.295 334.567 723.884 334.293 727.886C331.908 727.302 329.469 726.762 327.072 726.205C322.713 704.33 320.107 680.865 315.69 658.216Z"/><path fill="#FF5340" d="M336.426 663.438C339.887 663.874 343.33 665.021 346.763 665.866L347.74 666.097L349.744 666.592C350.488 666.774 351.249 666.998 351.992 667.197C349.359 673.514 340.797 697.333 337.816 701.544C338.158 696.698 346.076 671.702 345.378 670.099C345.196 669.961 345.053 669.874 344.826 669.811C341.829 668.984 338.956 665.592 336.426 663.438Z"/><path fill="#FF5340" d="M330.634 554.238C340.344 557.18 350.441 559.129 360.309 561.507C371.401 564.18 382.403 567.223 393.519 569.798C403.439 572.095 522.781 597.74 523.777 599.924C524.276 601.019 524.276 602.07 524.328 603.247C519.58 605.251 347.641 565.383 328.632 562.336C330.374 561.099 330.495 556.26 330.634 554.238Z"/><path fill="#FF5340" d="M672.357 565.599C674.774 564.744 677.227 564.074 679.715 563.186L674.731 574.128C672.238 574.539 670.963 574.745 668.458 575.294C657.163 577.345 643.73 581.557 632.317 583.694C612.481 587.409 592.736 592.27 573.162 596.555C563.191 598.738 538.97 604.917 529.769 605.273C529.683 602.778 529.778 600.051 529.814 597.536C557.575 592.029 585.631 585.26 613.25 578.98C631.944 574.73 654.065 570.809 672.357 565.599Z"/><path fill="white" d="M672.357 565.599C674.774 564.744 677.227 564.074 679.715 563.186L674.731 574.128C672.238 574.539 670.963 574.745 668.458 575.294C670.038 572.001 670.949 568.849 672.357 565.599Z"/><path fill="#FF5340" d="M627.666 493.286C629.881 494.381 631.741 497.174 633.21 499.117C644.379 513.888 651.698 531.962 650.057 550.73C649.615 555.776 648.323 560.601 647.349 565.589L636.618 567.943C631.718 569.155 625.991 570.268 621.005 571.345C623.075 566.036 624.301 560.459 625.965 555.187C633.497 531.331 632.815 517.1 627.666 493.286Z"/><path fill="#FF5340" d="M374.601 738.832C372.002 723.414 367.031 704.084 373.02 689.44C374.403 686.059 376.043 673.063 380.958 674.376C381.633 675.256 382.423 675.917 382.278 677.106C378.156 710.829 394.176 732.908 423.376 749.885L421.583 750.717C417.396 749.344 410.46 747.899 405.963 746.776L374.601 738.832Z"/><path fill="white" d="M726.521 431.85C728.018 432.017 729.103 431.959 730.291 432.841C729.22 439.505 720.318 458.989 717.455 466.287C709.354 487.289 701.042 508.209 692.523 529.044C689.155 537.452 685.969 545.974 682.621 554.388C681.674 556.767 681.856 556.5 679.99 557.757C677.984 558.306 678.194 558.6 676.58 558.052C676.103 555.102 721.278 443.545 726.521 431.85Z"/><path fill="white" d="M756.424 546.609L757.985 546.498L758.653 547.247C758.764 551.853 752.413 557.072 748.516 557.9C728.276 562.2 707.724 566.194 687.619 571.172L686.45 571.199C686.483 569.633 689.632 563.012 690.483 560.931C710.395 557.674 736.513 551.437 756.424 546.609Z"/><path fill="#FF5340" d="M335.667 709.114C345.206 712.129 355.413 717.465 365.898 720.423C366.185 724.263 366.727 727.966 367.395 731.754L368.348 736.959C362.423 735.459 356.433 733.67 350.492 732.123C347.838 731.415 345.171 730.754 342.493 730.14C340.748 729.74 339.01 729.314 337.278 728.86C336.089 728.55 335.428 728.334 334.293 727.886C334.567 723.884 336.091 712.295 335.667 709.114Z"/><path fill="white" d="M734.704 449.171C736.087 449.845 737.581 450.497 738.99 451.137C729.441 475.754 719.663 499.44 709.586 523.82L701.472 543.75C700.389 546.43 698.666 551.206 697.403 553.546C695.492 554.047 695.171 554.182 693.234 554.172C694.191 550.263 701.368 533.337 703.22 528.499C713.51 501.976 724.005 475.532 734.704 449.171Z"/><path fill="#FF5340" d="M429.398 624.478C429.986 625.689 427.335 635.275 426.882 638.067C424.565 652.336 424.636 665.482 425.513 679.787L416.113 677.387L414.519 676.843C413.508 675.759 413.246 674.803 413.114 673.342C411.272 652.829 416.618 640.171 429.398 624.478Z"/><path fill="white" d="M666.946 581.396C668.907 580.909 670.871 580.435 672.838 579.973C659.994 610.234 648.742 641.834 635.483 671.996C634.479 674.28 632.153 674.377 629.848 674.833C630.201 672.466 634.958 662.361 636.178 659.633C644.252 640.67 650.512 620.469 658.756 601.487C661.516 595.133 664.869 587.935 666.946 581.396Z"/><path fill="#FF5340" d="M503.58 353.093C507.639 345.786 514.951 334.164 525.216 339.068C531.335 341.992 531.518 346.966 533.37 352.698C533.983 354.225 534.083 354.294 535.317 355.269C534.361 356.718 531.726 360.861 530.864 361.943C530.089 361.467 529.435 361.04 528.689 360.529C524.7 359.945 507.785 354.603 503.58 353.093Z"/><path fill="#15120D" d="M533.37 352.698C533.983 354.225 534.083 354.294 535.317 355.269C534.361 356.718 531.726 360.861 530.864 361.943C530.089 361.467 529.435 361.04 528.689 360.529C529.95 358.18 531.915 354.912 533.37 352.698Z"/><path fill="white" d="M392.478 920.415C394.241 921.088 395.957 938.463 396.44 941.254L397.34 947.01C390.487 944.433 384.316 941.633 377.625 938.767C373.332 937.023 369.107 935.208 364.733 933.643C369.061 930.348 385.104 924.568 392.478 920.415Z"/><path fill="white" d="M284.299 543.118C285.798 543.51 287.277 543.95 288.784 544.331L293.992 545.615L297.007 546.355L299.007 546.844L302.241 547.612C302.5 547.678 302.758 547.743 303.017 547.809L305.266 548.361L306.242 548.584C310.084 549.497 313.912 550.483 317.764 551.352L322.005 552.321C324.128 552.781 326.247 553.262 328.36 553.763C329.19 553.961 329.786 554.09 330.634 554.238C330.495 556.26 330.374 561.099 328.632 562.336C327.674 562.123 326.673 561.865 325.727 561.667L322.995 561.1C316.842 559.882 310.853 558.422 304.743 557.121C301.733 556.498 298.732 555.835 295.74 555.134L291.492 554.142C288.818 553.508 287.162 552.928 284.595 551.995C284.285 548.589 284.257 546.565 284.299 543.118Z"/><path fill="#FF5340" d="M549.158 350.003C556.353 349.605 559.81 352.276 564.605 357.456C565.66 363.248 565.569 365.811 564.874 371.582C563.17 371.166 561.47 370.816 559.788 370.341L557.864 369.791C551.672 367.677 545.391 365.835 539.038 364.27C538.722 364.189 538.405 364.108 538.089 364.027C540.459 356.979 541.816 352.793 549.158 350.003Z"/><path fill="#FF5340" d="M622.775 371.004C627.745 370.676 629.789 372.237 632.299 376.812C634.03 379.965 636.804 390.563 633.688 393.592C633.224 394.043 625.337 391.129 624.122 390.75L623.505 390.552C618.298 388.829 613.119 387.461 608.023 385.783C612.336 378.94 615.235 374.148 622.775 371.004Z"/><path fill="white" d="M729.132 445.908C730.719 446.741 731.038 446.546 731.685 447.841C730.286 453.062 721.549 473.753 719.229 479.614L689.137 555.666C687.813 555.831 687.112 556.118 686.008 555.468C687.56 549.263 696.691 527.368 699.539 520.128C709.127 495.279 718.992 470.537 729.132 445.908Z"/><path fill="#FF5340" d="M586.264 360.533C600.824 359.255 600.683 371.777 598.766 382.491L598.043 382.274C595.391 381.483 592.751 380.655 590.123 379.79C585.373 378.005 579.034 376.129 574.129 375.138C577.608 367.447 579.009 364.976 586.264 360.533Z"/><path fill="white" d="M627.573 682.109L632.951 680.317C625.651 698.642 618.055 716.66 611.194 735.146L610.166 734.325C611.493 729.803 612.243 720.867 613.799 714.682C613.496 711.733 614.358 708.235 614.867 705.244C615.238 702.992 615.648 700.747 616.096 698.508C616.547 696.392 617.105 693.879 617.441 691.745L618.681 684.298C621.734 683.636 624.564 682.811 627.573 682.109Z"/><path fill="#FF5340" d="M618.681 684.298C621.734 683.636 624.564 682.811 627.573 682.109C623.337 690.928 618.448 707.201 613.799 714.682C613.496 711.733 614.358 708.235 614.867 705.244C615.238 702.992 615.648 700.747 616.096 698.508C616.547 696.392 617.105 693.879 617.441 691.745L618.681 684.298Z"/><path fill="#FF5340" d="M535.317 355.269C537.342 352.806 537.952 352.374 540.345 350.235C535.306 359.834 530.127 369.894 531.614 381.497C532.09 385.216 534.278 389.462 536.127 392.692C537.74 395.307 542.587 395.568 542.668 391.547C542.764 386.852 539.294 388.486 537.153 385.992C536.69 385.276 537.293 380.996 538.273 381.038C542.802 381.231 548.254 386.381 548.409 391.001C548.732 400.586 537.818 403.691 531.708 397.131C527.223 392.317 526.488 384.238 526.527 378C526.672 372.749 528.169 367.406 530.488 362.717L530.864 361.943C531.726 360.861 534.361 356.718 535.317 355.269Z"/><path fill="white" d="M634.777 922.654C643.145 925.426 654.288 930.133 662.971 933.35C659.281 935.045 655.457 936.542 651.875 938.221C645.267 940.938 638.006 944.263 631.261 946.508C632.189 938.701 633.437 930.394 634.777 922.654Z"/><path fill="#FF5340" d="M575.641 362.917C576.338 363.043 576.421 363.262 575.811 363.955C567.592 373.294 565.915 393.228 570.65 404.19C572.702 408.94 585.339 407.686 579.836 399.683C578.383 397.57 575.388 398.013 573.221 397.942C571.549 397.908 572.203 393.433 574.236 393.607C578.191 393.4 580.202 394.032 583.402 396.163C585.234 398.834 586.128 400.256 586.164 403.749C586.201 406.247 585.167 408.642 583.324 410.328C581.117 412.378 578.65 412.837 575.747 412.533C562.37 411.129 562.499 392.494 564.03 382.752C565.428 373.85 568.769 368.127 575.641 362.917Z"/><path fill="white" d="M649.686 387.132C653.452 384.265 658.573 384.256 662.631 386.566C665.774 389.878 669.788 398.247 669.667 403.14C669.638 404.073 669.616 405.007 669.601 405.94C666.933 405.026 664.292 404.318 661.689 403.264C660.321 402.75 658.603 402.112 657.188 401.823C654.184 401.12 644.221 398.209 641.283 397.135C642.763 394.509 643.732 392.37 646.089 390.289C647.274 389.243 648.715 388.326 649.686 387.132Z"/><path fill="#FF5340" d="M649.686 387.132C651.759 393.195 654.242 396.525 657.188 401.823C654.184 401.12 644.221 398.209 641.283 397.135C642.763 394.509 643.732 392.37 646.089 390.289C647.274 389.243 648.715 388.326 649.686 387.132Z"/><path fill="#FF5340" d="M662.631 386.566C665.774 389.878 669.788 398.247 669.667 403.14C669.638 404.073 669.616 405.007 669.601 405.94C666.933 405.026 664.292 404.318 661.689 403.264C661.44 395.454 661.572 394.334 662.631 386.566Z"/><path fill="white" d="M716.391 533.567C721.212 534.782 727.069 535.818 732.006 536.862L735.493 537.606C738.008 538.163 740.517 538.799 743.007 539.352L745.261 539.856C747.863 540.414 750.211 540.905 752.804 541.543C748.152 542.295 743.931 543.247 739.37 544.104L731.743 545.887L728.506 546.635L724.264 547.64L717.23 549.359C714.471 550.019 712.284 550.478 709.518 551.031C711.288 547.124 715.159 537.489 716.391 533.567Z"/><path fill="white" d="M677.253 578.187C678.427 578.334 678.49 578.357 679.609 578.647C679.846 580.559 645.859 664.659 642.009 672.821C640.504 672.622 640.913 672.821 639.628 672.178C640.495 667.439 674.785 581.757 677.253 578.187Z"/><path fill="#FF5340" d="M692.667 395.975C704.602 396.564 705.054 407.798 704.991 416.935C701.521 416.048 698.075 414.977 694.621 414.098C689.353 412.044 684.741 410.955 679.943 409.258C682.962 403.682 686.553 398.278 692.667 395.975Z"/><path fill="white" d="M687.327 576.601C687.416 577.312 687.583 577.105 687.114 578.288C674.94 609.039 662.642 639.86 649.538 670.213C648.634 670.661 647.882 671.033 647.282 671.329C646.288 667.683 679.685 590.328 683.198 578.67C683.568 577.443 686.125 576.973 687.327 576.601Z"/><defs><linearGradient id="gradient_0" gradientUnits="userSpaceOnUse" x1="518.54962" y1="355.63071" x2="491.20203" y2="380.72668"><stop offset="0" stop-color="#FF5340"/><stop offset="1" stop-color="#FF5340"/></linearGradient></defs><path fill="url(#gradient_0)" d="M508.342 340.526C508.111 341.971 502.206 349.494 500.481 353.176C495.975 362.32 496.003 372.585 498.591 382.268C500.293 388.633 507.654 388.216 508.819 383.322C508.081 380.001 503.998 378.256 501.315 375.077C500.795 373.02 500.701 373.95 501.23 372.172L502.451 372.005C505.205 373.004 507.936 374.064 509.942 376.253C513.001 381.275 515.265 386.917 508.992 391.24C505.008 393.986 497.592 391.113 495.391 386.867C488.38 373.348 495.499 348.449 508.342 340.526Z"/><path fill="#FF5340" d="M606.96 376.932C606.922 377.833 606.9 378.138 606.508 379.001C601.558 390.022 598.675 402.172 604.424 413.496C606.37 417.327 613.486 417.861 614.139 413.513C614.868 408.663 609.494 409.658 606.743 408.553C605.077 407.796 604.098 404.014 606.739 403.983C611.497 403.925 614.003 403.398 617.584 406.463L617.812 406.78C626.811 419.058 610.787 427.903 604.025 419.741C595.478 409.426 596.549 386.531 606.96 376.932Z"/><path fill="#FF5340" d="M641.223 390.017L641.997 390.958C636.884 399.21 634.962 410.176 637.611 419.732C639.346 424.906 641.199 432.069 648.273 430.033C652.004 428.959 651.271 423.385 648.219 422.079C646.302 421.259 644.765 422.209 642.935 422.77C641.701 420.355 640.917 418.805 639.748 416.32C645.805 416.256 652.327 416.027 655.027 422.998C655.885 425.214 655.928 428.678 654.813 430.849C653.685 433.084 651.648 434.725 649.223 435.352C632.079 439.912 628.183 402.278 641.223 390.017Z"/><path fill="#FF5340" d="M678.781 401.896C679.48 402.589 679.392 402.529 678.975 403.499C677.595 406.66 676.461 409.922 675.584 413.257C673.666 421.626 673.355 428.488 676.626 436.5C679.466 443.457 688.79 441.022 685.751 434.5C684.822 432.094 679.617 432.475 679.321 432.234C674.395 428.23 680.626 424.534 688.275 429.882C697.892 442.588 680.753 452.632 674.779 442.391C668.311 431.302 668.98 411.582 678.781 401.896Z"/><path fill="white" d="M637.291 678.645C637.98 678.769 638.778 678.974 639.47 679.135L639.678 679.898C634.082 694.211 628.4 708.49 622.633 722.735C620.778 727.443 612.559 749.541 610.522 752.145L608.474 751.856L608.117 751.094C614.511 734.119 621.122 717.225 627.948 700.418C630.034 695.293 634.75 682.914 637.291 678.645Z"/><path fill="white" d="M645.817 676.684C646.515 677.014 646.157 676.77 646.807 677.525C646.569 678.947 644.019 685.225 643.341 686.405C639.017 693.937 620.83 747.412 616.69 750.361C616.348 750.216 615.862 749.857 615.53 749.637C615.507 750.116 615.548 748.727 615.623 748.545C625.303 725.084 634.001 701.142 644.181 677.86C644.726 677.468 645.272 677.076 645.817 676.684Z"/><path fill="white" d="M683.46 562.282C684.098 562.332 685.918 562.288 686.343 562.663C686.468 563.277 682.596 571.61 682.046 572.752C681.142 572.784 680.133 572.955 679.245 572.852C679.219 572.849 679.101 572.796 679.115 572.742C679.938 569.656 681.756 566.08 683.076 563.149L683.46 562.282Z"/><path fill="#FF5340" d="M641.223 390.017C642.162 388.963 644.371 386.134 645.65 385.947C646.435 386.556 642.579 390.255 641.997 390.958L641.223 390.017Z"/><path fill="#FF5340" d="M423.376 749.885C424.097 750.234 425.867 750.945 426.165 751.654C425.861 752.107 422.339 750.884 421.583 750.717L423.376 749.885Z"/><path fill="#15120D" d="M610.166 734.325L611.194 735.146C611.065 735.798 610.969 736.869 610.292 737.213C609.635 736.966 610.097 734.813 610.166 734.325Z"/><path fill="#FF5340" d="M422.679 335.734C432.608 310.84 432.007 279.953 420.05 255.667C416.748 249.424 413.068 243.119 409.588 236.98C384.774 193.215 377.86 144.421 398.024 96.9915C412.635 62.6238 432.797 42.4858 461.814 19.2874C449.546 44.6119 442.841 67.9356 448.122 96.5056C454.549 131.274 478.755 154.095 504.146 176.233C510.644 181.898 517.581 187.916 523.486 194.139C533.886 205.011 542.482 217.475 548.947 231.061C563.007 261.112 561.422 290.559 550.423 321.069C601.188 300.812 617.145 255.712 604.055 204.505C636.556 242.513 662.356 275.778 651.611 330.375C646.61 355.783 641.94 352.243 647.7 380.151C644.481 381.623 643.552 382.202 640.65 384.213C635.216 362.123 621.973 358.477 604.622 371.897C603.445 351.259 585.186 350.608 571.425 361.747C571.027 359.807 570.489 356.585 569.525 354.953C562.208 342.565 549.459 341.764 538.298 348.359C536.097 342.688 532.773 336.734 526.943 334.47C511.62 328.518 501.873 340.025 495.726 351.229C488.529 347.98 484.249 349.981 476.927 352.381C455.073 404.785 433.975 457.502 413.638 510.513C406.67 528.273 400.155 546.231 392.869 563.871C372.434 558.169 350.817 553.311 330.078 547.915C329.819 542.07 329.061 533.907 326.519 528.631C326.227 526.465 325.779 524.595 324.197 523.028C300.119 480.924 297.38 428.265 319.534 384.836C318.134 412.014 321.184 433.152 337.321 455.985C352.053 476.829 376.995 493.625 402.289 497.925C378.18 479.339 357.949 449.448 353.109 418.989C351.186 406.892 353.987 388.577 358.501 377.16C371.653 343.894 368.815 293.652 330.929 278.248C323.867 275.377 315.887 276.214 308.267 276.629C316.841 268.33 322.684 265.392 334.722 263.559C376.97 257.126 417.417 294.73 422.679 335.734Z"/><path fill="#FF5340" d="M545.485 121.323L547.781 121.204C546.327 123.3 545.101 125.83 544.173 128.211C542.412 132.781 541.703 137.69 542.1 142.572C543.114 156.511 550.109 162.506 558.001 173.086C570.868 190.337 571.488 207.324 563.539 226.994C557.156 206.478 553.348 201.921 539.718 185.65C522.588 165.2 526.783 139.682 545.485 121.323Z"/><path fill="#FF5340" d="M707.454 615.989C704.987 621.477 701.508 628.026 700.101 633.754C698.86 638.804 696.806 653.471 698.865 657.855C692.459 659.443 684.662 661.229 678.46 663.266C683.28 645.139 694.15 628.978 707.454 615.989Z"/><path fill="#FF5340" d="M722.347 292.991C725.072 290.661 726.023 290.445 723.552 293.998L722.347 292.991Z"/><path fill="#FF5340" d="M545.485 121.323C546.086 120.795 547.989 118.976 548.699 118.848C549.25 119.213 547.994 120.876 547.781 121.204L545.485 121.323Z"/></g></svg>
