<?xml version="1.0" encoding="utf-8" ?><svg xmlns="http://www.w3.org/2000/svg" xmlns:xlink="http://www.w3.org/1999/xlink" width="1344" height="768" viewBox="0 0 1344 768"><path fill="#FF5340" d="M1236.73 328.747C1239.91 329.24 1266.64 345.282 1271.35 347.912L1307.35 367.797C1318.22 373.843 1338.76 381.737 1330.83 397.484C1324.26 410.546 1300.35 419.927 1289.37 430.665C1283.33 436.563 1274.94 442.291 1268.63 448.007C1263.89 452.293 1253.93 461.656 1248.63 463.822C1243.26 464.085 1232.1 456.244 1231.53 451.104C1231.76 449.625 1232.38 447.939 1233.45 446.853C1247.61 432.552 1262.46 418.888 1276.33 404.303C1213.22 408.981 1150.01 406.895 1086.91 403.193C1055.75 401.365 1024.97 398.384 993.728 397.688C969.469 397.148 945.791 398.087 921.619 398.267L764.629 399.514C666.095 400.206 563.646 398.869 465.441 406.046C423.905 407.954 382.394 410.249 340.891 412.633C335.148 412.578 327.573 414.014 323.181 409.244C317.366 402.93 322.058 395.816 326.814 391.112C335.093 389.74 346.752 389.058 355.383 388.379C379.544 386.054 403.828 385.782 428.021 384.022C492.664 379.319 556.505 377.958 621.271 377.43C667.018 376.725 712.769 376.455 758.521 376.623C810.485 376.523 862.447 375.89 914.399 374.724C925.637 374.543 937.026 374.188 948.251 374.204C966.58 374.443 985.734 372.927 1004.01 373.963C1079.63 378.252 1154.89 383.744 1230.71 380.359C1245.29 379.707 1260.32 380.427 1274.87 379.375C1261.58 367.038 1238.67 360.496 1225.57 348.064C1218.43 341.298 1231.84 331.558 1236.73 328.747Z"/></svg>