<svg xmlns="http://www.w3.org/2000/svg" width="1313" height="965" viewBox="0 0 1313 965"><g transform="translate(211.5 75.7)">
<path d="M644.259 112.043C637.155 114.85 631.904 114.445 625.573 109.947C616.793 103.709 610.725 93.3479 618.689 83.7189C622.094 79.6019 625.689 75.9909 629.318 72.0839L650.133 49.7679L676.367 21.8489C681.786 16.1189 687.345 9.92889 693.335 4.81689C696.571 1.86989 698.821 0.990891 703.13 0.301891C713.766 -2.55811 731.429 15.5999 724.079 25.3179C715.493 36.6699 702.443 48.6379 692.874 59.5129C688.069 64.9739 682.825 69.9599 678.072 75.3639L678.287 122.11C720.945 110.676 719.246 111.405 744.419 76.3279L762.243 51.5689C766.894 45.0559 772.493 35.0859 780.199 32.3719C788.378 29.4899 797.13 35.4299 799.11 43.5249C799.845 46.5499 799.575 49.7319 798.341 52.5899C796.299 57.3809 791.353 63.2869 788.34 67.6619C781.262 77.9429 772.054 88.8449 765.525 99.3239L771.522 99.4679C784.537 91.7559 795.149 74.3919 804.045 61.9209L823.449 34.7719C829.631 26.0279 835.929 12.9319 848.447 15.4819C852.39 16.2709 855.852 18.6039 858.064 21.9619C862.085 28.1189 860.305 35.4389 856.348 41.0769C846.582 55.2469 835.873 69.0919 826.229 83.3399C813.686 101.872 805.486 113.752 786.454 126.127L786.275 126.934C784.288 135.543 781.782 138.233 774.597 142.782L774.679 153.49C777.38 155.588 779.994 157.726 782.918 159.5C787.61 159.478 793.872 159.27 798.437 159.59C802.645 163.277 805.48 166.179 808.871 170.636C810.159 172.329 814.311 178.577 815.538 179.444C827.294 187.752 841.408 193.786 853.006 202.405C855.61 204.34 859.827 210.349 861.153 213.445C867.124 227.383 872.569 242.841 877.508 257.204C881.466 268.716 886.564 280.975 890.191 292.288C875.281 304.151 854.606 315.615 836.223 320.844C836.652 336.193 839.763 435.994 837.949 440.659C830.152 448.497 798.13 452.213 787.384 453.132C785.842 453.264 782.45 454.649 780.894 455.243C772.482 458.451 763.643 459.932 754.86 461.708C753.777 461.927 751.284 462.245 751.203 463.249C749.086 468.397 747.529 467.709 743.363 469.493C735.449 472.882 726.892 473.974 719.122 476.328C736.054 486.284 750.974 499.32 763.11 514.764C788.007 546.514 798.665 586.902 793.456 626.755C788.029 668.274 768.407 701.14 735.721 726.72C739.675 741.875 743.204 757.182 747.14 772.359C763.103 772.742 773.486 771.496 773.344 792.286C773.289 800.254 773.845 802.563 769.384 809.587C803.644 809.59 837.977 809.736 872.226 809.474C875.233 809.451 877.327 809.099 879.446 811.154C879.363 812.125 879.091 813.197 878.168 813.478C874.365 814.638 862.147 814.065 858.615 814.064L817.061 814.063L684.223 814.067L142.671 814.061C98.5851 814.061 54.4971 814.036 10.4129 814.091C6.8043 814.096 1.4365 815.347 0 811.562L0.605194 810.685C4.48639 808.825 32.4811 809.637 38.8111 809.635L110.204 809.569C107.208 804.787 106.488 803.436 106.198 797.6C104.913 771.779 114.036 772.218 135.714 772.494C176.947 730.21 220.36 688.531 261.051 645.888C258.833 637.408 258.114 628.606 258.927 619.879C259.284 615.719 261.044 607.18 260.105 603.775C255.745 587.953 251.199 572.068 246.73 556.276L218.742 457.157C214.701 442.623 210.228 427.987 206.454 413.386C205.993 411.605 206.335 409.882 206.682 408.094C203.468 401.245 199.566 394.739 195.037 388.679C185.797 376.134 171.248 359.59 156.699 353.414C151.756 351.315 138.794 356.01 134.773 348.934C133.155 346.087 132.786 341.224 133.579 338.121C134.927 332.842 140.223 333.881 144.247 331.738C144.96 330.404 144.727 328.202 144.707 326.578C140.893 326.611 137.078 326.62 133.264 326.606C129.522 326.569 126.815 326.703 124.069 323.849C121.224 320.892 89.1451 325.111 83.8521 322.168C82.1381 321.215 81.2341 319.591 80.7711 317.735C79.7911 313.809 79.5951 302.893 81.8911 299.371C82.6021 298.281 83.5661 297.534 84.8171 297.162C93.3061 294.639 113.876 298.126 123.8 296.415C127.676 290.726 129.168 294.764 132.817 292.666C140.494 288.252 136.444 277.019 132.918 270.929C119.707 263.273 96.7821 257.613 100.785 238.143C101.702 233.683 102.161 231.26 104.677 227.212C109.017 220.352 115.939 215.532 123.878 213.842C138.475 210.776 159.725 215.472 174.665 217.672C183.611 218.987 192.612 219.889 201.641 220.373C222.962 221.528 243.751 218.577 264.745 220.221C274.296 220.776 279.841 224.082 287.835 228.021C296.714 232.396 308.14 253.943 293.76 255.269C277.654 256.754 260.141 255.262 243.555 256.248C230.783 266.976 225.317 274.026 208.172 278.983C208.171 283.629 207.987 288.515 207.887 293.181C213.212 293.176 234.408 292.439 237.924 294.103C241.665 299.671 246.592 294.622 247.118 302.017C247.351 305.297 248.571 320.43 244.7 321.962C240.486 323.629 241.485 320.859 237.629 325.793C235.279 326.725 227.884 326.482 224.838 326.507C231.425 351.944 239.778 377.46 246.798 402.811C247.993 407.127 250.743 405.093 252.476 406.915C255.805 410.416 258.254 422.556 259.663 427.445C262.351 426.412 264.693 425.836 267.458 425.117C266.958 423.024 266.577 420.663 266.185 418.529C270.079 410.805 279.894 405.713 286.815 414.006C289.295 416.977 290.788 427.025 292.305 430.979C296.684 442.391 293.955 454.14 279.293 451.611C275.892 451.077 273.804 446.839 272.483 443.767L264.936 446.411L289.378 531.513L318.844 531.555C318.095 528.068 317.314 524.589 316.502 521.116C310.463 521.181 299.708 522.387 294.707 519.356C289.349 516.108 289.529 506.083 293.284 501.721C295.28 499.402 299.499 499.472 302.361 499.134C318.822 499.156 335.497 498.516 351.909 499.572C360.166 500.156 362.04 513.673 356.654 518.486C352.318 522.362 343.438 521.238 337.634 521.254L339.895 531.476C356.414 531.809 373.605 531.563 390.175 531.586C436.128 483.834 484.787 435.743 531.689 388.726C535.91 384.701 539.667 380.745 543.678 376.517C543.185 374.094 542.494 371.499 541.902 369.08C540.799 364.578 536.546 351.264 537.681 347.668C539.106 346.626 539.41 346.462 540.63 345.126C540.802 343.103 540.902 344.113 539.974 342.032C532.562 338.362 514.937 326.539 526.819 317.547C533.45 312.53 552.485 306.343 558.62 314.461C562.579 319.7 557.015 327.134 556.139 333.512L556.013 334.467C553.691 336.271 551.928 337.444 553.082 340.585C554.575 342.26 556.176 342.41 558.399 343.024C560.354 347.131 561.749 352.472 563.066 356.904C571.746 348.407 580.549 339.09 589.161 330.382C579.158 324.423 564.482 316.219 556.857 307.822C563.325 289.697 570.623 269.501 577.614 251.644C573.146 231.683 567.482 211.279 562.852 191.117C559.082 190.295 555.407 189.16 552.399 186.638C547.863 182.833 545.262 175.3 544.868 169.47C544.62 165.806 545.542 161.661 548.141 158.916C553.303 153.463 610.692 129.473 620.974 125.908C623.709 124.96 626.971 123.93 629.872 123.835C635.807 123.641 640.253 128.005 644.222 131.798L644.259 112.043Z" fill="#15120D"/>
<path d="M771.955 157.445C776.035 160.449 786.592 168.544 790.708 170.478C791.925 169.776 792.275 168.175 792.837 166.751C789.487 164.394 786.18 161.976 782.918 159.5C787.61 159.478 793.872 159.27 798.437 159.59C802.645 163.277 805.48 166.179 808.871 170.636C810.159 172.329 814.311 178.577 815.538 179.444C827.294 187.752 841.408 193.786 853.006 202.405C855.61 204.34 859.827 210.349 861.153 213.445C867.124 227.383 872.569 242.841 877.508 257.204C881.466 268.716 886.564 280.975 890.191 292.288C875.281 304.151 854.606 315.615 836.223 320.844C836.652 336.193 839.763 435.994 837.949 440.659C830.152 448.497 798.13 452.213 787.384 453.132C785.842 453.264 782.45 454.649 780.894 455.243C772.482 458.451 763.643 459.932 754.86 461.708C753.777 461.927 751.284 462.245 751.203 463.249C749.086 468.397 747.529 467.709 743.363 469.493C735.449 472.882 726.892 473.974 719.122 476.328C718.163 475.945 714.286 473.534 713.175 472.873C723.316 471.076 737.938 467.795 747.095 463.247C746.322 458.439 746.105 447.27 745.894 442.01L744.337 403.087C743.444 380.622 742.668 358.153 742.008 335.68C741.561 324.276 740.943 312.897 740.352 301.502C740.253 299.585 740.352 295.542 742.358 294.704C742.506 294.826 742.668 294.932 742.801 295.07C746.175 298.599 746.408 334.008 746.708 340.545C762.05 334.715 779.078 325.653 791.585 315.043C786.167 300.297 780.657 285.585 775.054 270.908C771.42 261.296 762.478 235.479 755.415 229.732C745.868 221.965 726.754 211.806 715.631 205.544C713.743 211.204 701.768 244.719 697.433 246.181C692.991 244.096 681.858 231.944 677.194 227.561C671.109 244.733 671.88 246.426 671.66 264.334C671.447 277.202 671.313 290.071 671.259 302.94L670.322 407.799C670.119 424.178 670.501 445.521 669.413 461.533C663.633 443.497 666.01 426.152 666.131 407.021L666.88 299.802L667.23 263.574C667.388 245.018 668.466 245.418 661.597 227.919C654.904 232.953 648.129 239.758 641.128 244.092C640.276 244.62 640.408 244.467 639.403 244.032C635.291 238.441 631.352 213.127 630.706 205.34C622.271 209.295 613.221 215.599 604.845 219.32C603.502 218.387 603.699 217.763 603.041 215.817C609.289 212.269 624.368 204.51 629.296 200.904C634.223 197.298 637.258 187.168 645.892 181.647C650.884 181.437 656.735 181.642 661.788 181.696C658.399 184.495 647.757 189.29 651.189 194.256C654.35 193.341 669.475 182.154 673.149 179.535C676.494 182.194 688.873 190.978 692.607 192.399C693.848 191.736 694.252 190.176 694.868 188.778C690.943 186.221 687.972 184.232 684.27 181.374C687.269 177.295 689.044 175.005 693.257 172.222L710.283 172.063C707.27 174.446 700.588 178.05 700.05 180.68C700.898 181.899 701.367 182.122 702.552 183.017C709.141 178.845 715.635 174.527 722.031 170.065C725.511 172.409 738.076 182.306 740.683 182.48C741.433 181.327 741.859 180.92 742.057 179.573C740.84 177.107 735.666 173.979 733.248 172.321C736.087 169.604 738.224 165.899 741.431 162.919C746.403 158.3 753.31 159.654 759.891 159.865C757.315 162.167 749.633 166.61 748.723 168.789C749.184 170.213 749.234 170.893 750.421 171.784C754.11 170.232 768.058 160.185 771.955 157.445Z" fill="white"/>
<path d="M813.12 183.493C854.76 207.165 852.055 199.204 868.295 244.526L884.875 290.911C873.618 300.931 850.25 311.457 836.41 316.886C835.781 313.953 835.444 309.24 835.131 306.115L838.173 302.281C834.145 290.427 833.547 282.625 833.133 270.071C833.098 269.002 832.495 268.905 831.706 268.46C829.701 269.008 830.415 268.436 829.404 270.119C828.86 270.503 827.45 271.44 827.024 271.827C820.525 253.915 812.97 227.094 800.536 213.101C805.377 202.647 809.334 194.277 813.12 183.493Z" fill="#15120D"/>
<path d="M830.464 309.008C832.778 311.155 833.758 423.57 834.61 438.552C821.672 444.36 806.955 446.814 792.962 448.148C792.568 445.365 792.474 437.876 792.353 434.846L791.3 406.984C790.41 382.08 789.028 355.649 788.722 330.844C803.509 325.373 817.537 318.035 830.464 309.008Z" fill="#15120D"/>
<path d="M762.493 195.738C770.122 199.435 795.088 213.573 800.092 218.915C808.04 227.4 827.954 287.019 833.418 301.306C823.789 309.16 817.766 312.449 807.013 318.349C803.956 319.944 791.122 326.734 788.451 324.995C788.657 322.22 794.33 318.512 796.518 315.832C794.18 308.641 791.082 301.106 788.553 293.898C786.873 290.057 786.193 285.056 784.446 281.327C779.691 271.183 775.859 260.553 771.683 250.159C766.264 236.67 763.902 229.839 751.724 221.435C755.648 214.119 759.818 203.551 762.493 195.738Z" fill="#15120D"/>
<path d="M783.68 326.587C784.722 328.04 788.079 435.881 788.483 448.076C775.343 452.967 765.036 455.638 751.307 457.881C750.321 452.459 749.896 430.153 749.611 423.641C748.444 397.477 747.475 371.305 746.704 345.126C761.292 339.835 770.765 334.809 783.68 326.587Z" fill="#15120D"/>
<path d="M699.877 186.088C703.095 188.965 710.496 197.622 712.285 201.165C709.365 212.808 701.863 228.856 696.926 240.119L694.254 237.751C689.091 233.038 683.77 228.043 678.395 223.615C687.02 210.8 695.749 203.023 699.877 186.088Z" fill="#15120D"/>
<path d="M669.524 193.218C676.096 192.459 684.81 195.236 690.961 197.215C688.855 201.428 686.415 205.467 683.667 209.292C676.858 218.671 674.271 220.078 671.166 231.716C670.72 233.306 670.485 234.682 669.532 236.013C668.046 233.788 666.553 227.263 665.065 224.561C659.508 214.468 655.488 209.704 651.84 198.393C657.673 195.886 663.322 194.415 669.524 193.218Z" fill="#15120D"/>
<path d="M798.352 164.858C800.542 167.368 801.681 168.816 803.565 171.559C806.442 173.755 807.966 175.826 809.927 178.871C807.197 189.034 801.234 201.138 796.727 210.828C790.607 207.12 783.405 203.303 777.622 199.463C783.603 191.962 790.99 181.846 794.853 173.116L798.352 164.858Z" fill="#15120D"/>
<path d="M798.352 164.858C800.542 167.368 801.681 168.816 803.565 171.559C799.961 169.825 798.785 172.136 794.853 173.116L798.352 164.858Z" fill="#15120D"/>
<path d="M645.351 187.43C646.335 188.707 647.153 198.683 648.291 201.905C651.38 210.645 654.946 216.362 659.834 223.968C654.902 227.663 650.464 231.305 645.714 235.229L641.64 238.611C638.093 226.653 635.775 214.364 634.723 201.935C637.055 197.614 641.85 190.87 645.351 187.43Z" fill="#15120D"/>
<path d="M747.541 177.327C751 179.752 757.261 187.701 759.212 191.543C757.304 199.097 751.375 212.078 747.965 219.338L745.015 217.464C739.924 214.551 734.856 211.597 729.813 208.602C737.945 198.639 743.136 189.392 747.541 177.327Z" fill="#15120D"/>
<path d="M766.965 171.154C774.511 170.42 781.564 172.676 788.683 175.014C785.262 182.707 779.44 190.2 774.177 196.752L773.271 197.041C769.998 195.569 766.759 193.366 763.708 191.42C762.307 186.88 755.836 179.659 752.67 175.598C757.734 173.704 761.77 172.521 766.965 171.154Z" fill="#15120D"/>
<path d="M717.24 183.7C723.591 182.672 732.345 185.552 738.612 187.304C735.173 194.199 731.449 199.113 726.976 205.363C726.695 205.628 726.126 205.871 725.746 206.068C722.646 205.034 719.925 203.297 717.069 201.672C714.923 195.73 710.518 191.27 706.409 186.483C709.757 185.434 713.782 184.547 717.24 183.7Z" fill="#15120D"/>
<path d="M743.906 165.447C744.371 167.027 744.795 169.157 744.366 170.752C742.778 172.101 742.9 171.645 740.254 171.78L739.794 171.179C740.661 169.099 742.439 167.227 743.906 165.447Z" fill="#15120D"/>
<path d="M827.024 271.827C827.45 271.44 828.86 270.503 829.404 270.119C829.42 273.557 829.515 276.23 829.78 279.656C829.131 277.864 827.425 273.471 827.024 271.827Z" fill="#15120D"/>
<path d="M593.978 331.952C599.089 347.017 602.7 369.23 607.706 385.342L444.89 549.804C424.875 548.147 403.683 545.767 383.851 544.418C399.623 527.426 418.661 509.041 435.203 492.488C469.214 458.455 503.055 423.178 537.408 389.584C535.276 388.945 533.897 388.915 531.689 388.726C535.91 384.701 539.667 380.745 543.678 376.517C543.185 374.094 542.494 371.499 541.902 369.08C543.883 369.332 544.559 369.406 546.538 369.34L541.919 350.349C545.869 349.06 550.9 347.569 554.635 345.951C556.6 350.086 558.953 362.501 561.646 364.209C566.047 361.623 588.997 337.216 593.978 331.952Z" fill="#FF5340"/>
<path d="M541.902 369.08C543.883 369.332 544.559 369.406 546.538 369.34L548.673 377.334C545.943 381.441 540.995 386.032 537.408 389.584C535.276 388.945 533.897 388.915 531.689 388.726C535.91 384.701 539.667 380.745 543.678 376.517C543.185 374.094 542.494 371.499 541.902 369.08Z" fill="#15120D"/>
<path d="M593.684 176.932C597.608 175.187 611.97 167.901 615.068 167.504C636.951 164.705 660.484 158.384 681.786 153.398C678.022 159.129 675.494 158.393 670.832 162.753C670.74 166.808 670.782 171.041 670.76 175.112C667.743 177.651 665.154 179.661 661.788 181.696C656.735 181.642 650.884 181.437 645.892 181.647C637.258 187.168 634.223 197.298 629.296 200.904C624.368 204.51 609.289 212.269 603.041 215.817C599.932 202.858 596.514 189.949 593.684 176.932Z" fill="white"/>
<path d="M736.445 141.334C746.701 138.793 756.958 136.616 767.218 133.959C772.275 132.651 776.591 130.124 780.209 129.202L780.678 129.672C780.734 133.168 772.258 138.486 769.467 140.206C769.101 143.917 769.258 149.821 769.247 153.7C766.555 155.593 762.709 158.479 759.891 159.865C753.31 159.654 746.403 158.3 741.431 162.919C738.224 165.899 736.087 169.604 733.248 172.321C730.409 170.23 727.516 168.212 724.572 166.271C724.362 162.912 724.525 159.189 724.598 155.794C731.728 151.491 733.537 148.89 736.445 141.334Z" fill="white"/>
<path d="M687.551 152.109C700.642 149.878 717.679 145.552 730.84 142.433C722.846 156.473 718.851 145.187 719.312 166.006C716.287 168.145 713.483 170.186 710.283 172.063L693.257 172.222C689.044 175.005 687.269 177.295 684.27 181.374L675.707 175.2C675.541 171.838 675.639 168.27 675.674 164.886C682.591 161.119 684.636 159.454 687.551 152.109Z" fill="white"/>
<path d="M556.857 307.822C563.325 289.697 570.623 269.501 577.614 251.644L579.431 258.704C573.686 274.495 567.447 290.774 561.9 306.542C571.004 315.851 581.644 320.195 592.135 326.777L589.161 330.382C579.158 324.423 564.482 316.219 556.857 307.822Z" fill="white"/>
<path d="M335.406 546.285C342.318 545.266 360.712 547.018 368.334 547.616L435.676 553.523L654.381 572.348L658.316 587.355C641.933 587.663 613.268 582.02 612.808 607.444C612.692 612.801 614.755 617.975 618.524 621.782C620.965 624.306 624.049 626.116 627.444 627.015C634.362 628.847 660.222 627.981 668.585 627.904C669.458 631.762 670.46 635.59 671.588 639.382C665.021 641.239 651.948 643.49 644.766 644.951L589.455 656.165L412.61 692.218C398.457 694.756 384.59 698.138 370.554 700.601C368.476 692.316 366.626 683.663 364.731 675.311C371.002 672.442 375.558 669.686 380.605 664.832C390.81 655.137 396.634 641.711 396.739 627.636C396.954 612.903 391.837 598.912 381.488 588.335C371.451 578.208 357.834 572.435 343.577 572.262C329.014 572.043 314.986 577.746 304.707 588.064C270.655 622.226 295.567 680.482 344.962 680.019C345.914 686.452 348.993 698.13 350.533 704.705C330.076 706.105 310.272 700.994 294.028 688.256C276.943 675.02 265.94 655.434 263.523 633.958C258.48 589.505 291.298 551.02 335.406 546.285Z" fill="#FF5340"/>
<path d="M435.816 582.162C442.607 581.707 450.936 583.417 457.83 584.485L484.854 588.697C500.566 591.126 516.293 593.129 532.003 595.82C540.98 597.357 546.276 601.327 548.808 610.487C550.223 615.386 548.631 620.955 546.073 625.231C541.054 633.621 527.944 635.364 519.174 637.558C516.536 638.355 513.206 639.115 510.497 639.71C497.492 642.568 484.206 646.753 471.244 649.489C456.547 652.592 425.142 666.524 429.485 638.128C430.889 628.95 431.108 620.281 429.18 611.165C426.914 599.272 421.322 588.455 435.816 582.162Z" fill="#15120D"/>
<path d="M437.319 586.576C442.3 586.206 455.938 588.817 461.741 589.744C472.262 591.425 484.095 592.775 494.463 594.771C493.518 611.179 493.952 622.183 497.378 638.259L480.905 642.345C471.149 645.092 451.059 650.102 441.276 651.894C430.384 647.857 433.281 643.695 434.492 633.555C435.991 624.705 434.367 615.956 432.838 607.242C431.058 597.099 426.488 592.346 437.319 586.576Z" fill="white"/>
<path d="M499.24 595.445C505.572 596.314 511.993 597.126 518.284 598.22C516.965 612.302 518.461 618.622 520.131 631.979C519.134 633.029 518.83 632.817 517.196 633.271C512.594 634.648 506.691 636.012 501.954 637.232C498.901 624.654 497.826 608.256 499.24 595.445Z" fill="#FF5340"/>
<path d="M522.758 598.95C528.799 599.226 535.188 599.898 539.897 604.09C547.372 610.746 546.066 619.512 539.335 626.19C534.375 629.774 531.031 630.105 525.048 631.428C522.281 620.39 521.76 610.214 522.758 598.95Z" fill="#F5F5F5"/>
<path d="M510.65 676.759C510.972 677.011 519.453 691.339 520.999 693.547C548.823 733.28 595.321 758.425 644.022 758.145C662.983 758.036 681.552 755.48 698.67 747.677C700.64 755.925 702.558 764.375 704.896 772.509C700.202 774.017 698.354 775.316 695.442 779.199L385.518 779.178L306.797 779.141C288.286 757.012 282.739 729.855 284.334 701.721C286.612 698.918 289.962 695.645 292.531 692.992C313.761 706.873 326.231 709.608 351.208 708.98C352.277 713.215 353.22 717.782 354.185 722.067L346.073 722.029C342.592 722.043 338.294 722.381 335.683 725.244C330.689 729.815 333.25 743.775 340.715 744.19C357.056 745.097 374.287 744.547 390.715 744.439C393.577 744.42 397.854 743.736 399.49 741.192C403.963 734.236 402.966 728.24 396.655 723.06C391.431 721.77 381.201 722.124 375.56 722.143C374.068 716.551 372.865 710.779 371.612 705.122L510.65 676.759Z" fill="white"/>
<path d="M630.422 375.686C644.896 375.701 644.414 382.708 647.402 393.766C650.838 406.486 653.856 419.24 656.961 432.043L677.297 513.223L742.367 772.353L726.562 772.457C720.927 772.498 715.192 772.422 709.549 772.399C707.867 763.528 703.851 750.293 701.601 740.978L678.447 648.929L615.571 398.014C614.419 393.239 612.797 388.133 615.788 383.817C619.325 378.715 624.7 376.813 630.422 375.686Z" fill="#FF5340"/>
<path d="M675.73 488.756C685.051 490.893 700.386 498.014 708.23 502.914C736.06 520.245 755.839 547.949 763.193 579.899C771.166 614.672 764.454 645.065 745.796 674.865C739.463 684.198 735.719 688.229 728.111 696.387C721.704 673.58 715.716 647.83 710.002 624.709L685.183 526.26C681.993 513.8 679.213 501.098 675.73 488.756Z" fill="#F5F5F5"/>
<path d="M671.415 643.679C672.053 643.709 671.64 643.64 672.562 644.19L691.697 719.679C655.318 736.243 614.439 731.251 580.514 711.467C562.714 700.498 551.548 687.926 540.15 670.914C583.562 661.292 628.085 653.576 671.415 643.679Z" fill="#F5F5F5"/>
<path d="M185.914 783.55L693.779 783.605C693.545 788.256 693.66 793.322 693.676 798.009C676.242 797.393 655.392 797.95 637.737 797.957L528.831 797.992L186.248 797.79C186.266 792.777 186.222 788.587 185.914 783.55Z" fill="#FF5340"/>
<path d="M131.037 217.273C138.827 216.128 157.761 219.5 165.859 220.78C175.554 222.312 184.067 223.517 193.941 224.315C203.133 225 212.355 225.204 221.568 224.924C240.801 224.42 262.401 221.633 280.484 228.955C286.287 231.305 299.002 242.377 295.517 249.221C292.607 251.977 279.399 251.167 274.989 251.159C267.018 251.125 259.047 251.248 251.081 251.529C219.376 251.819 202.757 264.363 174.401 272.103C153.984 277.676 128.448 264.42 111.515 254.238C101.779 248.384 104.335 235 110.329 227.212C115.703 220.303 122.738 218.213 131.037 217.273Z" fill="#FF5340"/>
<path d="M262.118 651.502C263.253 652.652 267.886 664.149 269.473 666.832C275.261 676.621 280.988 682.477 288.975 690.16L200.697 779.098L184.022 779.128C180.959 775.861 179.83 774.815 175.728 773.082C171.296 771.911 147.926 772.427 142.021 772.43C182.636 733.101 221.925 691.21 262.118 651.502Z" fill="#FF5340"/>
<path d="M211.091 410.215L249.87 410.091C255.121 426.765 259.776 444.643 264.601 461.577L292.21 557.974C284.974 563.619 278.63 570.321 273.39 577.856C268.379 585.157 266.918 589.302 263.222 597.434C262.085 592.409 259.964 586.073 258.488 580.919C255.353 569.583 252.148 558.267 248.872 546.97L223.299 456.305C221.379 449.537 211.31 415.777 211.091 410.215Z" fill="#FF5340"/>
<path d="M630.602 485.791C632.084 485.47 631.376 485.437 632.808 485.865C636.125 497.248 638.946 510.241 641.916 521.829C645.798 536.974 649.84 552.438 653.293 567.655C625.438 565.746 593.204 563.07 565.44 560.229C555.572 559.718 543.13 558.253 533.104 557.34C553.384 516.238 584.745 491.908 630.602 485.791Z" fill="#F5F5F5"/>
<path d="M338.537 576.766C356.658 573.748 377.181 586.04 385.929 601.709C392.461 613.261 394.114 626.942 390.522 639.717C386.195 654.695 377.277 663.785 363.919 671.089C361.439 662.777 358.483 647.901 356.534 639.203C358.721 636.967 359.989 635.213 361 632.189C362.614 627.238 362.105 621.84 359.595 617.278C357.23 612.919 353.223 609.684 348.464 608.288C342.36 606.507 337.871 607.989 332.599 610.757C330.08 612.675 328.104 614.653 326.559 617.449C324.169 621.703 323.584 626.738 324.935 631.427C326.866 637.959 331.26 641.139 336.842 644.193C339.039 653.622 342.221 666.189 343.508 675.653C318.918 675.556 297.303 657.299 294.254 632.883C290.573 603.41 309.761 580.64 338.537 576.766Z" fill="#FF5340"/>
<path d="M669.422 463.411C696.826 466.029 729.227 485.007 748.419 504.739C775.695 532.444 790.732 569.923 790.171 608.798C789.538 641.805 778.841 673.997 757.602 699.492C752.682 705.398 748.153 709.698 742.644 714.994C740.244 717.331 737.135 719.73 734.497 721.869C732.596 715.26 730.899 707.782 729.406 701.071C745.472 686.404 759.473 664.92 765.577 644.002C775.27 611.374 771.564 576.229 755.279 546.341C737.21 513.53 710.074 494.075 674.503 483.725C673.095 477.268 671.049 469.9 669.422 463.411Z" fill="#FF5340"/>
<path d="M597.125 402.565L602.045 397.543C601.937 402.334 601.926 407.765 601.69 412.506C601.352 425.682 600.294 439.101 600.092 452.149C605.552 455.439 609.528 456.969 615.524 459.216C612.739 459.706 610.112 460.146 607.361 460.842C562.582 474.134 533.287 496.846 510.684 537.861C506.235 529.491 503.77 522.02 503.537 512.356C503.42 507.452 504.894 497.476 507.537 493.326C508.558 491.723 515.134 485.118 516.809 483.428L534.406 465.741L597.125 402.565Z" fill="white"/>
<path d="M597.125 402.565L602.045 397.543C601.937 402.334 601.926 407.765 601.69 412.506C601.352 425.682 600.294 439.101 600.092 452.149C605.552 455.439 609.528 456.969 615.524 459.216C612.739 459.706 610.112 460.146 607.361 460.842C605.006 459.26 599.139 456.794 595.624 454.678C596.075 440.452 596.545 421.396 597.673 407.517C597.703 405.601 597.912 404.3 597.125 402.565Z" fill="white"/>
<path d="M597.125 402.565L602.045 397.543C601.937 402.334 601.926 407.765 601.69 412.506C600.89 413.946 600.42 414.693 598.756 414.321C597.734 412.312 597.859 409.878 597.673 407.517C597.703 405.601 597.912 404.3 597.125 402.565Z" fill="white"/>
<path d="M534.011 672.256C536.427 671.807 540.093 678.972 542.106 681.752C555.7 700.532 574.16 715.246 595.497 724.31C627.67 737.778 660.5 737.127 692.554 724.104C694.402 730.143 696.098 737.034 697.744 743.188C693.683 744.801 689.709 746.189 685.591 747.632C661.194 755.934 629.096 755.401 604.481 748.1C566.359 737.026 534.344 710.99 515.732 675.927C521.322 674.355 528.279 673.187 534.011 672.256Z" fill="#FF5340"/>
<path d="M186.078 802.073L556.236 802.205L650.407 802.243C664.594 802.257 679.282 801.93 693.393 802.234C694.397 804.725 696.712 807.511 696.539 809.433L694.865 809.543L182.098 809.582C184.284 806.618 184.896 805.538 186.078 802.073Z" fill="white"/>
<path d="M614.525 275.63C615.852 275.504 615.786 275.525 617.087 275.858C619.084 277.686 619.911 283.911 620.622 286.845L625.621 306.961L642.365 373.511C631.216 370.028 624.343 370.54 614.932 377.642L611.098 381.236C609.616 375.852 608.198 370.196 606.949 364.759C600.715 337.629 592.747 310.631 586.616 283.501C591.992 281.114 607.949 277.388 614.525 275.63Z" fill="#FF5340"/>
<path d="M622.706 462.767C624.335 462.51 624.637 462.551 626.237 462.603C628.07 464.114 630.715 477.29 631.666 480.999C583.152 487.256 548.985 512.865 528.256 557.08L518.361 556.193C515.15 556.033 511.277 555.553 508.025 555.232C512.583 543.471 519.657 530.264 527.101 520.227C550 489.056 584.435 468.36 622.706 462.767Z" fill="#FF5340"/>
<path d="M128.757 297.625L234.991 297.7C234.818 305.838 234.838 313.978 235.051 322.115L128.628 322.052L128.757 297.625Z" fill="#FF5340"/>
<path d="M842.644 19.6558C853.933 18.8878 860.002 28.5318 853.222 37.7248C836.348 60.6018 820.687 84.6568 803.093 106.934C799.349 111.674 794.055 115.748 788.944 118.89L788.084 119.397L787.406 119.128C786.993 111.93 782.732 105.639 776.733 101.858C781.361 98.4638 785.578 94.5418 789.298 90.1708C793.408 85.3268 798.584 77.5508 802.416 72.1568L825.429 39.7928C829.625 33.9338 836.626 22.6648 842.644 19.6558Z" fill="#FF5340"/>
<path d="M588.646 179.088C590.233 180.553 609.993 262.034 612.452 271.685L590.766 277.519L589.516 277.675C588.176 276.183 569.056 197.837 566.939 188.644L588.646 179.088Z" fill="white"/>
<path d="M191.981 326.562L219.893 326.576C223.167 336.281 226.042 347.109 228.883 357.009L242.831 405.589L214.73 405.656C212.056 397.867 209.411 387.355 207.123 379.25C202.278 361.63 197.23 344.066 191.981 326.562Z" fill="white"/>
<path d="M739.38 776.845C746.439 776.725 755.312 776.513 762.242 777.112C768.068 780.841 769.033 785.752 769.076 792.291C769.128 800.289 769.202 804.622 762.059 809.116C751.373 809.604 737.414 809.211 726.49 809.202C720.201 809.127 706.611 810.733 701.632 807.164C695.765 802.959 695.677 778.544 704.751 777.489C715.493 776.241 728.216 776.885 739.38 776.845Z" fill="#FF5340"/>
<path d="M120.89 776.828C129.021 776.792 172.157 775.416 176.838 778.406C179.04 779.813 180.593 781.869 181.149 784.44C182.341 789.945 183.003 800.587 179.611 805.292C177.871 807.707 175.134 808.806 172.281 809.241C154.167 809.31 136.052 809.253 117.938 809.069C113.428 806.522 111.527 804.064 110.997 798.658C110.127 789.777 109.426 778.317 120.89 776.828Z" fill="#FF5340"/>
<path d="M703.659 4.64986C708.926 4.44086 710.696 5.19687 714.742 8.72687C707.62 17.8479 693.145 31.9499 684.732 41.0279L651.174 76.9049C643.548 85.0799 635.621 93.9269 627.736 101.753C627.19 102.349 625.64 104.081 624.75 103.321C614.235 94.3439 620.865 87.4639 628.053 79.9469C633.085 74.6849 637.792 69.8019 642.37 64.8259C653.811 52.2399 665.421 39.8089 677.196 27.5359C683.22 21.1649 689.45 14.3709 695.843 8.35887C697.996 6.33387 700.882 5.46086 703.659 4.64986Z" fill="#FF5340"/>
<path d="M781.371 36.6689C784.671 36.3439 787.363 36.3249 790.153 38.2009C799.489 44.7819 793.259 52.8979 788.605 59.6139C778.022 74.8859 765.103 90.2399 754.969 105.626C748.529 107.389 741.505 108.848 734.95 110.319C732.709 110.991 729.952 111.567 727.641 112.114L722.552 110.131C726.139 107.429 729.12 104.626 731.891 101.06C746.633 82.0979 759.973 61.9469 774.35 42.6929C776.484 39.8349 778.261 38.3579 781.371 36.6689Z" fill="#FF5340"/>
<path d="M628.371 128.733C633.282 128.413 634.079 129.081 637.753 132.18C628.68 135.007 616.579 134.919 609.162 141.471C600.873 148.792 604.408 157.375 610.993 164.233C596.748 170.872 577.899 179.194 563.365 184.913C554.276 189.6 540.733 164.94 556.479 158.729C564.922 155.399 575.623 149.486 584.47 146.246C597.869 141.339 614.588 131.019 628.371 128.733Z" fill="#FF5340"/>
<path d="M677.466 128.224C684.295 128.56 683.691 143.708 683.414 148.347C675.39 150.707 623.57 163.001 617.147 162.12C611.174 158.984 606.616 153.025 610.75 146.398C611.816 144.663 613.384 143.293 615.247 142.471C619.496 140.624 632.505 138.089 637.77 136.923C650.983 133.935 664.215 131.035 677.466 128.224Z" fill="#FF5340"/>
<path d="M643.596 591.846C648.926 591.673 654.15 591.844 659.478 591.97C662.484 602.207 664.541 613.117 667.604 623.485C658.653 623.326 649.576 623.357 640.615 623.311C633.883 623.324 627.202 623.896 621.963 618.926C615.667 612.954 616.032 602.576 621.884 596.502C627.427 590.748 636.332 591.832 643.596 591.846Z" fill="#FF5340"/>
<path d="M718.127 12.4299C720.438 14.2079 720.806 17.1309 721.449 19.8959C719.184 26.2859 707.58 37.0889 702.397 42.6229L673.464 73.6359C667.427 80.0479 661.442 86.5109 655.513 93.0229C651.193 97.7419 646.644 102.712 641.955 107.082C639.481 109.388 637.38 109.619 634.096 109.359C632.453 108.607 630.907 107.476 629.397 106.457C636.302 99.8249 641.886 93.2909 648.397 86.4509L696.975 34.6929C703.398 27.8359 711.523 18.6959 718.127 12.4299Z" fill="#FF5340"/>
<path d="M341.777 622.102C343.734 621.997 347.57 622.078 348.196 624.563C356.022 655.657 362.631 687.213 370.008 718.439C370.364 719.944 370.5 720.619 369.97 721.993L368.365 722.136L359.019 722.323C356.272 708.901 337.456 632.311 338.379 625.199C339.234 623.518 340.187 623.132 341.777 622.102Z" fill="#FF5340"/>
<path d="M771.881 104.529C779.527 107.069 785.415 118.249 781.929 122.482C776.993 128.474 748.717 133.848 741.514 135.486L736.951 136.473C736.977 127.185 736.979 123.729 731.218 116.114C743.763 113.669 760.484 109.628 771.881 104.529Z" fill="#FF5340"/>
<path d="M723.086 117.653C731.853 116.392 732.26 131.678 732.24 137.299C719.02 140.535 705.757 143.595 692.455 146.476L688.237 147.29C688.674 139.024 689.109 133.533 683.816 126.6C696.593 123.42 710.07 120.804 723.086 117.653Z" fill="#FF5340"/>
<path d="M342.555 726.766C356.49 726.311 370.433 726.759 384.534 726.588C392.049 726.496 399.214 725.432 397.142 736.42C396.787 738.307 395.041 739.274 393.461 740.085C384.138 740.112 346.934 741.414 340.758 739.183C339.403 738.694 338.758 737.849 338.256 736.548C337.532 734.676 337.303 731.472 338.268 729.643C339.271 727.744 340.628 727.279 342.555 726.766Z" fill="#FF5340"/>
<path d="M673.07 80.9399C674.222 84.6549 673.874 115.436 673.832 120.896C665.139 120.098 661.998 121.84 656.624 128.127C654.609 128.735 651.928 129.245 649.827 129.707L649.208 129.466C648.208 127.488 648.768 110.416 648.82 106.905C656.787 98.1419 664.871 89.4859 673.07 80.9399Z" fill="#FF5340"/>
<path d="M290.417 535.965C322.147 535.776 353.879 535.818 385.608 536.094C383.108 538.649 380.572 541.17 378.003 543.656L371.946 543.549C342.386 540.065 322.59 539.15 296.244 555.031C294.223 548.939 292.308 542.146 290.417 535.965Z" fill="#FF5340"/>
<path d="M86.2442 301.133C98.8072 300.904 111.373 300.86 123.937 301.001C123.889 306.397 124.366 312.703 123.965 317.985L123.234 318.594C112.606 318.402 94.9802 319.217 85.2252 318.21C84.8782 314.247 84.3242 304.441 86.2442 301.133Z" fill="#FF5340"/>
<path d="M235.554 750.404C239.471 753.17 240.545 757.654 240.143 762.311C239.477 770.039 235.154 774.407 229.447 779.045L212.115 779.084C210.398 779.139 209.917 779.243 208.239 778.72C210.353 775.857 215.392 771.061 218.057 768.347L235.554 750.404Z" fill="white"/>
<path d="M546.928 315.242C561.16 313.94 553.533 324.957 551.132 333.562C548.223 334.491 540.655 336.449 537.788 336.689C537.318 335.885 536.007 333.609 535.375 333.055C532.899 330.883 524.378 326.99 528.128 322.468C531.905 317.914 541.302 316.17 546.928 315.242Z" fill="#FF5340"/>
<path d="M643.489 273.65C645.313 273.798 648.469 274.114 649.166 276.173C650.841 281.117 652.491 286.874 653.46 292.016C654.942 299.883 658.47 304.712 649.121 307.725C647.309 307.625 644.712 307.581 643.897 305.855C641.456 300.682 636.486 282.015 637.371 277.386C639.015 274.794 640.518 274.495 643.489 273.65Z" fill="#FF5340"/>
<path d="M276.223 414.62C278.44 414.447 282.135 413.962 283.095 416.659C285.909 424.569 289.745 435.119 289.514 443.513C289.474 444.97 286.072 446.909 284.943 447.489C282.856 447.609 279.464 447.962 278.547 445.524C275.426 437.231 271.706 426.878 271.395 418.073C271.353 416.881 275.356 415.03 276.223 414.62Z" fill="#FF5340"/>
<path d="M139.853 337.147C147.006 336.846 180.408 332.799 168.072 348.254C162.612 349.243 155.488 348.17 150.044 348.706C142.455 349.454 132.771 346.095 139.853 337.147Z" fill="#FF5340"/>
<path d="M240.912 752.734C245.048 754.693 249.53 756.673 253.387 759.087C255.916 767.969 254.521 773.702 246.748 779.114C242.804 779.311 237.681 779.138 233.652 779.115C241.681 771.201 244.357 763.674 240.912 752.734Z" fill="white"/>
<path d="M281.686 704.107C281.588 703.911 282.11 723.465 282.283 725.77C274.928 730.389 270.814 729.322 262.867 727.327C261.551 727.014 261.592 727.086 260.524 726.284C261.352 723.956 278.794 707.029 281.686 704.107Z" fill="white"/>
<path d="M323.28 505.576C332.393 505.426 333.487 523.213 335.001 531.081C334.195 531.749 333.7 531.506 332.365 531.551L323.555 531.535C322.321 525.102 319.238 517.575 319.5 511.119C319.608 508.458 321.345 507.122 323.28 505.576Z" fill="#FF5340"/>
<path d="M163.234 326.55C168.073 326.497 182.582 326.095 186.753 326.803C188.917 330.133 184.712 337.232 182.688 340.146C180.029 342.668 177.871 343.744 174.682 345.299C174.643 342.862 174.333 340.387 174.085 337.956C169.998 332.371 169.686 334.488 163.98 331.474C162.816 329.545 163.222 329.047 163.234 326.55Z" fill="white"/>
<path d="M330.776 503.158C339.73 504.246 360.422 498.666 353.91 514.99C350.953 517.777 340.943 516.757 336.473 516.725C335.133 511.42 334.608 507.1 330.776 503.158Z" fill="#FF5340"/>
<path d="M318.377 503.472L317.961 503.971C314.03 508.774 314.747 510.843 315.393 516.981C310.675 516.74 305.785 517.248 301.136 516.815C294.05 516.154 292.837 507.67 298.548 503.699C304.532 503.379 312.258 503.527 318.377 503.472Z" fill="#FF5340"/>
<path d="M339.984 612.155C354.7 610.803 360.047 621.978 355.328 634.831C353.33 624.336 353.215 617.12 340.654 617.614C330.528 621.915 333.457 630.247 335.724 638.634C324.811 629.786 326.451 616.809 339.984 612.155Z" fill="#FF5340"/>
<path d="M282.553 728.643L284.326 738.157C278.624 743.464 276.232 744.118 268.484 743.117L266.087 739.39C264.005 735.534 262.743 733.092 261.117 729.053C269.209 731.728 274.704 732.541 282.553 728.643Z" fill="white"/>
<path d="M198.687 371.157L199.578 371.184C201.024 372.875 209.823 404.821 210.475 408.654C208.79 406.437 207.578 404.239 206.172 401.845C201.072 392.189 196.785 386.547 189.959 378.254C191.083 376.345 192.341 374.594 193.601 372.773C195.196 372.149 197.032 371.655 198.687 371.157Z" fill="white"/>
<path d="M259.859 734.368C260.897 735.264 265.492 743.147 266.57 744.887C265.157 751.611 261.475 760.126 253.016 756.015C249.48 754.183 247.444 753.199 243.734 751.817C254.243 749.025 259.114 745.598 259.859 734.368Z" fill="white"/>
<path d="M233.107 257.745L234.109 257.667L234.246 258.209C228.627 264.444 217.775 270.535 210.002 273.607C209.078 273.604 209.402 273.613 208.488 273.203C207.791 270.67 208.08 267.47 208.143 264.767C217.072 261.135 223.743 259.399 233.107 257.745Z" fill="#FF5340"/>
<path d="M256.38 760.432C258.872 761.424 265.367 763.475 266.31 766.082C267.734 770.021 267.073 777.162 262.834 779.145L250.99 779.176C256.814 772.911 257.291 768.538 256.38 760.432Z" fill="white"/>
<path d="M201.806 280.229L202.484 280.111L203.114 280.616C203.591 284.011 203.465 289.606 203.491 293.197L190.155 293.09C189.475 292.975 189.891 293.103 189.025 292.435C188.522 289.599 188.685 285.421 188.699 282.43C193.173 281.904 197.389 281.065 201.806 280.229Z" fill="#FF5340"/>
<path d="M257.109 729.011C257.546 729.448 257.763 729.892 257.773 730.568C257.954 743.19 252.421 749.543 239.366 749.388L238.402 748.916C238.623 746.359 254.642 731.436 257.109 729.011Z" fill="white"/>
<path d="M503.173 497.507C503.039 501.794 501.144 506.623 501.195 513.967C500.647 514.329 500.095 514.686 499.54 515.038C495.754 517.438 493.982 518.277 489.612 517.302C488.713 515.698 488.687 515.46 488.163 513.759C488.741 510.724 500.13 500.467 503.173 497.507Z" fill="white"/>
<path d="M203.221 266.64C203.454 267.753 203.578 273.669 203.63 275.15C190.611 277.453 186.031 278.776 172.6 277.862L172.215 277.562L172.39 277.02C183.081 274.938 193.448 271.447 203.221 266.64Z" fill="#FF5340"/>
<path d="M138.13 275.798C140.465 276.987 145.479 280.454 147.881 282.014C148.523 286.886 148.535 288.981 146.106 293.137C143.106 293.224 139.598 293.1 136.557 293.065C140.371 286.652 139.678 282.724 138.13 275.798Z" fill="white"/>
<path d="M181.751 356.34C186.569 361.051 189.597 364.495 192.064 370.758L188.366 376.118C176.16 362.913 179.215 371.626 181.751 356.34Z" fill="white"/>
<path d="M173.731 348.975C179.216 351.304 181.099 360.675 177.173 363.329C175.043 363.315 173.569 361.434 171.518 359.777C168.074 357.088 165.438 355.391 161.721 353.045C167.65 353.016 169.284 353.059 173.731 348.975Z" fill="white"/>
<path d="M500.808 517.067C501.736 517.805 503.109 525.059 503.572 526.923C502.436 527.495 501.296 528.06 500.152 528.619C497.106 530.102 496.622 530.694 493.711 529.694C491.752 527.864 489.335 523.025 489.977 520.395C490.58 520.19 490.967 520.06 491.616 520.139C494.961 520.547 497.837 518.678 500.808 517.067Z" fill="white"/>
<path d="M188.583 331.991C189.639 333.101 191.109 339.427 191.615 341.349C189.862 345.844 186.968 352.488 180.922 351.426L176.614 347.36C183.433 343.624 187.321 339.938 188.583 331.991Z" fill="white"/>
<path d="M268.602 747.41C270.384 749.1 273.271 753.4 274.619 755.453C273.081 760.006 272.151 763.365 266.849 762.506L259.821 759.282C265.763 755.734 266.492 753.767 268.602 747.41Z" fill="white"/>
<path d="M268.652 766.123C275.595 768.885 282.215 770.536 276.646 779.104L266.847 779.116C269.649 773.792 269.464 771.881 268.652 766.123Z" fill="white"/>
<path d="M165.858 281.063C167.212 281.02 171.386 281.883 172.985 282.138C177.298 282.826 179.982 282.817 184.329 282.656L184.437 292.572C178.294 289.843 169.757 286.44 165.858 281.063Z" fill="white"/>
<path d="M284.609 741.051C290.836 747.369 281.02 756.639 275.273 751.752L270.715 746.202C277.451 745.651 279.577 745.785 284.609 741.051Z" fill="white"/>
<path d="M633.809 288.585C635.421 289.69 636.614 296.54 637.15 298.888C634.6 299.594 632.055 300.313 629.514 301.047L629.029 300.904C627.803 299.172 626.558 293.525 626.571 291.312C629.003 290.453 631.416 289.544 633.809 288.585Z" fill="white"/>
<path d="M267.336 429.626L268.363 429.736C269.715 432.217 270.872 436.655 271.726 439.504L264.91 441.453L264.102 441.358C262.913 439.506 261.54 434.194 260.833 431.808L267.336 429.626Z" fill="#F5F5F5"/>
<path d="M487.695 522.067C490.268 525.229 486.838 527.954 493.84 532.395L485.494 536.556L484.231 536.903C482.567 536.499 481.627 535.235 480.36 533.984C483.936 529.532 485.462 527.298 487.695 522.067Z" fill="white"/>
<path d="M503.716 529.535C504.457 530.08 507.582 536.996 508.839 539.1L501.364 540.636C498.101 539.186 497.555 536.332 496.833 533.161L503.716 529.535Z" fill="white"/>
<path d="M498.087 544.23C498.894 548.606 497.214 549.002 499.546 554.771C497.052 554.434 494.48 554.194 491.972 553.93C490.795 553.678 490.878 553.608 490.047 552.7C488.204 545.286 492.069 545.586 498.087 544.23Z" fill="white"/>
<path d="M192.403 345.417C193.452 347.224 194.614 352.136 195.202 354.341C192.674 356.483 190.878 358.13 187.549 358.777L183.256 354.401C188.585 351.805 189.827 350.432 192.403 345.417Z" fill="white"/>
<path d="M281.543 771.827C284.035 772.852 296.425 777.725 297.866 778.797L297.268 779.109L279.351 779.145C280.629 776.13 280.85 775 281.543 771.827Z" fill="white"/>
<path d="M195.457 357.015C197.267 358.475 198.637 365.947 199.319 368.721L194.264 369.815C192.677 365.521 191.747 364.409 188.974 360.927C191.986 359.468 192.753 358.995 195.457 357.015Z" fill="white"/>
<path d="M150.587 283.067L159.139 287.741L158.005 293.298L148.97 293.27C150.659 289.281 150.539 287.306 150.587 283.067Z" fill="white"/>
<path d="M276.691 757.428C279.526 759.23 283.343 763.019 282.547 766.634C281.395 767.77 281.488 767.884 279.942 768.184C277.172 767.283 274.714 766.031 272.08 764.79C274.487 762.07 275.241 760.6 276.691 757.428Z" fill="white"/>
<path d="M493.695 535.038L494.538 535.243C495.677 537.745 496.487 539.34 497.822 541.746L489.443 543.996C488.143 543.894 486.465 540.561 485.731 539.422C487.868 538.054 491.365 536.292 493.695 535.038Z" fill="white"/>
<path d="M287.985 750.673C288.833 752.678 289.666 755.425 290.379 757.541C287.761 759.371 286.454 760.984 283.188 760.149C281.342 758.676 279.958 757.193 278.308 755.518C283.265 754.292 284.24 754.413 287.985 750.673Z" fill="white"/>
<path d="M508.705 541.204C508.574 542.435 504.004 553.254 503.111 554.348L502.044 554.257C497.206 546.12 501.248 543.179 508.705 541.204Z" fill="white"/>
<path d="M485.16 515.446L485.809 516.335C485.967 520.653 483.889 528.167 478.731 528.302C476.916 525.728 476.312 524.497 478.64 521.86C480.501 519.751 483.13 517.416 485.16 515.446Z" fill="white"/>
<path d="M239.289 300.809C240.795 301.098 240.728 301.047 242.034 301.828C243.516 304.763 242.82 314.033 242.767 318.047C241.125 318.212 241.142 318.276 239.557 317.924C238.97 316.066 239.262 303.674 239.289 300.809Z" fill="#FF5340"/>
<path d="M291.146 760.04L291.713 760.287C293.004 762.546 299.165 772.959 299.543 774.385L296.666 772.234C292.703 769.111 289.351 766.498 285.664 763.015C287.805 762.061 289.153 761.228 291.146 760.04Z" fill="white"/>
<path d="M149.424 326.556C152.061 326.453 156.095 325.88 158.135 327.13C159.186 329.157 158.785 329.896 158.73 332.38C155.75 332.361 152.186 333.089 149.92 331.583C148.912 330.013 149.297 328.505 149.424 326.556Z" fill="#F5F5F5"/>
<path d="M475.21 525.452C476.499 526.413 478.594 528.963 479.759 530.275L474.693 535.193L474.201 535.422C472.776 534.567 471.253 532.269 470.181 530.869C471.841 529.048 473.518 527.243 475.21 525.452Z" fill="white"/>
<path d="M467.889 532.967C469.269 533.501 471.401 536.211 472.516 537.455L467.507 540.765L467.063 540.986C465.525 540.59 464.569 539.127 463.303 537.801L467.889 532.967Z" fill="white"/>
<path d="M485.83 547.236C486.18 547.225 486.511 547.395 486.847 547.493L487.133 548.397C487.834 550.675 487.717 551.016 486.745 552.863C484.926 553.842 484.852 553.42 482.364 553.232C480.626 553.093 480.366 552.691 479.716 551.345C480.387 547.788 482.827 547.668 485.83 547.236Z" fill="white"/>
<path d="M159.883 278.81C161.276 279.187 162.062 280.594 162.42 281.85C161.65 284.585 160.827 285.636 158.078 284.428C156.091 283.601 154.163 282.518 152.255 281.51C154.852 280.684 157.329 279.753 159.883 278.81Z" fill="white"/>
<path d="M139.551 273.659C141.223 274.11 155.912 277.693 155.91 277.692L155.651 278.223L149.587 279.631C146.054 278.021 142.595 276.078 139.551 273.659Z" fill="white"/>
<path d="M285.089 765.903C289.163 769.298 290.889 770.987 295.426 774.018L295.218 774.484C291.079 773.05 286.932 772.524 283.958 769.662C283.624 767.774 283.94 768.072 285.089 765.903Z" fill="white"/>
<path d="M461.267 539.886C462.818 540.7 462.794 540.625 463.983 541.882L463.93 542.89C462.407 544.645 459.819 545.593 457.636 546.636C456.592 546.922 456.479 546.894 455.392 547.004L455.149 546.369C456.546 544.02 459.213 541.815 461.267 539.886Z" fill="white"/>
<path d="M483.25 540.555C484.446 541.569 485.167 542.599 485.377 544.053C484.229 545.402 482.344 545.485 480.516 545.84L479.717 545.688L478.645 543.816C479.239 542.244 481.603 541.4 483.25 540.555Z" fill="white"/>
<path d="M161.417 288.528C164.124 289.615 167.442 290.874 169.397 293.035C166.988 293.223 163.68 293.885 161.772 292.831C160.731 291.029 161.165 291.11 161.417 288.528Z" fill="white"/>
<path d="M478.667 535.04C479.758 536.295 480.354 536.915 481.219 538.373C480.514 539.949 480.255 539.627 478.244 540.644C476.875 540.91 477.479 541.071 476.353 540.345C475.418 537.765 477.068 536.644 478.667 535.04Z" fill="white"/>
<path d="M476.05 549.301L477.218 549.21L477.944 550.111C478 551.809 478.198 551.029 477.247 552.513L475.175 552.925C473.407 552.684 471.907 552.758 471.768 550.691C473.522 549.133 473.196 549.628 476.05 549.301Z" fill="white"/>
<path d="M164.153 283.433C166.008 284.821 167.779 285.854 168.92 287.814L168.516 289.008C166.561 288.392 164.25 287.919 162.829 286.543C162.622 284.839 162.763 285.312 164.153 283.433Z" fill="white"/>
<path d="M473.51 539.586C474.398 540.593 474.528 540.557 474.824 541.831C473.904 543.228 471.575 543.679 469.861 544.248L469.149 544.395L468.884 543.686C470.056 542.128 471.948 540.815 473.51 539.586Z" fill="white"/>
<path d="M546.364 339.614C547.402 339.545 548.324 340.271 548.501 341.296C548.677 342.322 548.05 343.314 547.049 343.596C546.302 343.806 545.5 343.572 544.983 342.993C544.467 342.414 544.325 341.591 544.619 340.873C544.912 340.154 545.59 339.666 546.364 339.614Z" fill="#F5F5F5"/>
<path d="M466.489 550.275C468.648 549.993 467.75 549.734 469.364 550.674L469.521 551.476C468.34 552.351 469.03 552.041 467.119 551.846C465.099 551.803 464.137 551.929 462.285 551.232C463.655 550.307 464.672 550.471 466.489 550.275Z" fill="white"/>
</g></svg>
