<svg xmlns="http://www.w3.org/2000/svg" viewBox="0 0 2200 1300" width="2200" height="1300"><g transform="translate(503 64)">
<path d="M422.291 0C461.209 4.55553 521.661 40.1777 554.191 62.8899C640.429 123.085 737.421 232.422 746.016 342.196C748.866 378.657 741.925 438.684 747.117 468.397C755.201 475.014 759.635 469.505 766.777 463.564C813.262 424.919 846.725 371.987 914.729 374.109C920.138 374.277 922.87 374.829 926.408 378.865C924.213 398.69 907.391 417.26 897.911 434.468C856.279 510.039 893.64 599.277 915.126 674.631C939.466 759.98 940.899 846.101 896.507 925.017C860.591 988.86 813.397 1027.83 752.699 1067.07C735.623 1078.11 717.757 1091.16 699.129 1099.31C686.632 1104.78 672.771 1107.55 659.958 1112.28C649.516 1116.14 639.86 1121.6 628.996 1124.36C623.354 1125.79 619.357 1126.34 614.308 1123.16L614.267 1118.43C623.497 1102.37 645.519 1092.35 660.683 1082.19C714.882 1045.85 747.785 996.928 760.041 932.824C769.177 885.04 759.484 818.249 730.75 778.005C726.512 772.068 721.475 766.048 714.137 764.854C706.263 777.343 712.778 817.766 706.996 838.393C697.147 873.528 665.048 903.479 632.669 919.133C627.33 921.713 625.168 922.012 619.697 919.971C616.585 916.299 614.324 915.35 616.335 910.3C619.468 902.432 629.746 892.474 635.098 885.735C658.848 855.838 673.27 822.297 674.388 783.861C676.047 726.709 650.56 678.929 611.876 638.542C602.736 629.325 593.412 620.194 583.171 612.199C565.096 598.095 510.638 563.344 488.407 565.981C485.688 574.005 498.484 585.115 503.525 590.926C533.422 625.424 543.049 661.414 543.004 706.659C542.987 721.16 542.271 736.523 537.771 750.386C530.302 773.409 486.72 846.04 468.641 862.7C463.674 867.276 460.197 868.662 453.518 868.564C450.242 866.695 447.433 865.031 444.911 862.172C409.977 822.624 431.353 791.23 431.238 753.776C431.222 749.159 431.422 748.591 428.056 745.233C425.407 746.141 425.174 746.076 422.426 747.855C414.187 753.183 406.562 764.183 400.547 771.855C370.653 809.972 355.923 848.935 349.399 897.022C341.001 958.922 364.038 1026.49 410.69 1068.28C425.968 1081.97 448.494 1094.98 460.144 1111.77C463.453 1116.54 464.484 1120.57 463.457 1126.18L459.026 1128C437.397 1125.05 356.753 1083.11 336.227 1070.25C321.993 1061.34 308.795 1051.02 295.964 1040.21C210.625 968.327 158.209 860.516 178.279 748.137C186.911 699.805 206.438 653.096 221.199 606.323C228.533 583.083 242.668 544.365 240.126 521.093C239.999 519.935 239.797 518.782 239.661 517.621C237.228 496.92 221.177 459.082 224.334 441.31C225.045 437.306 227.286 437.081 230.466 434.897C243.898 432.697 253.426 440.598 263.375 448.556C276.722 459.225 289.418 470.7 299.87 484.28C311.861 499.857 320.581 523.722 336.909 534.722C337.736 534.526 338.582 534.399 339.389 534.133C378.117 521.391 439.596 406.738 458.039 369.906C497.551 290.998 508.423 195.397 478.681 111.488C474.57 99.8904 470.217 86.6325 464.091 75.9593C451.819 54.5802 423.314 33.6593 416.173 12.133C416.886 5.60641 418.159 4.85405 422.291 0Z" fill="#FF5340"/>
<path d="M194.919 292.271L542.053 188.058C601.09 170.282 660.492 151.542 720.071 135.582C751.635 127.131 769.426 129.892 782.105 165.302C798.61 211.401 812.037 258.851 826.1 305.914L901.126 557.374L965.766 773.099C977.255 811.292 989.269 849.471 999.505 887.986C1006.63 914.789 988.994 932.578 967.325 941.508C940.62 952.515 911.669 959.566 883.886 967.541L739.715 1009.38L548.564 1066.43C517.232 1075.8 435.119 1105.35 406.101 1097.06C387.993 1079.98 377.029 1036.17 367.974 1010.2C356.075 1015.27 330.192 1020.67 319.101 1012.91C315.437 996.286 315.413 976.577 303.07 964.887C299.255 961.275 300.578 959.803 299.902 954.047C308.782 932.131 330.62 931.758 341.851 919.06C338.041 898.59 328.165 871.101 321.451 850.623C303.677 852.999 284.818 852.704 269.66 841.15C262.786 827.618 265.629 834.365 265.842 817.947C265.99 806.463 255.962 811.917 252.877 791.7C260.782 773.788 277.623 767.468 294.358 758.256C297.797 746.716 275.049 691.497 269.556 676.633C259.455 679.544 243.221 684.423 233.032 682.479C214.087 678.862 203.283 628.136 206.34 612.449C215.308 598.175 230.038 594.142 245.433 588.737C238.825 565.558 230.762 541.332 223.483 518.243C209.096 521.26 180.597 522.857 169.716 510.841C167.762 473.508 152.501 474.938 155.696 451.744C163.06 437.714 179.586 433.615 193.91 428.444C183.999 381.636 144.086 317.236 194.919 292.271ZM345.816 742.13C342.699 746.421 329.816 769.265 327.1 769.515C307.443 771.363 285.412 769.411 272.246 788.038C270.512 790.54 271.11 797.69 271.94 797.84C292.581 798.778 314.399 789.145 335.947 783.762C351.241 779.947 356.907 780.377 368.352 766.883C384.127 748.293 400.965 795.174 376.612 805.962C369.899 808.932 370.998 797.053 363.784 796.544C351.801 797.237 337.317 802.788 325.48 806.074C316.688 808.542 284.631 815.842 283.008 821.463C274.65 850.395 335.112 823.742 343.105 823.405C348.64 821.453 351.201 824.571 355.766 827.554C372.957 838.796 404.855 827.184 412.008 808.107C428.602 763.879 393.205 721.351 349.587 740.514L345.816 742.13ZM275.129 637.333C270.504 638.818 234.831 648.633 231.852 653.144C228.545 658.152 237.067 668.705 245.398 666.792C260.379 663.344 276.954 657.697 292.566 652.834C318.187 666.14 350.834 669.602 362.981 636.595C367.581 624.336 367.168 610.487 361.835 598.231C346.918 564.801 324.604 562.776 294.608 571.19C284.738 584.213 285.554 584.322 278.274 599.019C268.53 601.811 224.235 612.523 221.646 619.789C210.452 651.187 307.183 604.889 305.079 609.57C331.746 550.255 361.283 662.671 314.437 630.348C306.047 624.559 280.904 635.55 275.129 637.333ZM395.274 964.853C389.138 966.822 330.311 978.512 357.288 996.621C361.556 999.484 388.022 989.011 394.712 986.766C442.296 1010.72 479.588 978.12 458.974 924.906C446.855 893.623 417.021 898.288 392.079 907.66C379.996 922.003 380.42 936.886 362.773 935.903C352.877 935.353 324.57 947.915 320.718 955.924C307.001 984.44 393.21 940.103 405.435 943.821C416.381 947.151 402.559 926.322 424.157 929.944C428.492 930.659 432.406 933.224 434.962 937.022C442.305 947.758 436.061 973.866 420.082 967.758C410.019 963.91 405.743 962.034 395.274 964.853ZM245.177 488.801C256.089 493.642 267.159 500.844 279.093 498.763C340.659 488.507 318.822 394.245 259.121 408.395C228.862 415.569 243.138 437.907 216.186 442.951C174.111 449.659 175.74 467.361 223.543 455.158C230.928 453.149 255.301 449.155 259.942 441.347C273.729 418.162 303.683 447.475 286.121 468.368C277.277 478.898 272.618 476.308 263.912 467.885C250.271 464.387 223.971 481.552 211.948 482.518C199.703 483.505 191.486 491.296 199.461 499.905C203.153 503.893 235.859 491.714 245.177 488.801Z" fill="#15120D"/>
<path d="M223.544 455.158C175.741 467.362 174.112 449.66 216.187 442.952L223.544 455.158Z" fill="#FEFEFE" fill-opacity="0.121569"/>
<path d="M609.205 230.682C568.186 253.957 550.116 289.513 545.102 335.839C534.144 438.238 612.824 494.87 667.021 567.912C717.019 635.294 760.052 740.18 701.741 815.974C678.858 845.715 637.226 860.331 608.161 830.048C565.874 785.982 573.501 721.376 573.934 665.234C485.595 794.933 498.493 933.663 613.709 1040.4C637.719 1060.89 665.288 1076.79 695.036 1087.33C762.428 1111.78 833.069 1109.09 897.897 1078.12C952.04 1052.25 993.735 1007.78 1013.79 950.981C1032.92 896.824 1033.08 838.527 1019.66 783.038C955.677 518.533 661.38 475.963 602.542 341.95C585.397 302.908 594.41 268.294 609.205 230.682Z" fill="#FF5340"/>
<path d="M169.364 317.291L882.186 317.753C978.384 317.925 1075.37 316.085 1171.65 317.33C1177.33 317.408 1179.11 318.008 1183.86 321.884C1187.32 331.687 1187.24 327.022 1185.51 336.18C1174.86 347.757 1146.86 344.615 1131.22 344.588C1117.27 402.978 1102.08 515.867 1092.25 579.263L1040.36 899.047C1033.66 941.268 1014.98 1070.69 1001.54 1104.2C973.485 1141.37 936.165 1130.64 896.129 1130.67L696.102 1128.65L336.619 1128.65C299.702 1128.55 262.668 1131.18 225.653 1130.49C172.413 1129.5 165.814 1091.32 157.631 1039.48C147.585 975.843 138.807 912.709 129.702 849.164L95.7362 625.048C82.8279 536.436 69.011 433.984 52.988 346.278C35.5553 346.156 11.8628 351.227 0.0776758 336.219C-2.44731 309.723 57.3158 317.547 73.053 317.619L169.364 317.291ZM416.27 519.398C412.387 525.988 411.23 530.375 406.153 535.791C397.971 526.777 390.046 516.796 381.92 507.977C351.626 543.314 322.137 576.099 293.295 613.338C303.566 624.809 314.1 636.024 324.263 647.568C321.828 658.556 321.982 660.274 314.835 666.546C302.906 653.746 290.92 640.222 279.061 627.222C254.832 657.671 221.634 694.96 195.785 724.014C207.026 735.641 218.089 747.507 228.973 759.601C227.278 768.887 226.814 773.875 221.119 780.619C208.323 768.831 193.715 752.011 180.872 738.643C164.455 757.649 156.938 765.945 141.604 786.953C149.397 824.57 150.779 863.148 160.184 902.567C171.364 911.841 179.364 920.794 189.115 932.059C216.941 897.901 244.551 871.011 272.485 838.604L246.837 808.867C252.598 797.991 252.823 800.598 263.197 797.323C270.972 805.864 278.541 813.298 286.358 821.578C313.35 789.883 339.209 759.556 367.424 729.274C357.433 717.547 345.738 704.023 336.389 692.007C340.717 686.352 343.242 684.579 349.429 682.471L352.984 681.192C361.147 690.845 369.915 700.298 377.934 709.94L381.17 713.749C409.867 681.42 440.911 646.767 468.47 613.248C460.648 603.445 454.007 593.603 446.321 583.622C451.613 575.899 452.395 575.559 459.131 569.181C467.524 578.868 475.847 588.632 484.109 598.474C511.026 564.65 540.744 532.171 568.209 499.092L571.3 495.433C543.048 460.574 513.284 426.327 483.79 392.825C451.936 425.154 424.378 460.018 395.217 495.01L396.486 496.417C403.02 503.54 409.521 511.836 416.27 519.398ZM593.173 725.693C600.803 734.1 609.089 744.193 616.639 752.962C612.264 760.162 611.196 763.888 605.309 768.859C596.906 759.579 588.616 750.148 580.438 740.584C551.179 773.975 520.318 806.52 492.507 841.646C517.944 863.676 558.374 914.049 581.656 941.807C602.002 917.674 647.289 859.134 668.628 842.686C676.941 839.444 682.59 838.949 682.098 827.973C687.751 816.724 754.564 741.334 768.742 724.558C761.824 716.457 755.759 708.583 749.047 700.359C750.663 688.51 751.941 689.922 759.496 681.437L762.091 684.679C768.597 692.925 775.889 699.514 782.962 707.616C792.582 696.244 846.309 632.054 854.486 626.827C861.395 625.57 865.624 626.605 868.739 619.087L868.678 619.081L869.128 617.419C869.156 617.658 869.179 617.903 869.207 618.142C869.516 619.971 870.402 621.445 871.151 623.079C871.68 624.236 871.418 624.086 871.249 625.871C857.02 645.527 819.616 669.387 816.806 699.87C811.78 708.16 803.584 718.448 797.617 726.143C826.422 758.333 854.927 790.895 883.132 823.825C912.18 791.513 937.336 759.578 967.654 728.206C958.811 717.463 950.868 707.393 941.486 697.145C947.814 687.976 948.573 687.203 958.535 686.88C965.631 695.699 973.462 703.918 980.942 712.292C992.445 699.03 1065.22 622.435 1061.45 610.618L1061.4 608.856C1061.25 601.755 1057.02 582.916 1057.03 582.877C1062.04 580.147 1063.65 592.007 1068.35 585.93C1079.18 532.215 1090.07 479.252 1096.45 424.325C1098.62 405.631 1100.75 387.003 1103.62 368.442C1067.37 411.352 1028.18 451.566 993.546 497.312C1000.33 504.924 1005.63 512.125 1012.83 519.654L1011.72 524.837C1010.26 532.505 1008.31 533.9 1003.25 538.743L991.391 526.26C984.099 518.681 984.815 520.194 980.23 510.719C980.586 511.186 966.338 493.703 967.261 494.443L959.814 488.588C967.762 480.764 967.453 480.664 977.185 478.445C1006.1 451.555 1066.7 378.457 1092.71 345.094C1035.6 344.476 979.991 343.465 922.55 343.87C913.066 355.82 903.417 367.58 893.614 379.157C901.975 388.315 909.127 397.273 917.276 406.409C910.958 416.435 911.717 416.451 902.466 421.334L880.542 397.384C871.015 406.404 796.877 484.823 794.001 492.575C794.348 495.01 797.42 497.929 798.572 499.297C795.739 518.72 793.149 509.623 780.048 508.428L697.69 604.202C692.707 610.029 699.526 610.941 701.891 617.247C703.638 634.189 714.21 631.86 701.062 644.515C694.051 636.614 688.309 629.813 681.667 621.611C651.542 655.547 622.039 690.25 593.173 725.693ZM870.041 839.244C845.358 806.987 810.586 771.572 783.243 740.878C754.541 775.059 724.65 807.749 695.358 841.296C703.554 852.411 707.385 857.738 716.772 868.197L714.275 872.195C710.767 877.973 708.964 879.352 703.685 882.794C695.695 874.158 689.091 867.035 681.817 857.482C652.595 893.776 622.461 924.803 594.457 959.589C602.4 967.463 606.372 973.118 613.562 982.11C609.702 986.992 606.691 990.873 602.517 995.449C596.101 987.92 590.518 982.827 584.317 974.964L583.375 973.796C560.055 999.002 522.332 1040.31 502.019 1066.76C511.593 1075.98 525.396 1093.16 533.615 1104.42C545.962 1104.83 637.055 1107.95 642.137 1101.58C650.708 1107.82 655.504 1107.79 666.141 1105.66C677.892 1104.72 680.59 1105.11 692.519 1106.58C695.695 1117.36 715.09 1103.8 720.785 1099.89C734.818 1108.52 813.528 1103.83 835.152 1104.17C849.437 1090.04 852.023 1086.31 864.58 1069.58C838.576 1037.5 809.256 1005.99 782.128 974.848C772.587 984.578 740.986 1022.07 736.513 1025.33L732.218 1026.9C727.736 1028.35 701.114 1046.78 700.561 1052.81C699.002 1069.78 692.426 1057.62 689.433 1069.11C689.138 1070.23 693.531 1075 690.875 1079.33C687.545 1079.16 688.613 1072.85 684.487 1070.67C673.363 1064.77 672.801 1089.87 667.377 1070.22L663.705 1065.23C664.712 1043.58 670.206 1055.63 676.993 1061.39C679.475 1063.49 682.801 1059.49 686.295 1059.01C687.25 1057.9 686.922 1054.51 686.964 1053.18C698.931 1033.39 750.724 977.884 767.74 956.937C767.393 956.515 767.046 956.098 766.7 955.675C761.328 949.375 756.035 942.975 750.836 936.475C757.735 926.771 761.538 928.907 771.622 931.498C772.194 932.121 780.301 942.107 781.589 940.523C806.966 909.306 846.974 871.483 870.041 839.244ZM193.579 495.561C221.91 525.904 252.72 563.588 280.621 595.46C307.06 560.924 339.209 527.306 366.464 492.947C339.373 460.107 311.678 427.973 283.403 396.567C282.728 395.839 282.049 395.105 281.375 394.376C248.584 428.979 224.238 459.1 193.579 495.561ZM879.376 1053.41C901.59 1030.76 949.879 978.495 968.254 952.906C943.327 923.38 909.89 881.448 883.933 855.13C854.852 889.472 823.092 923.997 795.762 959.868C807.298 970.739 818.651 986.525 829.738 998.947C846.121 1017.3 863.02 1035.14 879.376 1053.41ZM396.069 729.669C405.516 741.151 469.884 817.33 479.177 824.77C504.352 793.142 539.629 757.999 567.376 723.975C551.081 705.48 499.771 643.909 483.982 629.708C455.032 661.792 425.029 696.945 396.069 729.669ZM499.134 614.327C507.569 624.775 575.872 705.364 579.464 707.421L587.089 699.319C609.262 675.748 645.275 632.138 667.082 606.159C642.277 573.88 612.405 541.885 586.115 510.335C556.861 545.399 528.033 578.696 499.134 614.327ZM568.083 956.604C540.224 923.341 508.295 891.006 479.214 856.692C451.665 884.484 427.398 919.532 400.42 945.933L397.17 949.252L424.832 980.981C420.691 986.363 417.094 992.179 412.79 997.384C403.877 986.758 392.955 975.559 384.931 965.428C368.904 981.32 350.867 1006.65 335.617 1019.67C323.959 1025.67 292.288 1059.27 290.25 1059.56C275.909 1061.65 273.309 1073.46 276.419 1089.58C274.799 1095.69 270.64 1099.15 267.277 1103.97C282.953 1104.62 293.782 1104.79 309.505 1104.31C305.149 1098.61 300.798 1093.19 296.456 1087.4C296.742 1084.42 296.789 1070.11 299.875 1069.36C308.123 1078.93 305.444 1077.27 317.861 1079.7C323.238 1084.11 336.048 1098.87 341.143 1104.71C374.608 1105.32 408.083 1105.32 441.553 1104.71C446.447 1099.16 473.5 1069.78 474.568 1064.02C473.884 1061.59 468.076 1055.28 466.409 1053.03C466.058 1039.55 472.535 1044.71 483.163 1045.75C491.411 1053.65 498.202 1037.76 506.127 1028.15C526.262 1003.69 548.06 980.908 568.083 956.604ZM112.972 588.932C114.7 611.497 116.12 620.655 119.632 642.88C140.348 659.89 159.168 684.612 178.071 704.569C183.499 710.301 185.401 703.345 190.408 697.09C208.576 675.937 246.102 630.781 264.972 612.175C255.455 599.597 188.829 520.288 178.38 512.692C157.439 536.836 132.953 564.155 112.972 588.932ZM679.798 591.051C707.615 557.51 738.031 526.021 766.138 491.018C759.815 483.466 753.904 476.082 747.398 468.709C753.974 455.214 754.742 455.598 767.093 459.279C771.384 464.611 776.034 469.532 780.54 475.126C809.415 444.832 837.433 410.051 865.751 378.974C856.805 366.969 846.81 356.003 838.417 344.098C802.099 343.553 765.777 343.832 729.464 344.927C720.959 356.938 709.802 371.951 699.779 382.154C707.854 391.907 714.43 400.059 722.879 409.473L721.404 412.837C718.472 419.793 715.76 422.14 710.528 426.594C701.966 417.419 693.573 408.033 685.353 398.436C657.017 431.409 625.107 463.516 599.323 497.902C623.973 529.741 653.916 560.24 679.798 591.051ZM203.503 951.249C212.21 959.856 218.81 967.369 226.899 976.71L225.287 980.102C222.468 986.224 219.484 989.405 214.95 993.809C206.323 983.677 198.759 976.021 189.883 966.407C182.296 973.852 178.628 977.705 171.42 986.018C174.83 1009.07 178.877 1032.53 182.31 1055.46C188.825 1098.97 202.656 1104.57 235.751 1104.12L238.687 1100.2C248.729 1086.41 262.111 1073.07 273.202 1059.96C268.129 1054.35 263.193 1048.61 258.242 1042.85L256.406 1040.68C256.303 1038.99 256.176 1037.29 256.031 1035.6C255.038 1024.64 259.951 1025.83 268.401 1023.19C274.583 1030.75 280.888 1037.77 287.084 1045.27C311.308 1012.34 341.996 977.694 369.616 948.73L368.192 947.401C351.841 932.388 304.1 874.864 288.358 855.013C256.982 888.126 231.891 913.132 203.503 951.249ZM383.091 931.342C409.141 902.567 440.133 866.885 465.543 837.197C435.904 808.972 409.98 774.292 382.009 744.582C355.368 774.197 328.596 806.893 301.833 837.131L300.597 838.549C309.294 848.936 378.824 929.391 383.091 931.342ZM997.086 728.534C1005.13 738.065 1012.6 747.718 1020.79 757.349C1025.91 763.86 1030.17 769.204 1034.94 776.188L1037.18 779.418C1042.03 759.256 1057.25 676.927 1054.25 660.407C1037.08 681.32 1014.59 708.111 997.086 728.534ZM165.27 723.291C156.535 711.764 137.168 687.053 126.138 678.701C129.997 705.397 132.653 729.885 137.229 757.048C141.665 751.655 146.283 746.333 150.648 740.951C155.425 735.201 160.741 729.179 165.27 723.291ZM83.938 400.715C92.5466 454.852 95.9797 502.328 108.86 557.36L110.579 555.464C121.529 543.559 126.55 537.865 136.878 525.487C146.006 514.717 155.093 504.852 164.24 493.865C152.217 479.613 92.3218 407.621 83.938 400.715ZM983.967 969.359C961.294 992.88 916.236 1046.35 895.591 1072.14C903.965 1081.47 912.087 1092.64 919.66 1102.98C976.979 1104.01 985.368 1112.88 995.185 1041.59L996.955 1029.07C998.36 1019.6 1000.42 1009.38 1002.37 1000.05L1003.46 994.743C997.026 984.501 992.342 977.772 983.967 969.359ZM1004.53 964.733C1010.46 958.683 1011.64 947.112 1010.92 938.271C998.107 952.517 996.478 947.801 1004.53 964.733ZM695.245 352.645C700.093 340.923 675.55 343.976 669.068 343.67C682.599 362.96 678.431 364.567 695.245 352.645ZM488.362 1082.42C471.472 1107.81 466.058 1104.08 496.329 1105.36C509.335 1104.89 491.392 1085.09 488.362 1082.42ZM889.83 354.785L890.242 352.016C892.495 337.971 875.217 344.838 865.095 344.882C876.851 359.901 875.343 364.933 889.83 354.785ZM879.015 1087.88C865.629 1108.22 864.154 1104.26 884.101 1109.02C892.63 1102.16 885.895 1095.66 879.015 1087.88ZM239.456 344.276C185.738 342.453 127.904 343.981 73.8211 343.82C74.8188 346.884 79.4931 361.575 80.8748 363.343C111.052 402.083 148.395 440.345 179.134 478.112C192.333 462.136 207.672 444.126 221.156 428.34C235.863 410.585 250.13 392.324 263.947 373.58C255.432 362.82 247.994 354.591 239.456 344.276ZM640.957 344.004C601.969 342.213 560.505 344.688 521.147 344.215C512.942 355.075 504.384 365.545 495.49 375.609C526.145 411.719 555.432 444.254 585.768 479.519C597.08 466.201 608.587 453.123 620.292 440.295C637.622 421.94 655.022 400.899 671.419 381.253C660.253 367.374 653.364 357.204 640.957 344.004ZM443.239 344.982C408.458 342.702 354.403 344.009 318.409 345.044C312.934 347.084 300.859 368.492 294.634 376.16C314.549 398.185 361.414 453.39 380.098 477.901C390.505 466.263 400.317 455.392 410.514 443.386C429.811 420.477 447.908 398.991 466.606 375.376C459.383 365.906 449.852 354.368 443.239 344.982ZM270.279 345.261C276.832 355.703 276.115 358.533 286.044 354.213C287.346 340.278 281.852 345.578 270.279 345.261ZM491.336 350.309C489.931 340.256 482.802 345.333 473.046 345.105C478.624 354.43 478.952 361.508 487.612 353.451C488.844 352.383 490.085 351.338 491.336 350.309ZM898.326 840.423C920.822 865.562 942.765 889.138 964.544 915.428C970.244 922.423 976.071 929.274 981.719 936.308C1034.17 886.352 1019.47 880.036 1032.98 805.947C1017.92 789.038 997.101 755.091 981.982 743.492C960.783 765.234 917.974 816.09 898.326 840.423Z" fill="#15120D" fill-opacity="0.988235"/>
<path d="M967.259 494.443C966.336 493.703 980.584 511.185 980.228 510.718C960.828 536.408 916.731 584.99 893.374 613.204C900.933 620.705 907.818 628.701 914.863 636.88C901.804 638.07 904.165 639.383 906.263 654.796C899.448 646.65 891.777 638.409 885.5 629.896L882.479 625.843C873.749 636.113 823.099 694.409 816.805 699.87C819.615 669.387 857.019 645.527 871.248 625.871C871.417 624.086 871.679 624.236 871.15 623.079C870.4 621.444 869.515 619.971 869.206 618.141C869.178 617.902 869.154 617.658 869.126 617.418L868.677 619.081L868.737 619.087C865.623 626.605 861.393 625.57 854.485 626.827C858.12 622.028 863.735 616.012 866.138 610.368C867.009 608.322 861.515 602.194 860.583 601.071C837.399 573.218 813.367 546.267 789.499 519.231C785.265 514.438 783.934 513.855 780.047 508.427C793.147 509.623 795.737 518.72 798.571 499.297C817.24 518.136 862.686 573.858 880.62 596.072C902.605 567.157 942.632 519.776 967.259 494.443Z" fill="#15120D" fill-opacity="0.945098"/>
<path d="M667.379 1070.22C672.802 1089.87 673.364 1064.77 684.488 1070.67C688.615 1072.85 687.547 1079.16 690.877 1079.33C693.532 1075 689.139 1070.23 689.434 1069.11C692.427 1057.62 699.003 1069.78 700.563 1052.81C701.115 1046.78 727.738 1028.34 732.22 1026.9L736.515 1025.33C726.576 1038.71 709.087 1059.03 697.453 1070.75C703.485 1078.17 716 1092.48 720.787 1099.89C715.091 1103.79 695.696 1117.36 692.521 1106.58C704.759 1101.4 683.289 1088.36 682.151 1088.07C679.767 1089.48 668.559 1102.78 666.142 1105.66C655.505 1107.79 650.709 1107.82 642.138 1101.58C651.702 1090.59 658.517 1081.63 667.379 1070.22Z" fill="#15120D" fill-opacity="0.941176"/>
<path d="M917.274 406.409C935.91 426.465 959.254 456.592 977.183 478.445C967.45 480.664 967.759 480.764 959.811 488.588C950.271 474.786 913.883 432.332 902.464 421.333C911.714 416.451 910.956 416.434 917.274 406.409Z" fill="#15120D" fill-opacity="0.972549"/>
<path d="M613.562 982.109C622.625 988.287 668.881 1047.83 681.785 1056.26C682.084 1056.45 685.653 1053.92 686.965 1053.18C686.923 1054.51 687.25 1057.9 686.295 1059.01C682.801 1059.49 679.475 1063.49 676.993 1061.39C670.206 1055.63 664.712 1043.58 663.705 1065.23C649.987 1050.21 613.445 1009.68 602.518 995.449C606.691 990.873 609.702 986.991 613.562 982.109Z" fill="#15120D" fill-opacity="0.956863"/>
<path d="M1012.83 519.654C1023.32 531.931 1063.27 576.371 1068.35 585.929C1063.64 592.007 1062.03 580.146 1057.03 582.877C1057.02 582.916 1061.25 601.754 1061.4 608.855L1061.45 610.618C1043.47 587.486 1019.35 560.935 1003.25 538.743C1008.31 533.9 1010.25 532.504 1011.72 524.836L1012.83 519.654Z" fill="#15120D" fill-opacity="0.941176"/>
<path d="M424.832 980.98C444.466 1004.38 462.56 1023.83 483.163 1045.75C472.536 1044.71 466.058 1039.55 466.41 1053.03C458.143 1048.92 421.067 1007.51 412.791 997.384C417.095 992.179 420.692 986.363 424.832 980.98Z" fill="#15120D" fill-opacity="0.964706"/>
<path d="M701.892 617.246C716.697 631.698 744.762 664.299 759.497 681.436C751.942 689.921 750.663 688.509 749.048 700.359C743.301 694.676 704.988 650.231 701.063 644.515C714.21 631.859 703.639 634.189 701.892 617.246Z" fill="#15120D" fill-opacity="0.929412"/>
<path d="M716.771 868.197C735.651 890.628 752.325 909.678 771.622 931.497C761.538 928.906 757.734 926.771 750.835 936.474C745.88 932.493 708.565 889.577 703.685 882.793C708.963 879.351 710.766 877.972 714.274 872.195L716.771 868.197Z" fill="#15120D" fill-opacity="0.972549"/>
<path d="M416.267 519.398C430.478 535.94 444.538 552.961 459.128 569.181C452.393 575.559 451.61 575.898 446.318 583.622C442.735 580.591 409.195 540.228 406.15 535.79C411.228 530.374 412.384 525.987 416.267 519.398Z" fill="#15120D" fill-opacity="0.945098"/>
<path d="M226.897 976.71C242.255 993.992 252.259 1006.06 268.399 1023.19C259.95 1025.83 255.037 1024.64 256.029 1035.6C256.175 1037.29 256.301 1038.99 256.404 1040.68C243.28 1026.65 227.539 1008.58 214.949 993.808C219.483 989.404 222.466 986.224 225.286 980.102L226.897 976.71Z" fill="#15120D" fill-opacity="0.964706"/>
<path d="M906.263 654.796C904.165 639.382 901.804 638.07 914.862 636.88L958.533 686.88C948.571 687.202 947.812 687.975 941.485 697.145C929.995 682.737 918.253 668.619 906.263 654.796Z" fill="#15120D" fill-opacity="0.980392"/>
<path d="M722.879 409.473C736.279 424.069 753.745 444.076 767.093 459.278C754.742 455.597 753.974 455.213 747.398 468.709C736.232 456.053 726.387 443.686 714.819 431.22L710.528 426.593C715.76 422.139 718.472 419.793 721.404 412.837L722.879 409.473Z" fill="#15120D" fill-opacity="0.964706"/>
<path d="M648.149 789.816C658.285 801.46 671.249 818.163 682.097 827.972C682.588 838.948 676.94 839.443 668.626 842.685C657.545 828.784 646.885 816.784 635.545 803.328C640.22 797.317 642.857 794.954 648.149 789.816Z" fill="#15120D" fill-opacity="0.972549"/>
<path d="M276.417 1089.58C273.307 1073.46 275.906 1061.65 290.248 1059.56C292.285 1059.27 323.956 1025.67 335.614 1019.66C326.13 1032.34 312.252 1047.31 301.554 1060.8C307.404 1066.62 312.664 1073.05 317.858 1079.7C305.442 1077.27 308.121 1078.93 299.873 1069.36C296.786 1070.11 296.739 1084.42 296.454 1087.4C285.433 1073.21 288.698 1074.01 278 1087.61L276.417 1089.58Z" fill="#15120D" fill-opacity="0.937255"/>
<path d="M228.971 759.6C240.357 772.673 251.771 783.972 263.195 797.322C252.821 800.598 252.596 797.99 246.835 808.866C241.177 804.29 225.117 786.747 221.117 780.619C226.812 773.874 227.276 768.886 228.971 759.6Z" fill="#15120D" fill-opacity="0.972549"/>
<path d="M616.636 752.961L648.148 789.816C642.855 794.954 640.218 797.317 635.544 803.328C629.001 796.528 610.336 775.671 605.306 768.859C611.193 763.888 612.261 760.162 616.636 752.961Z" fill="#15120D" fill-opacity="0.984314"/>
<path d="M324.262 647.567C333.667 658.978 343.241 670.187 352.983 681.192L349.428 682.47C343.241 684.578 340.716 686.352 336.388 692.007C332.281 688.214 318.351 671.605 314.834 666.545C321.981 660.273 321.827 658.555 324.262 647.567Z" fill="#15120D" fill-opacity="0.964706"/>
</g></svg>