<?xml version="1.0" encoding="utf-8" ?><svg xmlns="http://www.w3.org/2000/svg" xmlns:xlink="http://www.w3.org/1999/xlink" width="843" height="778" viewBox="206 51 843 778"><path fill="#15120D" d="M490.006 130.87C499.509 129.563 498.243 128.486 505.845 123.317C517.519 115.38 524.423 105.435 530.795 93.1063C532.893 89.0472 537.774 75.7191 541.952 74.643C546.491 75.8319 546.341 80.4345 545.859 84.3024C543.883 100.171 537.919 113.582 529.069 126.641C510.767 153.647 479.984 161.085 452.343 174.577C429.008 186.024 409.171 206.026 401.148 231.053C402.565 232.472 404.099 233.547 405.697 234.756C412.551 227.213 419.537 215.651 427.928 210.652C437.16 205.15 482.215 182.717 471.529 212.058C465.886 227.55 457.718 244.107 441.569 250.373C434.238 253.217 426.784 255.372 419.86 258.864C436.502 292.596 433.578 327.088 444.837 361.694C450.566 379.304 460.916 388.548 478.296 380.769C481.797 379.202 490.367 377.243 493.982 376.871C503.482 376.002 513.086 378.288 522.481 375.992C545.305 370.412 566.884 359.782 589.71 354.021C598.042 351.918 610.399 348.328 618.745 347.443C631.981 346.04 637.005 346.053 649.493 341.367C666.856 344.528 661.069 345.681 680.956 344.284C689.958 335.66 693.109 326.905 707.375 326.637C723.017 326.343 728.976 317.664 742.013 310.873C753.396 311.323 805.759 316.234 813.016 320.324C823.966 326.496 833.105 336.202 844.209 342.099C854.145 347.375 865.964 349.076 875.452 355.156C880.012 358.078 882.521 363.005 886.643 366.368C893.534 371.989 902.743 375.844 910.541 380.165C915.716 390.785 917.98 402.939 922.257 413.25C930.229 431.845 934.105 445.631 932.088 466.143C928.436 503.273 936.498 535.416 943.515 571.18C945.113 579.33 936.441 610.784 935.915 622.057C935.107 639.402 941.333 653.726 939.277 670.429C936.574 685.401 934.534 702.587 930.821 717.101C914.485 722.591 894.772 724.43 878.903 729.047C854.07 736.631 840.937 743.264 814.252 739.026C781.028 733.75 747.249 739.919 713.916 738.575C705.894 738.251 684.55 723.874 677.787 722.484C658.593 718.54 653.156 718.623 635.849 708.868C636.123 706.337 636.672 703.909 637.179 701.414C633.136 701.431 621.928 701.707 618.468 701.204L618.057 700.339C620.826 697.863 633.545 698.593 638.028 698.56C639.784 691.413 646.609 656.202 649.206 652.377C654.389 644.74 663.485 638.864 667.247 630.317C670.108 623.817 671.039 615.744 672.776 608.851C674.34 602.643 676.612 596.656 678.83 590.659C672.899 570.555 678.275 573.474 677.272 556.542C674.683 552.829 672.7 551.041 669.433 547.922C666.464 544.593 665.451 539.999 664 535.678C662.226 530.397 654.971 530.611 648.589 527.675L647.924 527.365C646.311 524.553 643.854 518.469 642.292 515.145C619.644 528.376 594.302 536.325 568.155 538.401C550.773 539.854 534.974 539.74 517.006 541.621C510.831 551 502.696 551.892 493.379 558.368C477.197 569.617 461.077 580.685 444.723 591.724C433.784 599.109 421.56 606.246 411.21 614.275C408.107 616.683 403.059 623.858 399.453 627.108C395.519 630.654 388.661 633.989 385.386 637.278C370.07 652.661 356.774 670.482 344.256 688.154C338.118 696.818 335.681 705.518 329.813 713.927C327.185 717.694 321.729 715.875 318.556 716.267C311.416 717.15 312.663 731.136 310.755 736.162C309.763 738.775 308.124 740.896 306.555 743.121C312.09 743.093 338.097 742.541 340.811 744.384C336.822 747.535 312.629 745.11 304.837 746.132C296.156 747.27 280.581 753 271.706 750.507C271.693 750.504 269.651 747.603 269.464 747.527C267.789 746.98 261.74 746.212 262.679 742.967C264.97 735.046 273.397 725.872 278.8 719.67C281.934 716.072 286.323 713.489 289.422 710.266C296.04 703.383 298.992 694.882 305.096 687.7C310.843 680.924 317.796 675.39 323.779 668.859C335.714 655.833 346.189 641.491 356.987 627.528C359.455 624.337 361.249 619.767 363.362 616.316C366.749 610.049 370.426 604.216 375.171 598.869C380.975 592.245 388.614 588.316 395.325 582.761C402.858 576.526 409.656 569.303 416.444 562.276C402.263 565.666 387.62 568.662 373.497 572.262C371.514 572.767 366.23 576.874 363.594 578.268C360.272 580.024 350.476 582.871 348.083 584.579C329.792 597.632 310.155 614.373 295.239 631.271C292.852 633.975 291.063 641.73 288.475 644.976C285.464 648.754 281.547 647.905 277.702 648.647C269.828 650.166 276.424 666.077 270.762 672.746C264.649 679.945 251.968 685.758 242.967 687.875C238.743 688.868 238.101 687.322 236.227 685.349C236.046 685.159 233.509 685.298 231.369 683.804C230.58 682.324 229.98 681.113 230.767 679.157C233.984 672.428 239.839 656.731 244.307 651.508C252.373 642.08 257.531 632.888 263.023 623.009C264.866 619.693 281.633 607.966 285.559 604.887C293.871 598.262 301.944 591.344 309.763 584.144C314.832 579.523 320.251 574.486 325.043 569.552C331.037 563.382 334.922 556.18 342.397 551.419C351.652 545.524 362.224 543.731 372.065 539.556C384.3 534.367 396.714 527.845 408.368 521.466C394.871 507.257 392.329 498.594 389.309 480.369C389.135 479.32 381.699 469.442 380.469 467.439C363.291 439.468 361.235 406.187 360.978 374.204C360.824 359.208 362.189 341.008 357.538 326.933C338.612 327.799 325.478 327.174 307.243 333.34C297.231 336.725 288.565 328.106 281.394 322.419C276.239 321.027 275.813 302.807 278.481 298.861C290.552 281.011 321.131 273.044 326.351 250.016C327.089 246.758 342.451 232.952 346.333 228.004C346.605 221.881 347.887 219.196 349.706 213.463C350.033 212.432 349.85 207.282 349.809 205.977C351.501 203.755 353.536 201.447 355.374 199.337C356.876 188.666 357.575 189.234 364.553 181.272C365.812 179.835 366.345 173.377 368.476 171.836C374.407 167.548 378.382 167.184 381.379 159.564C382.763 156.181 390.62 155.941 393.446 154.051C395.871 152.429 397.309 148.68 399.976 147.312C402.846 146.13 407.863 145.63 411.098 145.081C417.271 138.702 418.003 140.088 426.729 139.353L432.365 134.591L439.595 134.02C441.518 132.051 443.461 130.101 445.423 128.171C447.52 127.8 450.386 127.501 452.553 127.213C456.089 122.137 458.197 121.136 463.008 117.304C466.115 114.829 469.467 110.356 471.736 107.063C475.136 102.048 478.176 96.7993 480.834 91.3556C483.243 86.4707 486.075 78.3724 489.441 74.8506C506.198 74.6075 483.327 122.846 477.145 128.749C477.271 128.628 465.66 142.129 466.016 141.457C467.288 140.918 471.023 138.043 472.304 137.101C482.119 136.571 482.212 138.363 490.006 130.87Z"/><path fill="#F5F5F5" d="M402.626 243.555L403.143 243.178C413.212 235.709 418.89 223.071 428.904 215.457C434.555 211.16 461.441 199.129 467.775 202.019C472.283 209.751 453.792 239.969 444.815 243.794C433.911 248.439 413.481 254.028 407.812 264.989L407.935 266.058C411.079 267.188 414.177 263.746 416.392 261.829C423.153 276.51 424.972 285.132 428.582 301.607C433.73 325.102 433.914 376.06 459.627 387.212C467.949 390.821 480.627 383.891 489.725 382.172C501.207 380.004 513.553 382.969 524.309 380.248C539.866 376.313 556.039 369.848 571.294 364.502C585.701 359.592 600.407 355.61 615.322 352.579C618.113 352.008 626.033 350.17 628.212 351.507C629.174 350.952 629.592 350.879 630.634 350.53C640.024 350.773 653.004 341.724 657.832 350.39L658.611 348.628L659.16 348.667C667.337 349.961 675.686 349.686 683.76 347.856C688.797 343.124 692.273 338.448 696.819 333.572C704.357 331.653 712.231 330.681 719.478 329C725.383 327.631 737.466 318.949 742.864 315.317C750.766 320.449 757.259 325.671 764.742 331.302C767.353 333.266 774.976 336.239 776.437 337.747C782.471 343.974 785.605 356.155 790.224 363.223C794.138 369.214 802.182 375.721 807.097 381.609C807.592 385.12 808.24 390.936 809.115 394.183C806.355 401.107 802.796 406.344 800.608 413.788C796.184 428.838 794.378 449.049 789.044 463.409C788.022 466.159 774.187 475.842 770.743 478.345C766.643 475.985 762.357 473.599 758.333 471.137C762.763 469.646 777.966 465.483 780.421 463.276C777.765 460.866 756.784 468.871 753.598 471.088C758.32 473.984 765.641 477.835 769.745 480.655C767.836 490.381 764.535 502.955 762.842 512.695C761.844 518.439 752.444 534.039 749.112 539.907C747.484 537.101 742.375 527.937 740.493 525.898L740.297 525.918C739.491 525.176 739.096 524.728 738.378 523.896C729.355 514.73 718.845 514.976 722.78 530.776L723.326 529.693L725.167 529.323C724.932 526.864 724.248 523.216 725.215 521.194C727.189 520.357 728.587 520.752 730.58 521.529C738.784 524.725 744.147 535.068 747.37 542.768C750.461 550.151 761.708 600.783 761.435 608.325C761.174 615.537 757.876 624.111 755.108 630.79C750.892 640.967 744.913 650.984 738.32 659.79C733.788 665.843 728.687 671.693 724.708 678.124L725.3 678.397C723.966 679.475 724.313 679.404 723.592 681.262L723.14 680.894C720.207 687.453 720.933 705.264 719.459 712.654C718.113 719.399 715.176 727.375 713.083 734.058C706.259 730.598 699.07 727.794 692.109 724.564C687.114 722.382 682.323 719.084 677.162 717.364C669.743 714.889 661.674 716.072 654.334 713.034C649.556 711.057 645.12 708.674 640.573 706.232C644.604 692.747 649.559 669.526 651.826 655.922C666.629 653.891 693.076 649.348 704.413 639.576C705.01 636.512 705.485 633.735 706.711 630.821C707.837 628.146 712.93 622.61 712.979 620.377L712.109 620.031C706.692 620.93 703.965 633.378 702.638 638.05C690.134 646.935 669.491 650.309 654.742 652.696C659.682 647.127 667.619 638.68 671.374 632.716C672.979 630.167 675.338 617.01 676.338 612.827C677.606 607.358 679.186 601.966 681.072 596.678C682.71 601.074 683.494 603.395 685.96 607.468C684.806 597.72 681.18 586.447 680.433 577.675C679.216 563.381 687.8 560.062 674.85 546.837C679.039 547.741 684.214 548.454 687.982 550.31L688.434 550.536C694.48 553.514 698.276 558.298 704.302 561.105C705.388 559.5 706.329 557.781 707.602 556.28C709.875 553.6 714.309 550.458 715.416 547.015C711.018 548.215 705.851 554.231 703.406 558.108C697.536 553.481 690.852 547.152 683.287 546.251C668.367 544.474 671.109 541.998 666.964 530.078C663.008 527.267 655.879 525.364 651.097 523.809C648.812 519.026 648.024 515.996 644.582 511.903C652.221 506.539 656.721 508.575 662.155 505.409L661.614 504.845C647.412 503.432 637.248 513.875 623.565 519.854C625.89 516.765 630.446 511.186 631.757 507.844C624.627 513.178 623.608 517.277 617.373 521.788C614.047 524.195 605.607 526.52 601.449 527.685C589.822 531.057 577.885 533.251 565.819 534.234C549.813 535.5 534.34 535.105 518.112 537.046C518.833 531.294 518.688 524.212 519.378 517.774C532.179 501.605 551.058 499.8 570.042 496.152C582.743 493.712 591.613 491.412 603.497 486.854C626.049 478.205 634.758 459.398 653.578 446.432C655.324 449.518 658.295 453.742 660.305 456.768C656.781 462.196 650.722 467.892 646.312 473.088C647.34 479.206 648.495 481.492 651.162 487.038L651.993 487.414L648.698 473.458C652.903 469.624 661.491 462.016 662.167 456.305C662.38 454.506 661.161 453.37 660.02 452.032L660.165 449.989L659.127 449.768C657.428 448.252 656.925 446.585 655.978 444.48C656.596 432.374 662.619 424.939 666.232 413.971C666.887 411.985 665.807 409.845 664.722 408.165L664.006 409.195C664.673 410.483 665.204 411.061 664.433 412.783C659.501 423.8 654.991 431.364 653.542 443.794C633.448 455.136 630.058 471.977 604.012 483.956C574.604 497.482 544.06 491.528 520.403 512.126C521.552 509.784 523.059 507.307 523.043 504.749L522.574 503.905L522.125 503.981L522.788 504.297C520.394 504.958 520.629 505.933 519.044 508.324C512.53 518.152 517.922 534.304 510.743 542.248C506.021 547.473 496.495 550.165 490.5 554.429C475.542 565.07 460.915 575.449 445.603 585.613C434.218 593.17 422.29 600.748 411.038 608.496C406.284 611.77 400.299 620.626 394.143 625.611C386.864 631.504 376.058 634.062 370.406 638.86C356.881 650.341 340.515 671.517 331.548 687.071C330.083 689.613 329.716 694.214 330.121 696.851L330.709 697.027C333.027 693.188 333.35 688.12 335.841 684.427C346.146 669.15 364.115 643.982 380.161 635.926C361.238 656.887 340.672 681.096 328.54 707.217C324.278 716.392 318.824 708.406 312.657 713.9C307.823 718.905 307.607 727.324 307.423 733.962C299.477 729.226 290.943 725.554 282.041 723.042C286.19 719.421 295.383 711.673 297.769 707.207C305.686 692.392 314.024 684.813 325.957 673.515C334.967 664.984 343.618 651.025 351.99 641.622C355.559 637.14 358.969 632.42 362.205 627.706C367.345 618.76 371.78 609.99 378.531 602.068C383.693 595.832 391.075 592.023 397.319 587.03C414.834 573.024 428.938 555.18 442.748 537.653C445.256 534.469 450.99 529.691 451.473 526.026L450.828 525.357C449.653 525.902 448.678 526.349 447.456 526.814C435.671 516.235 431.016 492.017 428.893 489.999C425.193 495.326 436.016 516.501 439.552 521.454C441.266 523.856 443.655 526.537 445.761 528.647L438.895 535.956C432.486 532.811 430.44 531.729 425.399 526.846C421.413 522.986 418.011 514.357 413.821 512.532C413.334 514.442 417.196 521.334 418.243 523.05C422.515 530.128 428.999 535.6 436.694 538.621C432.973 543.337 426.595 551.793 422.562 555.739C405.872 560.867 388.396 563.458 371.69 568.275C366.537 570.124 361.51 575.022 356.431 576.724C346.2 580.153 335.786 579.128 327.528 587.499C318.522 596.63 287.235 616.376 287.299 630.266L287.949 631.37L289.307 630.963L289.9 630.94C288.115 635.277 286.585 639.063 284.417 643.249C268.726 644.659 269.035 648.729 269.189 663.038C262.141 661.926 251.857 663.188 245.96 659.531C244.395 657.379 252.022 648.805 252.925 647.765C262.035 637.27 262.894 626.775 274.989 618.614C291.712 607.329 306.377 592.715 321.521 579.496C330.618 571.555 335.886 561.548 345.448 554.694C351.558 550.409 362.05 548.782 368.934 545.655C382.676 539.413 401.486 532.153 413.695 523.26C414.285 520.383 403.235 509.408 400.803 504.197C396.881 495.791 396.499 494.01 394.596 485.13C398.973 489.827 403.939 495.193 408.767 499.338C405.051 490.742 397.576 482.945 391.75 475.694C367.748 445.82 365.486 407.081 365.479 370.297C365.476 355.418 366.134 340.836 362.27 326.035C373.684 324.863 383.445 321.75 391.868 313.592C395.888 309.7 400.688 303.004 400.732 297.187L400.06 296.873C397.302 299.139 396.912 302.577 394.676 305.858C379.757 327.576 350.983 321.464 328.721 323.835C310.756 325.749 305.754 334.977 288.232 323.571C290.524 323.818 294.195 324.149 296.418 324.107C300.783 324.023 315.126 320.968 317.915 318.099L317.869 316.951C313.556 314.483 288.823 329.332 284.477 315.242C282.5 308.832 301.042 308.873 298.758 301.567L297.994 301.316C295.647 302.265 296.03 302.506 294.444 304.832C285.166 306.452 289.667 306.525 283.619 309.862C281.365 307.576 281.029 302.006 283.073 299.85C294.051 287.557 313.599 277.874 324.224 265.603C331.623 257.058 326.667 251.788 339.808 241.85C352.466 232.278 343.953 230.313 363.132 228.554C360.323 230.958 358.775 231.947 357.699 235.56L358.235 236.096C360.805 235.226 363.834 232.016 366.802 230.394C374.454 236.026 388.891 241.221 398.457 236.293C399.734 235.635 399.802 235.965 401.187 236.191C402.453 237.55 402.092 236.75 402.148 238.737L400.596 240.292C401.455 241.453 402.257 242.242 402.626 243.555Z"/><path fill="#15120D" d="M664.006 409.195C660.571 408.073 645.176 397.228 642.098 394.48C634.044 387.293 648.489 382.035 653.169 379.498C654.743 378.644 657.631 376.454 659.273 375.204C654.198 385.444 644.19 383.857 642.281 390.351C643.448 394.434 659.81 402.929 664.722 408.165L664.006 409.195Z"/><path fill="#15120D" d="M743.271 502.684C747.45 499.516 748.965 498.097 753.944 496.077C751.081 499.544 748.942 501.348 745.607 504.289L741.935 521.458C743.456 520.568 752.609 514.202 753.366 514.27C752.224 520.368 743.333 522.047 740.493 525.898L740.297 525.918C739.491 525.176 739.096 524.728 738.378 523.896C740.788 516.394 741.955 510.496 743.271 502.684Z"/><path fill="#15120D" d="M723.14 680.894C720.37 674.908 715.957 670.725 713.008 665.947C711.448 663.418 709.188 648.735 709.314 645.655L709.869 645.571C713.026 650.829 712.745 657.052 714.729 662.237C716.61 667.149 721.607 673.164 724.708 678.124L725.3 678.397C723.966 679.475 724.313 679.404 723.592 681.262L723.14 680.894Z"/><path fill="#15120D" d="M651.162 487.038L651.993 487.414C652.456 489.485 652.587 491.879 652.779 494.017C648.127 497.274 640.709 500.239 635.243 503.162C634.259 505.286 633.493 507.47 631.752 508.951L631.426 508.091C633.247 492.838 650.532 501.477 651.162 487.038Z"/><path fill="#15120D" d="M660.165 449.989C664.022 447.976 679.675 446.517 682.131 449.557L681.588 450.415C673.725 451.739 671.773 448.838 660.02 452.032L660.165 449.989Z"/><path fill="#15120D" d="M657.832 350.39L658.611 348.628L659.16 348.667C663.142 353.064 673.16 355.224 679.773 361.126C675.054 359.978 659.975 354.293 657.832 350.39Z"/><path fill="#15120D" d="M628.212 351.507C629.174 350.952 629.592 350.879 630.634 350.53C631.795 354.007 636.479 355.942 633.591 360.261C633.785 360.427 629.078 352.708 628.212 351.507Z"/><path fill="#15120D" d="M722.78 530.776L723.326 529.693L725.167 529.323C725.478 532.254 726.07 535.06 725.059 537.781L724.32 538.237C722.739 536.136 722.917 533.478 722.78 530.776Z"/><path fill="#15120D" d="M402.626 243.555C400.242 245.024 399.512 245.764 396.85 244.638L396.601 243.438C398.095 241.151 397.932 241.709 400.596 240.292C401.455 241.453 402.257 242.242 402.626 243.555Z"/><path fill="#15120D" d="M362.167 257.961C366.706 257.517 374.169 258.98 377.593 262.038C377.717 262.43 377.842 262.822 377.967 263.214C376.126 265.551 374.28 269.094 373.012 271.549C363.651 277.488 363.311 272.139 354.739 271.382C350.19 271.277 349.385 278.354 347.659 280.787C340.118 291.421 329.084 294.863 320.645 305.499C327.684 302.953 331.403 299.843 337.575 295.798C342.202 292.766 347.105 291.042 351.39 287.308C353.736 283.835 352.455 279.639 354.494 277.08L355.333 277.274C358.568 286.59 349.244 292.981 342.107 295.85C337.558 297.679 323.262 310.692 318.83 306.029C319.198 298.016 338.097 288.982 342.568 283.366C348.665 275.708 353.098 262.732 362.167 257.961Z"/><path fill="#F5F5F5" d="M364.911 260.331C369.058 260.764 370.425 261.469 374.048 263.25C372.136 268.5 371.526 270.482 365.755 271.801C354.436 270.186 354.753 262.899 364.911 260.331Z"/><path fill="#15120D" d="M650.364 408.475C651.834 408.304 652.032 408.162 653.447 408.657C652.113 410.518 635.371 416.951 631.474 420.172C614.971 433.81 602.982 447.363 583.563 457.529C560.003 469.861 534.882 474.716 519.054 497.817L518.039 499.15L517.453 499.12C519.409 479.819 560.188 466.747 574.983 459.187C580.911 456.157 585.918 453.414 591.695 449.907C605.72 441.39 615.547 429.391 628.144 419.305C633.791 414.851 643.477 410.95 650.364 408.475Z"/><path fill="#15120D" d="M388.967 319.767C392.958 322.475 392.861 338.545 392.314 343.324C389.311 369.58 383.364 393.22 385.618 419.889C386.515 430.497 393.682 445.054 393.935 452.514C390.521 450.277 388.655 442.635 387.389 438.677C377.259 407.013 386.639 374.226 390.185 342.327C391.046 334.587 388.299 326.676 388.967 319.767Z"/><path fill="#15120D" d="M455.373 206.975L456.109 207.767C454.339 210.457 438.724 213.522 432.074 222.304C425.589 230.869 424.116 236.73 419.353 246.083C426.774 244.505 434.798 243.159 441.154 238.718C443.291 237.225 447.769 231.004 449.922 231.055L449.971 232.389C448.243 236.534 445.281 238.608 441.836 241.37C434.125 245.829 426.815 246.687 418.459 249.31C414.701 250.489 410.987 256.213 407.743 253.75C408.152 251.773 414.656 247.796 416.26 244.856C427.88 223.549 428.58 213.438 455.373 206.975Z"/><path fill="#15120D" d="M488.704 537.633C489.273 537.846 489.449 538.107 489.953 538.537C489.852 549.553 460.945 565.257 452.219 571.276C437.474 581.447 425.094 588.378 413.55 602.672L413.204 602.711L412.683 602.187C416.462 586.01 470.779 559.573 482.948 546.408C486.099 543 486.629 541.976 488.704 537.633Z"/><path fill="#15120D" d="M757.375 452.607L758.316 452.96L758.675 453.833C755.743 462.221 751.285 468.345 743.54 472.526C737.416 495.669 742.789 490.53 726.661 510.434C725.608 510.343 720.282 509.692 719.843 510.71C716.498 518.459 713.012 523.559 707.21 529.597L706.231 529.064L706.2 528.033C708.351 523.89 711.726 521.438 714.097 517.696C715.495 515.49 715.385 510.887 717.941 508.82C719.949 507.197 722.915 507.726 725.396 507.902C733.38 498.556 736.709 494.603 738.872 481.998C739.343 479.252 740.629 473.567 741.578 471.127L741.801 470.571C753.697 464.222 750.535 463.182 757.375 452.607Z"/><path fill="#15120D" d="M771.299 342.613C771.541 342.87 771.969 343.643 772.175 343.982C771.743 347.212 767.576 355.899 766.001 359.433C768.463 361.731 774.133 365.474 777.08 367.542C780.032 367.283 784.24 366.52 786.775 367.887L786.411 368.666C783.57 369.975 780.099 369.898 776.925 370.058C772.84 367.823 768.397 364.411 764.564 361.645C758.252 364.563 752.22 366.975 745.754 369.552C739.326 372.518 737.009 372.485 729.902 371.443C727.521 371.094 722.026 369.839 720.648 367.843C723.097 366.761 735.05 369.602 738.206 370.237C746.104 366.354 755.3 363.102 763.567 359.193C765.292 354.897 768.688 345.954 771.299 342.613Z"/><path fill="#15120D" d="M362.913 245.04C365.221 244.909 365.511 244.967 367.703 245.712L367.561 246.178C356.415 248.354 355.892 254.885 348.668 259.486C336.372 267.316 336.833 274.612 327.796 284.252C323.929 288.376 312.77 293.427 307.174 296.571C305.732 297.366 305.232 297.544 303.778 297.08C305.569 293.669 320.268 287.356 325.489 282.867C330.485 280.175 334.681 268.066 337.636 265.669C344.258 260.297 355.677 247.65 362.913 245.04Z"/><path fill="#15120D" d="M767.458 378.316C770.602 379.542 774.466 394.172 775.741 398.121C779.368 399.561 795.825 405.512 797.11 407.932L797.571 407.678L797.416 408.22C790.676 407.524 782.139 403.494 775.67 400.789C774.952 405.318 772.255 423.877 770.85 426.874L769.971 426.822C767.899 422.294 774.4 404.757 773.032 397.767C771.941 392.195 766.611 382.943 767.458 378.316Z"/><path fill="#15120D" d="M514.074 502.017C515.297 506.232 508.133 519.941 505.343 523.446C496.553 534.49 485.195 525.131 475.159 522.498C471.954 521.657 466.586 522.52 463.098 522.897C463.023 521.572 462.853 522.181 463.785 521.063C477.76 515.648 483.247 526.559 495.471 526.24C505.873 525.968 508.721 508.422 514.074 502.017Z"/><path fill="#15120D" d="M745.402 415.147C747.294 417.904 740.606 435.896 739.268 439.899C729.099 445.796 712.061 454.759 701.136 457.75L701.056 457.16C701.394 456.579 733.909 439.875 737.431 438.153C739.953 431.651 741.939 421.154 745.402 415.147Z"/><path fill="#15120D" d="M713.194 333.644C715.642 334.379 716.05 336.877 717.988 337.44C727.327 340.153 733.123 340.658 741.814 345.211C738.172 349.038 727.129 355.744 722.218 358.832C719.416 358.427 715.8 357.586 712.958 357.006C711.224 356.303 711.849 356.854 710.841 355.533L711.556 355.061C715.502 355.081 717.825 355.677 721.718 356.495C727.011 352.738 732.338 349.296 737.778 345.757C730.43 342.999 722.537 342.107 715.601 338.764C713.608 337.803 713.21 335.686 713.194 333.644Z"/><path fill="#15120D" d="M679.42 496.635C684.607 497.895 689.724 513.823 690.823 518.61C682.073 518.895 679.369 518.646 670.95 516.92C663.129 519.922 661.687 520.445 653.429 519.19C652.473 518.517 652.812 518.82 652.197 517.742C653.354 516.751 655.233 517.467 657.368 517.573C662.313 517.817 667.089 515.812 671.71 514.186C678.756 516.311 681.124 516.384 688.323 516.6C686.124 509.945 680.381 500.988 679.42 496.635Z"/><path fill="#15120D" d="M719.085 411.818C721.668 414.505 719.398 420.766 718.566 424.219C721.431 426.343 732.371 433.634 733.716 435.33L733.472 436.181C729.616 436.737 720.99 427.551 716.97 427.328L715.546 428.8C713.615 430.914 704.757 441.609 703.323 442.474L702.35 442.232C702.718 438.119 714.09 427.681 716.098 424.008C717.045 422.275 717.596 415.458 719.085 411.818Z"/><path fill="#15120D" d="M738.784 378.691C741.783 380.675 739.134 394.173 738.679 398.303C742.166 403.608 745.296 406.582 747.952 412.509C742.549 408.154 740.979 406.052 737.002 400.18L736.253 399.527C732.561 398.795 724.331 396.989 720.887 396.138L720.919 395.496C724.084 394.289 732.74 396.52 736.367 397.28C736.944 391.707 737.538 383.959 738.784 378.691Z"/><path fill="#15120D" d="M451.615 425.716L452.478 426.244C452.758 430.09 438.843 450.564 436.652 455.549C434.156 461.227 433.877 463.028 432.641 469.199L431.479 468.654C428.697 460.136 446.488 434.146 451.615 425.716Z"/><path fill="#15120D" d="M679.506 422.333C680.061 424.852 678.025 431.131 677.279 433.933C681.996 438.791 687.749 442.024 691.345 447.971C689.127 453.755 687.349 458.146 683.846 463.363C682.456 453.176 694.925 449.469 682.758 441.882C680.677 440.583 676.587 436.872 674.929 435.021L674.424 434.449C675.819 429.898 676.959 426.366 679.506 422.333Z"/><path fill="#15120D" d="M714.582 462.861C726.82 464.57 727.997 469.601 741.656 463.694L742.049 463.985C739.714 470.641 729.444 468.897 724.031 467.743C721.322 466.89 718.226 466.105 715.461 465.339C711.249 471.329 707.825 476.245 702.394 481.238C704.216 475.529 710.752 467.867 714.582 462.861Z"/><path fill="#15120D" d="M697.746 398.102L698.897 398.565C701.166 401.097 701.533 407.005 701.987 410.534C704.548 413.038 708.309 416.224 709.471 419.533L708.64 419.6C705.458 417.922 702.904 414.905 700.386 412.283L695.971 415.324C691.005 418.606 689.522 419.941 683.56 421.235L684.34 420.935C684.412 419.902 697.554 411.706 699.61 409.789C698.873 405.914 698.042 402.032 697.746 398.102Z"/><path fill="#15120D" d="M687.076 591.635C687.909 592.114 688.687 592.628 689.23 593.427C697.713 605.906 699.166 614.987 697.457 629.241L696.319 629.621C695.108 628.355 695.648 621.542 695.764 619.404C696.345 608.648 689.401 601.145 687.076 591.635Z"/><path fill="#15120D" d="M681.245 469.059C683.323 471.134 682.879 474.534 682.996 477.718L676.746 489.287C671.006 491.489 663.932 493.472 657.64 495.826L657.024 494.609C659.077 491.608 670.77 488.727 674.754 487.724C676.901 484.103 679.62 480.022 680.184 475.817C680.561 473.007 680.282 471.948 681.245 469.059Z"/><path fill="#15120D" d="M697.611 361.608C700.627 362.276 704.88 365.516 707.338 367.334C711.795 375.938 709.148 384.908 710.733 389.745C711.033 390.66 711.345 391.572 711.671 392.478C705.413 389.851 707.773 376.814 706.799 369.235C703.969 367.623 700.124 365.676 697.821 363.49C697.326 363.02 697.579 362.708 697.611 361.608Z"/><path fill="#15120D" d="M656.641 370.596C660.65 370.29 665.61 370.423 669.697 370.424C673.024 373.399 684.105 382.033 684.62 385.312C680.098 383.977 672.925 376.375 668.547 372.63C664.975 372.706 658.552 373.764 656.641 370.596Z"/><path fill="#15120D" d="M741.073 334.493C744.511 335.769 746.09 340.469 747.219 343.608C750.579 342.192 760.745 337.317 763.369 339.325L762.764 340.36C756.549 342.387 751.845 344.242 745.797 346.766C744.622 342.113 740.847 337.092 741.073 334.493Z"/><path fill="#15120D" d="M380.369 271.059L381.114 271.87C382.028 277.481 376.649 280.402 372.427 282.438C368.681 284.244 366.069 283.791 362.23 283.222C361.814 282.5 361.936 282.541 361.802 281.653C367.705 277.863 370.015 287.581 380.369 271.059Z"/><path fill="#15120D" d="M761.58 440.638C764.744 441.355 779.144 452.366 780.754 455.4C779.824 455.355 778.274 454.941 777.541 454.409C773.262 451.299 762.787 445.625 761.58 440.638Z"/><path fill="#15120D" d="M725.487 474.44C725.952 474.916 725.985 475.189 726.29 475.833C725.735 481.935 721.855 492.952 719.014 498.524C718.509 497.907 718.449 497.648 718.087 496.928C718.591 493.366 723.894 477.817 725.487 474.44Z"/><path fill="#15120D" d="M632.931 362.636C640.466 366.758 648.896 367.957 656.081 371.958C650.25 371.997 641.389 369.638 636.173 366.952C633.99 365.829 633.614 364.914 632.931 362.636Z"/><path fill="#15120D" d="M683.051 525.752C687.759 525.035 700.568 530.543 702.702 534.506C702.292 534.52 700.515 534.487 700.312 534.382C696.659 532.507 684.908 528.527 683.051 525.752Z"/><path fill="#15120D" d="M681.921 390.71C682.494 390.895 682.542 391.045 683.051 391.459C682.662 392.957 680.449 394.392 679.127 395.464C680.683 399.683 683.044 404.911 682.53 409.277C679.696 407.206 676.501 398.321 677.47 394.749C678.075 392.519 680.091 391.732 681.921 390.71Z"/><path fill="#15120D" d="M688.086 494.632C692.861 494.637 703.684 499.155 706.993 502.825C703.287 503.023 689.957 497.614 688.086 494.632Z"/><path fill="#15120D" d="M528.863 398.965C535.574 403.576 537.403 410.988 536.314 418.694L535.384 418.598C533.972 415.764 534.863 411.439 533.795 408.831C532.506 405.681 530.508 402.768 529.065 399.442L528.863 398.965Z"/><path fill="#15120D" d="M659.646 472.491C662.216 472.338 664.631 471.92 666.957 472.837L666.874 473.57C664.59 474.826 661.822 474.724 659.187 474.863C657.317 475.616 655.514 476.63 653.626 476.329L653.93 475.486C656.208 473.731 657.051 473.489 659.646 472.491Z"/><path fill="#15120D" d="M703.38 485.743C708.269 485.8 713.557 490.82 715.152 495.347C713.199 494.777 704.742 487.981 703.38 485.743Z"/><path fill="#15120D" d="M377.624 249.428C382.958 249.761 383.441 254.897 383.658 259.111L382.711 259.121C381.307 258.291 379.888 252.947 377.624 249.428Z"/><path fill="#15120D" d="M691.02 347.988C695.039 348.323 698.703 352.139 701.065 355.216C697.686 355.185 692.066 351.155 691.02 347.988Z"/><path fill="#15120D" d="M752.354 399.272C755.973 399.215 760.976 398.331 762.66 401.837C759.294 401.806 753.19 402.786 752.354 399.272Z"/><path fill="#15120D" d="M786.949 430.24C787.756 430.291 787.662 430.384 788.459 430.792L787.991 431.639C785.353 433.102 783.363 433.401 780.432 434.064L778.936 433.377L779.263 432.515C781.728 431.214 784.213 430.848 786.949 430.24Z"/><path fill="#15120D" d="M645.38 359.384C648.128 359.278 650.885 359.018 653.563 359.583L653.638 360.215L652.103 360.966C649.58 361.373 646.959 361.716 644.49 361.06L644.238 360.328L645.38 359.384Z"/><path fill="#15120D" d="M685.822 477.037C686.794 477.382 687.735 477.809 688.635 478.313C690.951 479.592 691.155 480.445 691.72 482.535C689.013 481.26 685.919 480.233 685.822 477.037Z"/><path fill="#F5F5F5" d="M811.573 394.673C817.502 395.176 826.838 396.099 832.384 395.013C841.473 393.233 849.751 390.145 859.057 388.413C867.514 394.552 873.418 403.618 881.518 409.941C887.933 414.949 897.137 416.478 904.105 421.164C913.02 427.16 919.081 434.702 927.631 441.583C926.754 444.978 926.109 448.893 925.453 452.374C926.771 452.732 927.152 452.552 927.658 453.405C928.507 458.879 927.74 480.024 927.325 486.158C925.243 516.924 934.97 543.6 939.017 573.399C939.438 576.576 934.033 605.135 932.939 609.008C931.943 609.858 931.744 609.839 931.327 611.037C931.94 618.133 931.397 626.843 931.757 634.318C932.138 642.216 936.152 658.296 935.438 664.635C933.648 680.534 929.527 697.662 927.175 713.592C910.356 717.697 893.497 721.082 876.686 725.075C865.869 727.644 854.497 731.835 843.767 734.92C857.205 702.553 871.293 670.112 884.331 637.602C886.589 631.972 891.148 623.261 892.258 617.833C891.855 615.066 891.795 614.653 890.482 612.2C889.596 620.608 884.499 629.96 881.505 637.986C872.055 663.317 859.838 687.479 849.952 712.634C846.832 720.574 843.557 728.473 840.142 736.28C825.477 735.188 809.757 734.835 795.339 732.986C780.469 731.079 770.662 732.508 756.129 733.425C743.211 734.24 728.743 734.245 715.73 734.253C718.199 726.631 721.107 718.714 722.194 710.785C723.281 702.86 722.958 690.448 725.253 683.112C727.061 677.335 736.418 666.823 740.502 661.205C744.888 655.172 748.135 650.282 751.862 644.06C754.002 640.486 761.242 621.805 762.053 621.05L762.69 620.436C761.218 618.99 764.651 609.419 763.983 605.794C761.244 590.937 758.361 576.069 755.329 561.266C754.061 555.081 752.135 549.231 751.04 542.948C754.169 534.924 761.135 524.594 764.606 516.217C767.408 509.453 766.88 503.881 768.464 497.101C769.835 491.232 771.227 486.709 772.316 480.645C778.304 475.809 786.344 470.382 791.713 465.289C796.497 451.441 799.168 427.759 803.485 413.073C805.546 406.061 809.097 402.016 811.573 394.673Z"/><path fill="#F5F5F5" d="M925.453 452.374C926.771 452.732 927.152 452.552 927.658 453.405C928.507 458.879 927.74 480.024 927.325 486.158C925.243 516.924 934.97 543.6 939.017 573.399C939.438 576.576 934.033 605.135 932.939 609.008C931.943 609.858 931.744 609.839 931.327 611.037C931.94 618.133 931.397 626.843 931.757 634.318C932.138 642.216 936.152 658.296 935.438 664.635C933.648 680.534 929.527 697.662 927.175 713.592C910.356 717.697 893.497 721.082 876.686 725.075C865.869 727.644 854.497 731.835 843.767 734.92C857.205 702.553 871.293 670.112 884.331 637.602C886.589 631.972 891.148 623.261 892.258 617.833C891.855 615.066 891.795 614.653 890.482 612.2C890.148 605.078 887.431 590.007 888.515 584.486C890.456 574.601 901.635 561.555 904.645 551.389C906.796 544.125 905.976 536.667 907.626 529.456C909.092 523.051 910.956 516.624 912.46 510.191L925.453 452.374Z"/><path fill="#15120D" d="M925.453 452.374C926.771 452.732 927.152 452.552 927.658 453.405L914.651 512.155C911.422 526.247 908.815 536.154 907.437 550.812C906.671 558.964 892.476 575.838 891.108 585.063C889.473 594.378 893.941 605.522 892.258 617.833C891.855 615.066 891.795 614.653 890.482 612.2C890.148 605.078 887.431 590.007 888.515 584.486C890.456 574.601 901.635 561.555 904.645 551.389C906.796 544.125 905.976 536.667 907.626 529.456C909.092 523.051 910.956 516.624 912.46 510.191L925.453 452.374Z"/><path fill="#15120D" d="M931.327 611.037C927.913 602.542 926.969 608.114 920.797 603.828C919.873 602.064 919.919 602.914 920.291 601.24C921.914 601.179 927.269 604.534 929.852 604.787C931.147 604.914 932.318 607.674 932.939 609.008C931.943 609.858 931.744 609.839 931.327 611.037Z"/><path fill="#15120D" d="M762.69 620.436C771.037 623.619 804.464 665.953 813.55 673.171C814.872 674.221 822.641 681.341 823.964 682.656C826.3 692.196 825.194 698.885 825.886 708.51C826.401 715.667 829.508 727.431 828.749 734.07C826.582 727.642 823.522 714.084 823.346 707.288C823.084 697.143 823.971 694.095 821.83 683.728C817.566 680.38 813.537 677.005 809.87 672.994C796.079 657.911 781.427 643.533 768.563 627.636C766.549 625.148 764.641 622.973 762.053 621.05L762.69 620.436Z"/><path fill="#F5F5F5" d="M748.409 315.873C762.288 316.227 793.457 320.916 807.914 323.12C818.219 327.349 831.38 340.438 840.728 345.285C859.071 354.797 872.012 353.853 885.364 371.1C886.199 372.179 903.826 381.571 907.03 383.486C910.951 391.617 914.109 403.097 917.049 411.776C919.977 420.422 923.065 428.664 926.207 437.237C918.743 430.405 914.556 424.913 905.73 419.041C899 415.018 888.625 411.885 884.405 408.761C876.011 402.548 869.194 392.82 859.858 385.86C858.493 381.583 854.783 364.1 848.522 364.805C847.922 368.352 853.589 372.529 854.782 375.746C855.901 378.762 856.877 382.902 857.686 386.047C848.549 387.779 839.823 391.097 830.813 392.488C825.376 393.327 816.441 392.409 810.736 391.982C810.476 387.687 810.128 384.82 809.441 380.567C804.452 374.239 797.449 368.844 792.726 362.046C787.164 354.038 784.778 342.06 777.603 335.278C774.98 332.798 768.244 331.126 765.241 328.761C759.562 324.288 754.529 319.754 748.409 315.873Z"/><path fill="#F5F5F5" d="M541.047 81.2533C544.123 89.3227 531.902 113.844 527.287 121.374C508.108 152.667 471.153 157.916 441.795 175.276C419.837 188.261 401.871 209.174 395.779 234.339C386.325 234.711 382.913 234.403 373.964 231.003C366.67 226.653 373.617 221.57 375.479 215.957C376.113 214.043 376.315 211.556 376.528 209.529C383.295 204.332 384.271 202.602 385.937 194.254C394.626 188.928 394.812 187.357 398.926 178.23C409.35 174.634 409.288 173.542 415.75 164.942C425.644 163.283 427.316 161.905 433.997 154.391C444.295 154.459 446.62 153.677 454.042 146.601C455.635 146.777 457.231 146.916 458.829 147.02C465.798 147.42 468.475 145.872 473.484 141.358C474.4 141.385 475.316 141.402 476.231 141.41C483.883 141.471 486.304 140.455 491.711 135.112C501.937 133.394 499.959 132.414 507.722 127.377C525.21 116.031 533.117 99.6463 541.047 81.2533Z"/><path fill="#15120D" d="M374.599 220.511C378.772 220.017 388.703 221.448 391.215 225.295C387.662 225.291 379.464 223.463 375.811 222.257C374.827 221.931 375.054 221.725 374.599 220.511Z"/><path fill="#15120D" d="M382.138 208.2C386.262 208.529 396.01 209.375 395.784 214.854C391.813 212.844 382.518 210.411 381.625 209.453L382.138 208.2Z"/><path fill="#15120D" d="M401.363 180.668C406.728 179.705 414.787 182.686 415.527 188.75C413.957 188.459 410.417 185.161 408.236 184.199C406.173 183.29 402.65 182.318 401.363 180.668Z"/><path fill="#15120D" d="M390.328 194.649C394.603 194.654 403.742 195.816 403.38 201.436C397.387 197.42 393.043 198.129 389.995 196.133L390.328 194.649Z"/><path fill="#15120D" d="M417.894 167.032C423.595 167.641 429.441 171.353 429.518 177.644C428.834 177.217 428.595 177.063 428.082 176.419C425.506 173.187 421.708 170.727 418.223 168.515L417.894 167.032Z"/><path fill="#15120D" d="M435.23 156.97C441.132 157.078 445.973 162.329 445.231 168.33L444.084 167.684C440.446 160.537 437.659 160.83 435.23 156.97Z"/><path fill="#15120D" d="M454.764 149.376C460.145 148.922 464.081 154.193 463.367 159.416L462.431 158.88C459.901 154.298 458.386 153.041 454.764 149.376Z"/><path fill="#15120D" d="M474.942 142.944C479.988 143.639 482.304 147.782 481.696 152.612C480.415 151.788 475.119 144.512 474.942 142.944Z"/><path fill="#15120D" d="M492.574 136.359C497.307 137.012 498.52 138.736 499.459 143.291C497.265 142.764 494.092 138.339 492.574 136.359Z"/><path fill="#F5F5F5" d="M490.768 80.1153C490.882 80.6777 491.064 81.4632 491.001 82.0323C488.265 106.965 475.728 127.053 457.666 142.69C447.805 143.129 448.55 148.879 443.366 149.405C432.382 150.52 430.929 151.066 422.373 158.895C421.739 159.475 414.736 161.123 413.077 161.533C404.602 170.404 409.396 169.632 396.077 175.045C394.719 177.028 393.615 179.805 392.394 182.013C389.531 187.192 386.815 188.33 382.643 191.96C380.116 200.706 380.153 201.162 373.157 206.991C372.04 213.623 370.445 217.66 367.102 223.607C365.679 226.137 357.666 225.071 352.594 226.199L351.724 226.396C349.84 223.457 354.013 217.757 354.337 213.926C354.555 211.355 354.526 209.869 354.404 207.301C360.469 201.351 360.158 199.317 360.998 191.104C368.485 185.088 368.812 183.867 371.514 174.831C379.859 170.284 381.37 169.91 385.455 161.126C394.624 158.792 396.474 158.323 402.284 150.736C410.658 150.285 412.523 149.972 418.807 144.231C426.853 143.965 428.21 144.239 434.392 138.552C441.591 138.342 442.525 137.322 447.519 132.392C454.929 131.252 454.903 129.996 460.478 125.579C475.581 113.613 483.313 97.3755 490.768 80.1153Z"/><path fill="#15120D" d="M374.899 175.327C379.438 175.01 387.301 175.889 387.671 181.595C381.967 178.404 376.957 178.017 374.828 176.793L374.899 175.327Z"/><path fill="#15120D" d="M364.339 190.67C368.38 189.997 377.65 189.118 378.357 194.494C371.622 192 368.805 193.338 364.848 192.056L364.339 190.67Z"/><path fill="#15120D" d="M388.515 162.395C393.031 162.935 399.047 164.167 398.573 169.851C393.945 166.191 392.55 166.503 388.255 163.843L388.515 162.395Z"/><path fill="#15120D" d="M360.391 203.583C363.744 203.376 367.736 203.048 370.417 205.43L370.296 206.369L369.471 206.474C366.435 206.091 361.219 206.348 358.871 205.522L358.824 204.612L360.391 203.583Z"/><path fill="#15120D" d="M358.941 216.416C361.748 216.304 364.23 215.914 366.414 217.902L365.781 218.593L363.423 218.57C360.09 218.93 359.058 219.125 355.716 218.634L355.252 217.999C356.53 216.938 357.352 216.853 358.941 216.416Z"/><path fill="#15120D" d="M404.134 152.977C408.665 152.984 412.258 155.544 412.528 160.28C411.075 159.456 404.656 154.628 404.134 152.977Z"/><path fill="#15120D" d="M420.334 145.933C424.275 145.99 426.89 148.614 426.237 152.611C424.459 151.578 420.833 147.956 420.334 145.933Z"/><path fill="#15120D" d="M436.554 140.002C440.696 140.465 441.445 142.717 441.858 146.501C439.35 144.773 437.643 142.88 436.554 140.002Z"/><path fill="#F5F5F5" d="M280.282 724.707C286.954 728.957 296.695 730.011 305.995 736.432C305.094 737.533 303.476 739.428 302.473 740.3C297.806 744.358 280.706 747.074 274.861 746.381L274.574 745.547L276.357 742.355C277.9 739.578 282.359 732.631 281.577 729.897C275.421 732.125 277.37 743.358 268.398 742.501L267.979 741.746C271.561 735.708 275.678 730.006 280.282 724.707Z"/><path fill="#F5F5F5" d="M243.941 661.41C251.702 666.974 264.108 662.536 267.852 667.247C267.767 674.325 247.973 682.257 241.861 683.728C241.173 680.877 246.647 671.661 245.564 667.788L244.483 667.71C241.548 670.789 241.779 676.754 238.126 680.027C236.401 680.537 236.824 680.705 235.487 680.172C235.598 678.428 242.744 664.022 243.941 661.41Z"/><path fill="#F5F5F5" d="M289.307 630.963C292.195 615.645 321.426 596.734 333.472 586.449C335.826 584.438 339.618 583.155 342.551 582.233C325.655 596.237 302.905 613.993 289.9 630.94L289.307 630.963Z"/><path fill="#15120D" d="M567.432 661.21C589.964 657.407 606.929 691.323 601.826 709.934C601.061 712.722 600.481 714.754 599.421 717.463C621.889 725.284 645.043 732.161 667.5 740.038C674.019 742.324 690.621 747.289 695.77 750.443C703.69 762.32 695.389 780.868 682.456 777.693C672.303 775.201 657.713 768.685 647.615 764.731L576.126 736.494C560.419 745.68 548.408 749.669 531.562 755.32C542.09 757.414 572.789 762.852 580.846 766.652C585.702 768.735 607.305 776.485 608.757 780.453C607.603 783.238 598.852 788.217 595.952 790.053C569.22 788.67 549.774 783.996 523.872 778.644L454.268 764.373C450.271 767.374 447.929 768.601 443.292 770.314C439.318 769.139 437.965 768.784 434.413 766.76C429.936 759.634 429.977 748.108 433.997 740.825C436.698 736.032 441.218 732.532 446.533 731.115C455.031 728.889 458.727 733.347 460.08 740.949C466.899 741.742 475.086 743.773 481.913 745.282C478.415 739.419 476.051 734.008 475.014 727.212C471.869 706.592 479.585 697.502 495.919 687.259C517.69 673.704 542.044 664.833 567.432 661.21Z"/><path fill="#FF5340" d="M569.595 665.305C586.372 664.686 598.462 686.961 597.948 701.445C597.73 707.583 597.379 710.4 595.241 716.142C583.874 712.407 560.671 699.805 555.888 715.742C551.923 728.951 561.61 731.059 571.039 734.441C559.843 740.725 550.208 744.509 538.034 748.558C533.334 750.198 526.311 752.01 521.466 752.968C536.825 730.862 525.006 692.805 496.623 692.359C518.681 678.122 543.588 668.888 569.595 665.305Z"/><path fill="#FF5340" d="M565.007 711.25C568.6 711.243 596.06 720.864 601.972 722.822C630.183 731.922 658.297 741.318 686.311 751.008C678.647 756.636 677.117 761.621 677.984 770.902L678.123 771.516L677.094 771.692C663.558 766.313 561.767 727.296 559.903 724.593C558.927 723.179 558.433 721.296 558.722 719.596C559.377 715.743 561.973 713.339 565.007 711.25Z"/><path fill="#FF5340" d="M496.746 695.193C522.642 694.826 535.435 733.912 517.782 752.785L509.335 750.789C504.138 750.052 493.512 747.545 488.328 746.354C475.763 732.133 472.523 699.291 496.746 695.193Z"/><path fill="#FF5340" d="M587.194 785.025C579.892 784.478 572.333 783.828 565.117 782.591C552.379 780.405 452.063 760.273 449.559 758.647C448.548 757.99 448.171 757.127 447.93 755.977C447.58 754.302 447.612 752.376 448.581 750.932C451.012 750.133 455.217 751.81 457.932 752.329C481.424 756.94 504.883 761.713 528.308 766.65C537.867 768.499 562.773 772.608 570.523 776.406C573.358 778.356 582.889 782.383 587.194 785.025Z"/><path fill="#FF5340" d="M530.715 764.527C505.352 758.959 479.574 754.321 454.165 748.879C452.532 748.529 451.902 748.061 450.915 746.86C451.566 745.652 453.123 744.162 454.134 744.333C485.294 749.617 517.624 757.05 548.679 763.149C555.16 764.422 567.965 767.438 571.274 767.541L571.595 766.887C573.46 767.794 574.924 768.173 576.933 768.588L576.008 768.953C573.965 770.07 570.4 771.413 569.661 772.855C570.661 773.889 571.114 773.997 572.398 774.577L570.523 776.406C562.773 772.608 537.867 768.499 528.308 766.65L530.715 764.527Z"/><path fill="#15120D" d="M530.715 764.527L565.619 771.556C567.956 770.541 569.628 769.816 571.86 768.561C571.488 767.698 571.726 768.009 571.274 767.541L571.595 766.887C573.46 767.794 574.924 768.173 576.933 768.588L576.008 768.953C573.965 770.07 570.4 771.413 569.661 772.855C570.661 773.889 571.114 773.997 572.398 774.577L570.523 776.406C562.773 772.608 537.867 768.499 528.308 766.65L530.715 764.527Z"/><path fill="#FF5340" d="M689.952 752.316C700.059 756.631 694.322 770.607 685.984 774.076C680.004 773.052 678.716 768.583 680.478 763.077C682.205 757.679 684.902 754.875 689.952 752.316Z"/><path fill="#FF5340" d="M576.008 768.953C583.922 772.574 595.678 776.924 602.709 780.454C600.326 782.104 596.927 784.613 594.533 786.052C587.243 781.955 579.869 778.317 572.398 774.577C571.114 773.997 570.661 773.889 569.661 772.855C570.4 771.413 573.965 770.07 576.008 768.953Z"/><path fill="#FF5340" d="M453.372 737.092C454.931 737.628 454.243 737.178 455.301 738.744C454.924 741.708 450.071 743.441 447.482 746.345C440.791 753.848 448.783 761.172 448.791 762.938L446.728 764.304L444.363 765.122C439.331 762.982 441.112 751.695 442.04 747.382C443.269 741.674 448.629 739.749 453.372 737.092Z"/><path fill="#FF5340" d="M448.907 734.733L450.871 735.102C450.829 736.713 445.293 737.753 442.49 741.309C436.984 748.294 439.183 757.104 439.551 765.222C437.962 764.194 437.168 763.318 436.488 761.549C434.393 756.009 434.573 749.865 436.987 744.457C439.739 738.441 443.14 736.882 448.907 734.733Z"/><path fill="#15120D" d="M973.634 713.524C976.608 713.242 1003.1 720.538 1007.67 721.846C1013.61 731.296 1017.74 734.099 1021.09 746.018C1024.53 758.291 1021.19 756.226 1010.14 760.431C1005.38 762.241 996.536 767.174 991.544 766.865C985.751 765.841 979.995 764.164 973.912 763.235C964.831 761.849 949.028 762.041 940.937 758.567C939.562 755.896 940.867 743.551 941.135 739.763C947.708 733.316 965.327 720.37 973.634 713.524Z"/><path fill="#F5F5F5" d="M975.369 717.973L1002.6 725.227L994.177 732.909C990.845 733.335 987.056 733.492 984.272 735.262L985.007 735.841C988.427 736.42 991.839 735.736 995.285 735.256C997.765 733.497 1002.85 728.607 1005.25 726.407C1007.42 729.616 1010.45 732.94 1012.28 736.097C1015.04 740.847 1016.36 747.331 1018.27 752.877C1012.41 754.998 1006.57 757.192 1000.77 759.458L993.604 762.426C990.747 757.055 984.186 745.552 978.803 743.633C972.754 741.477 951.161 752.03 945.069 754.969C945.139 750.564 945.235 746.159 945.359 741.755C955.438 733.923 965.442 725.996 975.369 717.973Z"/><path fill="#F5F5F5" d="M977.594 744.969C981.749 747.009 988.233 757.899 990.45 762.186C981.152 760.011 976.156 758.773 966.639 758.215C960.618 757.65 954.604 757.002 948.601 756.272C956.798 751.87 968.66 747.883 977.594 744.969Z"/><path fill="#15120D" d="M897.736 759.477C898.71 759.649 918.925 776.552 918.958 778.791C916.533 783.956 905.332 788.987 900.076 791.159C898.05 791.996 895.712 791.42 893.603 790.981C869.712 785.775 866.96 790.688 878.805 766.183C884.091 764.057 892.419 761.154 897.736 759.477Z"/><path fill="#F5F5F5" d="M896.567 764.166C897.259 764.553 900.365 767.457 901.129 768.111C905.256 771.639 909.537 774.834 913.884 778.081C909.497 781.502 905.55 783.762 900.768 786.461C898.259 787.651 891.552 780.553 889.336 778.606C887.944 773.446 887.659 772.707 883.8 769.097C888.419 767.556 892.102 766.04 896.567 764.166Z"/><path fill="#F5F5F5" d="M881.375 770.772C886.108 773.522 885.557 776.868 888.596 780.981C889.702 782.478 892.679 784.511 894.318 785.831L894.122 786.347L891.628 786.258C886.464 785.126 881.285 784.066 876.091 783.078C877.739 779.006 879.625 774.819 881.375 770.772Z"/><path fill="#15120D" d="M972.947 785.104C976.125 785.511 987.74 791.572 988.712 794.837C990.361 800.377 979.662 801.533 976.302 802.177C965.059 804.574 965.566 802.692 960.213 793.367C963.397 790.571 969.165 787.352 972.947 785.104Z"/><path fill="#F5F5F5" d="M973.835 790.131C976.366 791.342 981.58 793.328 982.922 795.366L982.477 796.206L979.643 797.065L969.949 799.051L973.835 790.131Z"/></svg>