<?xml version="1.0" encoding="utf-8" ?><svg xmlns="http://www.w3.org/2000/svg" width="1005" height="515" viewBox="13 357 1005 515"><path fill="#15120D" d="M265.903 370.229C297.955 369.382 348.188 375.334 371.858 398.139C381.966 407.878 377.042 445.137 375.846 459.164C418.971 454.286 472.359 452.922 515.5 452.92C543.387 452.814 571.272 453.565 599.113 455.173C612.719 455.904 628.118 456.684 641.597 458.163C642.231 446.163 642.767 437.856 652.342 428.717C677.223 404.968 725.347 398.121 758.696 397.984C792.57 397.845 841.435 404.816 866.784 428.849C878.688 440.136 877.354 452.404 877.342 467.391C880.108 466.598 882.634 465.917 885.458 465.372C904.613 461.677 923.084 470.371 928.4 489.97C930.399 497.338 930.249 502.315 929.835 509.927C952.753 515.7 976.848 525.53 999.04 533.703C1001.24 534.512 1005.35 537.313 1003.94 540.112C1002.73 540.677 1001.33 540.646 1000.1 540.149C976.545 530.674 952.793 523.05 928.584 515.462C925.157 525.835 922.813 529.438 916.339 538.134C926.353 546.87 933.012 553.2 938.536 565.82C943.788 577.817 942.809 595.199 937.459 606.993C924.336 635.926 895.221 651.428 867.465 662.581C875.598 665.287 883.815 667.733 892.104 669.917C900.331 672.083 915.097 674.101 918.856 682.021C922.117 688.889 913.377 697.947 907.301 699.579C882.528 706.234 845.709 684.771 823.995 674.352C798.413 679.667 775.075 680.462 749.193 680.342C738.21 688.885 726.431 700.796 715.755 710.016C702.328 721.612 688.778 732.32 674.919 743.378C658.461 756.528 643.56 772.409 627.459 786.204C616.814 795.431 605.943 804.395 594.856 813.087C577.962 826.185 560.784 838.114 545.419 853.172C543.245 855.303 540.538 857.503 538.075 859.287C528.676 856.193 515.818 846.665 506.068 842.622C490.796 836.29 474.831 831.619 459.72 824.945C440.847 816.725 423.478 805.672 404.677 797.296C392.516 791.798 379.859 787.448 367.452 782.556C360.569 779.842 353.385 777.419 346.625 774.439C323.182 764.103 300.288 752.426 277.224 741.261C270.467 738.009 263.691 734.797 256.896 731.625C252.812 729.719 244.492 727.121 243.634 722.559C244.174 720.913 246.949 718.412 248.403 717.399C271.571 701.255 295.754 686.315 319.071 670.413C273.713 676.843 227.777 675.2 182.592 663.252C140.207 652.046 73.4251 619.888 87.5401 565.161C92.882 544.45 116.041 528.718 133.998 518.89C129.896 515.97 126.763 513.02 123.146 509.542C93.1265 517.092 62.8748 528.344 33.9374 539.162C31.5947 540.038 27.0452 541.051 25.8789 538.152C25.9726 537.959 26.0486 537.757 26.1601 537.575C30.3189 530.768 106.94 508.115 118.993 504.533C105.944 488.89 98.8344 466.286 107.554 447.078C117.112 426.024 138.221 420.892 158.084 430.045C157.897 418.841 156.56 405.216 165.095 397.141C188.104 375.369 236.031 371.02 265.903 370.229Z"/><path fill="white" d="M488.797 566.93C511.602 574.554 534.327 584.279 557.374 591.573C564.493 593.826 571.713 598.122 578.959 599.836C598.845 657.864 686.506 676.737 740.479 679.915C727.884 690.937 715.886 702.551 702.996 713.262C685.12 728.026 666.803 741.715 649.95 757.692C629.654 776.933 608.088 796.166 585.598 812.826C568.356 825.598 552.803 837.996 537.194 852.834C530.682 849.609 522.381 844.689 515.78 841.13C499.835 832.206 476.377 826.646 459.068 818.39C442.187 810.337 426.715 801.22 409.966 793.347C390.398 784.15 368.472 777.671 348.629 769.046C330.82 761.304 312.952 752.3 295.452 743.755L251.34 722.607C264.342 712.821 282.564 701.66 296.338 692.47C304.625 686.84 312.981 681.31 321.402 675.882C323.818 674.324 332.496 668.589 334.723 667.906C341.212 665.917 349.362 664.338 356.099 662.492C370.161 658.559 383.791 653.216 396.779 646.544C420.603 634.405 439.819 618.666 448.279 592.675C459.904 584.69 476.656 574.542 488.797 566.93Z"/><path fill="white" d="M371.837 424.403C372.548 428.436 371.436 442.04 371.031 446.715C369.093 471.894 363.203 496.611 353.577 519.959C344.752 540.838 333.152 562.269 326.962 583.738C318.484 613.142 230.644 611.161 213.14 590.212C211.036 587.694 205.047 569.925 203.252 565.489C200.546 558.982 197.718 552.526 194.77 546.125C184.154 521.151 172.741 499.56 168.768 471.731C168.325 468.627 167.785 468.045 166.237 465.341L167.418 464.407C166.178 449.725 164.683 440.002 164.039 424.529C202.362 461.662 334.24 462.184 371.837 424.403Z"/><path fill="white" d="M486.336 458.73C536.694 457.229 591.393 459.787 641.477 463.739C642.701 483.997 643.716 494.415 648.273 514.299C621.815 524.483 591.815 539.346 580.29 567.16C576.756 575.691 577.169 584.549 577.89 593.572C560.645 586.124 542.071 580.089 524.25 573.961C517.07 571.357 509.92 568.673 502.8 565.909C498.329 564.199 492.82 561.79 488.226 560.918C478.423 565.629 459.465 578.87 449.449 585.267C450.014 574.986 450.093 567.085 445.343 557.651C430.595 528.361 395.089 513.893 366.093 503.806C370.007 489.685 372.632 479.569 374.749 465.026C411.851 461.516 449.074 459.416 486.336 458.73Z"/><path fill="white" d="M364.042 509.475C492.148 552.015 450.964 622.926 343.684 647.019C304.915 655.725 264.522 657.36 225.099 652.591C185.195 647.764 126.101 632.346 100.338 599.497C75.2808 564.924 110.676 538.127 138.955 522.982C149.717 529.832 160.418 535.791 171.12 542.503C181.257 548.861 182.202 555.514 194.32 559.983C195.164 561.493 196.308 564.329 197.047 566.004C189.236 571.275 181.938 577.91 183.07 588.193C183.771 594.558 188.73 601.325 194.117 604.859C223.439 623.915 263.267 625.124 297.292 621.01C314.086 618.979 357.879 607.881 353.786 582.598C352.568 575.077 345.893 569.623 339.652 565.682C347.467 546.389 356.822 529.177 364.042 509.475Z"/><path fill="white" d="M647.61 464.912C648.593 465.879 649.69 467.676 650.719 468.804C692.402 514.497 835.941 514.7 871.407 464.506C869.772 498.013 864.129 525.135 848.572 555.26C839.934 570.348 821.626 598.579 806.383 606.43C781.351 619.324 746.89 617.91 720.699 610.074C715.337 604.424 712.721 599.919 705.784 595.041C701.805 591.867 693.942 589.235 690.741 585.535C663.285 553.801 647.753 506.135 647.61 464.912Z"/><path fill="white" d="M746.267 404.205C781.628 401.948 830.305 408.09 859.279 429.912C871.076 438.798 876.06 455.348 864.713 467.008C842.698 489.632 802.944 496.357 772.727 498.289C740.141 501.093 684.011 493.204 658.935 471.547C654.071 467.796 647.63 459.16 647.946 452.868C649.849 414.921 719.014 405.898 746.267 404.205Z"/><path fill="#15120D" d="M783.31 409.065C804.556 409.14 833.072 417.37 851.018 428.632C862.898 436.087 870.793 451.373 860.461 463.55C846.114 480.459 816.034 488.19 794.247 491.001C752.531 496.146 702.386 494.254 666.142 470.843C654.918 463.593 648.923 448.361 658.533 437.347C674.135 419.467 704.115 412.423 726.763 409.686C729.361 409.335 733.119 408.565 734.786 411.018C733.483 412.781 727.881 413.179 725.511 413.534C709.607 415.898 693.891 419.818 679.288 426.64C667.96 431.856 651.642 443.852 659.843 458.206C667.784 472.105 689.214 478.787 703.489 482.872C736 469.5 783.084 471.081 816.008 482.805C829.246 479.106 855.879 470.445 860.421 454.991C865.86 436.483 838.925 425.594 825.636 421.08C817.961 418.474 809.401 416.594 801.336 414.899C795.889 413.754 788.803 413.525 783.518 411.94C782.655 410.436 782.942 411.289 783.31 409.065Z"/><path fill="white" d="M748.112 477.705C766.982 476.238 791.109 478.675 808.968 484.547C794.838 487.214 785.433 488.416 771.124 489.329C749.153 490.342 731.425 488.485 710.042 484.463C724.343 480.016 733.55 478.768 748.112 477.705Z"/><path fill="white" d="M252.163 376.705C280.609 374.686 362.285 378.551 371.777 410.917C370.784 415.233 369.903 417.962 366.594 421.252C348.468 439.276 307.686 444.895 283.375 446.117C250.82 448.719 202.933 443.937 174.838 426.085C167.068 421.148 160.059 410.361 168.083 402.478C188.12 382.79 225.54 378.681 252.163 376.705Z"/><path fill="#15120D" d="M253.093 379.712C279.216 377.427 341.793 382.347 358.772 399.344C391.548 432.153 296.65 442.24 282.411 442.555C253.341 444.372 202.848 441.131 178.063 423.691C174.733 421.261 170.464 416.653 170.316 412.335C169.792 397.081 193.722 389.859 204.749 386.802C220.585 382.413 236.949 380.68 253.093 379.712Z"/><path fill="white" d="M265.001 383.234C287.224 382.858 353.39 386.424 361.737 410.815C360.226 416.434 359.09 417.658 354.59 420.97C333.728 406.18 296.698 403.302 271.577 402.523C244.814 402.146 203.449 405.564 181.397 421.461C181.041 421.199 180.69 420.931 180.344 420.658C166.822 409.937 178.728 401.062 189.662 396.381C213.257 386.281 239.584 383.803 265.001 383.234Z"/><path fill="white" d="M254.862 408.713C282.267 406.929 325.752 410.261 349.1 424.638C329.314 434.577 303.452 437.512 281.453 438.75C251.654 440.732 213.972 436.741 186.668 424.592C206.119 412.718 232.539 410.241 254.862 408.713Z"/><path fill="white" d="M912.203 542.588C920.957 549.238 932.386 561.966 934.646 572.906C944.491 620.54 871.903 644.039 838.315 652.677C829.043 649.484 819.811 646.174 810.623 642.746C801.711 639.473 792.824 636.132 783.962 632.724C792.523 632.186 801.33 629.985 809.585 627.746C828.766 622.545 861.838 604.489 838.937 581.659L839.275 581.158C840.067 579.964 840.968 578.606 842.321 577.983C865.976 567.093 893.225 561.738 912.203 542.588Z"/><path fill="white" d="M648.471 520.487L649.631 520.613C651.117 523.018 652.238 528.12 653.224 531.019C659.694 550.048 669.044 566.444 680.657 582.805C667.457 578.379 634.218 569.753 624.711 586.006C618.694 596.293 629.929 611.662 636.986 619.198C652.662 635.935 676.057 648.14 699.583 645.284C712.387 643.8 723.631 636.341 736.807 637.834C753.359 639.861 776.242 650.519 791.312 658.016L793.622 659.364L793.325 659.862C786.188 660.924 773.159 661.293 765.797 661.383C724.226 661.763 682.113 656.207 643.297 640.665C616.133 629.788 571.055 603.057 586.693 567.481C597.113 543.774 625.417 529.697 648.471 520.487Z"/><path fill="#FF5340" d="M641.118 582.616C662.706 580.788 695.424 590.533 710.435 607.109C715.15 612.314 719.783 623.026 726.179 625.565C729.736 626.977 738.902 627.137 743.37 627.642C748.831 628.303 754.229 629.408 759.511 630.946C773.201 634.878 786.551 640.059 799.913 644.96C822.048 653.079 844.131 661.367 866.604 668.515C873.442 670.69 909.642 680.031 912.807 682.665C913.559 683.291 914.213 684.24 914.244 685.232C914.3 687.052 913.1 688.483 911.858 689.692C906.553 694.852 900.61 695.648 893.596 695.472C871.758 692.646 845.891 678.391 825.975 668.792C809.715 660.955 793.652 652.255 777.025 644.982C763.331 638.993 748.954 632.142 733.698 631.901C723.957 631.747 716.948 634.861 707.783 637.623C692.072 642.356 676.365 639.365 662.067 631.51C649.025 624.064 634.349 611.604 629.462 596.937C626.211 587.178 633.44 584.389 641.118 582.616Z"/><path fill="#15120D" d="M634.763 598.694C637.6 600.801 640.694 605.604 643.45 608.226C659.278 623.289 684.846 638.573 707.275 629.713C708.537 629.215 709.511 629.557 710.526 630.156C710.631 631.996 710.807 631.12 709.786 632.828C697.071 638.006 684.413 636.644 671.007 631.213C659.549 626.57 640.169 614.013 633.882 602.128C633.229 600.893 634.132 599.806 634.763 598.694Z"/><path fill="white" d="M98.6877 604.361C100.834 606.04 103.227 609.041 105.463 611.003C179.499 675.967 369.848 676.798 436.961 604.128C435.401 607.064 434.142 608.789 432.213 611.489C421.581 624.662 405.971 635.647 390.651 642.968C325.645 674.03 236.897 675.642 169.172 652.917C145.386 644.935 109.951 627.253 98.6877 604.361Z"/><path fill="white" d="M135.709 431.567C145.541 430.818 150.464 432.708 158.898 437.303C159.58 444.748 161.193 455.55 162.575 463.223C162.701 463.925 164.752 464.705 164.874 466.782L163.861 466.721C160.819 464.185 159.117 460.56 157.573 456.945C150.341 440.014 125.531 440.237 121.355 459.523C119.252 469.236 122.412 479.567 127.785 487.919C137.408 502.874 161.213 519.853 178.645 523.602C182.987 532.214 187.871 544.105 191.871 553.144C187.278 549.55 182.372 543.424 178.273 540.322C169.986 534.586 162.217 529.961 153.27 524.972C125.849 509.683 97.7903 478.531 114.881 445.668C118.896 437.947 127.233 433.603 135.709 431.567Z"/><path fill="white" d="M338.145 569.321C346 574.398 353.754 583.782 348.21 593.004C326.611 628.932 199.426 627.456 186.998 588.748C186.404 580.395 191.461 573.912 198.512 570.046C206.403 588.386 204.412 597.488 226.855 605.028C255.202 614.551 287.356 615.195 315.091 603.176C332.423 595.664 332.495 585.215 338.145 569.321Z"/><path fill="white" d="M889.994 470.676C921.682 468.579 931.047 498.17 919.28 522.915C909.276 543.952 886.059 554.694 865.466 562.357C858.668 564.886 851.8 567.795 844.772 570.176C847.408 566.085 849.958 561.94 852.419 557.741L856.232 551.141L857.026 551.059C873.076 549.326 892.733 538.723 903.943 525.642C917.095 510.295 918.386 481.314 890.196 484.064C882.861 484.78 877.239 491.543 873.172 497.563C874.168 489.902 875.313 481.956 875.704 474.266C881.117 472.294 884.302 471.408 889.994 470.676Z"/><path fill="white" d="M590.792 610.891C591.872 611.676 593.15 613.151 594.131 614.159C603.155 623.434 612.783 630.295 624.293 636.261C664.466 657.086 711.174 664.709 755.963 665.302C764.019 665.424 772.077 665.226 780.118 664.708C787.44 664.199 796.323 662.819 803.41 664.226C805.357 664.612 813.345 668.601 814.69 669.948L813.915 670.273C766.133 677.648 717.638 675.906 670.978 662.438C643.063 654.381 605.206 637.182 590.792 610.891Z"/><path fill="white" d="M137.403 450.519C153.853 450.173 150.603 465.279 162.73 473.576C163.975 479.933 165.413 486.252 167.04 492.522C162.805 493.531 158.586 494.602 154.382 495.735L144.817 498.019C137.694 492.58 130.925 483.807 128.295 475.189C125.2 465.048 125.341 453.905 137.403 450.519Z"/><path fill="white" d="M836.623 584.682C840.088 588.899 842.855 592.887 842.263 598.731C841.707 604.23 837.186 609.256 832.796 612.409C819.76 621.772 802.97 626.081 787.298 628.455C784.249 628.917 776.55 629.978 773.675 629.253C765.452 627.179 758.581 624.598 750.117 622.799C751.633 622.03 754.253 622.059 756.013 621.947C775.035 621.556 794.783 620.189 811.555 610.231C821.187 604.513 829.684 593.427 836.623 584.682Z"/><path fill="white" d="M877.876 501.344C885.184 502.601 898.692 506.797 906.214 508.909C903.815 515.767 902.394 518.24 897.688 523.615L896.641 524.659C896.34 524.723 896.04 524.787 895.739 524.851C888.331 521.084 878.543 516.762 871.022 513.997C871.479 511.682 871.954 509.371 872.446 507.064C874.083 505.572 876.31 503.026 877.876 501.344Z"/><path fill="white" d="M927.741 612.017L927.759 612.692C926.361 615.403 923.867 618.301 921.897 620.66C906.936 638.573 880.366 652.32 858.158 659.647L849.025 656.53L845.543 655.122C875.903 646.411 905.452 635.617 927.741 612.017Z"/><path fill="white" d="M869.361 519.657C875.249 521.405 886.27 526.588 891.385 529.496C886.94 533.511 881.485 536.273 876.126 538.813C870.674 541.428 866.303 543.007 860.493 544.627C863.754 535.984 866.467 528.482 869.361 519.657Z"/><path fill="white" d="M893 489.614C903.267 489.66 905.832 493.483 907.069 503.058C904.251 502.5 901.5 501.645 898.735 500.852L881.531 496.169C885.501 491.748 887.037 490.735 893 489.614Z"/><path fill="white" d="M167.01 498.599L168.226 498.546C169.517 499.819 169.969 502.094 170.531 503.906C167.401 505.008 164.246 506.215 161.101 507.254C158.722 508.039 158.664 507.987 156.798 507.03L150.328 502.512C155.73 501.483 161.627 499.913 167.01 498.599Z"/><path fill="white" d="M750.117 622.799C743.547 621.783 737.113 621.447 730.525 620.84C728.064 620.614 726.65 619.719 725.233 617.806C727.255 617.517 732.974 619.335 735.462 619.766C742.328 620.957 749.08 621.428 756.013 621.947C754.253 622.059 751.633 622.03 750.117 622.799Z"/><path fill="white" d="M172.389 509.624C173.264 510.612 174.728 515.563 175.209 517.043L170.778 515.109L164.89 511.997L172.389 509.624Z"/></svg>